<svg xmlns="http://www.w3.org/2000/svg" xmlns:xlink="http://www.w3.org/1999/xlink" width="365.001" height="364.999" viewBox="0 0 365.001 364.999">
  <defs>
    <clipPath id="clip-path">
      <path id="Path_231" data-name="Path 231" d="M-6211.692-785.831c-1.444-1.022-2.184-1.267-2.871-3.346A161.115,161.115,0,0,0-6220.117-807c-3.381-8.607-7.417-14.813-7.712-16.393s1.313-2.013,2.613-1.933,5.427.209,11.412.321c5.4.1,11.377-.368,12.288-.321a4.5,4.5,0,0,1,3.869,3.134c.755,1.809,3.091,6.82,6.091,18.574s5.291,25.193,5.556,26.4c.509,2.32.618,4.123-1.777,3.278S-6210.248-784.809-6211.692-785.831Z" transform="translate(7311.071 1785.723)" fill="#77009b" opacity="0.7"/>
    </clipPath>
    <clipPath id="clip-path-2">
      <path id="Path_232" data-name="Path 232" d="M-6193.069-808.2a87.56,87.56,0,0,0,1.955-12.712c.51-5.282.6-8.849.725-10.833s.444-6.16-5.9-3.137c-1.683.8-4.528,2.011-7.193,3.236-4,1.836-8.3,3.57-9.855,4.284-2.427,1.113-2.938,3.2-3.4,5.573s-1.173,8.493-3.474,18.306c-2.677,11.42-6.712,24.553-6.9,25.322-.343,1.394.373,3.27,2.213,1.834s27.166-24.445,28.94-26.435C-6193.781-805.21-6193.984-805.722-6193.069-808.2Z" transform="matrix(0.883, -0.469, 0.469, 0.883, 6991.972, -1230.526)" fill="#77009b" opacity="0.7"/>
    </clipPath>
    <clipPath id="clip-path-3">
      <path id="Path_233" data-name="Path 233" d="M-6198.54-794.226a135.884,135.884,0,0,0,4.279-19.015c1.42-9.567,1.845-18.159,1.956-19.784.216-3.18.165-6.012-6.049-2.876a163.339,163.339,0,0,0-14.784,8.6c-2.535,1.667-2.717,3.735-3.285,5.729s-1.281,6.115-3.115,12.977-4.513,15.833-4.936,17.158a2.442,2.442,0,0,0,1.825,3.218c1.633.371,19.127-.858,21.132-2.057S-6199.217-792.151-6198.54-794.226Z" transform="translate(6072.863 -2893.377) rotate(-45)" fill="#77009b" opacity="0.7"/>
    </clipPath>
    <clipPath id="clip-path-4">
      <path id="Path_234" data-name="Path 234" d="M-6198.353-794.8c.331-1.015,2.687-9.243,4.609-17.937s1.563-10.688,2.042-14.734-.423-4.858-4.495-3.09c-1.6.695-3.565,1.61-5.79,2.7a79.977,79.977,0,0,0-7.254,3.931c-2.535,1.667-2.717,3.735-3.285,5.729s-1.236,4.046-3.971,11.246-6.471,14.614-6.894,15.939a2.442,2.442,0,0,0,1.825,3.218c1.633.371,18.23-1.851,20.235-3.051S-6199.03-792.722-6198.353-794.8Z" transform="matrix(0.407, -0.914, 0.914, 0.407, 4341.191, -4453.521)" fill="#77009b" opacity="0.7"/>
    </clipPath>
    <clipPath id="clip-path-5">
      <path id="Path_235" data-name="Path 235" d="M-6203.469-790.034a157.979,157.979,0,0,0,5.13-18.693,130.525,130.525,0,0,0,2.525-15.862c.479-4.46.225-5.266-4.495-3.407s-6.353,2.26-8.208,3.625a6.778,6.778,0,0,0-3.039,4.54c-.568,2.2-2.206,7.582-4.941,15.519s-6.306,15.117-6.729,16.578a2.731,2.731,0,0,0,1.825,3.548,28.892,28.892,0,0,0,7.175-.062c3.738-.373,6.71-.726,7.778-1.431C-6204.44-787-6204.146-787.747-6203.469-790.034Z" transform="translate(2380.53 -5251.505) rotate(-85)" fill="#77009b" opacity="0.7"/>
    </clipPath>
    <clipPath id="clip-path-6">
      <path id="Path_236" data-name="Path 236" d="M-6210.881-790.852a7.347,7.347,0,0,1-3.761-3.381c-.875-1.655-2-5.227-5.129-12.949s-7.772-14.943-8.311-16.885a2.128,2.128,0,0,1,2.139-2.844c.986-.03,23.044.794,24.86.888s2.764.587,3.922,2.611a168.721,168.721,0,0,1,7.556,17.073c2.467,6.624,4.814,13.383,5.08,14.594.509,2.32-1.067,4.089-2.329,3.972S-6209.268-790.143-6210.881-790.852Z" transform="translate(7343.917 874.095) rotate(-8)" fill="#77009b" opacity="0.7"/>
    </clipPath>
    <clipPath id="clip-path-7">
      <path id="Path_237" data-name="Path 237" d="M-6217.191-801.8a6.114,6.114,0,0,1-3.233-2.56c-.753-1.253-1.269-4.208-3.093-9.929s-3.826-9.668-4.288-11.138.8-2.126,1.839-2.154c.454-.012,6.261-.27,11.9-.164,4.333.081,8.567.525,9.292.558a3.576,3.576,0,0,1,3.372,1.977c1,1.533,2.394,4.6,5.173,13.373a137.825,137.825,0,0,1,4.075,16.926,1.8,1.8,0,0,1-2.418,2.162c-.588-.231-5.013-1.544-10.925-3.935C-6210.54-798.725-6216.519-801.541-6217.191-801.8Z" transform="matrix(0.875, -0.485, 0.485, 0.875, 6885.391, -1395.218)" fill="#77009b" opacity="0.7"/>
    </clipPath>
    <clipPath id="clip-path-8">
      <path id="Path_238" data-name="Path 238" d="M-6217.279-801.188a5.618,5.618,0,0,1-2.889-2.56c-.672-1.253-.517-3.967-1.76-9.975a70.536,70.536,0,0,0-2.431-9.124,2.883,2.883,0,0,1,1.976-3.454c.677-.218,4.492-1.879,8.364-3.066a44.1,44.1,0,0,1,8.568-1.85,3.153,3.153,0,0,1,3.012,1.977c.89,1.533,2.873,8.758,4.434,17.034s2.236,15.042,2.516,17.044-1.323,2.994-2.343,2.546c-.508-.223-4.464-2.328-9.3-4.46C-6211.455-798.984-6216.657-800.918-6217.279-801.188Z" transform="translate(5337.161 -3662.603) rotate(-54)" fill="#77009b" opacity="0.7"/>
    </clipPath>
    <clipPath id="clip-path-9">
      <path id="Union_3" data-name="Union 3" d="M7277.85,1454.9c-1.134-.086-6.384-.6-10.716-.6s-9.582.516-10.714.6-2.15-1.3-2.769-2.267a57.28,57.28,0,0,1-3.1-7.9c-1.264-3.913-1.684-6.669-1.955-7.437a2.618,2.618,0,0,1,1.955-3.716,61.971,61.971,0,0,1,33.175,0,2.616,2.616,0,0,1,1.955,3.714c-.271.768-.691,3.524-1.955,7.437a57.213,57.213,0,0,1-3.1,7.9c-.6.94-1.575,2.271-2.666,2.271Q7277.9,1454.905,7277.85,1454.9Z" transform="translate(-6274.135 -567.612)" fill="#77009b" opacity="0.7"/>
    </clipPath>
    <clipPath id="clip-path-10">
      <path id="Union_4" data-name="Union 4" d="M7287.94,1448.259a125.45,125.45,0,0,0-17.959-1.74v0a125.612,125.612,0,0,0-17.959,1.738c-1.39.263-1.557-1.544-1.381-2.762s.576-3.249,1.165-5.58a33.8,33.8,0,0,1,1.91-5.728c.7-1.3,1.332-1.557,3.264-2.018s6.337-.756,13-.756,11.072.295,13,.756,2.559.717,3.264,2.018a33.813,33.813,0,0,1,1.91,5.728c.589,2.331.988,4.361,1.166,5.58.164,1.137.03,2.788-1.122,2.788A1.4,1.4,0,0,1,7287.94,1448.259Z" transform="translate(-6276.981 -584.716)" fill="#77009b" opacity="0.7"/>
    </clipPath>
    <clipPath id="clip-path-11">
      <path id="Path_241" data-name="Path 241" d="M-6201.874-785.831c1.444-1.022,2.184-1.267,2.871-3.346A161.115,161.115,0,0,1-6193.449-807c3.381-8.607,7.417-14.813,7.712-16.393s-1.313-2.013-2.613-1.933-5.427.209-11.412.321c-5.4.1-11.377-.368-12.288-.321a4.5,4.5,0,0,0-3.869,3.134c-.755,1.809-3.091,6.82-6.091,18.574s-5.291,25.193-5.556,26.4c-.509,2.32-.618,4.123,1.777,3.278S-6203.318-784.809-6201.874-785.831Z" transform="translate(7088.496 1785.723)" fill="#77009b" opacity="0.7"/>
    </clipPath>
    <clipPath id="clip-path-12">
      <path id="Path_242" data-name="Path 242" d="M34.127,32.388A87.56,87.56,0,0,1,36.082,45.1c.51,5.282.6,8.849.725,10.833s.444,6.16-5.9,3.137c-1.683-.8-4.528-2.011-7.193-3.236-4-1.836-8.3-3.57-9.855-4.284-2.427-1.113-2.938-3.2-3.4-5.573S9.285,37.484,6.984,27.672C4.308,16.251.272,3.119.083,2.349-.26.956.456-.92,2.3.515S29.461,24.96,31.236,26.95C33.416,29.395,33.212,29.907,34.127,32.388Z" transform="matrix(-0.883, -0.469, 0.469, -0.883, 856.539, 1007.962)" fill="#77009b" opacity="0.7"/>
    </clipPath>
    <clipPath id="clip-path-13">
      <path id="Path_243" data-name="Path 243" d="M26.063,6.076a135.884,135.884,0,0,1,4.279,19.015c1.42,9.567,1.845,18.159,1.956,19.784.216,3.18.165,6.012-6.049,2.876a163.339,163.339,0,0,1-14.784-8.6C8.93,37.483,8.748,35.416,8.18,33.422S6.9,27.307,5.065,20.444.552,4.611.129,3.286A2.442,2.442,0,0,1,1.955.067C3.588-.3,21.082.925,23.087,2.125S25.386,4,26.063,6.076Z" transform="translate(871.902 950.775) rotate(-135)" fill="#77009b" opacity="0.7"/>
    </clipPath>
    <clipPath id="clip-path-14">
      <path id="Path_244" data-name="Path 244" d="M25.166,7.043c.331,1.015,2.687,9.243,4.609,17.938s1.563,10.688,2.042,14.734-.423,4.858-4.495,3.09c-1.6-.695-3.565-1.61-5.79-2.7a79.977,79.977,0,0,1-7.254-3.931c-2.535-1.667-2.717-3.735-3.285-5.729S9.758,26.4,7.023,19.2.552,4.585.129,3.26A2.442,2.442,0,0,1,1.955.041C3.588-.33,20.185,1.892,22.189,3.092S24.488,4.968,25.166,7.043Z" transform="matrix(-0.407, -0.914, 0.914, -0.407, 895.792, 911.537)" fill="#77009b" opacity="0.7"/>
    </clipPath>
    <clipPath id="clip-path-15">
      <path id="Path_245" data-name="Path 245" d="M19.885,6.03a157.979,157.979,0,0,1,5.13,18.693,130.525,130.525,0,0,1,2.525,15.862c.479,4.46.225,5.266-4.495,3.407s-6.353-2.26-8.208-3.625a6.778,6.778,0,0,1-3.039-4.54c-.568-2.2-2.206-7.582-4.941-15.519S.553,5.19.13,3.729A2.731,2.731,0,0,1,1.955.181,28.892,28.892,0,0,1,9.13.243c3.738.373,6.71.726,7.778,1.431C18.914,3,19.208,3.742,19.885,6.03Z" transform="matrix(-0.087, -0.996, 0.996, -0.087, 928.893, 879.836)" fill="#77009b" opacity="0.7"/>
    </clipPath>
    <clipPath id="clip-path-16">
      <path id="Path_246" data-name="Path 246" d="M17.315,3.085a7.347,7.347,0,0,0-3.761,3.381c-.875,1.655-2,5.227-5.129,12.949S.653,34.358.115,36.3a2.128,2.128,0,0,0,2.139,2.844c.986.03,23.044-.794,24.86-.888s2.764-.587,3.922-2.611a168.721,168.721,0,0,0,7.556-17.073c2.467-6.624,4.814-13.383,5.08-14.594C44.18,1.658,42.6-.112,41.342.005S18.928,2.376,17.315,3.085Z" transform="translate(919.302 960.792) rotate(-172)" fill="#77009b" opacity="0.7"/>
    </clipPath>
    <clipPath id="clip-path-17">
      <path id="Path_247" data-name="Path 247" d="M10.713,9.17a6.114,6.114,0,0,0-3.233,2.56c-.753,1.253-1.269,4.208-3.093,9.929S.561,31.327.1,32.8s.8,2.126,1.839,2.154c.454.012,6.261.27,11.9.164,4.333-.081,8.567-.525,9.292-.558A3.576,3.576,0,0,0,26.5,32.579c1-1.533,2.394-4.6,5.173-13.373A137.825,137.825,0,0,0,35.753,2.28,1.8,1.8,0,0,0,33.335.118c-.588.231-5.013,1.544-10.925,3.935C17.364,6.093,11.385,8.909,10.713,9.17Z" transform="matrix(-0.875, -0.485, 0.485, -0.875, 931.932, 930.878)" fill="#77009b" opacity="0.7"/>
    </clipPath>
    <clipPath id="clip-path-18">
      <path id="Path_248" data-name="Path 248" d="M7.178,8.678a5.618,5.618,0,0,0-2.889,2.56c-.672,1.253-.517,3.967-1.76,9.975A70.536,70.536,0,0,1,.1,30.338a2.883,2.883,0,0,0,1.976,3.454c.677.218,4.492,1.879,8.364,3.066a44.1,44.1,0,0,0,8.568,1.85,3.153,3.153,0,0,0,3.012-1.977c.89-1.533,2.873-8.758,4.434-17.034S28.688,4.655,28.968,2.652,27.645-.342,26.625.106c-.508.223-4.464,2.328-9.3,4.46C13,6.474,7.8,8.409,7.178,8.678Z" transform="matrix(-0.588, -0.809, 0.809, -0.588, 948.636, 907.263)" fill="#77009b" opacity="0.7"/>
    </clipPath>
  </defs>
  <g id="_3d-light-bulb" data-name="3d-light-bulb" transform="translate(8968.001 1118.999)">
    <g id="light-bulb" transform="translate(-1173)">
      <path id="Exclusion_1" data-name="Exclusion 1" d="M7428.5,1792a183.849,183.849,0,0,1-36.78-3.708,181.506,181.506,0,0,1-65.258-27.461,183.037,183.037,0,0,1-66.122-80.295,181.551,181.551,0,0,1-10.634-34.257,184.265,184.265,0,0,1,0-73.56,181.487,181.487,0,0,1,27.46-65.257,183.031,183.031,0,0,1,80.3-66.12,181.567,181.567,0,0,1,34.257-10.634,184.278,184.278,0,0,1,73.56,0,181.493,181.493,0,0,1,65.257,27.46,183.026,183.026,0,0,1,66.121,80.294,181.592,181.592,0,0,1,10.634,34.257,184.289,184.289,0,0,1,0,73.56,181.511,181.511,0,0,1-27.46,65.257,183.042,183.042,0,0,1-80.294,66.121,181.585,181.585,0,0,1-34.257,10.634A183.841,183.841,0,0,1,7428.5,1792Zm0-358c-88.5,0-160.5,72-160.5,160.5s72,160.5,160.5,160.5,160.5-72,160.5-160.5S7517,1434,7428.5,1434Z" transform="translate(-15041 -2546)" fill="#62ecba"/>
      <path id="Exclusion_2" data-name="Exclusion 2" d="M7406.5,1748a161.681,161.681,0,0,1-32.347-3.261,159.617,159.617,0,0,1-57.391-24.15,160.959,160.959,0,0,1-58.149-70.615,159.69,159.69,0,0,1-9.352-30.127,162.067,162.067,0,0,1,0-64.693,159.632,159.632,0,0,1,24.149-57.391,160.966,160.966,0,0,1,70.615-58.15,159.689,159.689,0,0,1,30.128-9.352,162.066,162.066,0,0,1,64.692,0,159.615,159.615,0,0,1,57.391,24.15,160.962,160.962,0,0,1,58.15,70.615,159.723,159.723,0,0,1,9.352,30.128,162.067,162.067,0,0,1,0,64.693,159.623,159.623,0,0,1-24.15,57.391,160.975,160.975,0,0,1-70.615,58.15,159.676,159.676,0,0,1-30.128,9.352A161.667,161.667,0,0,1,7406.5,1748Zm.5-309c-76.645,0-139,62.355-139,139s62.355,139,139,139,139-62.355,139-139S7483.645,1439,7407,1439Z" transform="translate(-15019 -2539)" fill="#6af8c5"/>
      <circle id="Ellipse_42" data-name="Ellipse 42" cx="139" cy="139" r="139" transform="translate(-7751 -1100)" fill="#86ffd3"/>
      <g id="Group_141" data-name="Group 141" transform="translate(-6 471)">
        <path id="Path_209" data-name="Path 209" d="M5,0H15c4.006,0,8,6,8,10s-4.058,10-8,10H5a4,4,0,0,1-4-4V4A4,4,0,0,1,5,0Z" transform="translate(-7678 -1414)" fill="#6eb1a7"/>
        <path id="Path_210" data-name="Path 210" d="M4,0h7.5c3,0,6,4.5,6,7.5s-3.044,7.5-6,7.5H4a3,3,0,0,1-3-3V3A3,3,0,0,1,4,0Z" transform="translate(-7676 -1412)" fill="#607d8b"/>
        <path id="Path_209-2" data-name="Path 209" d="M5,0H15c4.006,0,8,6,8,10s-4.058,10-8,10H5a4,4,0,0,1-4-4V4A4,4,0,0,1,5,0Z" transform="translate(-7638 -1434) rotate(90)" fill="#6eb1a7"/>
        <path id="Path_210-2" data-name="Path 210" d="M4,0h7.5c3,0,6,4.5,6,7.5s-3.044,7.5-6,7.5H4a3,3,0,0,1-3-3V3A3,3,0,0,1,4,0Z" transform="translate(-7641 -1432) rotate(90)" fill="#607d8b"/>
        <path id="Path_209-3" data-name="Path 209" d="M5,0H15c4.006,0,8,6,8,10s-4.058,10-8,10H5a4,4,0,0,1-4-4V4A4,4,0,0,1,5,0Z" transform="translate(-7618 -1394) rotate(180)" fill="#6eb1a7"/>
        <path id="Path_210-3" data-name="Path 210" d="M4,0h7.5c3,0,6,4.5,6,7.5s-3.044,7.5-6,7.5H4a3,3,0,0,1-3-3V3A3,3,0,0,1,4,0Z" transform="translate(-7621 -1397) rotate(180)" fill="#607d8b"/>
        <path id="Path_209-4" data-name="Path 209" d="M5,0H15c4.006,0,8,6,8,10s-4.058,10-8,10H5a4,4,0,0,1-4-4V4A4,4,0,0,1,5,0Z" transform="translate(-7658 -1374) rotate(-90)" fill="#6eb1a7"/>
        <path id="Path_210-4" data-name="Path 210" d="M4,0h7.5c3,0,6,4.5,6,7.5s-3.044,7.5-6,7.5H4a3,3,0,0,1-3-3V3A3,3,0,0,1,4,0Z" transform="translate(-7656 -1377) rotate(-90)" fill="#607d8b"/>
        <circle id="Ellipse_32" data-name="Ellipse 32" cx="10" cy="10" r="10" transform="translate(-7563 -1414)" fill="#cea97c"/>
        <circle id="Ellipse_34" data-name="Ellipse 34" cx="10" cy="10" r="10" transform="translate(-7579 -1396)" fill="#36cbe6"/>
        <circle id="Ellipse_35" data-name="Ellipse 35" cx="10" cy="10" r="10" transform="translate(-7579 -1432)" fill="#62cf84"/>
        <circle id="Ellipse_33" data-name="Ellipse 33" cx="10" cy="10" r="10" transform="translate(-7595 -1414)" fill="#c49784"/>
        <circle id="Ellipse_36" data-name="Ellipse 36" cx="7.5" cy="7.5" r="7.5" transform="translate(-7577 -1430)" fill="#4caf50"/>
        <circle id="Ellipse_38" data-name="Ellipse 38" cx="7.5" cy="7.5" r="7.5" transform="translate(-7561 -1412)" fill="#ff7043"/>
        <circle id="Ellipse_39" data-name="Ellipse 39" cx="7.5" cy="7.5" r="7.5" transform="translate(-7577 -1394)" fill="#03a9f4"/>
        <circle id="Ellipse_37" data-name="Ellipse 37" cx="7.5" cy="7.5" r="7.5" transform="translate(-7593 -1412)" fill="#ef5350"/>
        <g id="_70" data-name="70" transform="translate(-8599 -2370)">
          <path id="Path_178" data-name="Path 178" d="M-6211.692-785.831c-1.444-1.022-2.184-1.267-2.871-3.346A161.115,161.115,0,0,0-6220.117-807c-3.381-8.607-7.417-14.813-7.712-16.393s1.313-2.013,2.613-1.933,5.427.209,11.412.321c5.4.1,11.377-.368,12.288-.321a4.5,4.5,0,0,1,3.869,3.134c.755,1.809,3.091,6.82,6.091,18.574s5.291,25.193,5.556,26.4c.509,2.32.618,4.123-1.777,3.278S-6210.248-784.809-6211.692-785.831Z" transform="translate(7311.071 1785.723)" fill="#7c66b1"/>
          <path id="Path_179" data-name="Path 179" d="M-6193.069-808.2a87.56,87.56,0,0,0,1.955-12.712c.51-5.282.6-8.849.725-10.833s.444-6.16-5.9-3.137c-1.683.8-4.528,2.011-7.193,3.236-4,1.836-8.3,3.57-9.855,4.284-2.427,1.113-2.938,3.2-3.4,5.573s-1.173,8.493-3.474,18.306c-2.677,11.42-6.712,24.553-6.9,25.322-.343,1.394.373,3.27,2.213,1.834s27.166-24.445,28.94-26.435C-6193.781-805.21-6193.984-805.722-6193.069-808.2Z" transform="matrix(0.883, -0.469, 0.469, 0.883, 6991.972, -1230.526)" fill="#7c66b1"/>
          <path id="Path_180" data-name="Path 180" d="M-6198.54-794.226a135.884,135.884,0,0,0,4.279-19.015c1.42-9.567,1.845-18.159,1.956-19.784.216-3.18.165-6.012-6.049-2.876a163.339,163.339,0,0,0-14.784,8.6c-2.535,1.667-2.717,3.735-3.285,5.729s-1.281,6.115-3.115,12.977-4.513,15.833-4.936,17.158a2.442,2.442,0,0,0,1.825,3.218c1.633.371,19.127-.858,21.132-2.057S-6199.217-792.151-6198.54-794.226Z" transform="translate(6072.863 -2893.377) rotate(-45)" fill="#7c66b1"/>
          <path id="Path_181" data-name="Path 181" d="M-6198.353-794.8c.331-1.015,2.687-9.243,4.609-17.937s1.563-10.688,2.042-14.734-.423-4.858-4.495-3.09c-1.6.695-3.565,1.61-5.79,2.7a79.977,79.977,0,0,0-7.254,3.931c-2.535,1.667-2.717,3.735-3.285,5.729s-1.236,4.046-3.971,11.246-6.471,14.614-6.894,15.939a2.442,2.442,0,0,0,1.825,3.218c1.633.371,18.23-1.851,20.235-3.051S-6199.03-792.722-6198.353-794.8Z" transform="matrix(0.407, -0.914, 0.914, 0.407, 4341.191, -4453.521)" fill="#7c66b1"/>
          <path id="Path_182" data-name="Path 182" d="M-6203.469-790.034a157.979,157.979,0,0,0,5.13-18.693,130.525,130.525,0,0,0,2.525-15.862c.479-4.46.225-5.266-4.495-3.407s-6.353,2.26-8.208,3.625a6.778,6.778,0,0,0-3.039,4.54c-.568,2.2-2.206,7.582-4.941,15.519s-6.306,15.117-6.729,16.578a2.731,2.731,0,0,0,1.825,3.548,28.892,28.892,0,0,0,7.175-.062c3.738-.373,6.71-.726,7.778-1.431C-6204.44-787-6204.146-787.747-6203.469-790.034Z" transform="translate(2380.53 -5251.505) rotate(-85)" fill="#7c66b1"/>
          <path id="Path_183" data-name="Path 183" d="M-6210.881-790.852a7.347,7.347,0,0,1-3.761-3.381c-.875-1.655-2-5.227-5.129-12.949s-7.772-14.943-8.311-16.885a2.128,2.128,0,0,1,2.139-2.844c.986-.03,23.044.794,24.86.888s2.764.587,3.922,2.611a168.721,168.721,0,0,1,7.556,17.073c2.467,6.624,4.814,13.383,5.08,14.594.509,2.32-1.067,4.089-2.329,3.972S-6209.268-790.143-6210.881-790.852Z" transform="translate(7343.917 874.095) rotate(-8)" fill="#7c66b1"/>
          <path id="Path_184" data-name="Path 184" d="M-6217.191-801.8a6.114,6.114,0,0,1-3.233-2.56c-.753-1.253-1.269-4.208-3.093-9.929s-3.826-9.668-4.288-11.138.8-2.126,1.839-2.154c.454-.012,6.261-.27,11.9-.164,4.333.081,8.567.525,9.292.558a3.576,3.576,0,0,1,3.372,1.977c1,1.533,2.394,4.6,5.173,13.373a137.825,137.825,0,0,1,4.075,16.926,1.8,1.8,0,0,1-2.418,2.162c-.588-.231-5.013-1.544-10.925-3.935C-6210.54-798.725-6216.519-801.541-6217.191-801.8Z" transform="matrix(0.875, -0.485, 0.485, 0.875, 6885.391, -1395.218)" fill="#7c66b1"/>
          <path id="Path_185" data-name="Path 185" d="M-6217.279-801.188a5.618,5.618,0,0,1-2.889-2.56c-.672-1.253-.517-3.967-1.76-9.975a70.536,70.536,0,0,0-2.431-9.124,2.883,2.883,0,0,1,1.976-3.454c.677-.218,4.492-1.879,8.364-3.066a44.1,44.1,0,0,1,8.568-1.85,3.153,3.153,0,0,1,3.012,1.977c.89,1.533,2.873,8.758,4.434,17.034s2.236,15.042,2.516,17.044-1.323,2.994-2.343,2.546c-.508-.223-4.464-2.328-9.3-4.46C-6211.455-798.984-6216.657-800.918-6217.279-801.188Z" transform="translate(5337.161 -3662.603) rotate(-54)" fill="#7c66b1"/>
          <path id="Union_6" data-name="Union 6" d="M7277.85,1454.9c-1.134-.086-6.384-.6-10.716-.6s-9.582.516-10.714.6-2.15-1.3-2.769-2.267a57.28,57.28,0,0,1-3.1-7.9c-1.264-3.913-1.684-6.669-1.955-7.437a2.618,2.618,0,0,1,1.955-3.716,61.971,61.971,0,0,1,33.175,0,2.616,2.616,0,0,1,1.955,3.714c-.271.768-.691,3.524-1.955,7.437a57.213,57.213,0,0,1-3.1,7.9c-.6.94-1.575,2.271-2.666,2.271Q7277.9,1454.905,7277.85,1454.9Z" transform="translate(-6274.135 -567.612)" fill="#7c66b1"/>
          <path id="Union_5" data-name="Union 5" d="M7287.94,1448.259a125.45,125.45,0,0,0-17.959-1.74v0a125.612,125.612,0,0,0-17.959,1.738c-1.39.263-1.557-1.544-1.381-2.762s.576-3.249,1.165-5.58a33.8,33.8,0,0,1,1.91-5.728c.7-1.3,1.332-1.557,3.264-2.018s6.337-.756,13-.756,11.072.295,13,.756,2.559.717,3.264,2.018a33.813,33.813,0,0,1,1.91,5.728c.589,2.331.988,4.361,1.166,5.58.164,1.137.03,2.788-1.122,2.788A1.4,1.4,0,0,1,7287.94,1448.259Z" transform="translate(-6276.981 -584.716)" fill="#7c66b1"/>
          <path id="Path_178-2" data-name="Path 178" d="M-6201.874-785.831c1.444-1.022,2.184-1.267,2.871-3.346A161.115,161.115,0,0,1-6193.449-807c3.381-8.607,7.417-14.813,7.712-16.393s-1.313-2.013-2.613-1.933-5.427.209-11.412.321c-5.4.1-11.377-.368-12.288-.321a4.5,4.5,0,0,0-3.869,3.134c-.755,1.809-3.091,6.82-6.091,18.574s-5.291,25.193-5.556,26.4c-.509,2.32-.618,4.123,1.777,3.278S-6203.318-784.809-6201.874-785.831Z" transform="translate(7088.496 1785.723)" fill="#7c66b1"/>
          <path id="Path_179-2" data-name="Path 179" d="M34.127,32.388A87.56,87.56,0,0,1,36.082,45.1c.51,5.282.6,8.849.725,10.833s.444,6.16-5.9,3.137c-1.683-.8-4.528-2.011-7.193-3.236-4-1.836-8.3-3.57-9.855-4.284-2.427-1.113-2.938-3.2-3.4-5.573S9.285,37.484,6.984,27.672C4.308,16.251.272,3.119.083,2.349-.26.956.456-.92,2.3.515S29.461,24.96,31.236,26.95C33.416,29.395,33.212,29.907,34.127,32.388Z" transform="matrix(-0.883, -0.469, 0.469, -0.883, 856.539, 1007.962)" fill="#7c66b1"/>
          <path id="Path_180-2" data-name="Path 180" d="M26.063,6.076a135.884,135.884,0,0,1,4.279,19.015c1.42,9.567,1.845,18.159,1.956,19.784.216,3.18.165,6.012-6.049,2.876a163.339,163.339,0,0,1-14.784-8.6C8.93,37.483,8.748,35.416,8.18,33.422S6.9,27.307,5.065,20.444.552,4.611.129,3.286A2.442,2.442,0,0,1,1.955.067C3.588-.3,21.082.925,23.087,2.125S25.386,4,26.063,6.076Z" transform="translate(871.902 950.775) rotate(-135)" fill="#7c66b1"/>
          <path id="Path_181-2" data-name="Path 181" d="M25.166,7.043c.331,1.015,2.687,9.243,4.609,17.938s1.563,10.688,2.042,14.734-.423,4.858-4.495,3.09c-1.6-.695-3.565-1.61-5.79-2.7a79.977,79.977,0,0,1-7.254-3.931c-2.535-1.667-2.717-3.735-3.285-5.729S9.758,26.4,7.023,19.2.552,4.585.129,3.26A2.442,2.442,0,0,1,1.955.041C3.588-.33,20.185,1.892,22.189,3.092S24.488,4.968,25.166,7.043Z" transform="matrix(-0.407, -0.914, 0.914, -0.407, 895.792, 911.537)" fill="#7c66b1"/>
          <path id="Path_182-2" data-name="Path 182" d="M19.885,6.03a157.979,157.979,0,0,1,5.13,18.693,130.525,130.525,0,0,1,2.525,15.862c.479,4.46.225,5.266-4.495,3.407s-6.353-2.26-8.208-3.625a6.778,6.778,0,0,1-3.039-4.54c-.568-2.2-2.206-7.582-4.941-15.519S.553,5.19.13,3.729A2.731,2.731,0,0,1,1.955.181,28.892,28.892,0,0,1,9.13.243c3.738.373,6.71.726,7.778,1.431C18.914,3,19.208,3.742,19.885,6.03Z" transform="matrix(-0.087, -0.996, 0.996, -0.087, 928.893, 879.836)" fill="#7c66b1"/>
          <path id="Path_183-2" data-name="Path 183" d="M17.315,3.085a7.347,7.347,0,0,0-3.761,3.381c-.875,1.655-2,5.227-5.129,12.949S.653,34.358.115,36.3a2.128,2.128,0,0,0,2.139,2.844c.986.03,23.044-.794,24.86-.888s2.764-.587,3.922-2.611a168.721,168.721,0,0,0,7.556-17.073c2.467-6.624,4.814-13.383,5.08-14.594C44.18,1.658,42.6-.112,41.342.005S18.928,2.376,17.315,3.085Z" transform="translate(919.302 960.792) rotate(-172)" fill="#7c66b1"/>
          <path id="Path_184-2" data-name="Path 184" d="M10.713,9.17a6.114,6.114,0,0,0-3.233,2.56c-.753,1.253-1.269,4.208-3.093,9.929S.561,31.327.1,32.8s.8,2.126,1.839,2.154c.454.012,6.261.27,11.9.164,4.333-.081,8.567-.525,9.292-.558A3.576,3.576,0,0,0,26.5,32.579c1-1.533,2.394-4.6,5.173-13.373A137.825,137.825,0,0,0,35.753,2.28,1.8,1.8,0,0,0,33.335.118c-.588.231-5.013,1.544-10.925,3.935C17.364,6.093,11.385,8.909,10.713,9.17Z" transform="matrix(-0.875, -0.485, 0.485, -0.875, 931.932, 930.878)" fill="#7c66b1"/>
          <path id="Path_185-2" data-name="Path 185" d="M7.178,8.678a5.618,5.618,0,0,0-2.889,2.56c-.672,1.253-.517,3.967-1.76,9.975A70.536,70.536,0,0,1,.1,30.338a2.883,2.883,0,0,0,1.976,3.454c.677.218,4.492,1.879,8.364,3.066a44.1,44.1,0,0,0,8.568,1.85,3.153,3.153,0,0,0,3.012-1.977c.89-1.533,2.873-8.758,4.434-17.034S28.688,4.655,28.968,2.652,27.645-.342,26.625.106c-.508.223-4.464,2.328-9.3,4.46C13,6.474,7.8,8.409,7.178,8.678Z" transform="matrix(-0.588, -0.809, 0.809, -0.588, 948.636, 907.263)" fill="#7c66b1"/>
        </g>
        <g id="_100" data-name="100" transform="translate(-8599 -2370)">
          <g id="Mask_Group_4" data-name="Mask Group 4" clip-path="url(#clip-path)">
            <path id="Path_211" data-name="Path 211" d="M-6209.446-785.831c-1.646-1.022-2.487-1.267-3.27-3.346A146.923,146.923,0,0,0-6219.041-807c-3.851-8.607-8.447-14.813-8.783-16.393s1.5-2.013,2.977-1.933,6.181.209,13,.321c6.149.1,12.957-.368,13.994-.321a5.038,5.038,0,0,1,4.406,3.134c.859,1.809,3.521,6.82,6.938,18.574s6.025,25.193,6.328,26.4c.579,2.32.7,4.123-2.024,3.278S-6207.8-784.809-6209.446-785.831Z" transform="translate(7303.215 1772.723)" fill="#77009b"/>
          </g>
          <g id="Mask_Group_3" data-name="Mask Group 3" clip-path="url(#clip-path-2)">
            <path id="Path_212" data-name="Path 212" d="M-6193.069-808.2a87.56,87.56,0,0,0,1.955-12.712c.51-5.282.6-8.849.725-10.833s.444-6.16-5.9-3.137c-1.683.8-4.528,2.011-7.193,3.236-4,1.836-8.3,3.57-9.855,4.284-2.427,1.113-2.938,3.2-3.4,5.573s-1.173,8.493-3.474,18.306c-2.677,11.42-6.712,24.553-6.9,25.322-.343,1.394.373,3.27,2.213,1.834s27.166-24.445,28.94-26.435C-6193.781-805.21-6193.984-805.722-6193.069-808.2Z" transform="matrix(0.883, -0.469, 0.469, 0.883, 6985.972, -1236.526)" fill="#77009b"/>
          </g>
          <g id="Mask_Group_6" data-name="Mask Group 6" clip-path="url(#clip-path-3)">
            <path id="Path_213" data-name="Path 213" d="M-6198.54-794.226a135.884,135.884,0,0,0,4.279-19.015c1.42-9.567,1.845-18.159,1.956-19.784.216-3.18.165-6.012-6.049-2.876a163.339,163.339,0,0,0-14.784,8.6c-2.535,1.667-2.717,3.735-3.285,5.729s-1.281,6.115-3.115,12.977-4.513,15.833-4.936,17.158a2.442,2.442,0,0,0,1.825,3.218c1.633.371,19.127-.858,21.132-2.057S-6199.217-792.151-6198.54-794.226Z" transform="translate(6064.863 -2899.377) rotate(-45)" fill="#77009b"/>
          </g>
          <g id="Mask_Group_7" data-name="Mask Group 7" clip-path="url(#clip-path-4)">
            <path id="Path_214" data-name="Path 214" d="M-6198.353-794.8c.331-1.015,2.687-9.243,4.609-17.937s1.563-10.688,2.042-14.734-.423-4.858-4.495-3.09c-1.6.695-3.565,1.61-5.79,2.7a79.977,79.977,0,0,0-7.254,3.931c-2.535,1.667-2.717,3.735-3.285,5.729s-1.236,4.046-3.971,11.246-6.471,14.614-6.894,15.939a2.442,2.442,0,0,0,1.825,3.218c1.633.371,18.23-1.851,20.235-3.051S-6199.03-792.722-6198.353-794.8Z" transform="matrix(0.407, -0.914, 0.914, 0.407, 4334.191, -4455.521)" fill="#77009b"/>
          </g>
          <g id="Mask_Group_10" data-name="Mask Group 10" clip-path="url(#clip-path-5)">
            <path id="Path_215" data-name="Path 215" d="M-6203.469-790.034a157.979,157.979,0,0,0,5.13-18.693,130.525,130.525,0,0,0,2.525-15.862c.479-4.46.225-5.266-4.495-3.407s-6.353,2.26-8.208,3.625a6.778,6.778,0,0,0-3.039,4.54c-.568,2.2-2.206,7.582-4.941,15.519s-6.306,15.117-6.729,16.578a2.731,2.731,0,0,0,1.825,3.548,28.892,28.892,0,0,0,7.175-.062c3.738-.373,6.71-.726,7.778-1.431C-6204.44-787-6204.146-787.747-6203.469-790.034Z" transform="translate(2374.53 -5252.505) rotate(-85)" fill="#77009b"/>
          </g>
          <g id="Mask_Group_5" data-name="Mask Group 5" clip-path="url(#clip-path-6)">
            <path id="Path_216" data-name="Path 216" d="M-6207.292-790.852a8.513,8.513,0,0,1-4.54-3.381c-1.057-1.655-2.421-5.227-6.192-12.949s-9.384-14.943-10.034-16.885,1.12-2.807,2.582-2.844c1.191-.03,27.821.794,30.015.888a5.084,5.084,0,0,1,4.735,2.611,156.122,156.122,0,0,1,9.122,17.073c2.979,6.624,5.812,13.383,6.133,14.594a3.074,3.074,0,0,1-2.812,3.972C-6179.807-787.89-6205.344-790.143-6207.292-790.852Z" transform="translate(7332.932 864.358) rotate(-8)" fill="#77009b"/>
          </g>
          <g id="Mask_Group_8" data-name="Mask Group 8" clip-path="url(#clip-path-7)">
            <path id="Path_217" data-name="Path 217" d="M-6215.286-801.8a7.125,7.125,0,0,1-3.809-2.56c-.887-1.253-1.494-4.208-3.644-9.929s-4.506-9.668-5.05-11.138.939-2.126,2.166-2.154c.535-.012,7.375-.27,14.021-.164,5.1.081,10.091.525,10.945.558a4.389,4.389,0,0,1,3.972,1.977c1.173,1.533,2.82,4.6,6.093,13.373a120.532,120.532,0,0,1,4.8,16.926c.517,1.757-1.5,2.61-2.848,2.162-.692-.231-5.9-1.544-12.869-3.935C-6207.452-798.725-6214.494-801.541-6215.286-801.8Z" transform="matrix(0.875, -0.485, 0.485, 0.875, 6876.817, -1398.129)" fill="#77009b"/>
          </g>
          <g id="Mask_Group_9" data-name="Mask Group 9" clip-path="url(#clip-path-8)">
            <path id="Path_218" data-name="Path 218" d="M-6215.682-801.188a6.611,6.611,0,0,1-3.531-2.56c-.822-1.253-.632-3.967-2.151-9.975a60.785,60.785,0,0,0-2.972-9.124c-.506-1.47.628-2.982,2.415-3.454.828-.218,5.491-1.879,10.225-3.066a64.533,64.533,0,0,1,10.475-1.85,3.979,3.979,0,0,1,3.683,1.977c1.088,1.533,3.512,8.758,5.42,17.034s2.734,15.042,3.076,17.044a2.23,2.23,0,0,1-2.864,2.546c-.621-.223-5.458-2.328-11.368-4.46C-6208.561-798.984-6214.921-800.918-6215.682-801.188Z" transform="translate(5328.368 -3663.381) rotate(-54)" fill="#77009b"/>
          </g>
          <g id="Mask_Group_12" data-name="Mask Group 12" clip-path="url(#clip-path-9)">
            <path id="Union_2" data-name="Union 2" d="M7277.85,1454.9c-1.134-.086-6.384-.6-10.716-.6s-9.582.516-10.714.6-2.15-1.3-2.769-2.267a57.28,57.28,0,0,1-3.1-7.9c-1.264-3.913-1.684-6.669-1.955-7.437a2.618,2.618,0,0,1,1.955-3.716,61.971,61.971,0,0,1,33.175,0,2.616,2.616,0,0,1,1.955,3.714c-.271.768-.691,3.524-1.955,7.437a57.213,57.213,0,0,1-3.1,7.9c-.6.94-1.575,2.271-2.666,2.271Q7277.9,1454.905,7277.85,1454.9Z" transform="translate(-6274.135 -569.612)" fill="#77009b"/>
          </g>
          <g id="Mask_Group_11" data-name="Mask Group 11" clip-path="url(#clip-path-10)">
            <path id="Union_1" data-name="Union 1" d="M7287.94,1448.259a125.45,125.45,0,0,0-17.959-1.74v0a125.612,125.612,0,0,0-17.959,1.738c-1.39.263-1.557-1.544-1.381-2.762s.576-3.249,1.165-5.58a33.8,33.8,0,0,1,1.91-5.728c.7-1.3,1.332-1.557,3.264-2.018s6.337-.756,13-.756,11.072.295,13,.756,2.559.717,3.264,2.018a33.813,33.813,0,0,1,1.91,5.728c.589,2.331.988,4.361,1.166,5.58.164,1.137.03,2.788-1.122,2.788A1.4,1.4,0,0,1,7287.94,1448.259Z" transform="translate(-6276.981 -582.716)" fill="#77009b"/>
          </g>
          <g id="Mask_Group_13" data-name="Mask Group 13" clip-path="url(#clip-path-11)">
            <path id="Path_221" data-name="Path 221" d="M-6201.874-784.193c1.444-1.064,2.184-1.32,2.871-3.484a173.006,173.006,0,0,1,5.554-18.563c3.381-8.964,7.417-15.428,7.712-17.072s-1.313-2.1-2.613-2.013-5.427.218-11.412.334c-5.4.1-11.377-.383-12.288-.334-1.816.1-3.114,1.38-3.869,3.264s-3.091,7.1-6.091,19.344-5.291,26.238-5.556,27.5c-.509,2.416-.618,4.294,1.777,3.414S-6203.318-783.128-6201.874-784.193Z" transform="translate(7079.496 1792.414)" fill="#77009b"/>
          </g>
          <g id="Mask_Group_14" data-name="Mask Group 14" clip-path="url(#clip-path-12)">
            <path id="Path_222" data-name="Path 222" d="M40.878,32.388c.542,1.228,1.676,6.95,2.341,12.712.611,5.282.722,8.849.869,10.833s.532,6.16-7.068,3.137C35,58.268,31.6,57.058,28.4,55.834,23.617,54,18.465,52.264,16.6,51.55c-2.907-1.113-3.52-3.2-4.071-5.573s-1.405-8.493-4.161-18.306C5.16,16.251.326,3.119.1,2.349-.312.956.546-.92,2.75.515S35.29,24.96,37.415,26.95C40.026,29.395,39.783,29.907,40.878,32.388Z" transform="matrix(-0.883, -0.469, 0.469, -0.883, 856.539, 1017.962)" fill="#77009b"/>
          </g>
          <g id="Mask_Group_16" data-name="Mask Group 16" clip-path="url(#clip-path-13)">
            <path id="Path_223" data-name="Path 223" d="M33.115,6.076a112.158,112.158,0,0,1,5.437,19.015,181.849,181.849,0,0,1,2.485,19.784c.274,3.18.21,6.012-7.685,2.876s-15.563-6.933-18.784-8.6-3.452-3.735-4.173-5.729S8.766,27.307,6.436,20.444.7,4.611.164,3.286.408.439,2.483.067s24.3.858,26.85,2.057S32.254,4,33.115,6.076Z" transform="translate(869.902 959.775) rotate(-135)" fill="#77009b"/>
          </g>
          <g id="Mask_Group_17" data-name="Mask Group 17" clip-path="url(#clip-path-14)">
            <path id="Path_224" data-name="Path 224" d="M30.329,7.043c.4,1.015,3.238,9.243,5.555,17.938s1.884,10.688,2.462,14.734-.51,4.858-5.417,3.09c-1.928-.695-4.3-1.61-6.977-2.7-3.3-1.343-6.888-2.919-8.743-3.931-3.055-1.667-3.274-3.735-3.959-5.729A119.1,119.1,0,0,0,8.464,19.2C5.167,12,.666,4.585.156,3.26S.387.412,2.356.041s21.97,1.851,24.387,3.051S29.513,4.968,30.329,7.043Z" transform="matrix(-0.407, -0.914, 0.914, -0.407, 891.792, 919.537)" fill="#77009b"/>
          </g>
          <g id="Mask_Group_19" data-name="Mask Group 19" clip-path="url(#clip-path-15)">
            <path id="Path_225" data-name="Path 225" d="M22.167,6.03a145.552,145.552,0,0,1,5.719,18.693A118.1,118.1,0,0,1,30.7,40.584c.535,4.46.251,5.266-5.011,3.407s-7.082-2.26-9.15-3.625a6.8,6.8,0,0,1-3.387-4.54c-.633-2.2-2.459-7.582-5.509-15.519S.616,5.19.145,3.729A2.688,2.688,0,0,1,2.179.181a35.877,35.877,0,0,1,8,.062c4.167.373,7.48.726,8.671,1.431C21.084,3,21.412,3.742,22.167,6.03Z" transform="matrix(-0.087, -0.996, 0.996, -0.087, 923.893, 882.836)" fill="#77009b"/>
          </g>
          <g id="Mask_Group_15" data-name="Mask Group 15" clip-path="url(#clip-path-16)">
            <path id="Path_226" data-name="Path 226" d="M17.315,3.085a7.347,7.347,0,0,0-3.761,3.381c-.875,1.655-2,5.227-5.129,12.949S.653,34.358.115,36.3a2.128,2.128,0,0,0,2.139,2.844c.986.03,23.044-.794,24.86-.888s2.764-.587,3.922-2.611a168.721,168.721,0,0,0,7.556-17.073c2.467-6.624,4.814-13.383,5.08-14.594C44.18,1.658,42.6-.112,41.342.005S18.928,2.376,17.315,3.085Z" transform="translate(907.302 966.792) rotate(-172)" fill="#77009b"/>
          </g>
          <g id="Mask_Group_18" data-name="Mask Group 18" clip-path="url(#clip-path-17)">
            <path id="Path_227" data-name="Path 227" d="M9.84,9.17a5.726,5.726,0,0,0-2.97,2.56c-.692,1.253-1.165,4.208-2.841,9.929S.515,31.327.091,32.8A1.629,1.629,0,0,0,1.78,34.95c.417.012,5.751.27,10.933.164,3.98-.081,7.869-.525,8.535-.558a3.249,3.249,0,0,0,3.1-1.977c.915-1.533,2.2-4.6,4.752-13.373A148.224,148.224,0,0,0,32.839,2.28,1.713,1.713,0,0,0,30.618.118c-.54.231-4.6,1.544-10.035,3.935C15.949,6.093,10.457,8.909,9.84,9.17Z" transform="matrix(-0.875, -0.485, 0.485, -0.875, 921.378, 932.463)" fill="#77009b"/>
          </g>
          <g id="Mask_Group_20" data-name="Mask Group 20" clip-path="url(#clip-path-18)">
            <path id="Path_228" data-name="Path 228" d="M6.661,8.678a5.362,5.362,0,0,0-2.681,2.56c-.624,1.253-.479,3.967-1.633,9.975A74.887,74.887,0,0,1,.092,30.338a2.917,2.917,0,0,0,1.833,3.454c.628.218,4.168,1.879,7.762,3.066a38.366,38.366,0,0,0,7.951,1.85c1.295-.071,1.971-.445,2.8-1.977S23.1,27.972,24.547,19.7,26.623,4.655,26.882,2.652,25.655-.342,24.708.106c-.471.223-4.143,2.328-8.629,4.46C12.066,6.474,7.238,8.409,6.661,8.678Z" transform="matrix(-0.588, -0.809, 0.809, -0.588, 942.409, 905.574)" fill="#77009b"/>
          </g>
          <g id="Mask_Group_21" data-name="Mask Group 21" clip-path="url(#clip-path-2)">
            <path id="Path_251" data-name="Path 251" d="M-6193.069-808.2a87.56,87.56,0,0,0,1.955-12.712c.51-5.282.6-8.849.725-10.833s.444-6.16-5.9-3.137c-1.683.8-4.528,2.011-7.193,3.236-4,1.836-8.3,3.57-9.855,4.284-2.427,1.113-2.938,3.2-3.4,5.573s-1.173,8.493-3.474,18.306c-2.677,11.42-6.712,24.553-6.9,25.322-.343,1.394.373,3.27,2.213,1.834s27.166-24.445,28.94-26.435C-6193.781-805.21-6193.984-805.722-6193.069-808.2Z" transform="matrix(0.883, -0.469, 0.469, 0.883, 6985.972, -1236.526)" fill="#77009b"/>
          </g>
        </g>
      </g>
    </g>
  </g>
</svg>
