<svg xmlns="http://www.w3.org/2000/svg" width="1040" height="1034" viewBox="0 0 1040 1034">
  <g id="avatar-2" transform="translate(11226 -6986)">
    <ellipse id="Ellipse_148" data-name="Ellipse 148" cx="520" cy="517" rx="520" ry="517" transform="translate(-11226 6986)" fill="#ffe0b2"/>
    <g id="Group_283" data-name="Group 283" transform="translate(-6197.503 3789.5)">
      <path id="_Skin" data-name="âœ‹ Skin" d="M12.666,176.065c3.712-29.621,15.372-61.07,27.635-88.685C67.875,28.994,131,20.955,187.593,8.917c55.844-8.13,114.979-15.471,169.981.75,30.921,7.575,43,44.4,38.118,73.462-2.785,18.109-11.028,35.248-18.057,52.031-13.971,34.466-22.835,71.365-22.85,108.681.959,24.386,4.4,52.22-23.623,62.549C304.5,319.651,302.242,355.6,268.851,376c-13.5,27.349-50.281,29.756-76.752,36.1-16.731,3.2-33.651,5.559-50.617,7.081-49.126,6.295-88.426-7.94-114.142-51.7C10.131,340.841-2.684,310.089.482,277.811,3.635,243.821,8.888,210.009,12.666,176.065Z" transform="translate(-4717.209 3530.5)" fill="#d08b5b"/>
      <path id="_Ink" data-name="ðŸ– Ink" d="M294.116,0a133.692,133.692,0,0,0-31.691,3.712,107.531,107.531,0,0,0-29.157,11.646c-2.861,1.682-4.088,4.452-3.283,7.408a7.734,7.734,0,0,0,2.566,3.912,7.15,7.15,0,0,0,4.562,1.659,7.782,7.782,0,0,0,3.295-.761c17.8-8.279,33.077-12.622,48.09-13.669,2.972-.209,5.982-.315,8.947-.315a122.749,122.749,0,0,1,40.123,6.665c25.588,8.836,47.806,27.082,62.56,51.379a117.265,117.265,0,0,1,14.83,37.431c3.452,16.941,2.821,34.247,1.625,50.426l-.086,1.143c-2.9,38.236-6.363,68.988-10.9,96.78a518.449,518.449,0,0,1-20.921,83.078,49.581,49.581,0,0,1-11.963,7.8c-12.1.505-24.333.762-36.365.762-19.546,0-39.239-.676-58.532-2.009a793.453,793.453,0,0,1-80.35-9.661l-2.85-.5c-1.313-.234-2.682-.449-4.006-.657-4.748-.747-9.657-1.519-13.973-3.362-5.136-2.2-6.871-6.684-7.89-10.779-2.927-11.812-3.443-24.547-3.942-36.864l-.047-1.167c-.218-5.325-.125-10.759-.035-16.013.117-6.8.237-13.835-.315-20.706a59.267,59.267,0,0,0-2.975-15.053A37.241,37.241,0,0,0,158.2,225.4a30.743,30.743,0,0,0-4.786-6.05,44.213,44.213,0,0,0-9.161-6.382c-1.388-.8-2.822-1.627-4.209-2.518-3.147-2.017-4.182-4.006-3.82-7.34a42.663,42.663,0,0,1,1.551-6.824c1.715-6.063,3.488-12.331-1.492-17.046a3.451,3.451,0,0,0-2.348-.92,2.921,2.921,0,0,0-2.181.92,45.237,45.237,0,0,1-7.459,6.036c-.914.64-1.856,1.3-2.74,1.953a1.38,1.38,0,0,0-.57,1.566,1.336,1.336,0,0,0,1.27.926,1.64,1.64,0,0,0,.67-.151c1.011-.453,2.054-.956,3.062-1.443,1.119-.54,2.273-1.1,3.428-1.608a29.4,29.4,0,0,1-8.462,4.65,60.646,60.646,0,0,1-9.138,2.512,31.607,31.607,0,0,1-6.17.6c-.944,0-1.9-.042-2.83-.126-2.347-1.12-4.765-2.159-6.819-3.029-2.637-1.107-5.519-2.213-8.81-3.381a37.761,37.761,0,0,1-13.03-35.29c1.391-8.736,5.382-15.891,10.95-19.63,4.165-2.8,9.2-3.4,14.075-3.992,4-.483,8.135-.982,11.814-2.678a26.307,26.307,0,0,0,9.469-7.576,51.039,51.039,0,0,0,6.341-10.464l1.455-3.073a126.64,126.64,0,0,1,10.994-19.616,98.074,98.074,0,0,1,18.23-19.14A92.862,92.862,0,0,1,168,59.01l1-.593c3.458-2.028,6.342-4.092,6.6-8.829a4.534,4.534,0,0,0-2.23-3.89,7.984,7.984,0,0,0-4.385-1.313c-3.617,0-7.15,2.4-10.268,4.509l-.011.008c-.4.273-.783.531-1.166.786a115.143,115.143,0,0,0-14.289,11.2,110.373,110.373,0,0,0-21.41,27.05,84.66,84.66,0,0,0-3.883,8.337c-2.505,5.908-5.1,12.016-9.626,15.972-3.488,3.042-8.159,3.539-12.677,4.02-.819.087-1.665.177-2.484.282a37.368,37.368,0,0,0-13.64,3.989c-17.41,9.67-22.334,33.062-18.2,51.17a53.67,53.67,0,0,0,2.891,8.881,8.6,8.6,0,0,0-1.408-.115,10.9,10.9,0,0,0-8.693,4.735,8.176,8.176,0,0,0-1.03,7.76c.146.372.31.733.47,1.083l0,.006c.059.13.119.261.178.392a22.265,22.265,0,0,0-9.24,12.64,20.094,20.094,0,0,0-.509,8.6,13.943,13.943,0,0,0-4.88,5.649,17.233,17.233,0,0,0-8.311,7.369,14.145,14.145,0,0,0-1.8,6.751,13.934,13.934,0,0,0,1.525,6.151c-.268.485-.53.99-.78,1.5a25.761,25.761,0,0,0-8.559,8.829,20.989,20.989,0,0,0-.891,19.561c-.106.341-.191.629-.259.881-6.469,3.289-10.916,8.442-12.521,14.509a19.035,19.035,0,0,0,.015,9.728,23.015,23.015,0,0,0,4.395,8.573c-6.939,5.077-9.366,11.55-7.42,19.79a24.648,24.648,0,0,0,5.1,10.09,2.4,2.4,0,0,1-.045.244l-.006.026-.562.436c-8.708,6.871-11.1,14.426-7.118,22.454a20.084,20.084,0,0,0,8.37,8.88l.17.54a24.374,24.374,0,0,0-1.59,17.21,19.5,19.5,0,0,0,3.365,6.762,21.314,21.314,0,0,0,5.465,4.977,24.538,24.538,0,0,0,.21,7.281A18.972,18.972,0,0,0,20.01,410,17.867,17.867,0,0,0,24,414.867c.109.531.253,1.094.44,1.721a30.839,30.839,0,0,0,5.44,10.09,8.458,8.458,0,0,0,6.73,3.27,24.267,24.267,0,0,0,4.545,16.076,20.36,20.36,0,0,0,7.965,6.6,15.282,15.282,0,0,0,6.327,1.346,16.609,16.609,0,0,0,1.773-.1,16.315,16.315,0,0,0,4.9,6.034,15.73,15.73,0,0,0,7.3,3,21.986,21.986,0,0,0,3.06.22,19.563,19.563,0,0,0,2.87-.209,34.2,34.2,0,0,0,3.22,1.3c.726.255,1.444.486,2.24.739a23.453,23.453,0,0,0,9.75,7.16,18.222,18.222,0,0,0,6.64,1.258,18.927,18.927,0,0,0,6.471-1.157l1.29.27a15.234,15.234,0,0,0,4,4.571,16.948,16.948,0,0,0,6.194,2.869,15.6,15.6,0,0,0,3.741.452,19.626,19.626,0,0,0,12.07-4.534h.008a.168.168,0,0,1,.063.011,15.349,15.349,0,0,0,4.62,6.142,12.365,12.365,0,0,0,7.626,2.391c.211,0,.428,0,.644-.012a14.329,14.329,0,0,0,5.839-1.531,18.413,18.413,0,0,0,4.9-3.6c1.612.2,3.2.38,4.811.56a41.936,41.936,0,0,0,5.68,5.521,7.8,7.8,0,0,0,4.867,1.84,6.515,6.515,0,0,0,5.523-3.179c.541-.825,1.05-1.672,1.542-2.492l.029-.048,2.31.159a16.319,16.319,0,0,0,4.87,4.477,14.186,14.186,0,0,0,6.64,1.873c.181.007.362.011.54.011,3.885,0,7.146-1.731,9.97-5.291,1.92.047,3.948.086,6.2.121a37.87,37.87,0,0,0,8.49,7.29,6.178,6.178,0,0,0,3.3.9,6.832,6.832,0,0,0,4.851-1.954,53.394,53.394,0,0,0,3.8-4.418,20.807,20.807,0,0,0,11.491,6.488,5.555,5.555,0,0,0,4.261,1.959,8.239,8.239,0,0,0,5.486-2.383,19.513,19.513,0,0,0,4.923-2.241,55.186,55.186,0,0,0,7.029.4c1.132,0,2.331-.024,3.664-.073a18.655,18.655,0,0,0,2.72,1.25,21.12,21.12,0,0,0,7.25,1.344,19.638,19.638,0,0,0,11.062-3.511,12.422,12.422,0,0,0,8.759,3.593c.257,0,.521-.007.782-.022,3.1-.173,5.636-1.426,8.236-4.064a13.063,13.063,0,0,0,4.178,3.873,13.318,13.318,0,0,0,5.819,1.77c.461.033.931.049,1.4.049,5.159,0,10.471-2.015,15.364-5.827a14.476,14.476,0,0,0,10.953,5.114,17.727,17.727,0,0,0,3.16.281,18.414,18.414,0,0,0,5.326-.782A23.248,23.248,0,0,0,360,485.58c4.657,4.459,9.544,6.72,14.523,6.72.391,0,.787-.014,1.178-.042a19.052,19.052,0,0,0,10.554-4.292,23.8,23.8,0,0,0,6.917-9.22,43.98,43.98,0,0,0,7.652-3.94,37.394,37.394,0,0,0,6.737-5.6c.145-.15.288-.309.427-.462l0-.005.219-.241a20.887,20.887,0,0,0,6.15-3.509,16.192,16.192,0,0,0,5.51-8.615,19.8,19.8,0,0,0-.31-10.136c.24-.978.466-2.04.71-3.34a18.023,18.023,0,0,0,13.24-9.111c3.713-6.771,3.279-16.031-1.08-23.04a30.864,30.864,0,0,0-6.64-7.457,18.241,18.241,0,0,0,1.256-10.349,18.893,18.893,0,0,0-4.42-9.406,25.58,25.58,0,0,0-4.107-4.99,15.258,15.258,0,0,0-.795-9.917,16.22,16.22,0,0,0-6.716-7.541l-.527-1.319c-.1-.251-.187-.459-.271-.653-.062-.256-.139-.509-.214-.753v0l-.02-.065a13.434,13.434,0,0,0-2.52-7.016,54.659,54.659,0,0,0-3.607-4.437c-2.254-2.578-4.381-5.012-5.752-8.46l-.213-.561a5.755,5.755,0,0,0-5.133-3.715,4.175,4.175,0,0,0-1.24.185A253.275,253.275,0,0,0,408,289.39a452.1,452.1,0,0,0,9.792-46.842c2.345-14.6,4.308-29.945,6-46.911l1.537-15.629c1.292-13.288,2.554-27.458,2.561-41.77a150.6,150.6,0,0,0-6.913-45.89,133.054,133.054,0,0,0-54.082-71.256A126.914,126.914,0,0,0,326.039,3.608,142.081,142.081,0,0,0,294.116,0ZM92.917,349.295a3.023,3.023,0,0,1-2.946-2.041,10.758,10.758,0,0,1,5.7-13.756,3.987,3.987,0,0,1,1.58-.346,2.842,2.842,0,0,1,2.524,1.422,3.262,3.262,0,0,1,.226,2.56,2.431,2.431,0,0,1-1.3,1.544c-3.013,1.317-4.06,3.645-3.029,6.73l.087.25a2.488,2.488,0,0,1-.225,2.388A3.192,3.192,0,0,1,92.917,349.295ZM43.484,360.6h0a2.985,2.985,0,0,1-1.989-.788c-2.224-1.962-4.753-5.173-4.173-9.323.447-3.2,2.637-6.007,6.509-8.348a2.915,2.915,0,0,1,1.516-.452,2.7,2.7,0,0,1,1.786.7,3.443,3.443,0,0,1,1.036,1.653,2.791,2.791,0,0,1-1.31,3.28l-.372.227c-1.475.916-3.013,2.077-3.244,3.74-.257,1.853,1.4,3.315,2.494,4.282a2.533,2.533,0,0,1,.8,2.9,3.377,3.377,0,0,1-3.049,2.13Zm17.474,46.026h0a2.7,2.7,0,0,1-1.577-.552c-3.457-2.468-5.24-5.228-5.452-8.438-.205-3.116,1.134-6.223,3.982-9.233a2.725,2.725,0,0,1,1.994-.923,3.246,3.246,0,0,1,2.842,2,2.821,2.821,0,0,1-.594,3.168c-1.5,1.589-2.234,3.2-2.113,4.666a4.859,4.859,0,0,0,2.164,3.433l.206.151a3.1,3.1,0,0,1,1.148,3.562,2.885,2.885,0,0,1-2.6,2.17Zm55.68-256.842a6.738,6.738,0,0,0-5.459,2.745c-.828,1.091-1.619,2.2-2.384,3.266l0,.006a52.972,52.972,0,0,1-6.551,8,37.519,37.519,0,0,1-3.681,2.951c-2.468,1.815-5.019,3.691-6.27,6.43a.27.27,0,0,0,.1.38,8.6,8.6,0,0,0,4.312,1.067,17.282,17.282,0,0,0,5.792-1.168,49.3,49.3,0,0,0,5.366-2.379c6.2-3.095,11.3-7.392,14.351-12.1a5.532,5.532,0,0,0,.495-5.828A6.98,6.98,0,0,0,116.638,149.782Z" transform="translate(-4290.474 3959.566) rotate(180)"/>
      <path id="_Ink-2" data-name="ðŸ– Ink" d="M105.29,0A38.105,38.105,0,0,0,84.176,6.244a40.23,40.23,0,0,0-8.734,7.542c-4.832,5.61-7.329,11.89-7.223,18.161a2.981,2.981,0,0,0,.707,1.9,3.319,3.319,0,0,0,1.766,1.06,3.41,3.41,0,0,0,.778.09,3.133,3.133,0,0,0,1.287-.27,2.747,2.747,0,0,0,1.361-1.338c.634-.832,1.469-1.923,2.308-2.978C82.744,22.611,88.82,17,97.932,15a25.533,25.533,0,0,1,5.479-.6,26.822,26.822,0,0,1,9.252,1.674,31.47,31.47,0,0,1,12.95,9.1,6.953,6.953,0,0,0,5.293,2.614h.046a8.137,8.137,0,0,0,5.628-2.492,8.779,8.779,0,0,0,2.629-5.729,7.665,7.665,0,0,0-2.177-5.629,43.621,43.621,0,0,0-9.179-7.479,44.426,44.426,0,0,0-10.811-4.772A42.241,42.241,0,0,0,105.29,0ZM117.2,55.619h0a34.914,34.914,0,0,0-12.449,2.509,62.872,62.872,0,0,0-14.639,8.307,5.624,5.624,0,0,0-2.043,3.249,6.731,6.731,0,0,0,.29,3.648A8.3,8.3,0,0,0,90.822,76.9a6,6,0,0,0,3.841,1.5,5.449,5.449,0,0,0,2.971-.912q.464-.355.969-.747l.033-.026c5.087-3.932,12.774-9.875,20.148-9.875a12.029,12.029,0,0,1,8.963,3.975,13.255,13.255,0,0,1,2.515,10.671c-1.7,8.3-10.723,14.345-13.448,16a2.511,2.511,0,0,0-.68,2.887,3.735,3.735,0,0,0,3.638,2.586,5.091,5.091,0,0,0,.86-.076,27.158,27.158,0,0,0,9.55-3.45,21.664,21.664,0,0,0,6.423-5.922,23.526,23.526,0,0,0,4.1-15.718,25.1,25.1,0,0,0-6.834-15.338A22.626,22.626,0,0,0,117.2,55.619ZM21.478,94.052a4.785,4.785,0,0,0-1.387.2,2.817,2.817,0,0,0-1.9,1.637c-2.417,6.418-.7,13.073,1.166,17.525,3.22,7.679,9,14.012,12.8,16.071a22.223,22.223,0,0,0,10.54,2.718,21.115,21.115,0,0,0,10.162-2.621,26.437,26.437,0,0,0,7.02-5.77,72.756,72.756,0,0,0,5.446-7.251c.717-1.045,1.458-2.125,2.213-3.173a6.387,6.387,0,0,0,1.075-5.938,7.679,7.679,0,0,0-4.359-4.5,8.345,8.345,0,0,0-3.212-.659,7.33,7.33,0,0,0-2.864.568,7.7,7.7,0,0,0-4.132,4.364c-1.952,4.689-4.823,8.5-7.877,10.452a8.413,8.413,0,0,1-8.446.645c-2.569-1.168-6.887-5-9.828-9.8a19.21,19.21,0,0,1-3.224-11.446,2.6,2.6,0,0,0-.841-2.183,3.271,3.271,0,0,0-1.823-.809A4.291,4.291,0,0,0,21.478,94.052Zm144.959,14.117a6.247,6.247,0,0,0-1.8.29,6.818,6.818,0,0,0-2.816,1.682,5.607,5.607,0,0,0-1.566,2.833,11.6,11.6,0,0,1-4.072,6.779,8.128,8.128,0,0,1-6.5,1.709,12.481,12.481,0,0,1-6.993-4.193,15.356,15.356,0,0,1-1.468-2.141l-.044-.072a15.623,15.623,0,0,0-2.9-3.811,2.832,2.832,0,0,0-1.8-.677,2.685,2.685,0,0,0-.8.125c-2.851,2.86-3.172,4.922-3.1,6.724a12.334,12.334,0,0,0,2.269,6.248c3.236,4.8,9.252,8.542,13.2,9.39a18.726,18.726,0,0,0,3.927.418,20.045,20.045,0,0,0,11.527-3.751,21.889,21.889,0,0,0,8.951-13.7,7.287,7.287,0,0,0-.366-4.046,5.675,5.675,0,0,0-2.648-2.944A6.293,6.293,0,0,0,166.437,108.169Zm-163,26.68a1.665,1.665,0,0,0-.216.014,2.03,2.03,0,0,0-1.056.513C.67,136.636-.056,138.763,0,141.7a27.357,27.357,0,0,0,2.781,10.629c2.417,4.836,6.5,11.675,12.222,16.8A59.424,59.424,0,0,0,34.225,180.83c3.484,1.3,8.7,3.018,13.7,3.018.284,0,.569-.006.847-.017a16.461,16.461,0,0,0,5.1-.969,13.409,13.409,0,0,0,4.539-2.821,8.423,8.423,0,0,0,2.517-6.152,8.782,8.782,0,0,0-2.53-6.293,13,13,0,0,0-5.374-3.141,31.25,31.25,0,0,0-5.867-1.047,53.347,53.347,0,0,1-5.716-.844,53.711,53.711,0,0,1-13.805-5.041c-4.386-2.381-9.353-5.332-12.939-9.17-.845-.9-1.647-1.861-2.424-2.787l-.021-.025c-.722-.861-1.4-1.674-2.131-2.466-.809-.883-1.552-1.772-2.438-2.843a12.09,12.09,0,0,1-.688-1.217c-.176-.368-.346-.707-.52-1.036-.322-.607-.633-1.14-.923-1.582-.575-.966-.872-1.2-1.107-1.3A2.482,2.482,0,0,0,3.434,134.848Zm171.174,2.194a1.957,1.957,0,0,0-.323.027,1.93,1.93,0,0,0-.985.479,1.852,1.852,0,0,0-.553.956c-2.424,10.643-7.248,17.293-15.643,21.56a66.92,66.92,0,0,1-14.575,4.9c-1.4.332-2.913.553-4.374.767l-.069.01c-4.426.646-9.442,1.378-12.625,5.325a10.628,10.628,0,0,0-1.968,3.839,9.791,9.791,0,0,0-.237,4.133,8.486,8.486,0,0,0,4.608,6.279,13.869,13.869,0,0,0,6.436,1.471c5.379,0,11.207-2.494,15.462-4.316l.34-.145.015-.007q.573-.245,1.129-.48a50.754,50.754,0,0,0,17.7-11.809,38.243,38.243,0,0,0,9.1-16.807c1.346-5.83.711-11.119-1.836-15.295a1.816,1.816,0,0,0-.83-.729A1.912,1.912,0,0,0,174.608,137.042Z" transform="translate(-4510.47 3874.854) rotate(180)"/>
    </g>
  </g>
</svg>
