<svg xmlns="http://www.w3.org/2000/svg" width="1040" height="1034" viewBox="0 0 1040 1034">
  <g id="avatar-1" transform="translate(10067 -6986)">
    <ellipse id="Ellipse_149" data-name="Ellipse 149" cx="520" cy="517" rx="520" ry="517" transform="translate(-10067 6986)" fill="#ffe0b2"/>
    <g id="Group_284" data-name="Group 284" transform="translate(-5840.498 3885.959)">
      <path id="_Skin" data-name="âœ‹ Skin" d="M172.706,0C115.926,0,57.2,44.012,36.382,72.1,12.315,104.572-6.67,260.469,2.237,313.368S55.382,423.924,132.181,423.924s123.536-9.459,125.41-23.2,50.654-90.219,50.654-90.219,49.89-14.032,50.085-47.551-26.734-45.714-26.734-45.714,9.6-132.279-14.58-166.718S229.487,0,172.706,0Z" transform="translate(-3901.221 3446.26)" fill="#d08b5b"/>
      <path id="_Ink" data-name="ðŸ– Ink" d="M318.623,0a165.932,165.932,0,0,0-28.257,2.44A87.867,87.867,0,0,0,279,5.181a73.405,73.405,0,0,0-11.027,4.444,49.661,49.661,0,0,0-18.057,14.736.969.969,0,0,0-.126,1.048,1.483,1.483,0,0,0,1.281.731,1.223,1.223,0,0,0,.514-.108c19.132-8.855,40.371-13.345,63.126-13.345a176.2,176.2,0,0,1,23.324,1.574A135.132,135.132,0,0,1,377.667,25.74c8,3.758,15.182,8.906,22.125,13.884,2.206,1.582,4.486,3.216,6.765,4.787a80.57,80.57,0,0,0,5.82,7.1l3.309,3.47c2.365,2.492,4.863,5.2,7.11,8.1A106.9,106.9,0,0,1,439,92.331c6.79,19.11,5.506,39.775,4.264,59.759l0,.025c-.083,1.339-.169,2.724-.251,4.081l-.111,1.876c-1.313,22.641-3.484,45.533-6.45,68.04-1.225,9.3-2.613,18.77-4.127,28.163a105.861,105.861,0,0,1-7.9,11.314,14.7,14.7,0,0,0,0-6.909,16.232,16.232,0,0,0-2.927-6.284,9.823,9.823,0,0,0-7.685-4.2,9.987,9.987,0,0,0-5.177,1.568c-6.314,5.4-8.933,12.505-11.7,20.03-2.2,5.977-4.479,12.156-8.779,17.527-4.354,6.726-20.958,17.259-45.554,28.9-20.669,9.781-43.125,18.414-53.4,20.526a35.583,35.583,0,0,1,4.471-4.978c2.628-2.583,5.345-5.255,6.218-8.775a26.571,26.571,0,0,0,7.01-8.824,9.175,9.175,0,0,0,.5-6.947c-1.38-3.647-5.637-5.913-11.109-5.914a24.258,24.258,0,0,0-13.57,4.483,29.46,29.46,0,0,0-6.339,5.992,35.946,35.946,0,0,0-5.063,8.835A158.42,158.42,0,0,1,275,289.41a51.288,51.288,0,0,0,2.473-13.7c.2-4.257-.077-10.058-2.506-13.519a6.212,6.212,0,0,0-5.33-2.81,13.316,13.316,0,0,0-5.64,1.53,11.534,11.534,0,0,0-3.195-.468,10.925,10.925,0,0,0-8.255,3.915,16.883,16.883,0,0,0-3.992,9.016c-2.433-7.312-2.924-16.572-3.4-25.527a156.24,156.24,0,0,0-1.746-18.84,44.274,44.274,0,0,0-2.2-8.174,23.8,23.8,0,0,0-3.8-6.685,5.246,5.246,0,0,0-3.834-1.684,7.306,7.306,0,0,0-6.348,4.465A11.026,11.026,0,0,0,219.435,224c-1.337,3.329-1.721,7.292-2.093,11.125-.152,1.569-.3,3.051-.5,4.465-2.659-9.7-5.508-18.514-8.262-27.041-6.567-20.327-12.769-39.526-13.886-64.17a9.321,9.321,0,0,0,1.77-4.368,6.506,6.506,0,0,0-.706-3.726c-1.471-2.832-4.967-4.735-8.7-4.735a9.474,9.474,0,0,0-7.459,3.429,22.926,22.926,0,0,0-3.527,8.08,32.474,32.474,0,0,0-.691,8.786c.269,6.017,1.779,12.269,3.24,18.316.979,4.051,1.9,7.876,2.448,11.539a10.323,10.323,0,0,0-7.4,3.851c-1.066-4.179-.621-9.531-.229-14.253v-.007q.064-.771.124-1.516c-1.024-4-2.587-7.056-4.646-9.078a9.033,9.033,0,0,0-6.5-2.752,11.483,11.483,0,0,0-5.184,1.33,17.722,17.722,0,0,0-4.8,3.65,23.792,23.792,0,0,0-6.382,17.312c-.986-5.375-1.719-10.775-2.176-16.048a47.313,47.313,0,0,0,9.481-17.351,4.77,4.77,0,0,0-.676-4.372,6.493,6.493,0,0,0-5.094-2.407,5.957,5.957,0,0,0-1.093.1,11.556,11.556,0,0,0-3.69-5.553,9.354,9.354,0,0,0-5.887-2.3,7.829,7.829,0,0,0-5.955,2.9,20.805,20.805,0,0,0-5.2,9.612,57.2,57.2,0,0,0-1.506,11.392,4.046,4.046,0,0,0-1.123,3.082,7.1,7.1,0,0,0,.818,3.02c-.106,1.85-.226,3.331-.378,4.66-3.089-9.608-2.363-19.7-1.661-29.468.238-3.314.485-6.74.576-10.087,7.393-4.163,15.855-5.917,24.039-7.614l1.216-.252a3.283,3.283,0,0,0,2.416-2.537,3.433,3.433,0,0,0-.956-3.483,137.84,137.84,0,0,0,12.107-14.243l.017-.022c.629-.812,1.28-1.652,1.916-2.465,5.061-6.466,10.227-13.514,16.751-22.852l3.168-4.54.4-.576c4.687-6.673,10-14.236,13.533-22.271,4.108-9.343,4.888-17.335,2.384-24.431a3.2,3.2,0,0,0-2.983-2.1,2.6,2.6,0,0,0-2.328,1.413,114.86,114.86,0,0,0-5.6,12.687c-1.476,3.748-3,7.623-4.861,11.282-3.779,7.424-8.529,14.427-13.123,21.2l-.408.6-2.768,4.1c-4.162,6.186-9.011,13.5-13.411,20.838l-2.948,4.887a109.5,109.5,0,0,0-7.552,14.342,29.268,29.268,0,0,0-6.85-.8,37.631,37.631,0,0,0-15,3.336l-.089-.485-.177-.871a7.567,7.567,0,0,0-7.12-5.395,5.571,5.571,0,0,0-3.352,1.079,31.249,31.249,0,0,0-9.654,12.12,45.982,45.982,0,0,0-3.726,15.078,59.367,59.367,0,0,0-4.524,9.436,18.343,18.343,0,0,0-2.665-8.75A8.961,8.961,0,0,0,82.5,136.2c-.117,0-.232,0-.351,0-4.642.381-8.093,2.164-10.259,5.3-3.186,4.613-3.5,12.141-.9,21.2a14.4,14.4,0,0,0-4.176-.679,9.156,9.156,0,0,0-7.993,4.419c-1.971,2.974-3.072,7.407-3.1,12.482A35.075,35.075,0,0,0,58.2,192.289a8.361,8.361,0,0,0-4.592,3.173l-.827-1.451c-3.012-5.215-6.476-10.426-11.388-13.22a10.556,10.556,0,0,0-5.214-1.35,11.6,11.6,0,0,0-8.289,3.5,9.558,9.558,0,0,0-2.659,7.247c1.043,9.942,7.606,18.177,13.953,26.142,2.526,3.169,4.911,6.163,6.979,9.268a11.736,11.736,0,0,0-1.634-.113,12.979,12.979,0,0,0-2.381.225,13.928,13.928,0,0,0-6.724-1.978,9.209,9.209,0,0,0-4.966,1.421,11.854,11.854,0,0,0-3.648,3.733,20.159,20.159,0,0,0-2.886,9.333,20.453,20.453,0,0,0,1.645,9.825c3.245,8.592,8.986,16.969,18.066,26.364l-2.163-1.292a39.422,39.422,0,0,0-5.14-2.638,14.4,14.4,0,0,0-5.39-1.183,9.824,9.824,0,0,0-2.016.206c-5.72-3.758-11.13-5.745-15.644-5.745A10.782,10.782,0,0,0,6.47,265.87,8.243,8.243,0,0,0,3.451,271.2a11.4,11.4,0,0,0,.561,5.369,17.438,17.438,0,0,0,3.324,5.686c3.512,4.124,8.976,7.414,15.8,9.515l-.01.145a10.533,10.533,0,0,0-2.075,12.694,17.806,17.806,0,0,0-5.914-.972A19.613,19.613,0,0,0,6.5,305.633a12.049,12.049,0,0,0-5.673,5.378c-1.145,2.4-1.664,6.31,2.365,11.274,7.459,7.024,15.254,11.887,23.168,14.452a26.912,26.912,0,0,0-.394,7l-.518-.071c-.77-.111-1.542-.246-2.36-.389a34.654,34.654,0,0,0-5.827-.688c-3.533,0-5.9,1.257-7.444,3.955a9.112,9.112,0,0,0-1.049,5.342,7.059,7.059,0,0,0,2.347,4.846,100.355,100.355,0,0,0,15.5,10.613A66.517,66.517,0,0,0,43.843,374c.47,1.556.923,2.983,1.385,4.36a13.887,13.887,0,0,0-4.671.949,17.681,17.681,0,0,0-4.328,2.4,15.159,15.159,0,0,0-5.56,7.534,8.517,8.517,0,0,0,.17,5.548,10.894,10.894,0,0,0,4.418,5.061,82.856,82.856,0,0,0,15.134,6.071,58.221,58.221,0,0,0,16.031,2.29c.5,0,1-.007,1.5-.02a11.9,11.9,0,0,0-2.891,12.057,12.37,12.37,0,0,0,9.188,8.8,12.954,12.954,0,0,0-1.367,5.9,9.365,9.365,0,0,0,1.477,4.778,14.01,14.01,0,0,0,6.52,5.135,23.832,23.832,0,0,0,9.077,1.776,22.607,22.607,0,0,0,4.04-.355,14.679,14.679,0,0,0,1.882,8.252,10.38,10.38,0,0,0,6.54,5.085c-.795,4.656-.136,8.276,1.959,10.758a10.3,10.3,0,0,0,4.752,3.057,20.358,20.358,0,0,0,6.354.9,44.3,44.3,0,0,0,14.619-2.79,11.279,11.279,0,0,0-.811,9.74,13.039,13.039,0,0,0,7.914,7.643,15.967,15.967,0,0,0,3.52.391c8.49,0,16.517-6.486,23.6-12.209,1.4-1.13,2.719-2.2,4.009-3.187a12.418,12.418,0,0,0-.41,9.8,12.013,12.013,0,0,0,7.026,6.393,11.668,11.668,0,0,0,4.271.79,19.329,19.329,0,0,0,8.069-2.073,70.351,70.351,0,0,0,7.477-4.243c.491-.307.955-.6,1.424-.885a13.171,13.171,0,0,0,5.787,4.08,20.246,20.246,0,0,0,7.054,1.2c.394,0,.794-.01,1.189-.03a10.222,10.222,0,0,0,2.355,3.892,9.031,9.031,0,0,0,2.832,6.452,14.84,14.84,0,0,0,10.194,4.093,10.257,10.257,0,0,0,9.035-4.6A34.2,34.2,0,0,0,241.76,515.3a10.131,10.131,0,0,0,7.865,3.8,11.746,11.746,0,0,0,4.95-1.139,14.468,14.468,0,0,0,4.259-3.04,13.693,13.693,0,0,0,2.775-4.12,11.283,11.283,0,0,0,.951-4.834,12.794,12.794,0,0,0,8.033-7.384c.367.024.735.036,1.092.036a15.225,15.225,0,0,0,7.659-2l.575.708a61.664,61.664,0,0,0,11.565,11.252c4.556,3.233,9.017,4.872,13.259,4.872a18.062,18.062,0,0,0,10.017-3.189,9.938,9.938,0,0,0,3.76-4.45,10.208,10.208,0,0,0,.547-5.821l-.059-.292.285,1.278a1.681,1.681,0,0,0,.095.336,16.7,16.7,0,0,0-.4-2.066l-.021-.059a9.24,9.24,0,0,0-.613-1.248c-.131-.233-.254-.452-.375-.708a24.725,24.725,0,0,0,6.782,3.392,22.647,22.647,0,0,0,6.911,1.118,15.935,15.935,0,0,0,6.5-1.278,9.237,9.237,0,0,0,4.355-3.787c1.4-2.429,2.209-6.78-1.836-13.714l4.308,1.68c8.971,3.466,19.372,7.165,29.3,7.165a32.393,32.393,0,0,0,9.241-1.266,26.371,26.371,0,0,0,8.489-4.309,6.853,6.853,0,0,0,2.182-6.781,11.315,11.315,0,0,0-3.4-5.4,14.837,14.837,0,0,0-5.64-3.339l1.064.178,1.577.271c5.193.9,12.3,2.122,19.008,2.122,5.163,0,9.374-.746,12.514-2.216a13.2,13.2,0,0,0,4.5-3.329,12.27,12.27,0,0,0,2.6-5.306,8.812,8.812,0,0,0-1.328-7.18,14.437,14.437,0,0,0-5.8-4.687h.326a69.135,69.135,0,0,0,14.462-1.423,47.845,47.845,0,0,0,13.474-5.012,8.755,8.755,0,0,0,3.328-4.086,6.647,6.647,0,0,0,.058-4.319,9.172,9.172,0,0,0-3.587-4.643,11.042,11.042,0,0,0-6.225-1.937c-.179,0-.361,0-.54.013a11.8,11.8,0,0,0,2.434-6.071,9.072,9.072,0,0,0-1.465-6.268,48.2,48.2,0,0,0,13.443-5.461l1.132-.146c.525-.065,1.066-.131,1.588-.193l.017,0a52.876,52.876,0,0,0,11.63-2.283,15.927,15.927,0,0,0,8.94-7.254c1.616-4.252,1.552-7.687-.188-10.21-1.977-2.866-6.123-4.445-11.673-4.445a31.974,31.974,0,0,0-15.422,3.962,10.338,10.338,0,0,0,1.306-3.2l3.3-.928.413-.115c12.3-3.421,26.25-7.3,34.188-17.674a10.166,10.166,0,0,0-.241-10.076,9.759,9.759,0,0,0-2.95-3.3,7.249,7.249,0,0,0-4.145-1.309,7.756,7.756,0,0,0-1.8.216,22.437,22.437,0,0,0,10.2-9.083,14.358,14.358,0,0,0,1.741-10.07,9.286,9.286,0,0,0-3-5.128,9,9,0,0,0-5.909-2.031c-3.193,0-6.748,1.292-10.566,3.839a7.509,7.509,0,0,0-3.327-1.827l4.3-2.332c5.694-3.117,11.554-6.61,15.844-11.025a22.841,22.841,0,0,0,5.034-7.5,17.19,17.19,0,0,0,.9-9.224,6.82,6.82,0,0,0-3.271-4.134,10.6,10.6,0,0,0-5.213-1.185,19.408,19.408,0,0,0-8.722,2.2,227.1,227.1,0,0,0,24.8-24.767l2.1-2.5a69.45,69.45,0,0,0,6.977-9.569,25.67,25.67,0,0,0,2.433-5.459,11.984,11.984,0,0,0,.463-5.311,9.462,9.462,0,0,0-4.826-6.559,11.978,11.978,0,0,0-5.421-1.421c-3.065,0-6.025,1.45-9.05,4.435a65.633,65.633,0,0,0-7.345,9.43c-2.283,3.318-4.438,6.451-6.7,8.539A12.322,12.322,0,0,0,471.587,246a10.773,10.773,0,0,0-5.883,1.736,13.464,13.464,0,0,0-4.726,5.636,11.969,11.969,0,0,0-2.061-.18,11.838,11.838,0,0,0-1.574.105c2.406-2.55,6.251-10.628,8.945-18.788a73.155,73.155,0,0,0,3.042-12.343c.581-4.146.423-7.3-.468-9.363a4.342,4.342,0,0,0-4.268-2.853,12.5,12.5,0,0,0-5.129,1.415,85.03,85.03,0,0,0-8.97,11.456c3.329-25.612,5.827-51.863,7.427-78.024l.567-9.447c.586-9.909,1.021-19.615-.083-29.408a99.054,99.054,0,0,0-9.491-32.34,128.552,128.552,0,0,0-17.169-26.39c-3.476-4.18-7.35-8.492-12.12-11.709-3.743-2.522-8.1-4.179-12.321-5.781a69.733,69.733,0,0,0-11.462-9.087,116.42,116.42,0,0,0-12.767-7.054A126.974,126.974,0,0,0,361.07,5.529a167.116,167.116,0,0,0-23.034-4.369A163.276,163.276,0,0,0,318.623,0ZM446.616,340.867h0l.189-1.035c.173-.153.34-.314.5-.468l.2-.191c.707-.167,1.415-.35,2.1-.542-1.032.836-2.093,1.6-2.994,2.237Zm12.64,25.239-.222-.308c-.034-.045-.074-.1-.117-.148.688-.261,1.292-.5,1.846-.719l.918-.376.324-.142C461.017,365.031,460.118,365.586,459.255,366.105ZM310.791,492.9v0c-.3-.23-.685-.486-.886-.617l.25.021c.193.017.391.034.589.045.355.265.729.541,1.112.821l-.552-.137-.5-.119-.051-.012a.6.6,0,0,1-.109-.031Z" transform="translate(-3448.471 3876.146) rotate(180)"/>
      <path id="teeth" d="M120.456,7.662C103.705-3.563,18.925-1.367,11.1,7.245S-14.808,40.434,23.928,52.5s86.686,7.841,99.178-6.935l.736-.883C135.656,30.317,136.872,18.662,120.456,7.662Z" transform="translate(-3858.454 3758.741)" fill="#fff"/>
      <path id="_Ink-2" data-name="ðŸ– Ink" d="M88.41,0C74.032,0,60.5,1.873,49.274,5.417A69.694,69.694,0,0,0,33.65,12.361a39.339,39.339,0,0,0-11.142,9.921c-5.773,7.833-7.017,17.236-3.7,27.948a32.369,32.369,0,0,0,7.554,8.6,34.1,34.1,0,0,0,9.413,5.183c5.977,2.194,13.075,3.216,22.337,3.216,5.671,0,11.513-.381,16.668-.717l.459-.03c5.426-.353,10.548-.687,15.4-.687.929,0,1.833.013,2.685.038,1.186-.086,2.493-.128,4-.128,4.263,0,9.364.346,14.765.712l1.259.085c6.225.42,12.309.8,18.3.8a81.342,81.342,0,0,0,16.019-1.332c5.318-1.078,9.4-2.8,12.487-5.25,4.637-5.79,7.524-11.453,8.581-16.831a22.458,22.458,0,0,0-1.769-14.355c-2.2-4.573-6-8.813-11.315-12.6a74.987,74.987,0,0,0-18.585-9.265C123.032,2.724,105.752,0,88.41,0Zm1.507,23.85a11.8,11.8,0,0,1-5.849-1.812,9.748,9.748,0,0,1-3.748-3.587c-1.07-2.233-.805-6.759-.718-8.247.009-.161.018-.313.022-.409,4.211-.424,8.522-.64,12.814-.64,2.841,0,5.729.095,8.583.281-.317,1.047-.585,2.147-.844,3.211-1.248,5.119-2.539,10.41-9.668,11.178-.193.016-.391.024-.591.024Zm24.844-1.722h0a9.669,9.669,0,0,1-2.423-.313c-4.643-1.2-7.133-6.518-6.857-10.96a1.342,1.342,0,0,0-.211-.694c-.028-.053-.053-.1-.076-.15a123.3,123.3,0,0,1,18.121,3.545c-.807,5.367-4,8.572-8.554,8.573ZM62.019,27.683h0a9.918,9.918,0,0,1-1.7-.139c-2.717-.572-4.73-2.407-5.982-5.455A16.532,16.532,0,0,1,53.155,16.4a110.369,110.369,0,0,1,18.162-4.934c1.063-.211,2.213-.418,3.617-.652l.078.988c.174,2.524.133,7.264-2.092,10.648-2.257,3.434-7.192,5.231-10.9,5.231Zm75.043.263h0a11.36,11.36,0,0,1-8.236-3.848,11.767,11.767,0,0,1-2.987-9.215c1.257.4,2.517.814,3.744,1.241a81.543,81.543,0,0,1,15.767,6.971,9.778,9.778,0,0,1-8.287,4.851ZM83.978,58.552h0a67.276,67.276,0,0,1-12.15-1l-.175-1.924q-.045-.474-.091-.946c-.619-6.383-1.2-12.411,2.135-14.968,1.352-1.036,4.287-1.607,8.265-1.607a45.442,45.442,0,0,1,10.355,1.213c.2.049.4.31.618.774a30.624,30.624,0,0,1,1.624,8.653c.293,4.2-.033,7.607-.894,9.346-3.394.306-6.653.461-9.686.461Zm23.344.334c-.7-3.241-2.705-14.039.76-16.929,1.361-1.135,4.333-1.813,7.949-1.813,3.138,0,6.047.529,7.24,1.316,1.885,1.244,2.334,6.53,1.334,15.711a95.113,95.113,0,0,1-17.284,1.715Zm21.18-1.84h0l-.053-1.027c-.377-7.621.543-12.2,2.735-13.6a8.417,8.417,0,0,1,4.495-1.306c4.917,0,9.17,4.183,11.669,11.476-1.214,3.193-12.445,3.994-17.24,4.336-.7.05-1.261.09-1.606.125Zm-60.58.438h0l-2.892-.026-1.637-.022A67.155,67.155,0,0,1,50.567,56.2c-2.4-5.195-1.415-8.623-.161-10.585A9.581,9.581,0,0,1,58.518,41.5a9.817,9.817,0,0,1,7.723,3.549c1.576,1.953,3.174,5.58,1.835,11.765l-.154.671ZM112.2,79.878h0a34.913,34.913,0,0,0-12.449,2.509,62.874,62.874,0,0,0-14.639,8.307,5.625,5.625,0,0,0-2.043,3.249,6.731,6.731,0,0,0,.29,3.648,8.3,8.3,0,0,0,2.464,3.562,6,6,0,0,0,3.841,1.5,5.45,5.45,0,0,0,2.971-.912q.478-.367,1-.772c5.087-3.933,12.774-9.876,20.149-9.876a12.03,12.03,0,0,1,8.964,3.975,13.254,13.254,0,0,1,2.514,10.671c-1.7,8.3-10.724,14.345-13.449,16a2.511,2.511,0,0,0-.679,2.887,3.736,3.736,0,0,0,3.639,2.586,5.1,5.1,0,0,0,.859-.076,27.155,27.155,0,0,0,9.55-3.45,21.664,21.664,0,0,0,6.423-5.922,23.527,23.527,0,0,0,4.1-15.718,25.1,25.1,0,0,0-6.834-15.339A22.625,22.625,0,0,0,112.2,79.878Zm47.264,42.908a8.476,8.476,0,0,0-5.014,1.716,14.7,14.7,0,0,0-4.042,4.691,32.633,32.633,0,0,0,0,29.507,14.7,14.7,0,0,0,4.042,4.691,8.182,8.182,0,0,0,10.028,0,14.7,14.7,0,0,0,4.042-4.691,32.633,32.633,0,0,0,0-29.507,14.7,14.7,0,0,0-4.042-4.691A8.472,8.472,0,0,0,159.465,122.786Zm-112.24,0a8.472,8.472,0,0,0-5.014,1.716,14.714,14.714,0,0,0-4.043,4.691,32.641,32.641,0,0,0,0,29.507,14.713,14.713,0,0,0,4.043,4.691,8.182,8.182,0,0,0,10.028,0,14.7,14.7,0,0,0,4.042-4.691,32.634,32.634,0,0,0,0-29.507,14.7,14.7,0,0,0-4.042-4.691A8.476,8.476,0,0,0,47.225,122.786ZM1.316,176.947a1.3,1.3,0,0,0-1.082.664,1.449,1.449,0,0,0-.087,1.422,49.327,49.327,0,0,0,11.061,14,68.38,68.38,0,0,0,14.8,10.112,63.657,63.657,0,0,0,17.578,6.133l1.877.329.962.163a42.288,42.288,0,0,0,6.709.668c4.28,0,7.377-1.155,9.467-3.53a8.042,8.042,0,0,0,1.9-5.713,5.234,5.234,0,0,0-1.9-3.735c-3.008-2.433-6.172-2.932-10-2.932-.788,0-1.6.02-2.391.04H50.19c-.761.019-1.618.041-2.468.041-.785,0-1.485-.018-2.14-.056A67.59,67.59,0,0,1,30.7,192.015c-10.582-3.024-19.256-8.511-28.7-14.843A1.233,1.233,0,0,0,1.316,176.947ZM187.35,184.52h0c-.272.065-.538.131-.791.2a44.77,44.77,0,0,0-8.681,3.387l-2.819,1.389a78.327,78.327,0,0,1-10.067,4.289,118.791,118.791,0,0,1-22.932,5.064,9.368,9.368,0,0,0-4.6,1.746,6.894,6.894,0,0,0-2.573,3.919,7.008,7.008,0,0,0,.793,5.874,7.477,7.477,0,0,0,3.631,3.129,8.171,8.171,0,0,0,3.1.591,9.115,9.115,0,0,0,1.786-.179l1.437-.294.953-.2c9.782-2.1,17.728-4.749,24.294-8.085a49.3,49.3,0,0,0,10.6-7.091,31.682,31.682,0,0,0,7.507-9.779c.27-2.076.021-2.592-.258-2.942l-.081-.1c-.024-.031-.047-.063-.07-.1a1.991,1.991,0,0,0-1.23-.818Z" transform="translate(-3699.212 3822.134) rotate(180)"/>
    </g>
  </g>
</svg>
