<svg xmlns="http://www.w3.org/2000/svg" width="1040" height="1034" viewBox="0 0 1040 1034">
  <g id="avatar-3" transform="translate(12251 -7010)">
    <ellipse id="Ellipse_147" data-name="Ellipse 147" cx="520" cy="517" rx="520" ry="517" transform="translate(-12251 7010)" fill="#ffe0b2"/>
    <g id="Group_282" data-name="Group 282" transform="translate(-12098 7203)">
      <path id="_Skin" data-name="âœ‹ Skin" d="M6.718,160.945C13.582,77.27,34.482,3.16,132.687,0A342.908,342.908,0,0,1,263,27.231c99.056,49.666,130.485,231.147,43.214,304.2a.927.927,0,0,1,.031,1.56c-18.03,12.13-38.071,22.11-58.143,30.5-53.466,22.6-116.407,32.422-170.934,7.9C-6.047,335.983-7.295,237.458,6.718,160.945Z" transform="translate(167.981 233.999)" fill="#d08b5b"/>
      <path id="_Ink" data-name="ðŸ– Ink" d="M10.907,355.943a24.878,24.878,0,0,1-7.26-11.65,22.79,22.79,0,0,1-.01-12.76c1.34-4.42,4.23-7.94,3.58-12.54a10.505,10.505,0,0,0-.3-1.39c-2.5-8.66-8.65-14.91-6.45-24.51a16.63,16.63,0,0,1,3.42-7.07c-.18-2.08-.34-4.18-.47-6.28a33.517,33.517,0,0,1,.37-26.81,101.312,101.312,0,0,1,2.18-12.63,24.275,24.275,0,0,1,1.36-10.92A155.211,155.211,0,0,1,14.742,212.7a6.148,6.148,0,0,1,.646-4.486,41.71,41.71,0,0,1,5.516-7c1.435-2.563,2.88-5.1,4.313-7.614.664-1.153,1.4-2.432,2.205-3.787-2.2-4.086-3.378-8.068-1.049-12.873a5.945,5.945,0,0,1,5.262-3.018c2.165.129,4.35.226,6.547.309,4.106-4.958,8.759-9.409,13.745-11.971,5.05-4.28,10.17-8.48,15.15-12.77,1.41-1.22,2.83-2.44,4.24-3.66.01-.03.02-.07.03-.1,1.04-3.79,2.21-7.53,3.38-11.29.73-2.33.95-4.77,3.22-6.04,4.74-2.65,12.03-3.07,17.47-3.52.54-.48,1.08-.95,1.62-1.43a25.427,25.427,0,0,1,1.08-20.16c1.06-2.24,4.74-3.25,6.76-1.77a22.622,22.622,0,0,0,15.66,4.13c8.04-6.18,40.47-34.126,45.481-37.076.062-.106.112-.212.178-.317A40.667,40.667,0,0,1,176.28,57.244l1.647-1.721a20.932,20.932,0,0,0-3.8-9.51c-.22-.32-.47-.63-.72-.93-3.58-4.26.79-9.74,5.79-7.51.36.16.72.32,1.08.49,3.844,1.714,8.1,3.577,12.526,5.149,1.621-.607,3.273-1.157,4.78-1.763l16.136-6.487c2.656-1.068,5.464-1.973,8.033-3.228.9-5.959,6.868-9.867,13.07-9.663a11.611,11.611,0,0,0-1.645-3.308c-.22-.31-.46-.61-.71-.9-3.19-3.71,1.07-10.59,5.63-7.29.32.23.65.46.97.69,1.267.889,2.564,1.723,3.875,2.531a8.823,8.823,0,0,1,6.937-.156,71.38,71.38,0,0,1,15.351,7.688c.2.137.4.252.6.381a13.135,13.135,0,0,1,9.618-4.805l.186,0a12.579,12.579,0,0,1,11.78-5.614c-.306-5.6,5.3-10.588,10.394-11.2a12.019,12.019,0,0,1,13.116,8.563q.747,2.427,1.493,4.856a52.678,52.678,0,0,1,14.608-5.017c11.613-2.034,22.968.132,34.159,3.356,1.118.322,2.235.653,3.352.983,1.6-1.849,3.093-3.742,4.524-5.509,2.47-3.05,8.4-.61,8,3.31a6.422,6.422,0,0,0,2.59,6.034,38.369,38.369,0,0,0,6.653.313,21.874,21.874,0,0,0,9.36-1.719,12.348,12.348,0,0,0,5.158-4.253c4.075-6.427,14.426-8.158,19.356-2.03,5.188-2.271,11.738.861,14.618,5.277,1.507,2.309,4.651,3.6,8.609,4.71,2.971.832,6.009,1.462,9.061,2.013,1.36-1.845,4.224-3.082,6.325-1.535,1.423,1.051,2.8,2.13,4.168,3.236,10.51,1.448,20.965,1.5,30.986-2.6,8.484-3.47,16.274,6.007,14.874,13.963,2.457,1.279,5.123,2.13,7.55,3.47A29.922,29.922,0,0,1,528.658,50.5c.475.973.9,1.961,1.313,2.954,1.979,1.611,3.936,3.265,5.846,5.01q4.77-2.445,9.53-4.89c2.38-1.22,6.39-.37,6.86,2.79a28.72,28.72,0,0,0,5.31,13.12,217.322,217.322,0,0,1,25.02,15.37c9.19,2.88,18.96,4.56,26.99,6.45a4.552,4.552,0,0,1,2.7,6.63q-2.46,3.795-4.91,7.59,6.855,6.69,12.91,13.94a259.079,259.079,0,0,1,29.14,43.65q5.01,2.025,10.02,4.04c3.22,1.3,4.67,5.04,2.06,7.79a29.805,29.805,0,0,0-3.3,4.14c4.73,7.83,10.3,14.97,18.09,19.65a12.216,12.216,0,0,1,5.1,6.18c.81.54,1.61,1.12,2.4,1.71,2.2,1.66,3.53,5.28.95,7.43a29.823,29.823,0,0,0-4.95,5.31c-.31,1.13-.63,2.27-.95,3.4a84.158,84.158,0,0,1,17.78,23.08,3.976,3.976,0,0,1,3.06.6c8.08,5.97,8.32,15.48,5.07,23.98a86.834,86.834,0,0,1-3.08,38.35c4.97,4.96,7.96,12.12,9.18,19.02,2.15,12.12,2.3,30.76,2.86,43.13a44.125,44.125,0,0,1,11.43,19.28l5.43,2.7a5.313,5.313,0,0,1,2.69,4.69c-.46,8.61-4.01,15.41-8.72,21.57a47.488,47.488,0,0,1-7.38,13.33,101.117,101.117,0,0,0-6.36,8.75,5.569,5.569,0,0,0-.41.8,17.766,17.766,0,0,1,1.94,3.15c4.62,8.14,4.69,17.68-1.87,24.77,2.47,2.02,2.55,6.1.37,8.6-14.19,16.21-26.02,35.92-45.71,44.53a4.911,4.911,0,0,0-.24.45c3.99,9.6,4.53,14.59,1.27,24.51a2.575,2.575,0,0,1-.08.26c-1.74,5.2-4.94,13.53-10.71,15.15a19.41,19.41,0,0,1-5.38.73q-6.87,6.615-13.72,13.25a46.059,46.059,0,0,0-.73,6.63,5.924,5.924,0,0,1-7.42,5.65c-1.33-.39-8.69-7.54-10.04-7.5-.68.68-1.34,1.36-2,2.05-2.43,2.55-5.8,6.57-6.08,9.24-.54,5.03-3.84,10.79-9.17,11.81-2,2.03-5.2,2.64-7.65-.01-.16-.17-.32-.34-.49-.49l-.77-.09q-1.77,5.28-3.55,10.55c-2.33,6.92-11.23,11.37-17.55,7.33-1.02.61-2.02,1.26-3.02,1.91-1.52.97-3.06,1.96-4.64,2.89-.09.26-.18.52-.26.77-1.02,3.11-5.26,4.78-7.87,2.99a23.114,23.114,0,0,1-2.48.64,24.973,24.973,0,0,1-13.11-.84c-3.05-1.04-5.96-3.03-9.24-3.3-.2-.017-.416,0-.624-.009-2.676,5.482-8.791,10.206-13.61,11.811a25.285,25.285,0,0,1-18.52-1.224A43.01,43.01,0,0,1,491.557,647c-1.29,1.5-3.62,1.18-4.95,0q-3.789-3.359-7.542-6.742c-1.814-.7-3.645-1.538-5.555-2.318-5.974-2.44-12.523-3.451-18.048-6.977a30.513,30.513,0,0,1-7.122-6.285,51.292,51.292,0,0,1-10.513-8.118,10.53,10.53,0,0,1-4.83-1.17c-6.69-3.4-10.21-10.32-10.52-17.4a122.619,122.619,0,0,1-9.5-40.27,100.151,100.151,0,0,1,.02-13.75,24.115,24.115,0,0,1,2.27-8.28,25.614,25.614,0,0,0,1.07-2.78c-.07-3.08-.11-6.16-.15-9.23a17.288,17.288,0,0,0-4.37-7.03c-3.19-3.14-4.65-9.66-1.75-13.54q2.835-3.765,5.66-7.53c-.53-10.77-3.11-27.91,2.61-29.71-.23-1.6-.72-3.18-1-4.77-1.34-7.64-.54-14.47,3.52-21.15.85-1.39,1.57-2.62,2.16-3.82l1.11-6.6c.57-3.39,1.13-6.81,1.61-10.25.25-4.38.48-8.76.73-13.15q.345-6.06.76-12.13c-.11-1.81-.27-3.62-.5-5.43-1.37-10.79-5.78-14.78-13.42-22.28-1.2-.19-2.39-.4-3.56-.64-5.45-1.13-11.15-2.88-16.76-2.25-6.09.68-11.54,3.31-17.46-.05-1.74-1-5.57-3.76-5.9-5.95a1.363,1.363,0,0,0-.09-.35c-.41-.06-.94-.11-1.27-.12-4.7-.16-9.19,1.69-13.93,1.18a21.8,21.8,0,0,1-13.93-6.78,34.782,34.782,0,0,1-12.94.93,28.764,28.764,0,0,1-10.24-3.46c-2.37-1.28-1.62-1.65-4.2-.61-5.87,2.38-11.18,5.52-17.79,3.89a18.908,18.908,0,0,1-8.88-5.18,30.288,30.288,0,0,1-2.26-2.27c-3.14,1.59-11.04,5.18-12.34,5.5a20.172,20.172,0,0,1-11.16-.44c-2.63-.88-5.85-3.28-8.16-3.77-2.99-.64-9.63,3.52-13.2,4.95-6.26,2.51-12.89,3.13-19.23.54-2.18-.89-6.42-4.44-8.05-4.41-2.65,3.27-10.05,21.16-12.27,27.69-8.99,26.4-11.32,108.83-7.17,129.86.16.62.33,1.23.5,1.85,5.1,18.29,10.41,36.89,18.94,53.93,8.05,16.06,19.18,30.52,35.15,39.29,16.56,9.1,36,11.49,54.62,10.26a189.587,189.587,0,0,0,35.38-6.21c6.06-1.57,12.07-3.32,18.05-5.14,2.61-.79,5.26-1.53,7.82-2.45,4.52-1.63,6.89-1.76,11.22.33,3.94,1.9,4.95,7.51,2.9,11.04-3.34,5.76-9.46,6.16-15.37,7.84-6.02,1.71-12.06,3.35-18.14,4.82a235.023,235.023,0,0,1-35.43,5.94c-21.38,1.79-43.41-.97-62.87-10.3-2.2-1.06-4.32-2.19-6.37-3.41.76,1.06,1.53,2.12,2.31,3.17,2.16,2.91.56,7.86-2.47,9.45-.96.5-1.92.98-2.89,1.45-.13.31-.27.62-.43.93-2.77,5.56-8.57,8.84-14.48,10.26-7.02,1.68-14.88.49-22.02.28l-19.85-.6c-1.56-.04-3.12-.09-4.68-.14q-11.79-.36-23.56-.71c-7-.21-6.67.33-13.24-2.47a19.638,19.638,0,0,1-7.35-5.41,29.574,29.574,0,0,1-3.65-1.93,47.653,47.653,0,0,1-10.18-8.94c-5.23,1.65-12.56.12-13.58-6.45-1.64-10.51-15.3-15-21.68-22.6-5.15-6.13-8.83-14.16-8.64-21.87-12.98-6.28-20.04-22.83-21.69-36.87-.77-6.51-.65-13.48-1.76-20.1a11.023,11.023,0,0,1-1.3-1.69,139.832,139.832,0,0,1-8.6-16.26,22.441,22.441,0,0,0-11.77-4.21,9.322,9.322,0,0,1-2.47-18.22c.05-.02.09-.03.14-.05a26.225,26.225,0,0,1,.81-21.29c-.14-.7-.27-1.39-.4-2.09a31.867,31.867,0,0,1-8.5-22.65,27.713,27.713,0,0,0-8.6-4.08c-4.87-1.34-4.9-7.28-1.3-9.94a16.831,16.831,0,0,0,3.65-3.7c-2.49-7.48-1.51-16.13,3.58-22.27l-9.69-12.42c-2.14-2.74-3.27-7.39,0-9.99Q7.762,358.428,10.907,355.943Z"/>
      <path id="teeth" d="M140.059,3.354c-10.922-6.577-51.745-1.756-83.814,0C30.78,4.748,12.591,1.985,6.769,5.9-6.383,14.755.005,57.561,22.669,63.415s106.676,14.03,121.162,0S159.653,15.153,140.059,3.354Z" transform="translate(222.455 504.445)" fill="#fff"/>
      <path id="_Ink-2" data-name="ðŸ– Ink" d="M94.909,0c-1.951,0-4.072.014-6.484.042L85.664.078C84.2.1,82.616.108,80.675.108,79.194.108,77.721.1,76.162.1h-.1C74.523.091,72.937.085,71.309.085,59.28.085,45.456.391,33.623,4.049c-13.259,4.1-21.961,11.743-26.6,23.368a42.3,42.3,0,0,0-2.447,8.83,43.73,43.73,0,0,0,4.1,26.733A36.571,36.571,0,0,0,23.246,78.006a52.88,52.88,0,0,0,20.1,6.518A67.907,67.907,0,0,0,51.49,85c9.847,0,19.709-1.962,29.247-3.858,4.3-.855,8.745-1.739,13.127-2.431a236.426,236.426,0,0,1,26.661-2.826c1.893-.083,3.794-.128,5.405-.161a4.712,4.712,0,0,0,2.979,3.916,23.176,23.176,0,0,0,10.314,2.444c.362,0,.738-.008,1.116-.023a84.562,84.562,0,0,0,11.843-1.279c5.549-1.017,13.417-3.468,19.39-9.37a27.666,27.666,0,0,0,6.506-10.029A31.215,31.215,0,0,0,180,49.907a37.988,37.988,0,0,0-2.068-11.674,40.612,40.612,0,0,0-5.457-10.624,56.544,56.544,0,0,0-7.275-8.3,57.266,57.266,0,0,0-8.357-6.466,64.857,64.857,0,0,0-9.244-4.857,79.727,79.727,0,0,0-9.936-3.472A117.647,117.647,0,0,0,116.494.831C110.238.264,103.379,0,94.909,0Zm33.585,40.105-.244-.01c-12.127-.467-24.814-.82-37.709-1.048.363-3.115.758-6.444,1.2-9.682.32-2.361.679-4.847,1.1-7.6.052-.343.148-.745.25-1.17a7.726,7.726,0,0,0,.341-2.624l-.061-.42a3.816,3.816,0,0,0,1.668-1.444,5.705,5.705,0,0,0,.365-.7l.006-.013c1.175-.009,2.269-.014,3.342-.014a156.253,156.253,0,0,1,26.88,1.9l.02.216a4.171,4.171,0,0,0,1.412,2.714,67.059,67.059,0,0,1,.718,8.592c.051,1.258.1,2.559.188,3.8.116,1.726.241,3.48.362,5.176l0,.025Q128.413,38.958,128.495,40.105ZM45.041,16.919h0l.236-.038c.332-.055.675-.111,1.016-.159a166.374,166.374,0,0,1,22.941-1.257c2.2,0,4.423.016,6.578.031h.021c1.961.014,3.989.029,5.975.031a48.881,48.881,0,0,0-.449,8.134c0,1.015,0,1.974-.024,2.848l-.018.48c-.179,3.926-.307,7.925-.38,11.888-6.283-.107-13.03-.206-19.784-.206-2.595,0-5.013.014-7.395.043l-4.112.064c.278-1.489.568-3,.849-4.465v-.006h0c.6-3.112,1.215-6.33,1.748-9.518a6.3,6.3,0,0,0-1.4-5.281,7.511,7.511,0,0,0-5.591-2.591Q45.149,16.916,45.041,16.919ZM19.406,39.732h0a27.539,27.539,0,0,1,1.841-7c3.35-8.078,10.789-13.3,22.111-15.508a4.908,4.908,0,0,0-3.246,4.225,127.725,127.725,0,0,0-1.127,17.435c-5.938.056-12.838.173-19.579.849Zm131.956,1.247c-1.094,0-2.263-.007-3.405-.059-3.727-.169-7.517-.322-11.183-.47l-1.653-.067q.065-.935.129-1.869l0-.038c.154-2.246.314-4.568.481-6.851.074-1.018.131-2.069.187-3.085a63.271,63.271,0,0,1,.837-8.43c9.527,3.251,16.76,8.218,22.112,15.186a29.278,29.278,0,0,1,3.717,6.428,41.04,41.04,0,0,0-9.227-.747h-1ZM41.38,69.225h0c-6.255-1.481-14.632-4.9-19.021-12.8A27.135,27.135,0,0,1,19.19,42.32c6.6.768,13.417,1.059,19.837,1.291.025,1.314.053,2.484.086,3.576l.1,3.049q.018.59.036,1.2c.162,5.488.364,12.317,2.129,17.789Zm14.058,1.428h0c-1.993,0-3.939-.064-5.784-.191-1.376-.095-2.775-.246-4.158-.448a65.948,65.948,0,0,0,1.724-12.977c.144-2.155.28-4.189.509-6.143.245-2.092.569-4.346.99-6.89l1.643.076c7.809.423,15.751.726,23.432,1.02,2.31.088,4.7.179,7.082.274,0,2.113.013,3.989.041,5.733l.037,1.912c.034,1.429.031,2.881.028,4.419a78.7,78.7,0,0,0,.5,11.079l-3.411.382-.826.094a193.873,193.873,0,0,1-21.8,1.66Zm32.017-2.738h0c.167-1.368.283-2.764.4-4.115v-.012c.057-.684.116-1.392.18-2.08.362-3.9.787-7.939,1.3-12.361l.425-3.6c11.2.508,23.124,1.084,37.508,1.814l1.765.094.494,6.921c.319,4.37.688,9.069,1.229,13.823l-.391.142a6.367,6.367,0,0,0-1.312.749,192.737,192.737,0,0,0-29.921-1.954H99c-3.421,0-7.089.184-11.543.579Zm45.9-.343c.389-4.643.659-9.376.92-13.954.106-1.856.215-3.774.331-5.66l8.241.44c1.482.081,2.83.156,4.12.23,1.484.086,3.065.27,4.738.465a65.7,65.7,0,0,0,7.487.586,19.089,19.089,0,0,0,5.257-.634c.316,3.758-.346,9.012-5.3,12.7-4.917,3.662-10.793,4.12-16.476,4.563a55.048,55.048,0,0,0-9.319,1.263ZM116.289,91.464c-5.237,0-9.272,1.42-11.991,4.222a7.476,7.476,0,0,0-1.418,8.362,8.917,8.917,0,0,0,2.749,3.579,6.782,6.782,0,0,0,4.113,1.457,6.891,6.891,0,0,0,3.906-1.279,9.711,9.711,0,0,1,5.446-1.287,39.706,39.706,0,0,1,10.618,1.837l.266.077c2.814.827,6.7,2.936,8.376,6.16a6.363,6.363,0,0,1,.421,5.14c-.738,2.2-2.62,3.828-5.594,4.844A27.241,27.241,0,0,1,125.5,125.8c-.461.017-.938.025-1.417.025a82.867,82.867,0,0,1-11.069-1c-2.383-.323-4.847-.657-7.288-.843-.027,0-.053,0-.079,0a.916.916,0,0,0-.887.73,1.042,1.042,0,0,0,.445,1.2,54.9,54.9,0,0,0,11.77,4.793,52.951,52.951,0,0,0,14.267,2.189c5.275,0,9.556-1.089,12.725-3.237,3.688-2.5,5.791-6.409,6.251-11.618a19.571,19.571,0,0,0-4.1-13.573,28.118,28.118,0,0,0-11.386-8.768l-.331-.139C130.686,94.025,123.395,91.464,116.289,91.464Zm57.06,32.819a4.255,4.255,0,0,0-.439.023l-.7.065a6.323,6.323,0,0,0-1.041.169A6.913,6.913,0,0,0,167.7,126.9a5.8,5.8,0,0,0-1.343,3.949l.051.828c.157,2.839.215,7.008-1.087,10.427a9.693,9.693,0,0,1-7.653,6.427,9.423,9.423,0,0,1-1.875.2c-5.916,0-9.189-6.113-9.265-11.865a1.55,1.55,0,0,0-1.524-1.5,1.394,1.394,0,0,0-.734.208,10.187,10.187,0,0,0-4.687,6.5,14.443,14.443,0,0,0,.629,8.173,16.615,16.615,0,0,0,6.17,8,18.427,18.427,0,0,0,9.648,3.169c.344.016.691.024,1.032.024a21.434,21.434,0,0,0,17.121-8.734,27.982,27.982,0,0,0,5.033-23.6,6.763,6.763,0,0,0-2.185-3.327A5.814,5.814,0,0,0,173.348,124.283ZM21.481,127.254a2.09,2.09,0,0,0-.91.222c-3.229,1.56-4.1,4.789-4.265,7.222A19.943,19.943,0,0,0,17.9,143.43c2.89,6.751,8.322,12.017,14.532,14.089a23.666,23.666,0,0,0,7.5,1.217,26.116,26.116,0,0,0,13.66-3.98,28.043,28.043,0,0,0,9.9-10.37c1.95-.564,4.123-2.111,3.83-4.613-.42-3.554-1.045-5.71-3.46-8.35a6.762,6.762,0,0,0-5.058-2.2,8.073,8.073,0,0,0-4.526,1.423A7.262,7.262,0,0,0,51.4,134.5l-.067.23A12.652,12.652,0,0,1,39.356,144a11.179,11.179,0,0,1-3.692-.626c-4.581-1.6-6.335-5.053-8.193-8.709a21.775,21.775,0,0,0-4.735-6.91A1.871,1.871,0,0,0,21.481,127.254ZM.882,149.325a.634.634,0,0,0-.616.6A48.658,48.658,0,0,0,.483,161.8,59.789,59.789,0,0,0,3.424,173.77,61.269,61.269,0,0,0,8.7,184.918a51.6,51.6,0,0,0,7.224,9.408A41.541,41.541,0,0,0,27.8,202.373,36.125,36.125,0,0,0,42.58,206a17.3,17.3,0,0,0,9.245-2.372,15.3,15.3,0,0,0,6.253-8.09,6.784,6.784,0,0,0-.681-5.517,6.887,6.887,0,0,0-4.434-3.492,17.035,17.035,0,0,0-3.356-.316,39.255,39.255,0,0,0-6.2.657l-.014,0a39.407,39.407,0,0,1-6.25.659c-.508,0-1.01-.019-1.493-.057a25.916,25.916,0,0,1-13.738-4.99c-6.648-5.151-10.133-12.641-13.5-19.884A83.061,83.061,0,0,0,1.4,149.614.632.632,0,0,0,.882,149.325Zm184.137,11.823a9.22,9.22,0,0,0-2.569.361c-6.322,1.829-7.982,6.268-9.9,11.407-.369.988-.751,2.007-1.175,3.032a25.955,25.955,0,0,1-8.268,10.565c-5.63,4.253-14.031,6.792-22.472,6.792a35.644,35.644,0,0,1-10.094-1.368.582.582,0,0,0-.166-.024.8.8,0,0,0-.681.445.562.562,0,0,0,.052.611c.479.621.907,1.213,1.321,1.785a21.055,21.055,0,0,0,4.314,4.794,30.511,30.511,0,0,0,18.694,6.3,34.922,34.922,0,0,0,10.4-1.6,38.874,38.874,0,0,0,9.388-4.393,39.957,39.957,0,0,0,7.939-6.679,43.971,43.971,0,0,0,5.65-7.6,24.064,24.064,0,0,0,1.3-3.017,30.586,30.586,0,0,1,1.358-3.182,10.326,10.326,0,0,0,5.155-7.319,8.264,8.264,0,0,0-.3-3.7,9.013,9.013,0,0,0-2.124-3.5l-.208-.211-.615-.61A10.033,10.033,0,0,0,185.019,161.149Z" transform="translate(391.713 581) rotate(180)"/>
    </g>
  </g>
</svg>
