<svg xmlns="http://www.w3.org/2000/svg" width="303.655" height="165.3" viewBox="0 0 303.655 165.3">
  <g id="dark-flat" transform="translate(8312.327 555.299)">
    <path id="Path_209" data-name="Path 209" d="M5,0H15c4.006,0,8,6,8,10s-4.058,10-8,10H5a4,4,0,0,1-4-4V4A4,4,0,0,1,5,0Z" transform="translate(-8232.5 -446)" fill="#cfd8dc"/>
    <path id="Path_209-2" data-name="Path 209" d="M5,0H15c4.006,0,8,6,8,10s-4.058,10-8,10H5a4,4,0,0,1-4-4V4A4,4,0,0,1,5,0Z" transform="translate(-8192.5 -466) rotate(90)" fill="#cfd8dc"/>
    <path id="Path_209-3" data-name="Path 209" d="M5,0H15c4.006,0,8,6,8,10s-4.058,10-8,10H5a4,4,0,0,1-4-4V4A4,4,0,0,1,5,0Z" transform="translate(-8172.5 -426) rotate(180)" fill="#cfd8dc"/>
    <path id="Path_209-4" data-name="Path 209" d="M5,0H15c4.006,0,8,6,8,10s-4.058,10-8,10H5a4,4,0,0,1-4-4V4A4,4,0,0,1,5,0Z" transform="translate(-8212.5 -406) rotate(-90)" fill="#cfd8dc"/>
    <circle id="Ellipse_32" data-name="Ellipse 32" cx="10" cy="10" r="10" transform="translate(-8117.5 -446)" fill="#ffab91"/>
    <circle id="Ellipse_34" data-name="Ellipse 34" cx="10" cy="10" r="10" transform="translate(-8133.5 -428)" fill="#81d4fa"/>
    <circle id="Ellipse_35" data-name="Ellipse 35" cx="10" cy="10" r="10" transform="translate(-8133.5 -464)" fill="#a5d6a7"/>
    <circle id="Ellipse_33" data-name="Ellipse 33" cx="10" cy="10" r="10" transform="translate(-8149.5 -446)" fill="#f48fb1"/>
    <path id="Path_255" data-name="Path 255" d="M299.294,169.5c-2.395-.845-22.471-10.875-23.916-11.9s-2.183-1.267-2.871-3.345a161.067,161.067,0,0,0-5.554-17.825c-3.38-8.607-7.417-14.813-7.712-16.393s1.313-2.012,2.614-1.932,5.427.209,11.412.32c2.831.052,5.822-.051,8.157-.155,2.118-.094,3.7-.189,4.13-.166a4.5,4.5,0,0,1,3.869,3.134c.755,1.809,3.091,6.82,6.092,18.574s5.29,25.194,5.556,26.4c.422,1.923.569,3.49-.755,3.491A3.155,3.155,0,0,1,299.294,169.5ZM36.929,166.226c.266-1.211,2.557-14.65,5.557-26.4s5.336-16.765,6.091-18.574a4.5,4.5,0,0,1,3.869-3.134c.432-.023,2.012.071,4.129.166,2.335.1,5.326.207,8.158.155,5.984-.112,10.112-.241,11.412-.32s2.908.354,2.613,1.932-4.331,7.786-7.712,16.393a161.275,161.275,0,0,0-5.554,17.825c-.687,2.078-1.426,2.324-2.87,3.345S41.1,168.659,38.706,169.5a3.155,3.155,0,0,1-1.021.212C36.361,169.716,36.507,168.148,36.929,166.226Zm267.5-2.661c-.194-.768-2.8-14.258-5.794-25.6-2.576-9.743-4.82-15.484-5.527-17.794s-1.236-4.394.385-6.516c1.039-1.363,4.024-4.913,6.69-8.41,1.778-2.333,3.723-4.736,4.833-6.234,4.183-5.647,5.859-1.809,6.683,0s2.416,5,4.446,9.905a87.553,87.553,0,0,1,4.242,12.142c.357,2.619.778,2.976,0,6.158-.632,2.59-12.191,34.8-13.142,36.927-.36.808-.8,1.12-1.23,1.12C305.315,165.264,304.649,164.428,304.431,163.564Zm-273.677.58c-.951-2.13-12.51-34.337-13.142-36.927-.778-3.182-.357-3.539,0-6.158a87.552,87.552,0,0,1,4.242-12.142c2.03-4.9,3.622-8.1,4.446-9.905s2.5-5.647,6.682,0c1.11,1.5,3.055,3.9,4.832,6.234,2.667,3.5,5.65,7.047,6.691,8.41,1.621,2.122,1.092,4.206.385,6.516s-2.951,8.051-5.527,17.794c-3,11.34-5.6,24.83-5.794,25.6-.218.864-.885,1.7-1.586,1.7C31.555,165.265,31.114,164.953,30.754,164.145Zm228.661-51.1a7.341,7.341,0,0,1-4.194-2.824c-1.1-1.517-2.714-4.9-6.881-12.11s-9.777-13.716-10.579-15.564a2.128,2.128,0,0,1,1.722-3.114c.973-.167,22.93-2.421,24.742-2.58s2.819.2,4.247,2.039a168.892,168.892,0,0,1,9.859,15.855c3.365,6.216,6.629,12.583,7.061,13.746.827,2.226-.489,4.2-1.754,4.257-.951.045-13.194.458-19.94.458A29.354,29.354,0,0,1,259.415,113.043Zm-205.052-.294c-1.265-.059-2.58-2.031-1.753-4.257.431-1.163,3.7-7.529,7.061-13.746A168.736,168.736,0,0,1,69.529,78.89c1.428-1.842,2.435-2.2,4.247-2.039s23.77,2.414,24.742,2.58a2.128,2.128,0,0,1,1.723,3.114c-.8,1.848-6.412,8.352-10.579,15.564s-5.784,10.592-6.881,12.11a7.343,7.343,0,0,1-4.195,2.824,29.352,29.352,0,0,1-4.281.164C67.557,113.207,55.314,112.793,54.363,112.748Zm233.5-6.673c-.638-1.236-5.087-9.473-8.643-15.623s-5.965-9.567-6.974-11.379-2.343-3.4-1.728-6.374a163.556,163.556,0,0,1,4.372-16.535c2.176-6.611,4.216-4.645,6.311-2.244,1.071,1.227,6.846,7.6,12.607,15.372a135.9,135.9,0,0,1,10.419,16.472c.988,1.946,1.259,2.632.689,4.9s-12.071,15.5-13.488,16.4a2.557,2.557,0,0,1-1.369.416A2.505,2.505,0,0,1,287.866,106.076Zm-241.3.985c-1.417-.893-12.919-14.132-13.488-16.4s-.3-2.952.689-4.9a136.013,136.013,0,0,1,10.42-16.472c5.76-7.77,11.535-14.145,12.606-15.372,2.1-2.4,4.135-4.368,6.311,2.244A163.307,163.307,0,0,1,67.479,72.7c.614,2.972-.72,4.562-1.729,6.374S62.333,84.3,58.777,90.453s-8,14.387-8.643,15.623a2.506,2.506,0,0,1-2.2,1.4A2.557,2.557,0,0,1,46.568,107.061Zm56.44-31.681c-.715-.1-7.309-.534-12.712-1.2-6.33-.775-10.837-1.772-11.462-1.855a1.8,1.8,0,0,1-1.067-3.064,137.962,137.962,0,0,1,11.77-12.829c6.683-6.324,9.394-8.33,11.008-9.188a3.576,3.576,0,0,1,3.908-.094c.65.322,4.568,1.987,8.4,4.017,4.986,2.643,9.94,5.683,10.331,5.915.9.529,1.682,1.714.564,2.775s-4.78,3.543-9.149,7.663-6.253,6.453-7.52,7.185a5.667,5.667,0,0,1-2.915.755A8.479,8.479,0,0,1,103.008,75.38Zm127.915-.672c-1.265-.731-3.149-3.064-7.519-7.184s-8.033-6.6-9.15-7.663-.333-2.246.565-2.776c.391-.23,5.344-3.271,10.331-5.914,3.83-2.03,7.748-3.695,8.4-4.017a3.576,3.576,0,0,1,3.908.094c1.614.858,4.324,2.864,11.008,9.188a137.963,137.963,0,0,1,11.77,12.829,1.8,1.8,0,0,1-1.067,3.063c-.626.084-5.133,1.081-11.463,1.856-5.4.661-12,1.1-12.711,1.2a8.469,8.469,0,0,1-1.154.084A5.668,5.668,0,0,1,230.923,74.708Zm32.36-6.9c-1.039-.925-6.292-7.354-11.757-12.78s-7.068-6.872-8.658-8.2-3.406-2.336-3.9-5.331a79.98,79.98,0,0,1-.641-8.226c-.092-2.476-.129-4.643-.113-6.388.041-4.438,1.15-4.933,4.652-2.848s5.468,2.567,12.63,7.859S269.218,42.683,270.01,43.4c1.62,1.462,2.119,2.007,2.4,4.326s-4.44,18.385-5.443,19.726A2.42,2.42,0,0,1,265,68.483,2.607,2.607,0,0,1,263.283,67.809Zm-192.25-.358c-1-1.342-5.723-17.407-5.443-19.726s.779-2.864,2.4-4.326c.792-.715,7.351-6.215,14.512-11.507s9.129-5.775,12.63-7.859,4.611-1.59,4.651,2.848c.016,1.744-.021,3.912-.113,6.388a80,80,0,0,1-.641,8.226c-.492,2.994-2.307,4-3.9,5.331s-3.193,2.775-8.658,8.2S75.755,66.883,74.716,67.809A2.607,2.607,0,0,1,73,68.483,2.42,2.42,0,0,1,71.033,67.451ZM206.793,54.9c-1.409-.193-3.514-1.914-9.105-4.44a70.519,70.519,0,0,0-8.81-3.4,2.883,2.883,0,0,1-1.633-3.629c.221-.675,1.12-4.738,2.435-8.568a44.054,44.054,0,0,1,3.54-8.018,3.15,3.15,0,0,1,3.37-1.275c1.763.18,8.774,2.823,16.387,6.425s13.484,7.033,15.268,7.983,1.645,2.83.683,3.392c-.48.279-4.508,2.243-9.074,4.9-4.086,2.378-8.708,5.45-9.292,5.794a5.771,5.771,0,0,1-3,.885A5.7,5.7,0,0,1,206.793,54.9Zm-79.355-.832c-.583-.346-5.206-3.416-9.292-5.794-4.566-2.658-8.594-4.622-9.074-4.9-.962-.562-1.1-2.441.683-3.391S117.411,35.6,125.024,32s14.624-6.245,16.387-6.426a3.153,3.153,0,0,1,3.37,1.275,44.03,44.03,0,0,1,3.539,8.019c1.317,3.83,2.215,7.893,2.436,8.569a2.883,2.883,0,0,1-1.633,3.628,70.52,70.52,0,0,0-8.81,3.4c-5.592,2.526-7.7,4.247-9.105,4.44a5.7,5.7,0,0,1-.772.054A5.771,5.771,0,0,1,127.438,54.071Zm52.277-9.066c-1.133-.085-6.384-.6-10.715-.6s-9.581.515-10.714.6-2.15-1.3-2.768-2.267a57.453,57.453,0,0,1-3.1-7.9c-1.263-3.914-1.684-6.67-1.954-7.437a2.617,2.617,0,0,1,1.954-3.715,61.961,61.961,0,0,1,33.176,0,2.617,2.617,0,0,1,1.954,3.715c-.271.767-.691,3.523-1.954,7.438a57.6,57.6,0,0,1-3.1,7.9c-.6.941-1.576,2.272-2.669,2.272C179.781,45.009,179.748,45.008,179.715,45.005ZM229.4,37.1c-1.418-.548-8.26-4.731-15.928-8.148s-12.889-5.518-15.029-6.276a6.775,6.775,0,0,1-4.258-3.422c-1.2-1.967-1.454-3.629-2.9-8.492s-.616-5.047,3.785-4.18a130.377,130.377,0,0,1,15.582,3.9,157.974,157.974,0,0,1,18.175,6.74c2.219.874,2.937,1.232,4.08,3.344.608,1.126.7,4.117.747,7.873a28.939,28.939,0,0,1-.563,7.154,2.565,2.565,0,0,1-2.522,1.729A3.261,3.261,0,0,1,229.4,37.1ZM104.9,35.589a28.867,28.867,0,0,1-.564-7.154c.046-3.757.139-6.747.748-7.873,1.142-2.112,1.859-2.471,4.08-3.344a157.9,157.9,0,0,1,18.175-6.74,130.561,130.561,0,0,1,15.581-3.9c4.4-.867,5.227-.683,3.785,4.181s-1.7,6.526-2.9,8.492a6.781,6.781,0,0,1-4.258,3.423c-2.141.757-7.361,2.858-15.029,6.275s-14.511,7.6-15.929,8.148a3.254,3.254,0,0,1-1.171.221A2.565,2.565,0,0,1,104.9,35.589ZM149.659,18.5c.176-1.219.576-3.248,1.165-5.58a34.007,34.007,0,0,1,1.909-5.728c.7-1.3,1.333-1.556,3.264-2.017s6.337-.756,13-.756,11.072.294,13,.756,2.56.716,3.264,2.017a33.861,33.861,0,0,1,1.91,5.728c.589,2.332.988,4.361,1.165,5.58s.01,3.027-1.382,2.762A125.546,125.546,0,0,0,169,19.521a125.366,125.366,0,0,0-17.959,1.739,1.4,1.4,0,0,1-.262.026C149.629,21.286,149.495,19.634,149.659,18.5Z" transform="translate(-8329.5 -559.716)" fill="#36df8e"/>
  </g>
</svg>
