<svg id="SvgjsSvg1001" width="288" height="288" xmlns="http://www.w3.org/2000/svg" version="1.1" xmlns:xlink="http://www.w3.org/1999/xlink" xmlns:svgjs="http://svgjs.com/svgjs"><defs id="SvgjsDefs1002">

</defs>
<g id="SvgjsG1008">
  <svg xmlns="http://www.w3.org/2000/svg" width="288" height="288" viewBox="0 0 365.001 364.999">
    <g transform="translate(9516.001 1118.999)" fill="#000000" class="color000 svgShape">
      <path fill="#636198" d="M7428.5,1792a183.849,183.849,0,0,1-36.78-3.708,181.506,181.506,0,0,1-65.258-27.461,183.037,183.037,0,0,1-66.122-80.295,181.551,181.551,0,0,1-10.634-34.257,184.265,184.265,0,0,1,0-73.56,181.487,181.487,0,0,1,27.46-65.257,183.031,183.031,0,0,1,80.3-66.12,181.567,181.567,0,0,1,34.257-10.634,184.278,184.278,0,0,1,73.56,0,181.493,181.493,0,0,1,65.257,27.46,183.026,183.026,0,0,1,66.121,80.294,181.592,181.592,0,0,1,10.634,34.257,184.289,184.289,0,0,1,0,73.56,181.511,181.511,0,0,1-27.46,65.257,183.042,183.042,0,0,1-80.294,66.121,181.585,181.585,0,0,1-34.257,10.634A183.841,183.841,0,0,1,7428.5,1792Zm0-358c-88.5,0-160.5,72-160.5,160.5s72,160.5,160.5,160.5,160.5-72,160.5-160.5S7517,1434,7428.5,1434Z" data-name="Path 268" transform="translate(-16762 -2546)" class="color636198 svgShape">
      </path>
      <path fill="#474666" d="M7406.5,1748a161.681,161.681,0,0,1-32.347-3.261,159.617,159.617,0,0,1-57.391-24.15,160.959,160.959,0,0,1-58.149-70.615,159.69,159.69,0,0,1-9.352-30.127,162.067,162.067,0,0,1,0-64.693,159.632,159.632,0,0,1,24.149-57.391,160.966,160.966,0,0,1,70.615-58.15,159.689,159.689,0,0,1,30.128-9.352,162.066,162.066,0,0,1,64.692,0,159.615,159.615,0,0,1,57.391,24.15,160.962,160.962,0,0,1,58.15,70.615,159.723,159.723,0,0,1,9.352,30.128,162.067,162.067,0,0,1,0,64.693,159.623,159.623,0,0,1-24.15,57.391,160.975,160.975,0,0,1-70.615,58.15,159.676,159.676,0,0,1-30.128,9.352A161.667,161.667,0,0,1,7406.5,1748Zm.5-309c-76.645,0-139,62.355-139,139s62.355,139,139,139,139-62.355,139-139S7483.645,1439,7407,1439Z" data-name="Path 267" transform="translate(-16740 -2539)" class="color474666 svgShape">
      </path>
      <path fill="#3d3a7d" d="M139,0A139,139,0,1,1,0,139,139,139,0,0,1,139,0Z" data-name="Path 266" transform="translate(-9472 -1100)" class="color34334B svgShape">
      </path>
      <g data-name="Group 148" transform="translate(-548 -497)" fill="#000000" class="color000 svgShape">
        <path fill="#ffffff" d="M5,0H15c4.006,0,8,6,8,10s-4.058,10-8,10H5a4,4,0,0,1-4-4V4A4,4,0,0,1,5,0Z" data-name="Path 209" transform="translate(-8857.5 -446)" class="colora997ba svgShape">
        </path><path fill="#ffffff" d="M4,0h7.5c3,0,6,4.5,6,7.5s-3.044,7.5-6,7.5H4a3,3,0,0,1-3-3V3A3,3,0,0,1,4,0Z" data-name="Path 210" transform="translate(-8855.5 -444)" class="colorcfd8dc svgShape">
      </path><path fill="#ffffff" d="M5,0H15c4.006,0,8,6,8,10s-4.058,10-8,10H5a4,4,0,0,1-4-4V4A4,4,0,0,1,5,0Z" data-name="Path 209" transform="rotate(90 -4175.75 -4641.75)" class="colora997ba svgShape"></path><path fill="#ffffff" d="M4,0h7.5c3,0,6,4.5,6,7.5s-3.044,7.5-6,7.5H4a3,3,0,0,1-3-3V3A3,3,0,0,1,4,0Z" data-name="Path 210" transform="rotate(90 -4178.25 -4642.25)" class="colorcfd8dc svgShape"></path><path fill="#ffffff" d="M5,0H15c4.006,0,8,6,8,10s-4.058,10-8,10H5a4,4,0,0,1-4-4V4A4,4,0,0,1,5,0Z" data-name="Path 209" transform="rotate(180 -4398.75 -213)" class="colora997ba svgShape"></path><path fill="#ffffff" d="M4,0h7.5c3,0,6,4.5,6,7.5s-3.044,7.5-6,7.5H4a3,3,0,0,1-3-3V3A3,3,0,0,1,4,0Z" data-name="Path 210" transform="rotate(180 -4400.25 -214.5)" class="colorcfd8dc svgShape"></path><path fill="#ffffff" d="M5,0H15c4.006,0,8,6,8,10s-4.058,10-8,10H5a4,4,0,0,1-4-4V4A4,4,0,0,1,5,0Z" data-name="Path 209" transform="rotate(-90 -4621.75 4215.75)" class="colora997ba svgShape"></path><path fill="#ffffff" d="M4,0h7.5c3,0,6,4.5,6,7.5s-3.044,7.5-6,7.5H4a3,3,0,0,1-3-3V3A3,3,0,0,1,4,0Z" data-name="Path 210" transform="rotate(-90 -4622.25 4213.25)" class="colorcfd8dc svgShape"></path><path fill="#fe9a82" d="M10,0A10,10,0,1,1,0,10,10,10,0,0,1,10,0Z" data-name="Path 258" transform="translate(-8742.5 -446)" class="colorcb7885 svgShape"></path><path fill="#83c2dc" d="M10,0A10,10,0,1,1,0,10,10,10,0,0,1,10,0Z" data-name="Path 256" transform="translate(-8758.5 -428)" class="color7295cf svgShape"></path><path fill="#6abe6a" d="M10,0A10,10,0,1,1,0,10,10,10,0,0,1,10,0Z" data-name="Path 262" transform="translate(-8758.5 -464)" class="color8c9695 svgShape"></path><path fill="#f87778" d="M10,0A10,10,0,1,1,0,10,10,10,0,0,1,10,0Z" data-name="Path 259" transform="translate(-8774.5 -446)" class="colorc3649c svgShape"></path><path fill="#6abe6a" d="M7.5,0A7.5,7.5,0,1,1,0,7.5,7.5,7.5,0,0,1,7.5,0Z" data-name="Path 263" transform="translate(-8756.5 -462)" class="colora5d6a7 svgShape"></path><path fill="#ff9a82" d="M7.5,0A7.5,7.5,0,1,1,0,7.5,7.5,7.5,0,0,1,7.5,0Z" data-name="Path 260" transform="translate(-8740.5 -444)" class="colorffab91 svgShape"></path><path fill="#81d4fa" d="M7.5,0A7.5,7.5,0,1,1,0,7.5,7.5,7.5,0,0,1,7.5,0Z" data-name="Path 257" transform="translate(-8756.5 -426)" class="color81d4fa svgShape"></path><path fill="#f87778" d="M7.5,0A7.5,7.5,0,1,1,0,7.5,7.5,7.5,0,0,1,7.5,0Z" data-name="Path 261" transform="translate(-8772.5 -444)" class="colorf48fb1 svgShape"></path><path fill="#FFFFFFFF" d="M299.294,165.088c-2.395-.845-22.471-10.874-23.916-11.9s-2.183-1.267-2.871-3.345a161.017,161.017,0,0,0-5.554-17.824c-3.38-8.607-7.417-14.814-7.712-16.393s1.313-2.012,2.614-1.933,5.427.209,11.412.32c2.831.052,5.822-.051,8.157-.155,2.118-.094,3.7-.189,4.13-.166a4.5,4.5,0,0,1,3.869,3.134c.755,1.809,3.091,6.82,6.092,18.575s5.29,25.193,5.556,26.4c.422,1.923.569,3.49-.755,3.491A3.155,3.155,0,0,1,299.294,165.088ZM36.929,161.809c.266-1.21,2.557-14.649,5.557-26.4s5.336-16.766,6.091-18.575a4.5,4.5,0,0,1,3.869-3.134c.432-.023,2.012.071,4.129.166,2.335.1,5.326.207,8.158.155,5.984-.112,10.112-.241,11.412-.32s2.908.354,2.613,1.933-4.331,7.786-7.712,16.393a161.225,161.225,0,0,0-5.554,17.824c-.687,2.078-1.426,2.324-2.87,3.345s-21.521,11.051-23.916,11.9a3.155,3.155,0,0,1-1.021.212C36.361,165.3,36.507,163.732,36.929,161.809Zm267.5-2.661c-.194-.768-2.8-14.258-5.794-25.6-2.576-9.743-4.82-15.484-5.527-17.794s-1.236-4.394.385-6.516c1.039-1.363,4.024-4.912,6.69-8.41,1.778-2.332,3.723-4.736,4.833-6.234,4.183-5.647,5.859-1.809,6.683,0s2.416,5,4.446,9.905a87.553,87.553,0,0,1,4.242,12.142c.357,2.62.778,2.976,0,6.159-.632,2.59-12.191,34.8-13.142,36.927-.36.808-.8,1.12-1.23,1.12C305.316,160.849,304.649,160.012,304.431,159.148Zm-273.677.581C29.8,157.6,18.244,125.393,17.612,122.8c-.778-3.182-.357-3.539,0-6.159A87.553,87.553,0,0,1,21.854,104.5c2.03-4.9,3.622-8.1,4.446-9.905s2.5-5.647,6.682,0c1.11,1.5,3.055,3.9,4.832,6.233,2.667,3.5,5.65,7.048,6.691,8.41,1.621,2.122,1.092,4.207.385,6.516s-2.951,8.05-5.527,17.794c-3,11.34-5.6,24.83-5.794,25.6-.218.864-.885,1.7-1.586,1.7C31.555,160.849,31.114,160.537,30.754,159.729Zm228.661-51.1a7.347,7.347,0,0,1-4.194-2.825c-1.1-1.517-2.714-4.9-6.881-12.109S238.563,79.977,237.76,78.13a2.127,2.127,0,0,1,1.722-3.114c.973-.167,22.93-2.421,24.742-2.58s2.819.2,4.247,2.039a168.848,168.848,0,0,1,9.859,15.854c3.365,6.217,6.629,12.584,7.061,13.746.827,2.227-.489,4.2-1.754,4.257-.951.045-13.206.459-19.949.459A29.328,29.328,0,0,1,259.415,108.627Zm-205.052-.3c-1.265-.059-2.58-2.03-1.753-4.257.431-1.162,3.7-7.529,7.061-13.745a168.615,168.615,0,0,1,9.858-15.855c1.428-1.843,2.435-2.2,4.247-2.04s23.77,2.414,24.742,2.581a2.127,2.127,0,0,1,1.723,3.114c-.8,1.847-6.412,8.352-10.579,15.564s-5.784,10.591-6.881,12.109a7.349,7.349,0,0,1-4.195,2.825,29.326,29.326,0,0,1-4.272.163C67.569,108.791,55.315,108.377,54.363,108.332Zm233.5-6.673c-.638-1.236-5.087-9.473-8.643-15.622s-5.965-9.568-6.974-11.38-2.343-3.4-1.728-6.374a163.556,163.556,0,0,1,4.372-16.535c2.176-6.611,4.216-4.645,6.311-2.244,1.071,1.228,6.846,7.6,12.607,15.373a135.847,135.847,0,0,1,10.419,16.471c.988,1.947,1.259,2.632.689,4.9s-12.071,15.5-13.488,16.4a2.556,2.556,0,0,1-1.369.417A2.5,2.5,0,0,1,287.866,101.66Zm-241.3.986c-1.417-.893-12.919-14.132-13.488-16.4s-.3-2.953.689-4.9a136.089,136.089,0,0,1,10.42-16.472c5.76-7.769,11.535-14.145,12.606-15.372,2.1-2.4,4.135-4.368,6.311,2.244a163.37,163.37,0,0,1,4.373,16.535c.614,2.972-.72,4.562-1.729,6.374s-3.417,5.229-6.973,11.379-8,14.387-8.643,15.623a2.5,2.5,0,0,1-2.2,1.4A2.556,2.556,0,0,1,46.568,102.645Zm56.44-31.681c-.715-.1-7.309-.533-12.712-1.2-6.33-.775-10.837-1.772-11.462-1.855a1.8,1.8,0,0,1-1.067-3.063,137.834,137.834,0,0,1,11.77-12.829c6.683-6.324,9.394-8.331,11.008-9.189a3.576,3.576,0,0,1,3.908-.094c.65.322,4.568,1.987,8.4,4.017,4.986,2.642,9.94,5.683,10.331,5.914.9.529,1.682,1.714.564,2.775s-4.78,3.543-9.149,7.663-6.253,6.454-7.52,7.185a5.666,5.666,0,0,1-2.914.755A8.451,8.451,0,0,1,103.008,70.964Zm127.915-.671c-1.265-.732-3.149-3.065-7.519-7.185s-8.033-6.6-9.15-7.663-.333-2.245.565-2.775c.391-.23,5.344-3.271,10.331-5.915,3.83-2.029,7.748-3.694,8.4-4.017a3.578,3.578,0,0,1,3.908.095c1.614.858,4.324,2.865,11.008,9.189a138.012,138.012,0,0,1,11.77,12.828,1.8,1.8,0,0,1-1.067,3.064c-.626.083-5.133,1.08-11.463,1.855-5.4.662-12,1.1-12.711,1.2a8.472,8.472,0,0,1-1.154.084A5.673,5.673,0,0,1,230.923,70.293Zm32.36-6.9c-1.039-.925-6.292-7.353-11.757-12.78s-7.068-6.872-8.658-8.2-3.406-2.336-3.9-5.331a79.958,79.958,0,0,1-.641-8.226c-.092-2.475-.129-4.643-.113-6.388.041-4.438,1.15-4.932,4.652-2.849s5.468,2.567,12.63,7.859,13.72,10.792,14.512,11.507c1.62,1.463,2.119,2.007,2.4,4.326s-4.44,18.385-5.443,19.726A2.42,2.42,0,0,1,265,64.067,2.607,2.607,0,0,1,263.283,63.392Zm-192.25-.358c-1-1.341-5.723-17.407-5.443-19.726s.779-2.863,2.4-4.326c.792-.715,7.351-6.214,14.512-11.507s9.129-5.775,12.63-7.859,4.611-1.589,4.651,2.849c.016,1.744-.021,3.911-.113,6.387a79.958,79.958,0,0,1-.641,8.226c-.492,2.994-2.307,4-3.9,5.331s-3.193,2.775-8.658,8.2S75.755,62.467,74.716,63.392A2.607,2.607,0,0,1,73,64.067,2.42,2.42,0,0,1,71.033,63.034Zm56.4-13.379c-.583-.345-5.206-3.416-9.292-5.794-4.566-2.658-8.594-4.621-9.074-4.9-.962-.562-1.1-2.441.683-3.392s7.655-4.381,15.268-7.983,14.624-6.244,16.387-6.425a3.152,3.152,0,0,1,3.37,1.274,44.081,44.081,0,0,1,3.539,8.02c1.317,3.829,2.215,7.892,2.436,8.568a2.882,2.882,0,0,1-1.633,3.628,70.441,70.441,0,0,0-8.81,3.4c-5.592,2.525-7.7,4.246-9.105,4.44a5.7,5.7,0,0,1-.77.053A5.776,5.776,0,0,1,127.438,49.655Zm79.355.832c-1.409-.193-3.514-1.913-9.105-4.439a70.6,70.6,0,0,0-8.81-3.4,2.883,2.883,0,0,1-1.633-3.628c.221-.676,1.12-4.738,2.435-8.569a44.054,44.054,0,0,1,3.54-8.018,3.151,3.151,0,0,1,3.37-1.275c1.763.18,8.774,2.824,16.387,6.425s13.484,7.033,15.268,7.983,1.645,2.831.683,3.392c-.48.28-4.508,2.243-9.074,4.9-4.086,2.378-8.708,5.45-9.292,5.794a5.77,5.77,0,0,1-3,.886A5.675,5.675,0,0,1,206.793,50.486ZM155.517,38.321a57.2,57.2,0,0,1-3.1-7.9c-1.264-3.913-1.684-6.669-1.955-7.437a2.618,2.618,0,0,1,1.955-3.716,61.981,61.981,0,0,1,33.175,0,2.616,2.616,0,0,1,1.955,3.714c-.271.768-.691,3.524-1.955,7.437a57.2,57.2,0,0,1-3.1,7.9c-.6.94-1.575,2.272-2.666,2.272-.033,0-.068,0-.1,0-1.134-.086-6.384-.6-10.716-.6s-9.581.516-10.714.6c-.034,0-.067,0-.1,0C157.092,40.593,156.117,39.262,155.517,38.321ZM229.4,32.682c-1.418-.548-8.26-4.731-15.928-8.148s-12.889-5.517-15.029-6.275a6.776,6.776,0,0,1-4.258-3.423c-1.2-1.967-1.454-3.629-2.9-8.492s-.616-5.046,3.785-4.181a130.377,130.377,0,0,1,15.582,3.9,157.974,157.974,0,0,1,18.175,6.74c2.219.874,2.937,1.232,4.08,3.344.608,1.126.7,4.118.747,7.873a28.933,28.933,0,0,1-.563,7.154,2.565,2.565,0,0,1-2.522,1.729A3.257,3.257,0,0,1,229.4,32.682ZM104.9,31.172a28.857,28.857,0,0,1-.564-7.153c.046-3.757.139-6.748.748-7.873,1.142-2.113,1.859-2.47,4.08-3.344a157.9,157.9,0,0,1,18.175-6.74,130.625,130.625,0,0,1,15.581-3.9c4.4-.866,5.227-.683,3.785,4.181s-1.7,6.526-2.9,8.492a6.778,6.778,0,0,1-4.258,3.423c-2.141.758-7.361,2.858-15.029,6.276s-14.511,7.6-15.929,8.148a3.256,3.256,0,0,1-1.17.22A2.566,2.566,0,0,1,104.9,31.172Zm82.056-14.329A125.43,125.43,0,0,0,169,15.1v0a125.561,125.561,0,0,0-17.959,1.738c-1.391.264-1.557-1.544-1.382-2.762s.577-3.249,1.165-5.58a33.778,33.778,0,0,1,1.91-5.728c.7-1.3,1.332-1.557,3.264-2.018S162.335,0,169,0s11.072.294,13,.756,2.56.716,3.264,2.018a33.861,33.861,0,0,1,1.91,5.728c.589,2.331.987,4.361,1.165,5.58.164,1.137.03,2.788-1.122,2.788A1.364,1.364,0,0,1,186.959,16.844Z" data-name="Path 265" transform="translate(-8954.5 -555.3)" class="colorFFFFFFFF svgShape"></path><path fill="#FFFFFFFF" d="M36.929,161.809c.265-1.21,2.556-14.649,5.556-26.4a134.482,134.482,0,0,1,4.574-14.869l.518.024c2.335.108,5.325.216,8.157.162,5.984-.116,10.111-.251,11.411-.334s2.908.369,2.614,2.013-4.332,8.108-7.712,17.072a155.27,155.27,0,0,0-5.089,16.739c-6.56,3.352-16.6,8.293-18.252,8.875a3.151,3.151,0,0,1-1.021.212C36.36,165.3,36.507,163.732,36.929,161.809Zm-6.176-2.08C29.8,157.6,18.243,125.393,17.611,122.8c-.777-3.182-.357-3.54,0-6.159A87.553,87.553,0,0,1,21.853,104.5c.932-2.251,1.772-4.142,2.488-5.7a12.673,12.673,0,0,1,3.243,2.928c1.4,1.655,3.845,4.323,6.088,6.9,3.365,3.868,7.1,7.818,8.412,9.325a5.985,5.985,0,0,1,1.294,2.265c-1.046,3.088-2.471,7.49-4.016,13.332-3,11.34-5.6,24.83-5.794,25.6-.218.864-.884,1.7-1.585,1.7C31.555,160.849,31.114,160.538,30.753,159.729ZM297,152.088c-2.706-.839-25.246-10.723-27.194-11.871-.791-2.544-1.747-5.369-2.856-8.195-3.382-8.607-7.418-14.814-7.713-16.393s1.313-2.012,2.615-1.933,5.427.209,11.41.32c2.831.052,5.822-.051,8.158-.155,2.119-.094,3.7-.189,4.13-.166a4.5,4.5,0,0,1,3.869,3.134c.756,1.809,3.091,6.82,6.091,18.574,1.427,5.589,2.693,11.559,3.657,16.413a1.059,1.059,0,0,1-1,.482A4.034,4.034,0,0,1,297,152.088Zm1.633-18.538c-2.576-9.743-4.821-15.484-5.528-17.794s-1.236-4.394.384-6.516c1.04-1.363,4.024-4.912,6.691-8.41,1.778-2.332,3.723-4.736,4.832-6.234a10.135,10.135,0,0,1,2.351-2.43c.775,1.675,1.717,3.771,2.778,6.336a87.552,87.552,0,0,1,4.242,12.141c.357,2.62.778,2.976,0,6.159-.523,2.144-8.531,24.574-11.815,33.45C301.525,145.376,300.13,139.2,298.638,133.55ZM54.363,108.332c-1.265-.059-2.581-2.03-1.754-4.257.432-1.162,3.7-7.529,7.061-13.745,2.052-3.79,4.735-8.167,6.841-11.424,7.029.714,19.286,1.985,20.007,2.109a2.128,2.128,0,0,1,1.722,3.114c-.8,1.848-6.412,8.352-10.579,15.564-2.426,4.2-3.989,7.1-5.087,9.09C65.657,108.726,55.238,108.374,54.363,108.332Zm-7.795-5.687c-1.417-.893-12.919-14.132-13.488-16.4s-.3-2.953.689-4.9A135.823,135.823,0,0,1,44.188,64.877c3.839-5.176,7.682-9.734,10.139-12.562a23.033,23.033,0,0,1,1.757,3.412c3.365,7.8,6.1,15.908,7.2,19.363a7.671,7.671,0,0,1,.407,2.885c-1.235,1.939-2.889,4.556-4.916,8.06-3.556,6.15-8,14.387-8.643,15.623a2.505,2.505,0,0,1-2.2,1.4A2.56,2.56,0,0,1,46.568,102.645Zm205.416-4.254q-.593-.126-1.144-.3c-.714-1.279-1.54-2.739-2.5-4.4-4.167-7.212-9.775-13.717-10.579-15.564a2.127,2.127,0,0,1,1.722-3.114c.972-.167,22.93-2.421,24.742-2.58s2.819.2,4.247,2.039a168.5,168.5,0,0,1,9.858,15.854c1.275,2.356,2.537,4.734,3.634,6.842a2.156,2.156,0,0,1-.824.231c-1.312.082-20.461,1.075-27.063,1.075A14.534,14.534,0,0,1,251.984,98.391Zm27.239-12.353c-3.556-6.15-5.965-9.568-6.974-11.38s-2.342-3.4-1.729-6.374a163.368,163.368,0,0,1,4.373-16.535,9.777,9.777,0,0,1,2.042-3.968c2.408,2.819,5.644,6.738,8.875,11.1A135.723,135.723,0,0,1,296.23,75.349c.989,1.947,1.26,2.632.69,4.9-.489,1.945-9.03,11.973-12.337,15.34C282.956,92.626,280.981,89.077,279.223,86.037ZM90.3,69.769c-6.33-.775-10.837-1.772-11.462-1.855a1.8,1.8,0,0,1-1.067-3.063A137.756,137.756,0,0,1,89.536,52.023c3.1-2.934,5.347-4.939,7.025-6.332,1.446.637,4.111,1.818,6.723,3.2,4.584,2.42,9.123,5.231,9.482,5.444a1.629,1.629,0,0,1,.434,2.7c-1.085,1.08-4.6,3.64-8.844,7.833-2.635,2.6-4.345,4.5-5.554,5.745C96.326,70.4,93.146,70.118,90.3,69.769Zm133.109-6.661c-4.371-4.119-8.034-6.6-9.151-7.663s-.333-2.245.564-2.775c.392-.23,5.345-3.271,10.333-5.915,3.829-2.029,7.747-3.694,8.4-4.017a3.58,3.58,0,0,1,3.909.095c1.614.858,4.324,2.865,11.007,9.189a123.144,123.144,0,0,1,8.772,9.247,2.635,2.635,0,0,1-1.456.86c-.717.133-5.912,1.512-13.162,2.8-6.189,1.1-13.712,2.048-14.533,2.2-.168.032-.336.061-.5.085C226.51,66.126,225.158,64.76,223.405,63.108ZM71.033,63.034c-1-1.341-5.723-17.407-5.443-19.726s.779-2.863,2.4-4.326c.792-.715,7.351-6.214,14.512-11.507a68.488,68.488,0,0,1,10-6.4c.545.714.844,2.093,1,4.264.149,2.044.276,4.58.37,7.473.115,3.562.135,7.48-.035,9.586a8.8,8.8,0,0,1-.2,1.3c-1.364,1.223-3.3,3.069-7.169,6.914-5.464,5.427-10.718,11.855-11.757,12.78A2.6,2.6,0,0,1,73,64.066,2.417,2.417,0,0,1,71.033,63.034ZM251.526,50.612c-5.465-5.427-7.067-6.872-8.657-8.2s-3.406-2.336-3.9-5.331a80.214,80.214,0,0,1-.641-8.226c-.092-2.475-.13-4.643-.113-6.388a7.865,7.865,0,0,1,.495-3.272,68.544,68.544,0,0,1,9.787,6.283c7.16,5.293,13.72,10.792,14.512,11.506,1.62,1.463,2.12,2.007,2.4,4.326.251,2.081-3.523,15.23-5.027,18.878C258.116,57.606,254.86,53.924,251.526,50.612Zm-133.38-6.752c-4.566-2.658-8.594-4.621-9.074-4.9-.962-.562-1.1-2.441.683-3.392s7.655-4.381,15.268-7.983a132.1,132.1,0,0,1,14.218-5.872c.039.045.077.092.116.14a38.327,38.327,0,0,1,3.176,7.519c1.152,3.6,1.89,7.445,2.083,8.081a2.919,2.919,0,0,1-1.716,3.514,74.951,74.951,0,0,0-8.708,3.538c-4.492,2.108-6.729,3.632-8.15,4.257C124.239,47.6,121.056,45.554,118.146,43.861Zm79.542,2.187a70.483,70.483,0,0,0-8.811-3.4,2.884,2.884,0,0,1-1.633-3.628c.221-.676,1.12-4.738,2.436-8.569a44.142,44.142,0,0,1,3.539-8.018,3.153,3.153,0,0,1,3.37-1.275c1.762.18,8.773,2.824,16.386,6.425,4.352,2.058,8.134,4.062,10.909,5.577a1.759,1.759,0,0,1-.268.225c-.546.372-5.092,3.046-10.291,6.575-4.649,3.156-9.953,7.164-10.619,7.621q-.412.283-.826.514C200.75,47.5,199.379,46.811,197.688,46.048Zm-17.973-7.459c-1.134-.086-6.384-.6-10.715-.6s-9.582.516-10.714.6-2.15-1.3-2.768-2.267a57.328,57.328,0,0,1-3.1-7.9c-1.264-3.913-1.684-6.669-1.954-7.438-.017-.049-.033-.1-.049-.148a2.854,2.854,0,0,1,2-1.568,61.981,61.981,0,0,1,33.175,0,2.857,2.857,0,0,1,2.005,1.566c-.015.049-.032.1-.049.148-.272.769-.692,3.524-1.956,7.438a57.2,57.2,0,0,1-3.1,7.9c-.6.941-1.574,2.272-2.665,2.272C179.782,38.593,179.749,38.591,179.715,38.588ZM104.9,31.172a28.876,28.876,0,0,1-.563-7.153c.046-3.757.139-6.748.747-7.874,1.143-2.112,1.86-2.47,4.08-3.344A158.314,158.314,0,0,1,127.34,6.062a130.3,130.3,0,0,1,14.62-3.71c.3.74.1,2.092-.483,4.357-1.394,5.4-1.634,7.252-2.813,9.43a6.794,6.794,0,0,1-4.228,3.77c-2.134.823-7.339,3.111-14.979,6.841-3.926,1.916-7.631,4.059-10.5,5.772-.144.069-.266.123-.362.16a3.256,3.256,0,0,1-1.17.22A2.567,2.567,0,0,1,104.9,31.172Zm108.572-6.638c-7.668-3.416-12.888-5.517-15.029-6.275a6.774,6.774,0,0,1-4.257-3.423c-1.2-1.967-1.455-3.629-2.9-8.492-1.021-3.447-.9-4.543.817-4.581,2.783.571,5.564,1.25,12.55,3.3a157.928,157.928,0,0,1,18.174,6.74c2.22.874,2.938,1.232,4.081,3.344.608,1.126.7,4.118.747,7.873a28.933,28.933,0,0,1-.563,7.154,2.522,2.522,0,0,1-.612.986C223.477,29.51,218.665,26.846,213.475,24.534Zm-26.517-7.691A125.4,125.4,0,0,0,169,15.1v0a125.592,125.592,0,0,0-17.959,1.738c-.778.148-1.173-.355-1.338-1.039.194-1.237.577-3.14,1.122-5.3a33.837,33.837,0,0,1,1.911-5.728c.7-1.3,1.331-1.557,3.263-2.018S162.334,2,169,2s11.072.294,13,.756,2.559.716,3.263,2.018a33.776,33.776,0,0,1,1.91,5.728c.547,2.163.93,4.066,1.124,5.3-.147.6-.471,1.066-1.08,1.066A1.373,1.373,0,0,1,186.958,16.844Z" data-name="Path 264" transform="translate(-8954.5 -555.3)" class="colorFFFFFFFF svgShape"></path></g></g></svg></g></svg>