<svg xmlns="http://www.w3.org/2000/svg"  viewBox="0 0 48 48" width="144px" height="144px"><path fill="#6c19ff" d="M38.96,10c0,0-4-2-9-3l-1.225,2.449C27.221,9.161,25.637,9,24,9c-1.65,0-3.247,0.163-4.772,0.455 L18,7c-5,1-9,3-9,3c-8,9-7,25-7,25c3,3,11,6,11,6c0.945-0.945,1.89-2.559,2.624-4C13.078,35.835,12,35,12,35l0.739-0.739 C15.888,35.979,19.779,37,24,37c4.21,0,8.09-1.016,11.235-2.725L35.96,35c0,0-1.078,0.835-3.624,2c0.734,1.44,1.679,3.055,2.624,4 c0,0,8-3,11-6C45.96,35,46.96,19,38.96,10z"/><path fill="#2100c4" d="M9,28c-1-7,4-14,4-14l7-3l-0.772-1.545c-2.792,0.535-5.338,1.52-7.478,2.852 c-1.118,1.414-5.725,7.821-5.031,16.487c1.349,2.18,3.436,4.057,6.02,5.467L14,33C10.825,31.187,9,28,9,28z"/><path fill="#2100c4" d="M41.281,28.794c0.694-8.666-3.913-15.073-5.031-16.487c-2.149-1.338-4.708-2.325-7.515-2.858 L27.96,11l7,3c0,0,5,7,4,14c0,0-1.825,3.187-5,5l1.275,1.275C37.831,32.864,39.928,30.982,41.281,28.794z"/><ellipse cx="17" cy="25.5" fill="#ddbaff" rx="4" ry="4.5"/><ellipse cx="31" cy="25.5" fill="#ddbaff" rx="4" ry="4.5"/></svg>