<svg xmlns="http://www.w3.org/2000/svg" width="365.001" height="364.999" viewBox="0 0 365.001 364.999">
  <g id="light-flat-bulb" transform="translate(7795.001 1118.999)">
    <path id="Path_275" data-name="Path 275" d="M7428.5,1792a183.849,183.849,0,0,1-36.78-3.708,181.506,181.506,0,0,1-65.258-27.461,183.037,183.037,0,0,1-66.122-80.295,181.551,181.551,0,0,1-10.634-34.257,184.265,184.265,0,0,1,0-73.56,181.487,181.487,0,0,1,27.46-65.257,183.031,183.031,0,0,1,80.3-66.12,181.567,181.567,0,0,1,34.257-10.634,184.278,184.278,0,0,1,73.56,0,181.493,181.493,0,0,1,65.257,27.46,183.026,183.026,0,0,1,66.121,80.294,181.592,181.592,0,0,1,10.634,34.257,184.289,184.289,0,0,1,0,73.56,181.511,181.511,0,0,1-27.46,65.257,183.042,183.042,0,0,1-80.294,66.121,181.585,181.585,0,0,1-34.257,10.634A183.841,183.841,0,0,1,7428.5,1792Zm0-358c-88.5,0-160.5,72-160.5,160.5s72,160.5,160.5,160.5,160.5-72,160.5-160.5S7517,1434,7428.5,1434Z" transform="translate(-15041 -2546)" fill="#62ecba"/>
    <path id="Path_276" data-name="Path 276" d="M7406.5,1748a161.681,161.681,0,0,1-32.347-3.261,159.617,159.617,0,0,1-57.391-24.15,160.959,160.959,0,0,1-58.149-70.615,159.69,159.69,0,0,1-9.352-30.127,162.067,162.067,0,0,1,0-64.693,159.632,159.632,0,0,1,24.149-57.391,160.966,160.966,0,0,1,70.615-58.15,159.689,159.689,0,0,1,30.128-9.352,162.066,162.066,0,0,1,64.692,0,159.615,159.615,0,0,1,57.391,24.15,160.962,160.962,0,0,1,58.15,70.615,159.723,159.723,0,0,1,9.352,30.128,162.067,162.067,0,0,1,0,64.693,159.623,159.623,0,0,1-24.15,57.391,160.975,160.975,0,0,1-70.615,58.15,159.676,159.676,0,0,1-30.128,9.352A161.667,161.667,0,0,1,7406.5,1748Zm.5-309c-76.645,0-139,62.355-139,139s62.355,139,139,139,139-62.355,139-139S7483.645,1439,7407,1439Z" transform="translate(-15019 -2539)" fill="#6af8c5"/>
    <path id="Path_277" data-name="Path 277" d="M139,0A139,139,0,1,1,0,139,139,139,0,0,1,139,0Z" transform="translate(-7751 -1100)" fill="#86ffd3"/>
    <g id="Group_154" data-name="Group 154" transform="translate(0.5 -497)">
      <path id="Path_209" data-name="Path 209" d="M5,0H15c4.006,0,8,6,8,10s-4.058,10-8,10H5a4,4,0,0,1-4-4V4A4,4,0,0,1,5,0Z" transform="translate(-7684.5 -446)" fill="#607d8b"/>
      <path id="Path_209-2" data-name="Path 209" d="M5,0H15c4.006,0,8,6,8,10s-4.058,10-8,10H5a4,4,0,0,1-4-4V4A4,4,0,0,1,5,0Z" transform="translate(-7644.5 -466) rotate(90)" fill="#607d8b"/>
      <path id="Path_209-3" data-name="Path 209" d="M5,0H15c4.006,0,8,6,8,10s-4.058,10-8,10H5a4,4,0,0,1-4-4V4A4,4,0,0,1,5,0Z" transform="translate(-7624.5 -426) rotate(180)" fill="#607d8b"/>
      <path id="Path_209-4" data-name="Path 209" d="M5,0H15c4.006,0,8,6,8,10s-4.058,10-8,10H5a4,4,0,0,1-4-4V4A4,4,0,0,1,5,0Z" transform="translate(-7664.5 -406) rotate(-90)" fill="#607d8b"/>
      <circle id="Ellipse_32" data-name="Ellipse 32" cx="10" cy="10" r="10" transform="translate(-7569.5 -446)" fill="#ff7043"/>
      <circle id="Ellipse_34" data-name="Ellipse 34" cx="10" cy="10" r="10" transform="translate(-7585.5 -428)" fill="#03a9f4"/>
      <circle id="Ellipse_35" data-name="Ellipse 35" cx="10" cy="10" r="10" transform="translate(-7585.5 -464)" fill="#4caf50"/>
      <circle id="Ellipse_33" data-name="Ellipse 33" cx="10" cy="10" r="10" transform="translate(-7601.5 -446)" fill="#ef5350"/>
      <path id="Path_254" data-name="Path 254" d="M299.294,169.5c-2.395-.845-22.471-10.875-23.915-11.9s-2.184-1.267-2.871-3.345a161.059,161.059,0,0,0-5.554-17.825c-3.381-8.607-7.417-14.813-7.712-16.393s1.313-2.012,2.614-1.932,5.427.209,11.411.32c2.831.052,5.822-.051,8.158-.155,2.118-.094,3.7-.189,4.13-.166a4.5,4.5,0,0,1,3.869,3.134c.755,1.809,3.092,6.82,6.091,18.574s5.291,25.194,5.557,26.4c.422,1.923.568,3.49-.756,3.491A3.155,3.155,0,0,1,299.294,169.5ZM36.93,166.226c.265-1.211,2.556-14.65,5.556-26.4s5.337-16.765,6.092-18.574a4.5,4.5,0,0,1,3.869-3.134c.432-.023,2.012.071,4.129.166,2.335.1,5.326.207,8.158.155,5.984-.112,10.111-.241,11.411-.32s2.908.354,2.614,1.932-4.332,7.786-7.712,16.393a161.058,161.058,0,0,0-5.554,17.825c-.688,2.078-1.427,2.324-2.871,3.345S41.1,168.659,38.706,169.5a3.155,3.155,0,0,1-1.021.212C36.361,169.716,36.508,168.148,36.93,166.226Zm267.5-2.661c-.194-.768-2.8-14.258-5.794-25.6-2.576-9.743-4.82-15.484-5.527-17.794s-1.236-4.394.384-6.516c1.04-1.363,4.024-4.913,6.691-8.41,1.778-2.333,3.722-4.736,4.832-6.234,4.183-5.647,5.86-1.809,6.683,0s2.416,5,4.445,9.905a87.477,87.477,0,0,1,4.243,12.142c.357,2.619.777,2.976,0,6.158-.633,2.59-12.191,34.8-13.142,36.927-.361.808-.8,1.12-1.23,1.12C305.316,165.264,304.65,164.428,304.432,163.564Zm-273.678.58c-.951-2.13-12.51-34.337-13.142-36.927-.778-3.182-.357-3.539,0-6.158a87.552,87.552,0,0,1,4.242-12.142c2.03-4.9,3.622-8.1,4.446-9.905s2.5-5.647,6.682,0c1.11,1.5,3.055,3.9,4.832,6.234,2.667,3.5,5.65,7.047,6.691,8.41,1.621,2.122,1.092,4.206.385,6.516s-2.951,8.051-5.527,17.794c-3,11.34-5.6,24.83-5.794,25.6-.218.864-.885,1.7-1.586,1.7C31.555,165.265,31.114,164.953,30.754,164.145Zm228.661-51.1a7.341,7.341,0,0,1-4.194-2.824c-1.1-1.517-2.713-4.9-6.881-12.11s-9.776-13.716-10.579-15.564a2.128,2.128,0,0,1,1.723-3.114c.972-.167,22.93-2.421,24.742-2.58s2.819.2,4.247,2.039a168.729,168.729,0,0,1,9.858,15.855c3.365,6.216,6.63,12.583,7.061,13.746.827,2.226-.488,4.2-1.754,4.257-.951.045-13.194.458-19.94.458A29.363,29.363,0,0,1,259.415,113.043Zm-205.051-.294c-1.265-.059-2.581-2.031-1.754-4.257.432-1.163,3.7-7.529,7.061-13.746A168.7,168.7,0,0,1,69.53,78.89c1.428-1.842,2.435-2.2,4.247-2.039s23.769,2.414,24.742,2.58a2.127,2.127,0,0,1,1.722,3.114c-.8,1.848-6.411,8.352-10.579,15.564s-5.783,10.592-6.881,12.11a7.346,7.346,0,0,1-4.195,2.824,29.354,29.354,0,0,1-4.282.164C67.558,113.207,55.315,112.793,54.364,112.748Zm233.5-6.673c-.637-1.236-5.087-9.473-8.643-15.623s-5.965-9.567-6.974-11.379-2.342-3.4-1.728-6.374a163.374,163.374,0,0,1,4.373-16.535c2.176-6.611,4.216-4.645,6.311-2.244,1.07,1.227,6.845,7.6,12.606,15.372a135.775,135.775,0,0,1,10.419,16.472c.988,1.946,1.26,2.632.69,4.9s-12.071,15.5-13.488,16.4a2.557,2.557,0,0,1-1.369.416A2.506,2.506,0,0,1,287.866,106.076Zm-241.3.985c-1.418-.893-12.919-14.132-13.488-16.4s-.3-2.952.689-4.9A135.823,135.823,0,0,1,44.189,69.294C49.95,61.524,55.725,55.148,56.8,53.922c2.1-2.4,4.134-4.368,6.31,2.244A163.307,163.307,0,0,1,67.479,72.7c.614,2.972-.719,4.562-1.728,6.374S62.333,84.3,58.777,90.453s-8,14.387-8.643,15.623a2.506,2.506,0,0,1-2.2,1.4A2.555,2.555,0,0,1,46.569,107.061ZM103.008,75.38c-.714-.1-7.308-.534-12.711-1.2-6.33-.775-10.837-1.772-11.463-1.855a1.8,1.8,0,0,1-1.066-3.064A137.882,137.882,0,0,1,89.536,56.438c6.683-6.324,9.394-8.33,11.009-9.188a3.576,3.576,0,0,1,3.908-.094c.65.322,4.568,1.987,8.4,4.017,4.987,2.643,9.94,5.683,10.332,5.915.9.529,1.681,1.714.564,2.775s-4.78,3.543-9.15,7.663-6.252,6.453-7.519,7.185a5.669,5.669,0,0,1-2.915.755A8.48,8.48,0,0,1,103.008,75.38Zm127.916-.672c-1.266-.731-3.149-3.064-7.519-7.184s-8.033-6.6-9.15-7.663-.333-2.246.564-2.776c.392-.23,5.345-3.271,10.332-5.914,3.83-2.03,7.748-3.695,8.4-4.017a3.576,3.576,0,0,1,3.908.094c1.615.858,4.325,2.864,11.008,9.188a137.817,137.817,0,0,1,11.77,12.829,1.8,1.8,0,0,1-1.066,3.063c-.626.084-5.134,1.081-11.463,1.856-5.4.661-12,1.1-12.711,1.2a8.478,8.478,0,0,1-1.154.084A5.664,5.664,0,0,1,230.924,74.708Zm32.359-6.9c-1.039-.925-6.292-7.354-11.757-12.78s-7.067-6.872-8.658-8.2-3.406-2.336-3.9-5.331a79.725,79.725,0,0,1-.641-8.226c-.093-2.476-.13-4.643-.113-6.388.041-4.438,1.15-4.933,4.651-2.848s5.468,2.567,12.63,7.859S269.218,42.683,270.01,43.4c1.621,1.462,2.119,2.007,2.4,4.326s-4.44,18.385-5.443,19.726A2.42,2.42,0,0,1,265,68.483,2.607,2.607,0,0,1,263.283,67.809ZM71.034,67.451c-1-1.342-5.723-17.407-5.443-19.726s.779-2.864,2.4-4.326c.792-.715,7.351-6.215,14.512-11.507s9.129-5.775,12.631-7.859,4.61-1.59,4.651,2.848c.015,1.744-.022,3.912-.113,6.388A80,80,0,0,1,99.03,41.5c-.491,2.994-2.307,4-3.9,5.331s-3.194,2.775-8.659,8.2S75.756,66.883,74.717,67.809A2.607,2.607,0,0,1,73,68.483,2.42,2.42,0,0,1,71.034,67.451ZM206.794,54.9c-1.409-.193-3.514-1.914-9.105-4.44a70.562,70.562,0,0,0-8.811-3.4,2.884,2.884,0,0,1-1.633-3.629c.221-.675,1.12-4.738,2.436-8.568a44.142,44.142,0,0,1,3.539-8.018,3.152,3.152,0,0,1,3.37-1.275c1.762.18,8.774,2.823,16.386,6.425s13.484,7.033,15.269,7.983,1.644,2.83.682,3.392c-.479.279-4.508,2.243-9.074,4.9-4.085,2.378-8.708,5.45-9.292,5.794a5.767,5.767,0,0,1-3,.885A5.689,5.689,0,0,1,206.794,54.9Zm-79.356-.832c-.583-.346-5.206-3.416-9.292-5.794-4.566-2.658-8.594-4.622-9.074-4.9-.962-.562-1.1-2.441.683-3.391S117.411,35.6,125.024,32s14.624-6.245,16.387-6.426a3.153,3.153,0,0,1,3.37,1.275,44.03,44.03,0,0,1,3.539,8.019c1.317,3.83,2.215,7.893,2.436,8.569a2.883,2.883,0,0,1-1.633,3.628,70.52,70.52,0,0,0-8.81,3.4c-5.592,2.526-7.7,4.247-9.105,4.44a5.7,5.7,0,0,1-.772.054A5.771,5.771,0,0,1,127.438,54.071Zm52.277-9.066c-1.134-.085-6.385-.6-10.715-.6s-9.581.515-10.714.6-2.15-1.3-2.768-2.267a57.453,57.453,0,0,1-3.1-7.9c-1.263-3.914-1.683-6.67-1.954-7.437a2.617,2.617,0,0,1,1.954-3.715,61.961,61.961,0,0,1,33.176,0,2.617,2.617,0,0,1,1.955,3.715c-.271.767-.691,3.523-1.955,7.438a57.473,57.473,0,0,1-3.1,7.9c-.6.941-1.575,2.272-2.668,2.272C179.782,45.009,179.749,45.008,179.716,45.005ZM229.4,37.1c-1.418-.548-8.261-4.731-15.929-8.148s-12.888-5.518-15.029-6.276a6.773,6.773,0,0,1-4.257-3.422c-1.2-1.967-1.455-3.629-2.9-8.492s-.616-5.047,3.785-4.18a130.377,130.377,0,0,1,15.581,3.9,157.9,157.9,0,0,1,18.175,6.74c2.22.874,2.938,1.232,4.08,3.344.609,1.126.7,4.117.748,7.873a28.872,28.872,0,0,1-.564,7.154,2.565,2.565,0,0,1-2.522,1.729A3.258,3.258,0,0,1,229.4,37.1ZM104.9,35.589a28.933,28.933,0,0,1-.563-7.154c.046-3.757.139-6.747.747-7.873,1.143-2.112,1.86-2.471,4.08-3.344a158.048,158.048,0,0,1,18.175-6.74,130.561,130.561,0,0,1,15.582-3.9c4.4-.867,5.226-.683,3.785,4.181s-1.7,6.526-2.9,8.492a6.779,6.779,0,0,1-4.258,3.423c-2.14.757-7.361,2.858-15.029,6.275s-14.51,7.6-15.928,8.148a3.257,3.257,0,0,1-1.172.221A2.565,2.565,0,0,1,104.9,35.589ZM149.66,18.5c.176-1.219.575-3.248,1.165-5.58a33.835,33.835,0,0,1,1.909-5.728c.7-1.3,1.333-1.556,3.264-2.017s6.337-.756,13-.756,11.072.294,13,.756,2.56.716,3.264,2.017a33.974,33.974,0,0,1,1.909,5.728c.589,2.332.988,4.361,1.165,5.58s.01,3.027-1.382,2.762A125.53,125.53,0,0,0,169,19.521a125.382,125.382,0,0,0-17.959,1.739,1.4,1.4,0,0,1-.262.026C149.629,21.286,149.5,19.634,149.66,18.5Z" transform="translate(-7781.5 -559.716)" fill="#474666"/>
    </g>
  </g>
</svg>
