<svg xmlns="http://www.w3.org/2000/svg" width="227.913" height="222.17" viewBox="0 0 227.913 222.17" >
  <g id="Group_95" data-name="Group 95" transform="translate(-140.694 -1880.053)">
    <g id="_686589" data-name="686589" transform="translate(185.105 1880.053) rotate(45)" opacity="0.06">
      <g id="Group_58" data-name="Group 58" transform="translate(0 0)">
        <g id="Group_57" data-name="Group 57">
          <path id="Path_11" data-name="Path 11" d="M95.574,43.435a89.261,89.261,0,0,0-2.62-17.27,66.285,66.285,0,0,0-5.36-14.531C79.257-3.016,70.2-.753,59.366,2.106A77.582,77.582,0,0,1,48.408,4.25H47.217A77.583,77.583,0,0,1,36.26,2.106C25.421-.634,16.369-3.016,8.031,11.753a60.719,60.719,0,0,0-5.36,14.531,89.261,89.261,0,0,0-2.62,17.27c-.238,6.074.357,10.481,1.667,13.578a9.027,9.027,0,0,0,5.717,5.36,11.645,11.645,0,0,0,7.623-.834C19.7,59.753,25.064,55.7,30.3,50.82,34,47.247,40.9,45.46,47.813,45.46s13.816,1.787,17.509,5.36c5.241,4.883,10.6,8.933,15.246,10.839a12.46,12.46,0,0,0,7.623.834,8.9,8.9,0,0,0,5.717-5.479C95.217,54.036,95.812,49.629,95.574,43.435ZM89.857,55.346A4.723,4.723,0,0,1,87,58.323a8.225,8.225,0,0,1-4.883-.6c-4.169-1.667-9.052-5.36-13.816-9.886-4.526-4.526-12.506-6.789-20.486-6.789S31.853,43.316,27.207,47.6c-4.883,4.526-9.767,8.337-13.816,9.886-1.906.715-3.573,1.072-4.883.6a4.723,4.723,0,0,1-2.859-2.978C4.7,52.845,4.22,49.152,4.458,43.674a82.157,82.157,0,0,1,2.5-16.437,56.832,56.832,0,0,1,5-13.459c6.551-11.791,14.174-9.886,23.226-7.5A69.869,69.869,0,0,0,46.86,8.537h1.787A69,69,0,0,0,60.438,6.274c9.052-2.263,16.675-4.288,23.226,7.5a54.92,54.92,0,0,1,5,13.459,90.15,90.15,0,0,1,2.5,16.437C91.405,49.152,90.929,52.845,89.857,55.346Z" fill="#fff"/>
        </g>
      </g>
      <g id="Group_60" data-name="Group 60" transform="translate(12.319 11.872)">
        <g id="Group_59" data-name="Group 59">
          <path id="Path_12" data-name="Path 12" d="M24.536,8.337a7.237,7.237,0,0,0-4.288-2.025,6.777,6.777,0,0,0-1.906-4.169l-.119-.119A6.746,6.746,0,0,0,13.34,0,7.033,7.033,0,0,0,8.456,2.025,6.923,6.923,0,0,0,6.432,6.313,7.1,7.1,0,0,0,2.144,8.218l-.119.119A6.746,6.746,0,0,0,0,13.221,7.033,7.033,0,0,0,2.025,18.1a6.64,6.64,0,0,0,4.407,2.025,6.354,6.354,0,0,0,2.025,4.288,6.746,6.746,0,0,0,4.883,2.025,7.033,7.033,0,0,0,4.883-2.025,7.237,7.237,0,0,0,2.025-4.288A6.354,6.354,0,0,0,24.536,18.1a6.746,6.746,0,0,0,2.025-4.883A7.033,7.033,0,0,0,24.536,8.337Zm-2.978,6.67a2.424,2.424,0,0,1-1.787.715H18.1a2.261,2.261,0,0,0-2.263,2.263v1.548a2.442,2.442,0,0,1-2.5,2.5,2.442,2.442,0,0,1-2.5-2.5V17.866A2.261,2.261,0,0,0,8.576,15.6H6.908a2.442,2.442,0,0,1-1.787-4.169l.119-.119a2.846,2.846,0,0,1,1.667-.6H8.576a2.261,2.261,0,0,0,2.263-2.263V6.789a2.442,2.442,0,0,1,2.5-2.5A2.424,2.424,0,0,1,15.126,5l.119.119a2.846,2.846,0,0,1,.6,1.667V8.456A2.261,2.261,0,0,0,18.1,10.72h1.667a2.442,2.442,0,0,1,2.5,2.5A2.424,2.424,0,0,1,21.558,15.007Z" fill="#fff"/>
        </g>
      </g>
      <g id="Group_62" data-name="Group 62" transform="translate(64.368 12.468)">
        <g id="Group_61" data-name="Group 61">
          <circle id="Ellipse_2" data-name="Ellipse 2" cx="4.169" cy="4.169" r="4.169" fill="#fff"/>
        </g>
      </g>
      <g id="Group_64" data-name="Group 64" transform="translate(64.368 29.381)">
        <g id="Group_63" data-name="Group 63">
          <circle id="Ellipse_3" data-name="Ellipse 3" cx="4.169" cy="4.169" r="4.169" fill="#fff"/>
        </g>
      </g>
      <g id="Group_66" data-name="Group 66" transform="translate(55.912 20.924)">
        <g id="Group_65" data-name="Group 65">
          <circle id="Ellipse_4" data-name="Ellipse 4" cx="4.169" cy="4.169" r="4.169" fill="#fff"/>
        </g>
      </g>
      <g id="Group_68" data-name="Group 68" transform="translate(72.825 20.924)">
        <g id="Group_67" data-name="Group 67">
          <circle id="Ellipse_5" data-name="Ellipse 5" cx="4.169" cy="4.169" r="4.169" fill="#fff"/>
        </g>
      </g>
    </g>
    <g id="Group_94" data-name="Group 94" transform="translate(288.756 1888.696) rotate(30)" opacity="0.06">
      <g id="Group_88" data-name="Group 88" transform="translate(20.154 33.589)">
        <path id="Path_74" data-name="Path 74" d="M12.345,7.764A16.681,16.681,0,0,1,.471,2.846,1.679,1.679,0,0,1,2.846.471a13.771,13.771,0,0,0,19,0,1.679,1.679,0,0,1,2.375,2.375A16.68,16.68,0,0,1,12.345,7.764Z" transform="translate(1.091 15.749)" fill="#fff"/>
        <path id="Path_75" data-name="Path 75" d="M3.359,6.718A3.359,3.359,0,1,1,6.718,3.359,3.359,3.359,0,0,1,3.359,6.718Z" transform="translate(0 0)" fill="#fff"/>
        <path id="Path_76" data-name="Path 76" d="M3.359,6.718A3.359,3.359,0,1,1,6.718,3.359,3.359,3.359,0,0,1,3.359,6.718Z" transform="translate(20.154 0)" fill="#fff"/>
      </g>
      <path id="Path_77" data-name="Path 77" d="M52.063,57.1H15.115A15.115,15.115,0,0,1,0,41.987V15.115A15.115,15.115,0,0,1,15.115,0H52.063A15.115,15.115,0,0,1,67.178,15.115V41.987A15.115,15.115,0,0,1,52.063,57.1ZM15.115,3.359A11.756,11.756,0,0,0,3.359,15.115V41.987A11.756,11.756,0,0,0,15.115,53.743H52.063A11.756,11.756,0,0,0,63.819,41.987V15.115A11.756,11.756,0,0,0,52.063,3.359H15.115Z" transform="translate(0 13.436)" fill="#fff"/>
      <path id="Path_78" data-name="Path 78" d="M25.192,16.795H1.68A1.68,1.68,0,0,1,0,15.115V5.038A5.038,5.038,0,0,1,5.038,0H21.833a5.038,5.038,0,0,1,5.038,5.038V15.115A1.679,1.679,0,0,1,25.192,16.795ZM3.359,13.436H23.513v-8.4a1.68,1.68,0,0,0-1.68-1.68H5.039a1.68,1.68,0,0,0-1.68,1.68Z" transform="translate(20.153 0)" fill="#fff"/>
      <path id="Path_79" data-name="Path 79" d="M38.628,13.436H1.68A1.68,1.68,0,0,1,0,11.756V1.68A1.68,1.68,0,0,1,1.68,0H38.628a1.68,1.68,0,0,1,1.68,1.68V11.756A1.68,1.68,0,0,1,38.628,13.436ZM3.359,10.077H36.948V3.359H3.359Z" transform="translate(13.436 67.178)" fill="#fff"/>
      <path id="Path_80" data-name="Path 80" d="M12.349,7.767A16.688,16.688,0,0,1,.471,2.846,1.679,1.679,0,0,1,2.846.471a13.772,13.772,0,0,0,19,0,1.679,1.679,0,0,1,2.375,2.375A16.687,16.687,0,0,1,12.349,7.767Z" transform="translate(21.241 49.335)" fill="#fff"/>
      <path id="Path_81" data-name="Path 81" d="M3.359,6.718A3.359,3.359,0,1,1,6.718,3.359,3.359,3.359,0,0,1,3.359,6.718Z" transform="translate(20.154 33.589)" fill="#fff"/>
      <path id="Path_82" data-name="Path 82" d="M3.359,6.718A3.359,3.359,0,1,1,6.718,3.359,3.359,3.359,0,0,1,3.359,6.718Z" transform="translate(40.307 33.589)" fill="#fff"/>
    </g>
    <g id="_686593" data-name="686593" transform="translate(252.314 2042.311) rotate(-30)" opacity="0.06">
      <g id="Group_71" data-name="Group 71" transform="translate(0 0)">
        <g id="Group_70" data-name="Group 70">
          <path id="Path_14" data-name="Path 14" d="M92.419,8.491A28.859,28.859,0,0,0,72.114,0H28.8A28.564,28.564,0,0,0,8.491,8.491,28.859,28.859,0,0,0,0,28.8,28.35,28.35,0,0,0,8.491,49.1,28.859,28.859,0,0,0,28.8,57.593H72.237A28.35,28.35,0,0,0,92.542,49.1,28.859,28.859,0,0,0,101.033,28.8,29.5,29.5,0,0,0,92.419,8.491ZM89.219,45.9a24.1,24.1,0,0,1-17.105,7.138H28.8A24.191,24.191,0,0,1,11.691,11.691,24.1,24.1,0,0,1,28.8,4.553H72.237A24.37,24.37,0,0,1,96.48,28.8,25.281,25.281,0,0,1,89.219,45.9Z" transform="translate(0 0)" fill="#fff"/>
        </g>
      </g>
      <g id="Group_73" data-name="Group 73" transform="translate(22.397 7.63)">
        <g id="Group_72" data-name="Group 72" transform="translate(0 0)">
          <path id="Path_15" data-name="Path 15" d="M53.778,0H2.338A2.337,2.337,0,0,0,0,2.338v37.78a2.337,2.337,0,0,0,2.338,2.338H53.655a2.337,2.337,0,0,0,2.338-2.338V2.215A2.206,2.206,0,0,0,53.778,0ZM51.439,37.78H4.676V4.553H51.439Z" transform="translate(0 0)" fill="#fff"/>
        </g>
      </g>
      <g id="Group_75" data-name="Group 75" transform="translate(7.753 22.643)">
        <g id="Group_74" data-name="Group 74" transform="translate(0 0)">
          <path id="Path_16" data-name="Path 16" d="M8.491,3.077H7.753V2.338a2.338,2.338,0,1,0-4.676,0v.738H2.338a2.338,2.338,0,0,0,0,4.676h.738v.738a2.338,2.338,0,0,0,4.676,0V7.753h.738a2.337,2.337,0,0,0,2.338-2.338A2.421,2.421,0,0,0,8.491,3.077Z" transform="translate(0 0)" fill="#fff"/>
        </g>
      </g>
      <g id="Group_77" data-name="Group 77" transform="translate(84.666 22.397)">
        <g id="Group_76" data-name="Group 76">
          <circle id="Ellipse_6" data-name="Ellipse 6" cx="2.092" cy="2.092" r="2.092" fill="#fff"/>
        </g>
      </g>
      <g id="Group_79" data-name="Group 79" transform="translate(84.666 31.011)">
        <g id="Group_78" data-name="Group 78">
          <circle id="Ellipse_7" data-name="Ellipse 7" cx="2.092" cy="2.092" r="2.092" fill="#fff"/>
        </g>
      </g>
      <g id="Group_81" data-name="Group 81" transform="translate(80.359 26.704)">
        <g id="Group_80" data-name="Group 80">
          <circle id="Ellipse_8" data-name="Ellipse 8" cx="2.092" cy="2.092" r="2.092" fill="#fff"/>
        </g>
      </g>
      <g id="Group_83" data-name="Group 83" transform="translate(88.973 26.704)">
        <g id="Group_82" data-name="Group 82">
          <circle id="Ellipse_9" data-name="Ellipse 9" cx="2.092" cy="2.092" r="2.092" fill="#fff"/>
        </g>
      </g>
    </g>
    <g id="_786285" data-name="786285" transform="translate(219.584 2102.223) rotate(-150)" opacity="0.06">
      <g id="Group_85" data-name="Group 85" transform="translate(0 0)">
        <path id="Path_64" data-name="Path 64" d="M63.616,38.414h6.832a2.126,2.126,0,0,0,2.126-2.126v-20.5a2.126,2.126,0,0,0-2.126-2.126H52.078V8.958a8.958,8.958,0,0,0-17.917,0v4.706H15.791a2.126,2.126,0,0,0-2.126,2.126v18.37H8.958a8.958,8.958,0,0,0,0,17.917h4.706v18.37a2.126,2.126,0,0,0,2.126,2.126h20.5a2.126,2.126,0,0,0,2.126-2.126V63.616a4.706,4.706,0,0,1,9.412,0v6.832a2.126,2.126,0,0,0,2.126,2.126h20.5a2.126,2.126,0,0,0,2.126-2.126v-20.5a2.126,2.126,0,0,0-2.126-2.126H63.616a4.706,4.706,0,1,1,0-9.412Zm0,13.664h4.706V68.322H52.078V63.616a8.958,8.958,0,1,0-17.917,0v4.706H17.917V49.952a2.126,2.126,0,0,0-2.126-2.126H8.958a4.706,4.706,0,0,1,0-9.412h6.832a2.126,2.126,0,0,0,2.126-2.126V17.917h18.37a2.126,2.126,0,0,0,2.126-2.126V8.958a4.706,4.706,0,0,1,9.412,0v6.832a2.126,2.126,0,0,0,2.126,2.126h18.37V34.161H63.616a8.958,8.958,0,1,0,0,17.917Z" transform="translate(0)" fill="#fff"/>
      </g>
    </g>
  </g>
</svg>
