<svg xmlns="http://www.w3.org/2000/svg" width="300" height="315.324" viewBox="0 0 300 315.324">
  <g id="prize-1" transform="translate(11147.5 -6752.676)">
    <circle id="Ellipse_141" data-name="Ellipse 141" cx="150" cy="150" r="150" transform="translate(-11147.5 6768)" fill="#ffca16"/>
    <g id="Group_260" data-name="Group 260" transform="translate(-10.986 -52.733)">
      <g id="peep-21" transform="translate(-11136.514 6805.409)">
        <g id="BODY" transform="translate(0 102.815)">
          <path id="_Skin" data-name="âœ‹ Skin" d="M56.088,173.89c-1.626,0-3.216-.06-4.724-.178a13.651,13.651,0,0,1-4.009-1.071,17.856,17.856,0,0,1-3.5-2.047,49.242,49.242,0,0,1-6.083-5.668h0c-1.044-1.088-2.123-2.213-3.208-3.231-5.018-5.131-9.9-10.477-14.507-15.888C15.4,140.336,10.907,134.662,6.7,128.94l-.177-.244c-.444-.607-.921-1.228-1.383-1.828A40.807,40.807,0,0,1,1.819,122.1a14.9,14.9,0,0,1-1.17-2.594,10.594,10.594,0,0,1-.547-2.8,2.346,2.346,0,0,1-.06-1.142,4.4,4.4,0,0,1,.415-1.214,6.366,6.366,0,0,1,1.6-2.02l.4-.585c1.721-2.476,3.338-4.691,4.942-6.772,1.816-2.355,3.565-4.472,5.348-6.474,1.927-2.164,3.895-4.183,5.847-6a72.465,72.465,0,0,1,6.437-5.352,3.156,3.156,0,0,1,.312-1.465,3.227,3.227,0,0,1,1.015-1.215L64.044,57.186c3.111-2.142,6.2-4.441,9.192-6.665,3.18-2.365,6.468-4.811,9.792-7.076a96.881,96.881,0,0,1,10.318-6.226,46.673,46.673,0,0,1,4.5-1.874c1.432-.515,2.941-.991,4.613-1.454,3.106-.86,6.318-1.546,9.424-2.208,2.569-.548,5.225-1.115,7.81-1.778a65.268,65.268,0,0,0,7.64-2.412c.1-1.4,1.47-2.265,2.6-2.749a10.3,10.3,0,0,1,3.545-.819c.251,0,.409.03.444.084a.047.047,0,0,1,0,.046,30.361,30.361,0,0,0,7.978-6.717,20.1,20.1,0,0,0,2.309-3.524,15.954,15.954,0,0,0,1.3-3.486,25.6,25.6,0,0,0,.514-3.39,11.765,11.765,0,0,1,.924-4.165A5.321,5.321,0,0,1,150.631.166c1.535-.11,3.084-.166,4.6-.166a54.565,54.565,0,0,1,9.205.743,35.743,35.743,0,0,1,8.762,2.6,24.608,24.608,0,0,1,3.839,2.171,19.925,19.925,0,0,1,3.278,2.844,17.955,17.955,0,0,1,2.566,3.586,19.016,19.016,0,0,1,1.7,4.4c1.157,5.354,3.487,7.7,7.191,11.089a25.584,25.584,0,0,1,2.711,4.2,15.6,15.6,0,0,1,1.378,3.851,10.148,10.148,0,0,1-.766,6.626,13.528,13.528,0,0,1-4.291,4.883,27.151,27.151,0,0,1-6.942,3.538,47.891,47.891,0,0,1-8.8,2.153,65.522,65.522,0,0,1-9.861.727c-2.163,0-4.346-.1-6.488-.3-2.176-.2-4.326-.508-6.391-.909a49.571,49.571,0,0,1-11.666-3.686,27.5,27.5,0,0,1-8.8-6.247,16.666,16.666,0,0,1-4.282-8.892,103.533,103.533,0,0,1-13.952,3.649A102.473,102.473,0,0,0,99.5,40.738a61.316,61.316,0,0,0-13.694,7.708c-10,7.1-20.079,14.443-29.828,21.54-7.3,5.313-14.843,10.806-22.305,16.165,4.965,2.287,13.214,9.315,15.142,16.037a8.033,8.033,0,0,1-.808,6.89,16.083,16.083,0,0,1-3.694,3.114l0,0c-.3.209-.62.425-.921.639l-.842.6c-.809.58-1.836,1.322-2.924,2.107-1.32.953-2.685,1.938-3.625,2.61l-.311.226-.384.276a290.648,290.648,0,0,0,42.191,48.863,2.336,2.336,0,0,1,.68,1.248,3,3,0,0,1-.066,1.451,2.586,2.586,0,0,1-.633,1.089,2.052,2.052,0,0,1-1.132.584l-2.318.34A125.62,125.62,0,0,1,56.088,173.89Zm190.026-.209h0c-7.186-.029-14.5-.337-21.57-.634-5.272-.222-10.722-.451-16.082-.563a3.975,3.975,0,0,1-2.263-1.29,2.624,2.624,0,0,1-.5-2,5.8,5.8,0,0,1,1.063-2.514,11.216,11.216,0,0,1,2.322-2.4,12.773,12.773,0,0,1,3.16-1.8,9.888,9.888,0,0,1,3.579-.709,7.524,7.524,0,0,1,3.757.97,8.672,8.672,0,0,1,2.982,2.255,8.5,8.5,0,0,0,2.906,2.205,1.731,1.731,0,0,0,.357.044c.459,0,.581-.307.8-.865.027-.069.056-.141.087-.218l.049-.118c.406-.966.811-1.952,1.2-2.9l0,0c.186-.454.4-.968.607-1.474,4.715-11.616,9.76-23.325,14.638-34.649l.348-.809.9-2.078a4.334,4.334,0,0,0-.062-3.686,8.2,8.2,0,0,0-2.492-2.864,21.5,21.5,0,0,0-2.11-1.37c-1.332-.8-2.709-1.636-2.619-1.961.026-.095.18-.143.458-.143a12.4,12.4,0,0,1,2.272.353,11.26,11.26,0,0,1-.922-4.346,13.812,13.812,0,0,1,.664-4.254,26.7,26.7,0,0,1,4.177-7.733,25.63,25.63,0,0,1,2.5-3.223,15.129,15.129,0,0,1,2.47-2.18,9.651,9.651,0,0,1,2.428-1.235,7.538,7.538,0,0,1,2.373-.39,8.054,8.054,0,0,1,2.849.543,11.792,11.792,0,0,1,2.721,1.5,23.982,23.982,0,0,1,4.959,5.124,51.959,51.959,0,0,1,4.155,6.688c1.113,2.1,2.175,4.367,3.157,6.735a25.777,25.777,0,0,1,1.33,5.81,31.717,31.717,0,0,1,.073,6.024,42.656,42.656,0,0,1-.97,6.143,59.544,59.544,0,0,1-1.8,6.167,99.711,99.711,0,0,1-5.21,12.028c-1.952,3.877-4.064,7.654-5.928,10.986l0,0,0,0c-.452.809-.879,1.573-1.3,2.333-.65.881-1.351,2-2.094,3.175a47.759,47.759,0,0,1-4.214,5.986C249.523,172.387,247.819,173.48,246.114,173.68Zm-50.336-51.532a27.893,27.893,0,0,1-5.873-.642,31.121,31.121,0,0,1-5.678-1.819,30.681,30.681,0,0,1-9.688-6.529c-3.441-4.715-2.151-10.322-.9-15.745a53.53,53.53,0,0,0,1.125-5.869,25.038,25.038,0,0,1-1.117-4.395c-.111-.581-.216-1.131-.336-1.675l-.053-.235-1.677-7.324a3.3,3.3,0,0,1,.65-2.687,2.566,2.566,0,0,1,.793-.674,2.159,2.159,0,0,1,1.03-.258,2.355,2.355,0,0,1,.267.015,171.046,171.046,0,0,0,19.423,1.11c3.518,0,7.082-.111,10.593-.329s7.067-.551,10.56-.988a1.571,1.571,0,0,1,.194-.012,2.656,2.656,0,0,1,1.618.662,2.48,2.48,0,0,1,.924,1.437c1.452,9.216-.229,18.367-2.075,26.949l-.352,1.627c-.34,1.561-.715,3.221-1.231,4.843a20.149,20.149,0,0,1-2.021,4.543,15.65,15.65,0,0,1-3.317,3.795,17.4,17.4,0,0,1-4.309,2.617A22.978,22.978,0,0,1,195.778,122.149Z" transform="translate(3.092 0)" fill="#d08b5b"/>
          <rect id="_Top" data-name="ðŸ‘• Top" width="47.343" height="47.599" transform="translate(173.907 74.493)" fill="#fdea6b"/>
          <path id="_Ink" data-name="ðŸ– Ink" d="M253.472,169.216a2.418,2.418,0,0,1-1.073-.257,2.309,2.309,0,0,1-.836-.7,1.932,1.932,0,0,1-.267-1.772c.051-.158.1-.321.147-.465a12.071,12.071,0,0,1,.845-2.191c.231-.433.486-.864.732-1.28.126-.214.257-.435.383-.654.378-.658.768-1.338,1.111-1.939l0,0c.362-.633.737-1.289,1.107-1.932.716-1.245,1.462-2.5,2.183-3.715.849-1.429,1.726-2.907,2.561-4.377,2.978-5.243,5.413-9.976,7.444-14.468l.263-.584c.913-2.032,1.97-4.452,2.888-7a45.416,45.416,0,0,0,2.023-7.279,24.259,24.259,0,0,0,.388-3.862,25.428,25.428,0,0,0-.213-3.777,32.873,32.873,0,0,0-1.929-7.4c-1.058-2.8-2.243-5.472-3.157-7.487l-.215-.472-.307-.667a32.554,32.554,0,0,1-2.48-6.584.19.19,0,0,1,.037-.164.194.194,0,0,1,.15-.074.184.184,0,0,1,.129.055,34.908,34.908,0,0,1,4.716,6.153c.381.581.774,1.182,1.17,1.765.364.537.741,1.078,1.105,1.6a41.6,41.6,0,0,1,3.857,6.306,24.161,24.161,0,0,1,2.229,8.239,33.246,33.246,0,0,1-.578,8.625,50.871,50.871,0,0,1-2.241,8.2c-.834,2.335-1.837,4.759-3.252,7.861-2.061,4.518-4.545,9.311-7.594,14.654l-.977,1.706c-1.14,1.985-2.363,4.1-3.688,6.162-.265.413-.531.836-.788,1.244l0,0a32.152,32.152,0,0,1-4.4,5.93A2.055,2.055,0,0,1,253.472,169.216Zm-23.527-2.7a1.674,1.674,0,0,1-1.272-.633,1.491,1.491,0,0,1-.3-1.283,35.7,35.7,0,0,1,1.379-4.3c.236-.643.481-1.308.7-1.957.24-.712.483-1.436.718-2.136l.011-.033c.449-1.34.914-2.725,1.381-4.084,1.212-3.518,2.534-6.946,4.011-10.741l1.374-3.531c1.219-3.128,2.647-6.764,4.169-10.331l.159-.374c.108-.255.219-.518.326-.772l.014-.034c.709-1.685,1.443-3.427,2.32-5.074a18.761,18.761,0,0,1,3.169-4.477.212.212,0,0,1,.136-.062,8.869,8.869,0,0,1-1.865-1.338l-.027-.027a10.536,10.536,0,0,1-1.422-2.069c-.349.124-.722.254-1.142.395a1.856,1.856,0,0,1-.592.1,1.474,1.474,0,0,1-1.009-.4l-.739.457a5.353,5.353,0,0,1-2.511.963h-.075a2.641,2.641,0,0,1-1.421-.409,3.5,3.5,0,0,1-1.054-1.065c-.192-.291-.359-.6-.519-.889a7.063,7.063,0,0,0-.992-1.491,15.225,15.225,0,0,0-2.2-1.866l-.916-.667a25.161,25.161,0,0,1-4.663-4.088c-.111-.134-.226-.269-.349-.413l-.007-.008a10,10,0,0,1-1.65-2.352,1.618,1.618,0,0,1-.14-.542c-.1.692-.206,1.384-.276,1.844-.723,4.813-1.28,9.067-1.7,13-.5,4.671-.822,8.949-.98,13.078-.2,5.207-.212,9.2-.045,12.937.094,2.128.252,4.3.469,6.452.095.954.211,2.082.35,3.22l.03.248a4.592,4.592,0,0,1,.034.947,3.282,3.282,0,0,1,1.269,1.231,10.048,10.048,0,0,1,.8,1.608,1.789,1.789,0,0,1,.091,1.124,2.142,2.142,0,0,1-.533.951,9.018,9.018,0,0,1,1.62,1.968.13.13,0,0,1,.009.135.157.157,0,0,1-.137.075.155.155,0,0,1-.1-.034,11.256,11.256,0,0,0-2.412-1.471,2.383,2.383,0,0,1-.847.161,1.988,1.988,0,0,1-.53-.07,2.278,2.278,0,0,1-1.206-.869,9.924,9.924,0,0,0-1.6-.132,9.487,9.487,0,0,0-2.81.423,9.65,9.65,0,0,0-2.657,1.3,9.394,9.394,0,0,0-1.244,1.054c-.059.059-.12.134-.18.206l-.025.03.472.181a3.956,3.956,0,0,0,.417.145,11.037,11.037,0,0,0,1.25.165l.627.051c.3.025.609.048.883.069,1.036.079,2.107.161,3.14.331a12.123,12.123,0,0,1,3.031.875.486.486,0,0,1,.282.505.615.615,0,0,1-.42.553,11.455,11.455,0,0,1-3.067.368c-.537,0-1.11-.024-1.86-.077l-.358-.027c-.355-.027-.724-.048-1.081-.069h0a16.982,16.982,0,0,1-3.639-.471,1.854,1.854,0,0,1-.144,1.582,1.769,1.769,0,0,1-.576.584,2.275,2.275,0,0,1-.921.319,42.487,42.487,0,0,1-5.652.348c-2.741,0-5.46-.206-7.991-.429-4.152-.366-8.983-.778-13.77-1.028-7.655-.4-15.776-.591-25.558-.591-6.615,0-13.33.088-19.1.171l-8.414.122c-4.923.069-10.214.134-15.55.134-1.573,0-3.114-.006-4.58-.017l-3.141-.029c-1.2-.012-2.6-.027-3.981-.068l-.8-.026c-.262-.01-.541-.011-.8-.011h-.409a6.82,6.82,0,0,1-3.83-.744,2.424,2.424,0,0,1-1.032-1.524,2.532,2.532,0,0,1,.33-1.8,5,5,0,0,1,.752-.907c.564-4.821.893-9.746,1.211-14.508v0l.028-.422c.289-4.355.464-8.75.521-13.063.058-4.344,0-8.728-.181-13.03-.179-4.332-.481-8.705-.9-13-.42-4.321-.968-8.683-1.629-12.964-3.418,1.045-6.9,2.24-10.643,3.654-3.279,1.239-6.69,2.619-10.426,4.221-3.99,1.711-7.608,3.338-11.06,4.976-.894.425-1.807.887-2.689,1.333a44.461,44.461,0,0,1-7.552,3.255,1.328,1.328,0,0,1-.863.345,1.037,1.037,0,0,1-.315-.048l-.052-.018h0a1.465,1.465,0,0,1-.333.039,1.617,1.617,0,0,1-.84-.245l-.243-.149-.121-.077a12.374,12.374,0,0,1-3.4-2.954c-.913.847-1.9,1.646-2.851,2.418l-.015.012-.509.414c-1.384,1.129-2.592,2.126-3.692,3.046-.128.108-.261.215-.389.318a9.472,9.472,0,0,0-1.059.946l-.062.069-.028.033a25.936,25.936,0,0,1,4.675,4.325l.026.028.229.249c1.583,1.723,3.128,3.523,4.562,5.211l1.447,1.707,1.277,1.51.028.033C60.737,138.3,70.815,150.218,83.5,158.724a1.956,1.956,0,0,1,.805,1.054,2.071,2.071,0,0,1-.014,1.207,2.273,2.273,0,0,1-.66,1.039,1.65,1.65,0,0,1-1.093.434,1.786,1.786,0,0,1-1.02-.345,117.2,117.2,0,0,1-11.234-8.889c-3-2.66-5.936-5.531-8.962-8.777-2.678-2.873-5.368-5.974-8.222-9.48-2.395-2.942-4.948-6.223-7.806-10.029l-.862-1.148c-1.1-1.462-2.262-3.024-3.387-4.638l-.229-.329a22.844,22.844,0,0,1-2.6-4.538,2.473,2.473,0,0,1-.9.6.989.989,0,0,1-.361.067,1.426,1.426,0,0,1-1.3-1.009c-.382-1.518.859-2.446,1.955-3.264l.149-.111c1.391-1.039,2.81-2.042,4.144-2.979l.5-.352.322-.229a42.545,42.545,0,0,1,5.064-3.249,1.127,1.127,0,0,1,.2-.209c.1-.078.184-.145.269-.209-1.155-1.874-2.356-3.691-3.57-5.4-1.272-1.79-2.6-3.521-3.95-5.145a91.127,91.127,0,0,0-6.638-7.178l-1.052-1.019a55.836,55.836,0,0,0-5.01-4.432l-.553.627c-.666.754-1.446,1.626-2.271,2.448-1.594,1.585-3.148,3.185-4.6,4.688-2.486,2.573-4.922,5.26-7.407,8.017l-1.217,1.351c-.671.744-1.365,1.5-2.036,2.225-1.881,2.039-3.826,4.148-5.522,6.362l-.115.152a7.571,7.571,0,0,0-1.18,2.143,4.1,4.1,0,0,0-.075,2.417,14.222,14.222,0,0,0,2.049,3.938l0,0c.131.2.268.406.4.607l.092.143c3.9,6.071,7.985,11.825,12.152,17.1a165.112,165.112,0,0,0,14.016,15.777c2.593,2.54,5.237,4.912,7.857,7.05a96.191,96.191,0,0,0,8.509,6.216,1.478,1.478,0,0,1,.631.8,1.559,1.559,0,0,1,0,.921,1.746,1.746,0,0,1-.515.814,1.308,1.308,0,0,1-.866.341,1.424,1.424,0,0,1-.783-.251,107.692,107.692,0,0,1-9.931-7.382c-3.019-2.515-6.09-5.328-9.13-8.362-2.558-2.552-5.068-5.288-7.674-8.364-2.287-2.7-4.6-5.606-7.069-8.886-2.2-2.922-4.342-5.957-6.371-9.022-.394-.6-.809-1.208-1.211-1.8l0-.006A47.912,47.912,0,0,1,.749,112.7a8.859,8.859,0,0,1-.717-2.678,6.615,6.615,0,0,1,.305-2.748,13.151,13.151,0,0,1,2.834-4.376l.109-.122c2.477-2.783,5.128-5.686,8.105-8.875,2.554-2.734,5.348-5.521,8.541-8.518a60.842,60.842,0,0,1,7.263-5.836c-.234-.166-.462-.322-.7-.474a1.417,1.417,0,0,1-.645-1.037,1.288,1.288,0,0,1,.376-1.059,52.961,52.961,0,0,1,4-3.528c.511-.421,1.039-.856,1.551-1.289,1.792-1.52,3.647-3.1,5.246-4.453,3.59-3.044,7.287-6.181,10.549-8.949l.128-.109c4.614-3.915,9.286-7.915,13.8-11.784l.012-.01c1.641-1.405,3.5-3,5.3-4.539,2.132-1.822,4.316-3.657,6.427-5.431l0,0,1.58-1.328,4.752-4,2.324-1.952a25.374,25.374,0,0,1,3.761-2.745,35.709,35.709,0,0,1,8.625-3.016H94.3c.626-.161,1.272-.327,1.9-.5l.233-.064c4.309-1.18,8.194-2.16,11.876-3,3.948-.9,7.987-1.728,12-2.473A69.963,69.963,0,0,1,131.3,16.47a4.947,4.947,0,0,1,1.713-.324,3.257,3.257,0,0,1,1.247.227,4.42,4.42,0,0,1,1.1.666c.52-.183,1.045-.34,1.552-.492a14.032,14.032,0,0,0,3.708-1.514,18.521,18.521,0,0,0,4.418-4.02A21.272,21.272,0,0,0,148.1,5.824a34.875,34.875,0,0,0,1.8-5.752.1.1,0,0,1,.1-.072.086.086,0,0,1,.091.072,15.1,15.1,0,0,1,.116,3.352,17.949,17.949,0,0,1-.576,3.331,21.581,21.581,0,0,1-2.771,6.124,21.235,21.235,0,0,1-4.858,5.293l-.149.113a14.109,14.109,0,0,1-2.528,1.542,6.864,6.864,0,0,1-2.832.693,4.563,4.563,0,0,1-1.668-.308,1.567,1.567,0,0,1-.214-.1c.24.372.468.767.689,1.15l.027.046.068.117c.434.754.85,1.537,1.253,2.294.305.574.62,1.167.941,1.743a25.715,25.715,0,0,0,4.925,6.4c6.62,6.181,16.153,9.186,29.146,9.186l.71,0,.747-.007,1,0c4.442-.013,9.971-.028,13.3-3.155a12.048,12.048,0,0,0,2.336-3.166,35.192,35.192,0,0,0,1.61-3.62c.643-1.613,1.156-3.29,1.652-4.911l0-.006c.23-.752.468-1.529.716-2.289a17.812,17.812,0,0,1-4.311-4.089,17.143,17.143,0,0,1-1.6-2.646,16.136,16.136,0,0,1-1.086-2.9l-.079-.3a15.869,15.869,0,0,1-.487-2.641,5.362,5.362,0,0,1,.323-2.575.226.226,0,0,1,.215-.126.251.251,0,0,1,.228.126,6.307,6.307,0,0,1,.458,1.5c.057.264.116.537.191.8a19.066,19.066,0,0,0,.93,2.64,19.037,19.037,0,0,0,2.891,4.584,18.926,18.926,0,0,0,3.216,3.053A2.6,2.6,0,0,1,197,20.149a4.8,4.8,0,0,1,1.329.2,53.785,53.785,0,0,1,5.429,1.958l.354.147c.431.179.865.35,1.326.532h0a27.055,27.055,0,0,1,4.048,1.857c.447.213.888.428,1.315.636l0,0c.534.26,1.039.506,1.534.739,3.867,1.818,7.966,3.859,13.29,6.618l.941.489a28.268,28.268,0,0,1,5.267,3.265,23.506,23.506,0,0,1,4.067,4.941l.018.026c1.505,2.208,2.987,4.489,4.419,6.694v0l0,0c1.154,1.777,2.348,3.614,3.547,5.4l.007.01c5.331,7.946,10.844,16.162,16.311,24.246.446.66.919,1.326,1.377,1.97h0c.9,1.268,1.832,2.578,2.617,3.927a7.293,7.293,0,0,1,.95,2.975,15.54,15.54,0,0,1-.067,3.144l-.042.4c-.4,3.753-1.086,7.711-3.389,11.232a23.058,23.058,0,0,1-2.992,3.666,27.175,27.175,0,0,1-3.591,3,34.8,34.8,0,0,1-4.031,2.422,46.744,46.744,0,0,1-4.311,1.939c.128.1.256.193.38.288a8.9,8.9,0,0,0,1.863,1.188,13.1,13.1,0,0,0,4.135.968c.31.025.622.028.887.028h.661a7.586,7.586,0,0,1,1.537.116,3,3,0,0,1,1.366.632,1.191,1.191,0,0,1,.375.924,1.153,1.153,0,0,1-.375.889,3.344,3.344,0,0,1-2.231.69,13.542,13.542,0,0,1-1.565-.124h-.007l-.34-.04-.086-.009a15.094,15.094,0,0,1-3.9-.886c-.32-.126-.627-.263-.913-.407a.191.191,0,0,1,.009.091,28.209,28.209,0,0,1-1.169,4.757l-.311.993c-.518,1.66-1.205,3.85-1.927,6.074-1.212,3.736-2.518,7.408-3.977,11.476l-1.179,3.288c-1.163,3.238-2.413,6.682-3.792,10.057-.669,1.635-1.352,3.3-2.012,4.9l0,0-.208.506-.3.724c-.259.629-.508,1.286-.749,1.92a35.465,35.465,0,0,1-1.773,4.134A1.316,1.316,0,0,1,229.945,166.52ZM190.97,108.538a8.345,8.345,0,0,0-3.669,1.13c.666.289,1.392.6,2.155.928l4.782,2.042c.453.193.919.381,1.371.564a30.869,30.869,0,0,1,3.383,1.526.824.824,0,0,1,.257.214c.969-.621,1.989-1.209,2.975-1.778.6-.346,1.219-.7,1.819-1.064l1.09-.65a11.282,11.282,0,0,1-3.629.669,7.914,7.914,0,0,1-2.233-.315,16.91,16.91,0,0,1-3.287-1.5,24.761,24.761,0,0,0-2.281-1.142,7.676,7.676,0,0,0-2.414-.616C191.183,108.542,191.076,108.538,190.97,108.538Zm-.022-2.251a6.507,6.507,0,0,1,.828.053,13.583,13.583,0,0,1,4.672,1.824,16.816,16.816,0,0,0,3.721,1.641,6.222,6.222,0,0,0,1.564.2,13.826,13.826,0,0,0,5.136-1.4,19.609,19.609,0,0,1,3.63-1.235,9.843,9.843,0,0,1,1.727-.187h.193l.086-.05c.186-.109.393-.216.612-.329a4.8,4.8,0,0,0,1.744-1.247,5.518,5.518,0,0,0,.669-2.3v0c.039-.265.075-.515.12-.744.017-.084.037-.183.055-.281H215.7a5.275,5.275,0,0,0-.979.078,14.527,14.527,0,0,0-3.007.978c-.421.179-.847.366-1.258.547a30.54,30.54,0,0,1-4.33,1.649,16.036,16.036,0,0,1-4.139.591,11.956,11.956,0,0,1-1.706-.12,9.61,9.61,0,0,1-2.663-.805,17.283,17.283,0,0,1-2.417-1.394l-.256-.174-.167-.115a6.46,6.46,0,0,0-3.361-1.492,2.609,2.609,0,0,0-1.19.288,8.378,8.378,0,0,0-1.179.778,9.521,9.521,0,0,1-1.043.707,9.767,9.767,0,0,1-2.524.976,11.13,11.13,0,0,1-2.5.28,10.775,10.775,0,0,1-2.181-.218l.024,2.113c1.258.519,2.492,1.046,3.533,1.492.741-.253,1.443-.55,2.269-.918l.521-.234A9.1,9.1,0,0,1,190.948,106.288Zm.5-6.76a4.6,4.6,0,0,1,.817.076,10.619,10.619,0,0,1,4,2.007l.438.3.224.151a9.017,9.017,0,0,0,5.081,1.72h.086a13.439,13.439,0,0,0,3.042-.374,24.454,24.454,0,0,0,2.937-.9c.4-.148.8-.3,1.191-.452a19.738,19.738,0,0,1,4.607-1.357,8.319,8.319,0,0,1,1.029-.065,6.445,6.445,0,0,1,1.086.087c.1-.544.186-1.064.271-1.59.179-1.1.342-2.251.483-3.418a5.464,5.464,0,0,0-1.42-.186c-1.893,0-3.738.941-5.522,1.851a20.431,20.431,0,0,1-3.447,1.5,10.954,10.954,0,0,1-3.038.424,11.252,11.252,0,0,1-3.024-.412,14.7,14.7,0,0,1-4.164-2.153c-.194-.128-.414-.274-.629-.413l-.286-.185a4.185,4.185,0,0,0-2.161-.842,2.071,2.071,0,0,0-.389.037,4.518,4.518,0,0,0-1.591.8c-.23.155-.447.3-.67.428a11.6,11.6,0,0,1-2.5,1.04,12.88,12.88,0,0,1-2.669.464c-.27.018-.546.028-.819.028a12.7,12.7,0,0,1-3.7-.556l.05,4.679a7.171,7.171,0,0,0,1.658.333c.208.015.417.023.623.023a7.948,7.948,0,0,0,2.249-.321,7.751,7.751,0,0,0,2.07-.961l.745-.495A6.011,6.011,0,0,1,191.451,99.527Zm1.571-6.51a5.146,5.146,0,0,1,2.025.451,10.77,10.77,0,0,1,1.842,1.038l.427.291a10.971,10.971,0,0,0,5.219,2.242c.25.023.5.035.754.035a12.259,12.259,0,0,0,5.168-1.4l.446-.206a14.4,14.4,0,0,1,5.685-1.644,4.923,4.923,0,0,1,2.308.529c.185-1.749.327-3.566.421-5.4a3.045,3.045,0,0,0-1.075-.217h-.021a8.778,8.778,0,0,0-2.81.607c-1.042.368-2.061.841-3.047,1.3h0c-.845.392-1.718.8-2.6,1.134a12.113,12.113,0,0,1-4.319.858A9.112,9.112,0,0,1,202,92.523a6.593,6.593,0,0,1-2.4-.882,9.811,9.811,0,0,1-1.982-1.629l-.18-.19-.038-.041a3.742,3.742,0,0,0-1.892-1.331,1.969,1.969,0,0,0-.372-.035,3.95,3.95,0,0,0-1.836.613c-.538.3-1.059.638-1.563.967a11.971,11.971,0,0,1-3.49,1.762,8.886,8.886,0,0,1-2.215.27,13.878,13.878,0,0,1-5.372-1.218c.01,1.455.022,2.939.033,4.334a11.055,11.055,0,0,0,1.411.426,10.379,10.379,0,0,0,5.2-.155,10.007,10.007,0,0,0,2.292-1.122,9.131,9.131,0,0,1,2.459-1.161A4.034,4.034,0,0,1,193.021,93.017Zm2.1-6.935a4.2,4.2,0,0,1,2.141.6,8.105,8.105,0,0,1,1.752,1.43l.133.138a5.7,5.7,0,0,0,4.405,2.1c.192,0,.392-.008.6-.025a17.242,17.242,0,0,0,5.2-1.577c.224-.094.455-.192.682-.287l.172-.071a13.058,13.058,0,0,1,4.777-1.227,5.937,5.937,0,0,1,.837.058,5.737,5.737,0,0,1,1.565.45c.072-1.682.111-3.427.119-5.334a4.082,4.082,0,0,0-2.689-.9,5.251,5.251,0,0,0-1.415.195,14.244,14.244,0,0,0-3.377,1.651,19.228,19.228,0,0,1-2.483,1.336,8.01,8.01,0,0,1-3.076.656,6.644,6.644,0,0,1-2.4-.449A15.438,15.438,0,0,1,199,83.069a22.235,22.235,0,0,0-2.073-1.3,5.707,5.707,0,0,0-2.629-.8,3.018,3.018,0,0,0-.4.026,3.663,3.663,0,0,0-2.259,1.52l-.33.393a13.194,13.194,0,0,1-1.7,1.738,6.42,6.42,0,0,1-2.144,1.168,6.623,6.623,0,0,1-1.988.3,7.308,7.308,0,0,1-3.22-.772,15.47,15.47,0,0,1-1.546-.923l-.1-.067.028,3.8a16.225,16.225,0,0,0,3.371,1.312,7.927,7.927,0,0,0,1.87.236,6.722,6.722,0,0,0,2.105-.335,8.616,8.616,0,0,0,2.023-.984l.2-.13c.166-.109.336-.223.486-.323a8.656,8.656,0,0,1,4.17-1.836C194.949,86.084,195.034,86.082,195.117,86.082Zm-14.535-7.232c.012.681.012,1.368.011,2.032v0c0,.263,0,.536,0,.8.4.227.78.477,1.15.718l.287.186.164.1a6.424,6.424,0,0,0,3.327,1.16,4.364,4.364,0,0,0,1.345-.217,6.1,6.1,0,0,0,2.761-2.231h0c.267-.32.543-.651.84-.961a5.752,5.752,0,0,1,1.715-1.248,4.823,4.823,0,0,1,2.053-.46c.067,0,.135,0,.2,0a9.158,9.158,0,0,1,4.6,1.69c.336.219.676.458,1,.689h0a11.132,11.132,0,0,0,3.293,1.8,4.565,4.565,0,0,0,1.222.166,6.351,6.351,0,0,0,2.478-.571,23.022,23.022,0,0,0,2.4-1.255,12.957,12.957,0,0,1,3.98-1.739,5.606,5.606,0,0,1,.963-.083,5.514,5.514,0,0,1,1.67.254,4.466,4.466,0,0,1,1.447.757c-.011-1.839-.05-3.855-.119-6.164a16.962,16.962,0,0,0-5.737,1.657,27.107,27.107,0,0,1-3.522,1.289,9.083,9.083,0,0,1-2.312.3,11.024,11.024,0,0,1-3.436-.592A35.006,35.006,0,0,1,199,75.6h0l-.387-.171a10.282,10.282,0,0,0-4.036-1.075,5.415,5.415,0,0,0-.863.068,12.616,12.616,0,0,0-4.228,1.829l-.022.013-.313.183-.274.158a14.578,14.578,0,0,1-7.369,2.284C181.2,78.888,180.891,78.875,180.583,78.849Zm-.312-5.055a1.809,1.809,0,0,1-.116.331,20.855,20.855,0,0,1,.338,2.594,10.518,10.518,0,0,0,1.128.061,9.7,9.7,0,0,0,1.972-.2,15.957,15.957,0,0,0,4.685-2.082c.625-.363,1.272-.739,1.926-1.069-.451.017-.9.036-1.33.054h-.005c-1.739.076-3.355.156-4.939.245-.319.017-.653.056-1.006.1a13.078,13.078,0,0,1-1.5.118A3.864,3.864,0,0,1,180.271,73.794Zm24.918-.739c-1.951.013-3.968.027-5.951.069l-.722.017h-.086c.656.254,1.3.538,2.058.887l.682.313a10.983,10.983,0,0,0,4.565,1.236c.165,0,.332-.006.5-.018a17.209,17.209,0,0,0,4.613-1.224c.311-.114.632-.232.951-.345a13.232,13.232,0,0,1,4.358-.835,8.346,8.346,0,0,1,1.192.083v-.036c0-.157-.009-.32-.016-.483-4.034.278-8.154.306-12.139.332Z" transform="translate(0 5.474)"/>
        </g>
        <g id="HEAD" transform="translate(122.968 0)">
          <path id="_Skin-2" data-name="âœ‹ Skin" d="M42.286,0C55.766,0,75.5,9.024,76.98,17.706,78.728,27.937,82.612,66.411,80.5,79s-10.359,21.892-28.591,21.892S20.066,90.925,16.942,87.5,10.031,73.43,10.031,73.43.049,71.734,0,63.756,5.017,53.314,5.017,53.314,2.286,20.221,8.027,12.024,28.806,0,42.286,0Z" transform="translate(2.118 18.625)" fill="#d08b5b"/>
          <path id="_Ink-2" data-name="ðŸ– Ink" d="M47.745,120.914c-1.93-.2-3.927-.181-5.337-1.647a.958.958,0,0,1,.19-1.49,4.746,4.746,0,0,1,3.022-.386c.99.135,1.982.243,2.979.312a43.841,43.841,0,0,0,6.424-.01,33.411,33.411,0,0,0,11.509-3.1,26.489,26.489,0,0,0,12.986-12.673c3.013-6.6,2.818-14.256,2.678-21.353-.154-7.782-.441-15.541-1.116-23.3-.328-3.76-.833-7.495-1.289-11.238q-.36-2.985-.943-5.936c-.2-1.04-.47-2.066-.688-3.1a4.058,4.058,0,0,1-.487.047,3.871,3.871,0,0,1-2.813-.916,2.055,2.055,0,0,1-1.073.336c-4.081.2-8.226-.048-12.314-.05s-8.207,0-12.312.012-8.211.05-12.309-.06a74.225,74.225,0,0,1-11.523-.719c-1.265,4.508-1.22,9.46,1.417,13.487a2.37,2.37,0,0,1-.831,3.182,9.718,9.718,0,0,1-4.3,1.947c-.148.333-.3.664-.444.995a34.3,34.3,0,0,0-1.844,5.1c-.237.908-.44,1.831-.612,2.76.014.163.028.325.046.487a.431.431,0,0,0,0,.052c.01.067.021.143.029.186.088.467.173.933.266,1.4q.331,1.7.513,3.415c.221,2.095.2,4.817-1.837,6.057a3.99,3.99,0,0,1-3.547.15,14.911,14.911,0,0,1-2.143-1.14c-.423-.248-.864-.45-1.277-.707a2.535,2.535,0,0,1-.325-.248,8.887,8.887,0,0,0-1.947.681A10.134,10.134,0,0,0,5.52,75.77a9.662,9.662,0,0,0-2.084,7.421c.235,2.43,1.187,5.221,3.1,6.838a4.531,4.531,0,0,0,2.972,1.1,6.228,6.228,0,0,0,1.562-.257A14.916,14.916,0,0,0,12.7,90.59a1.052,1.052,0,0,1,1.287,1.29,8.277,8.277,0,0,1-.61,1.421,107.953,107.953,0,0,0,6.41,9.327c2.065,2.694,4.5,4.96,6.794,7.428,1.014,1.09,1.437,3.237-.4,3.7s-3.2-1.5-4.25-2.7a40.176,40.176,0,0,1-9.19-17.107,5.193,5.193,0,0,1-2.334.881,7.559,7.559,0,0,1-4.833-.95c-5.555-3.215-6.9-11.9-4.3-17.35a9.807,9.807,0,0,1,2.684-3.391.8.8,0,0,1-.067-.586c.1-.376.211-.748.327-1.118a.326.326,0,0,1-.2-.346q.157-1.606.309-3.213c-.036-1.618-.114-3.234-.1-4.862.029-2.594.185-5.186.2-7.78.031-9.049.4-18.088.425-27.136.014-4.425.024-8.856-.093-13.278,0-.06,0-.117,0-.176-.1-3.539-1.03-8.275,2.421-10.565a2.05,2.05,0,0,1,1.892-.138A14.864,14.864,0,0,1,15.2,1.762c4.057-.657,8.15-.974,12.236-1.39A53.732,53.732,0,0,1,33.958.12C35.075.145,36.2.1,37.327.064,38.388.026,39.451-.012,40.511,0c2.478.04,4.976.133,7.464.338l.351-.033c4.682-.45,9.356-.045,14.035.152,4.458.188,9.166.65,13.169,2.789a6.162,6.162,0,0,1,1.323.935,4.191,4.191,0,0,1,1.466.471,2.444,2.444,0,0,1,3.032,1.817,20.883,20.883,0,0,1,.347,6.64c-.007.052-.012.107-.019.164a13.883,13.883,0,0,1,.055,6.363q.283,3.863.311,7.737c.01,1.784.09,3.6-.076,5.379a6.945,6.945,0,0,1-1.8,3.989.805.805,0,0,1-.779.207,1.009,1.009,0,0,1-.184-.056c.609,1.309,1.091,2.7,1.584,4.023a59.6,59.6,0,0,1,2.082,6.438A90.241,90.241,0,0,1,85.1,60.769C85.84,68.811,86.118,76.922,86.261,85c.138,7.649-.534,15.627-4.881,22.167a31.623,31.623,0,0,1-16.034,12.116,39.256,39.256,0,0,1-11.6,1.868q-.626.019-1.253.019A45.883,45.883,0,0,1,47.745,120.914Zm-33.2-35.1c-1.322-.869-1.966-2.461-3.1-3.551a13.389,13.389,0,0,0-1.8-1.431,7.117,7.117,0,0,0-.89-.561c-.031-.015-1.332-.438-1.08.121.085.186-.138.393-.3.229-.451-.459-.2-1.012.23-1.421.776-.74,1.935-.569,2.887-.393a10.165,10.165,0,0,1,3.727,1.571c1.2.8,2.685,1.914,2.922,3.434A1.962,1.962,0,0,1,15.435,86.1,1.615,1.615,0,0,1,14.544,85.818Z" transform="translate(0 0)"/>
        </g>
        <g id="FACE" transform="translate(160.347 57.357)">
          <path id="_Ink-3" data-name="ðŸ– Ink" d="M25.7,45.65a9.059,9.059,0,0,1-3.437-.686,9.708,9.708,0,0,1-2.243-1.289A9.557,9.557,0,0,1,18.2,41.832a1.888,1.888,0,0,1-.381-1.461,2.107,2.107,0,0,1,.82-1.32,2.019,2.019,0,0,1,1.2-.418,1.743,1.743,0,0,1,.268.021,1.856,1.856,0,0,1,1.242.822l.073.1a6.413,6.413,0,0,0,2.349,1.972,5.332,5.332,0,0,0,2.33.544,5.161,5.161,0,0,0,.577-.033c1.9-.215,3.225-1.2,4.738-2.717.156-.159.32-.331.534-.559a.845.845,0,0,1,.443-.341.908.908,0,0,1,.288-.046.981.981,0,0,1,.8.42.9.9,0,0,1,.152.59,6.075,6.075,0,0,1-2.016,3.863,8.83,8.83,0,0,1-2.08,1.451,8.66,8.66,0,0,1-2.309.792A8.5,8.5,0,0,1,25.7,45.65Zm2.419-13.7h0a8.3,8.3,0,0,1-2.961-.6,14.956,14.956,0,0,1-3.483-1.977,1.339,1.339,0,0,1-.486-.773,1.6,1.6,0,0,1,.069-.868,1.975,1.975,0,0,1,.586-.848,1.427,1.427,0,0,1,.914-.357,1.3,1.3,0,0,1,.707.217l.236.182,0,0c1.21.936,3.039,2.35,4.793,2.35a2.861,2.861,0,0,0,2.132-.946,3.155,3.155,0,0,0,.6-2.54c-.4-1.975-2.551-3.414-3.2-3.808a.6.6,0,0,1-.162-.687.889.889,0,0,1,.866-.616,1.211,1.211,0,0,1,.2.018,6.459,6.459,0,0,1,2.272.821,5.155,5.155,0,0,1,1.528,1.409,5.6,5.6,0,0,1,.976,3.741,5.975,5.975,0,0,1-1.626,3.651A5.382,5.382,0,0,1,28.121,31.946ZM8.85,18.563a1.942,1.942,0,0,1-1.261-.494,1.964,1.964,0,0,1-.661-1.27A14.308,14.308,0,0,1,7,13.074c.045-.362.091-.736.124-1.14a2.23,2.23,0,0,1,.845-1.594,2.6,2.6,0,0,1,1.6-.563,1.972,1.972,0,0,1,1.21.381,1.8,1.8,0,0,1,.669,1.19,10,10,0,0,1-1.043,6.159A1.722,1.722,0,0,1,8.85,18.563Zm28.286-.845a1.7,1.7,0,0,1-1.332-.571A5.739,5.739,0,0,1,34.577,14.1a3.526,3.526,0,0,1,.961-3.026,2,2,0,0,1,.154-.235,2.177,2.177,0,0,1,1.675-.964,1.814,1.814,0,0,1,.509.075,2.45,2.45,0,0,1,1.636,1.428,5.052,5.052,0,0,1,.2,2.763,9.249,9.249,0,0,1-.837,2.606,1.691,1.691,0,0,1-.724.715A2.192,2.192,0,0,1,37.137,17.719ZM.313,8.844a.308.308,0,0,1-.257-.158.345.345,0,0,1-.021-.338A11.739,11.739,0,0,1,2.666,5.016,16.268,16.268,0,0,1,6.188,2.609,15.14,15.14,0,0,1,10.37,1.15l.447-.078a10.878,10.878,0,0,1,1.825-.2,2.819,2.819,0,0,1,2.252.84,1.914,1.914,0,0,1,.452,1.36,1.246,1.246,0,0,1-.452.889,3.468,3.468,0,0,1-2.378.7c-.187,0-.381,0-.569-.009H11.94c-.18,0-.384-.01-.587-.01-.187,0-.353,0-.509.013a16.074,16.074,0,0,0-3.54.6A24.049,24.049,0,0,0,.478,8.79.293.293,0,0,1,.313,8.844Zm43.069-1.8h0l-.188-.047a10.651,10.651,0,0,1-2.065-.806l-.671-.331a18.622,18.622,0,0,0-2.4-1.021,28.253,28.253,0,0,0-5.455-1.205,2.228,2.228,0,0,1-1.094-.416,1.641,1.641,0,0,1-.612-.933,1.669,1.669,0,0,1,.189-1.4,1.78,1.78,0,0,1,.864-.745A1.942,1.942,0,0,1,32.69,0a2.168,2.168,0,0,1,.425.043l.342.07a24.408,24.408,0,0,1,5.892,1.915,11.913,11.913,0,0,1,2.591,1.7A7.567,7.567,0,0,1,43.772,6.1c.064.495,0,.617-.062.7l-.019.024-.017.023a.474.474,0,0,1-.293.195Z" transform="translate(0 0)"/>
        </g>
      </g>
    </g>
  </g>
</svg>
