<svg xmlns="http://www.w3.org/2000/svg" width="300" height="329.676" viewBox="0 0 300 329.676">
  <g id="prize-3" transform="translate(11792.439 -6744.663)">
    <circle id="Ellipse_143" data-name="Ellipse 143" cx="150" cy="150" r="150" transform="translate(-11792.439 6774.339)" fill="#ffbea6"/>
    <g id="Group_262" data-name="Group 262" transform="translate(3 -53.298)">
      <g id="peep-59" transform="translate(-11750.639 6797.961)">
        <g id="BODY" transform="translate(0 110.209)">
          <rect id="_Cup" data-name="â˜•ï¸ Cup" width="58.534" height="72.109" transform="translate(111.7 75.433)" fill="#a04db9"/>
          <path id="_Skin" data-name="âœ‹ Skin" d="M35.313,183.322h0a1.935,1.935,0,0,1-1.518-.665,2.52,2.52,0,0,1-.511-2c.259-1.72.511-3.469.754-5.16v-.009c.134-.933.273-1.9.412-2.846a63.69,63.69,0,0,1-16.2,2.229,50.152,50.152,0,0,1-6.907-.469,44.7,44.7,0,0,1-6.795-1.488c-.106-.108-.146-.2-.118-.264.049-.116.293-.17.769-.17.178,0,.364.007.555.015l.044,0c.164.007.318.013.444.013a1.03,1.03,0,0,0,.254-.02,13.351,13.351,0,0,1-4.369-4.914,16.294,16.294,0,0,1-1.188-2.987,21.994,21.994,0,0,1-.668-3.231,38.189,38.189,0,0,1-.2-6.86c.112-2.32.353-4.618.586-6.839v0c.129-1.228.251-2.388.347-3.512.818-5.277,1.563-10.757,2.284-16.057v0c1.84-13.535,3.743-27.531,7.16-40.855A135.964,135.964,0,0,1,16.9,67.769c1.358-3.2,2.851-6.3,4.437-9.209A92.142,92.142,0,0,1,26.762,49.8a63.157,63.157,0,0,1,6.882-7.821,57.706,57.706,0,0,1,8.134-6.532,50.388,50.388,0,0,1,9.194-4.822,44.314,44.314,0,0,1,10.062-2.69l.386-.053c.667-.089,1.36-.17,2.031-.248,3.516-.409,7.152-.832,10.125-2.683a22.455,22.455,0,0,0,3.887-4.425,22.12,22.12,0,0,1,2.721-3.273,6.083,6.083,0,0,1,1.527-1.047,4.273,4.273,0,0,1,1.776-.407h.022a3.393,3.393,0,0,1,1.576.517c.573.314,1.187.738,1.836,1.186.607.419,1.234.852,1.879,1.231a14.39,14.39,0,0,1,1.07-4.181,14.464,14.464,0,0,0,.809-2.7l.025-.174c.062-.453.1-.9.13-1.335.142-1.855.277-3.608,2.513-5.443a17.538,17.538,0,0,1,3.509-2.01,30.671,30.671,0,0,1,4.451-1.547A39.648,39.648,0,0,1,106.3.351,38.686,38.686,0,0,1,111.423,0a27.5,27.5,0,0,1,6.021.611,13.812,13.812,0,0,1,4.788,1.952,16.3,16.3,0,0,1,3.093,2.8,18.882,18.882,0,0,1,2.216,3.247,47.293,47.293,0,0,1,3,7.326c.652,1.879,1.326,3.822,2.168,5.7a5.125,5.125,0,0,1,2.2-.451,8.232,8.232,0,0,1,3.966,1.092,5.041,5.041,0,0,1,2.435,2.67,9.394,9.394,0,0,1,1.149,3.774,14.531,14.531,0,0,0,.675,2.825c1.945.31,3.832.7,5.609,1.168a48.392,48.392,0,0,1,5.019,1.6,41.416,41.416,0,0,1,4.467,2.014,37.23,37.23,0,0,1,3.954,2.4A35.451,35.451,0,0,1,165.66,41.5a35.873,35.873,0,0,1,3.039,3.105,38.47,38.47,0,0,1,2.638,3.422,43.375,43.375,0,0,1,2.275,3.714,55.237,55.237,0,0,1,3.612,8.21,86.1,86.1,0,0,1,2.613,9.093c1.4,6.007,2.39,12.37,3.437,20.075,1.4,7.895,3.327,15.925,5.191,23.691v0c1.209,5.038,2.46,10.248,3.559,15.387,1.233,5.766,2.138,10.822,2.768,15.46a121.5,121.5,0,0,1,1.176,15.566c.019,2.659-.068,5.295-.259,7.833-.2,2.663-.523,5.312-.957,7.872a16.655,16.655,0,0,1,1.624,2.92,3.052,3.052,0,0,1-.04,3.051,2.809,2.809,0,0,1-2.43,1.481h0l-.126,0c-.831-.073-1.672-.155-2.485-.234h0c-2.066-.2-4.2-.408-6.323-.488-4.3-.15-8.938-.222-14.168-.222-3.049,0-6.362.024-10.427.076l-1.118.015c-16.586.206-33.443.5-49.745.78C85.192,182.726,60.047,183.161,35.313,183.322Zm90.529-92.632h0c-.566,2.444.347,4.433,1.315,6.538a22.529,22.529,0,0,1,1.358,3.454,11.412,11.412,0,0,1,.065,3.276c-.032.466-.061.906-.065,1.263a6.376,6.376,0,0,0,.764,2.171,4.866,4.866,0,0,1,.759,2.758,24.651,24.651,0,0,1-2.332,6.052,28.584,28.584,0,0,0-2.108,5.123,9.039,9.039,0,0,0-.317,2.546,6.769,6.769,0,0,0,.562,2.539c1.534,3.018,6.155,4.565,9.213,5.588l.015.005a13.488,13.488,0,0,0,2.683.7,18.976,18.976,0,0,0,3,.229,24.459,24.459,0,0,0,8.929-1.734,18.059,18.059,0,0,0,3.8-2.052,11,11,0,0,0,2.739-2.74c1.235-1.837,2.614-5.484,3.723-8.415h0c.682-1.8,1.27-3.358,1.71-4.216l.261-3.642c.3-4.276.625-9.157.6-12.967-.026-4.23-.472-6.587-1.361-7.205-4.523-3.143-12.661-3.8-18.693-3.8-3.849,0-7.227.258-9.383.474a28.447,28.447,0,0,0-4.221.607c-.307.2-.567.355-.8.49a3.523,3.523,0,0,0-1.479,1.324c-.61.081-1.231.166-1.848.254-.41.134-.624.411-.571.741a.84.84,0,0,0,.339.522,1.217,1.217,0,0,0,.742.234,1.679,1.679,0,0,0,.6-.115Z" transform="translate(1.279)" fill="#d08b5b"/>
          <path id="_Top" data-name="ðŸ‘• Top" d="M35.309,167.506a1.936,1.936,0,0,1-1.518-.665,2.521,2.521,0,0,1-.511-2c.26-1.724.512-3.472.755-5.163l.006-.041c.133-.922.27-1.874.406-2.811a63.69,63.69,0,0,1-16.2,2.229,50.151,50.151,0,0,1-6.907-.469,44.7,44.7,0,0,1-6.8-1.488c-.106-.108-.146-.2-.118-.264.049-.116.293-.17.769-.17.178,0,.364.007.555.015l.044,0c.164.007.319.013.444.013a1.031,1.031,0,0,0,.254-.02,13.352,13.352,0,0,1-4.369-4.914,16.294,16.294,0,0,1-1.188-2.987,21.992,21.992,0,0,1-.668-3.231,38.189,38.189,0,0,1-.2-6.86c.112-2.32.353-4.618.586-6.839.129-1.229.251-2.389.347-3.516.818-5.277,1.563-10.757,2.284-16.057v0c1.84-13.535,3.743-27.531,7.16-40.855A135.965,135.965,0,0,1,16.9,51.953c1.358-3.2,2.851-6.3,4.437-9.209a92.141,92.141,0,0,1,5.429-8.761,63.156,63.156,0,0,1,6.882-7.821,57.707,57.707,0,0,1,8.134-6.532,50.388,50.388,0,0,1,9.194-4.822,44.314,44.314,0,0,1,10.062-2.69l.386-.053.389-.051c.542-.069,1.1-.134,1.643-.2,3.516-.409,7.151-.832,10.124-2.683A22.456,22.456,0,0,0,77.463,4.71a23.371,23.371,0,0,1,2.6-3.159A6.506,6.506,0,0,1,81.5.494,4.331,4.331,0,0,1,83.159,0L85.7,1.558l14.738,7.288a11.583,11.583,0,0,1,3.214,1.32,1.978,1.978,0,0,1,1.071,1.558V23.107c0,.758.677,2.014,2.011,3.732a77.282,77.282,0,0,0,6.033,6.626l4.954-4.941-.111-.647a42.312,42.312,0,0,1-.707-5.593c0-.252.306-.686.909-1.291a33.315,33.315,0,0,1,2.726-2.353c2.412-1.913,6.081-4.568,10.905-7.891l4.241-3.994-.452-1.376a7.889,7.889,0,0,1,1.965.355,8.323,8.323,0,0,1,1.82.811,4.963,4.963,0,0,1,2.3,2.588,9.394,9.394,0,0,1,1.149,3.774,14.531,14.531,0,0,0,.675,2.825c1.945.31,3.832.7,5.609,1.168a48.393,48.393,0,0,1,5.019,1.6,41.416,41.416,0,0,1,4.467,2.014,37.231,37.231,0,0,1,3.954,2.4,35.451,35.451,0,0,1,3.477,2.766,35.873,35.873,0,0,1,3.039,3.105,38.469,38.469,0,0,1,2.638,3.422,43.375,43.375,0,0,1,2.275,3.714,55.237,55.237,0,0,1,3.612,8.21,86.1,86.1,0,0,1,2.613,9.093c1.4,6.007,2.39,12.37,3.437,20.075,1.4,7.895,3.327,15.925,5.191,23.691v0c1.209,5.038,2.46,10.248,3.559,15.387,1.233,5.766,2.138,10.822,2.768,15.46a121.5,121.5,0,0,1,1.176,15.566c.019,2.659-.068,5.295-.259,7.833-.2,2.663-.523,5.312-.957,7.872a16.652,16.652,0,0,1,1.624,2.92,3.052,3.052,0,0,1-.04,3.051,2.809,2.809,0,0,1-2.43,1.481h0l-.126,0c-.828-.073-1.667-.154-2.479-.233h-.006c-2.067-.2-4.2-.409-6.327-.488-4.305-.15-8.94-.222-14.168-.222-3.049,0-6.362.024-10.426.076l-1.118.015c-16.58.206-33.437.5-49.739.78h-.006c-24.318.421-49.463.856-74.2,1.017Zm42.03-67.453-2.051,14.883,4.932,10.627L91.39,121.8l18.2-4.8,10.444-10.6,5.892-1.979a10.847,10.847,0,0,0-.644,3.092,6.86,6.86,0,0,0,.558,3.081c1.534,3.018,6.155,4.565,9.213,5.588l.015.005a13.49,13.49,0,0,0,2.683.7,18.975,18.975,0,0,0,3,.229,24.46,24.46,0,0,0,8.929-1.734,18.058,18.058,0,0,0,3.8-2.052,11,11,0,0,0,2.739-2.74c1.235-1.837,2.614-5.484,3.723-8.415h0c.682-1.8,1.27-3.358,1.71-4.216l.337-4.731c.3-4.3.569-8.764.521-12.322-.054-3.953-.5-6.164-1.356-6.761-4.523-3.143-12.661-3.8-18.693-3.8-3.849,0-7.227.258-9.383.474a28.448,28.448,0,0,0-4.221.607c-.307.2-.567.355-.8.49a3.523,3.523,0,0,0-1.479,1.324l-.323.043,1.818-2.466-.643-.344c-2.286-1.213-4.2-2.135-5.685-2.741a10.077,10.077,0,0,0-3.277-.914c-.719,0-1.831.567-3.3,1.684a57.677,57.677,0,0,0-5.577,5.053l-.394.182a70.1,70.1,0,0,0-6.745,3.521,20.01,20.01,0,0,0-4.006,3.021l-.063.067c-1.768,1.9-5.318,7.013-10.55,15.2l-7.614,4.5ZM128.376,84.4l-2.752-5.271V74.942a1.868,1.868,0,0,0,.218-.069c-.567,2.444.347,4.433,1.314,6.538a25.488,25.488,0,0,1,1.22,2.989Z" transform="translate(1.279 15.816)" fill="#6af9c5"/>
          <path id="_Ink" data-name="ðŸ– Ink" d="M37.084,175.795a1.858,1.858,0,0,1-.86-.211l-.062-.034-.1-.06a2.083,2.083,0,0,1-.838-.974,1.727,1.727,0,0,1-.077-1.274,28.65,28.65,0,0,0,.91-3.263c.225-.951.457-1.934.773-2.874l-.536.24-.706.308a69.808,69.808,0,0,1-8.868,3.251,34.076,34.076,0,0,1-9.262,1.4,24.162,24.162,0,0,1-6.31-.816,16.55,16.55,0,0,1-5.165-2.353,12.02,12.02,0,0,1-3.787-4.18C.37,161.556.124,157.63.029,153.9A88.825,88.825,0,0,1,.77,139.96a84.685,84.685,0,0,1,1.672-9.282,2.294,2.294,0,0,1-.759-1.463,27.089,27.089,0,0,1,.422-7.2V122c.08-.539.162-1.1.235-1.639.4-3.011.817-5.784,1.268-8.478.983-5.865,2.11-11.583,3.352-17,1.13-4.928,2.469-9.933,3.981-14.876,1.478-4.833,3.159-9.734,5-14.566l.32-.836c1.9-4.943,3.727-9.173,5.584-12.933a89.818,89.818,0,0,1,7.132-12.133,54.747,54.747,0,0,1,4.111-5.23A31.345,31.345,0,0,1,38,29.859a42.56,42.56,0,0,1,11.336-5.652,61.542,61.542,0,0,1,6.1-1.731c2-.459,4.1-.84,6.236-1.131.634-.086,1.285-.169,1.913-.249,3.658-.466,7.44-.947,10.825-2.436a1.86,1.86,0,0,1-.119-1.468,2.275,2.275,0,0,1,.894-1.211,63.633,63.633,0,0,0,7.035-5.7c.328-.293.667-.595,1-.892a.739.739,0,0,1,.493-.2.752.752,0,0,1,.632.359.7.7,0,0,1,0,.708,28.875,28.875,0,0,1-2.944,4.662c-.731.906-1.511,1.757-2.246,2.542a43.234,43.234,0,0,1,5.188,5.718l.1.122c.5.618.993,1.25,1.473,1.861a66.538,66.538,0,0,0,4.823,5.687A20.679,20.679,0,0,0,94.367,33.8a20.221,20.221,0,0,0,4.2,2.032l.614.213a24.334,24.334,0,0,1,4.516,2.023,9.927,9.927,0,0,1,3.517,3.387.633.633,0,0,1,0,.651.7.7,0,0,1-.592.363.614.614,0,0,1-.327-.1,22.876,22.876,0,0,0-6.153-2.341c-1.191-.326-2.423-.662-3.6-1.106A23.2,23.2,0,0,1,92.117,36.7a26.161,26.161,0,0,1-3.881-3.088A66.678,66.678,0,0,1,82.752,27.4l-.022-.027c-.345-.425-.7-.865-1.055-1.3a56.648,56.648,0,0,0-6.822-6.89,26.123,26.123,0,0,1-6.077,2.946c-2.051.714-4.174,1.256-6.538,1.842l-.484.12c-2.588.641-4.69,1.226-6.613,1.84a56.027,56.027,0,0,0-6.407,2.451,38.735,38.735,0,0,0-10.275,6.45,48.514,48.514,0,0,0-7.908,10.279,99.068,99.068,0,0,0-6.6,12.719c-1.688,3.862-3.324,8.115-5.151,13.384a270.679,270.679,0,0,0-8.18,28.676c-1.082,4.769-1.989,9.644-2.773,14.9-.355,2.38-.678,4.817-.959,7.243-.073.626-.133,1.267-.191,1.888v.005a27.649,27.649,0,0,1-.97,5.834,2.161,2.161,0,0,1-.759,1.119,1.825,1.825,0,0,1-1.092.352l-.094,0-.163,2.04c-.208,2.616-.417,5.4-.486,8.178-.124,4.977-.037,9.435.265,13.63l.046.619a25.039,25.039,0,0,0,.824,5.066,9.835,9.835,0,0,0,2.5,4.4c2.768,2.7,6.979,3.31,10.025,3.349l.329,0a34.265,34.265,0,0,0,11.234-2.132,110.031,110.031,0,0,0,10.615-4.536l.886-.416c3.627-1.7,7.3-3.539,10.925-5.467,3.528-1.878,7.109-3.895,10.644-6s7.091-4.307,10.584-6.567c1.7-1.1,3.41-2.234,5.094-3.377.336-.228.671-.468,1-.7h0c.6-.431,1.226-.876,1.866-1.255a1.58,1.58,0,0,1-.478-.822,1.242,1.242,0,0,1,.185-.948,9.683,9.683,0,0,1-1.829-2.17,13.649,13.649,0,0,1-1.265-2.635,19.071,19.071,0,0,1-1.067-5.627,46.7,46.7,0,0,1,.5-7.4c.047-.391.1-.8.143-1.194.173-1.48.387-2.941.593-4.3.036-.238.069-.485.1-.724.045-.341.092-.693.15-1.042-3.794,2.086-7.719,4.1-11.668,5.985-3.9,1.861-7.928,3.652-11.986,5.325-4.015,1.655-8.14,3.178-12.613,4.657l-.864.284c-2.444.8-4.332,1.379-6.121,1.876-2.257.627-4.293,1.1-6.223,1.451a.212.212,0,0,1-.038,0,.253.253,0,0,1-.236-.2.168.168,0,0,1,.108-.2c2.7-1.192,5.506-2.277,8.219-3.326,1.374-.531,2.8-1.081,4.184-1.637l.678-.276a1.358,1.358,0,0,1-.243-.035c-1.713-.414-3.439-.993-5.108-1.554h0c-.685-.23-1.393-.468-2.086-.689s-1.426-.42-2.135-.613a23.535,23.535,0,0,1-4.6-1.6.144.144,0,0,1-.08-.164.187.187,0,0,1,.165-.149c.232-.016.475-.024.723-.024a25.419,25.419,0,0,1,4.818.639c.54.107,1.049.207,1.559.3l.853.149c1.307.231,2.826.507,4.31.876a1.823,1.823,0,0,1,.7-1.235c3.464-2.566,3.754-7.3,4.011-11.476v0c.053-.856.1-1.664.177-2.437l.331-3.412c.56-5.76,1.187-11.885,2.13-17.871a.227.227,0,0,1,.238-.2.291.291,0,0,1,.3.271c.033,5.034-.221,10.138-.467,15.073-.113,2.268-.23,4.614-.317,6.924l-.043,1.2-.006.19c-.151,4.467-.307,9.086-3.117,12.521a1.157,1.157,0,0,1,.574-.159.878.878,0,0,1,.686.31,2.351,2.351,0,0,1,.619,1.523c2.48-1.04,5.067-2.156,7.691-3.319,7.953-3.525,16.045-7.6,24.053-12.106a1.491,1.491,0,0,1,2.057.523l.06-.009.031,0,.06,0h.007a2.362,2.362,0,0,1,1.152-.282,3.62,3.62,0,0,1,2.392.99c.023.022.044.046.062.067L82,109.4a12.683,12.683,0,0,0,3.325-2.181,26.709,26.709,0,0,0,2.884-3.1c.81-1.008,1.62-2.133,2.477-3.437.7-1.068,1.389-2.185,2.053-3.266h0c1.007-1.638,2.049-3.332,3.178-4.918a28.483,28.483,0,0,1,3.791-4.417,22.768,22.768,0,0,1,5.129-3.546,31.259,31.259,0,0,1,5.827-2.235.4.4,0,0,1,.109-.326.562.562,0,0,1,.386-.22.549.549,0,0,1,.236.064.1.1,0,0,1,.043.04l.393-.671c.286-.485.448-.748.511-.828.454-.572.926-1.146,1.4-1.706a12.118,12.118,0,0,1,2.8-2.538,5.3,5.3,0,0,1,2.856-.79,14.342,14.342,0,0,1,4.313.941l.033.011c.949.31,1.909.631,2.838.942l.035.012,1.479.493.15.049.28.088a7.786,7.786,0,0,1,1.489.58,2.269,2.269,0,0,1,1.194,2.51,48.925,48.925,0,0,1,12.041-1.434,62.9,62.9,0,0,1,10,.83,72.924,72.924,0,0,1,9.656,2.258,1.213,1.213,0,0,1,.85.85,73.217,73.217,0,0,1,1.2,8.925,58.246,58.246,0,0,1-.055,9,50.863,50.863,0,0,1-1.235,7.652,41.362,41.362,0,0,1-2.518,7.325l-.123.267a32.08,32.08,0,0,1-4,6.717,15.92,15.92,0,0,1-2.785,2.748,10.227,10.227,0,0,1-3.373,1.709,14.47,14.47,0,0,1-3.967.471c-1.162,0-2.343-.084-3.485-.165-.6-.043-1.219-.087-1.818-.117-.661-.033-1.336-.061-1.99-.087h0a59.341,59.341,0,0,1-6.864-.545,10.939,10.939,0,0,1-3.6-1.205,9.138,9.138,0,0,1-2.862-2.478,17.844,17.844,0,0,1-2.707-6.206c-.314.1-.572.19-.811.284a8.92,8.92,0,0,0-2.944,1.987c-.825.8-1.578,1.69-2.306,2.552a28.758,28.758,0,0,1-2.836,3.042,21.769,21.769,0,0,1-5.8,3.623,38.009,38.009,0,0,1-5.524,1.851c-1.877.489-3.814.889-5.686,1.276l-.017,0c-.806.166-1.639.339-2.456.515l-.323.07a34.293,34.293,0,0,0-10.106,3.515,2.094,2.094,0,0,1-.693,1.365,1.743,1.743,0,0,1,.529.943,1.566,1.566,0,0,1-.234,1.129,13.936,13.936,0,0,1-4.654,4.008h0c-.337.213-.686.434-1.021.654l-.134.088c-2.013,1.335-4.073,2.663-6.122,3.946-4.012,2.513-8.194,4.954-12.784,7.463-3.565,1.948-7.117,3.81-10.558,5.534-3.626,1.817-7.249,3.54-10.767,5.121a23.939,23.939,0,0,1,.358,3.573,29.32,29.32,0,0,0,.244,2.928l.05.307a2.09,2.09,0,0,1-.6,1.991l-.058.053v-.007l-.052.047-.017.014.006,0a1.858,1.858,0,0,1-.2.159l-.085.055A1.722,1.722,0,0,1,37.084,175.795Zm41.545-64.085c0,.177,0,.36,0,.52,0,.262,0,.509.009.755.029,1.116.044,2.307.044,3.539,0,.893-.017,1.8-.034,2.675v0c-.03,1.552-.061,3.158,0,4.735a21.117,21.117,0,0,0,.365,3.3,11.186,11.186,0,0,0,1.083,3.121,8.4,8.4,0,0,0,1.333,1.84,12.557,12.557,0,0,0,1.675,1.445,27.209,27.209,0,0,1,4.771-2.272,46,46,0,0,1,5.1-1.526c1.364-.332,2.762-.633,4.114-.924h0a76.986,76.986,0,0,0,8.433-2.153,22.178,22.178,0,0,0,5.57-2.715,23.316,23.316,0,0,0,4.286-4.2l.015-.017.335-.391.223-.258a15.114,15.114,0,0,1,5.11-4.181,15.711,15.711,0,0,1,2.209-.711,9.635,9.635,0,0,0,3.456-1.419,3.088,3.088,0,0,0,.96-2.436l0-.055a4.757,4.757,0,0,1-.679.045,12.317,12.317,0,0,1-1.691-.159h0c-.218-.031-.444-.062-.662-.088l-.513-.06a20.832,20.832,0,0,1-2.774-.472.181.181,0,0,1,0-.347,23.077,23.077,0,0,1,3.152-.517l.134-.016.262-.033.388-.053h0a12.463,12.463,0,0,1,1.692-.157,4.446,4.446,0,0,1,.982.1,8.383,8.383,0,0,1,.8-1.971c.153-.275.345-.557.548-.856h0a5.3,5.3,0,0,0,1.044-2.146,1.732,1.732,0,0,0-.185-.972l-.052-.1a.809.809,0,0,0-.246-.3.21.21,0,0,1-.093.047,1.5,1.5,0,0,1-1.782-.709,28.2,28.2,0,0,1-3.053.151c-.522.007-1.015.014-1.49.035l-1.422.069c-.468.021-1.084.046-1.7.046a13.376,13.376,0,0,1-2.835-.253.254.254,0,0,1-.182-.23.217.217,0,0,1,.122-.23,20.5,20.5,0,0,1,5.01-1.166h0l.75-.112c.7-.107,1.412-.2,2.1-.288h0l.016,0c.341-.044.694-.089,1.04-.136.224-.03.457-.068.683-.1h0a14.131,14.131,0,0,1,1.485-.184,4.2,4.2,0,0,0,.865-1.912,4.688,4.688,0,0,0-.092-2.035,4.568,4.568,0,0,0-.894-1.736,3.835,3.835,0,0,0-1.573-1.138,2.792,2.792,0,0,1-1.161.23,8.3,8.3,0,0,1-.993-.081h0c-.194-.024-.4-.048-.6-.066-1.121-.1-2.049-.141-2.92-.141h-.106a25.061,25.061,0,0,0-2.51.184,24.722,24.722,0,0,1-2.591.186,9.4,9.4,0,0,1-1.076-.057.534.534,0,0,1-.428-.362.339.339,0,0,1,.124-.374,7.567,7.567,0,0,1,2.687-1.334,20.4,20.4,0,0,1,3-.595l.4-.054.549-.075h0c.524-.073,1.117-.155,1.722-.21a1.294,1.294,0,0,1,1.023-.707c.135-.019.272-.03.4-.042l.044,0,0-.015a.9.9,0,0,0,.753-.454,3.2,3.2,0,0,0,.083-2.469,2.811,2.811,0,0,0-1.827-1.524,8.377,8.377,0,0,0-2.609-.348c-.385,0-.783.015-1.252.047a33.772,33.772,0,0,0-13.141,3.486,19.767,19.767,0,0,0-5.25,4.068,36.965,36.965,0,0,0-4.035,5.308l-.115.178c-.395.614-.8,1.261-1.185,1.887l0,0c-1,1.616-2.039,3.288-3.214,4.818a17.965,17.965,0,0,1-4.055,3.991,19.077,19.077,0,0,1-6.462,3.013,1.185,1.185,0,0,1-.755.582l-.157.036a9.837,9.837,0,0,1-2,.24A5.33,5.33,0,0,1,78.629,111.709ZM41.406,124.672a1,1,0,0,1-.071.1l-.039.045.2-.082ZM137.892,81.1c-2.267,0-4.575.061-6.745.123a3.679,3.679,0,0,1-1.256,1.766,3.454,3.454,0,0,1-1.992.784,5.842,5.842,0,0,1,.917,2.8,6.174,6.174,0,0,1-.477,2.877,7.67,7.67,0,0,1,2.23,1.356,7.134,7.134,0,0,1,1.648,2.113,7.385,7.385,0,0,1,.64,1.76,7.2,7.2,0,0,1,.17,1.793,7.647,7.647,0,0,1-.95,3.423,4.631,4.631,0,0,1,1.157,1.692,4.949,4.949,0,0,1,.367,2.051,7.9,7.9,0,0,1-1.473,3.678c-.09.147-.182.3-.271.447a8.038,8.038,0,0,0-.978,3.3c-.038.269-.078.547-.125.837a5.278,5.278,0,0,1-1.329,2.767,7.394,7.394,0,0,1-2.521,1.715l.1.41a20.775,20.775,0,0,0,.936,2.937,7.808,7.808,0,0,0,1.64,2.541c1.719,1.712,4.331,1.825,6.636,1.925l.552.025.118.006c1.83.091,3.689.2,5.487.3h.018l1.23.07,1.684.094c.528.029,1.151.059,1.763.059a11,11,0,0,0,2.826-.311,6.731,6.731,0,0,0,2.587-1.3c3.637-2.946,5.978-7.878,7.3-11.5,2.8-7.652,3.382-16.714,1.735-26.933a74.621,74.621,0,0,0-14.884-3.2A80.776,80.776,0,0,0,137.892,81.1Zm-17.17-.448A12.554,12.554,0,0,1,123.79,81a7.392,7.392,0,0,1,2.667,1.242l.009-.016c0-.008.009-.016.014-.024a6.731,6.731,0,0,1,.847-.993l.01-.01c.029-.027.058-.056.088-.088l.171-.182-.391-.135c-.6-.211-1.264-.463-1.663-.613l-.322-.121-.011,0-.545-.184c-.871-.294-1.771-.6-2.653-.911-.158-.056-.313-.114-.476-.176a6.4,6.4,0,0,0-2.186-.543,2.721,2.721,0,0,0-.434.034,5.165,5.165,0,0,0-2.053.906,20.118,20.118,0,0,0-1.875,1.517c-.329.288-.638.56-.945.809l.722-.14A32.122,32.122,0,0,1,120.722,80.656Zm48.729,94.9a.774.774,0,0,1-.482-.166.705.705,0,0,1-.262-.49l-.115-1.107a18.764,18.764,0,0,0-.792-4.134,22.817,22.817,0,0,1-1.008-4.89c-.3-2.618-.427-5.3-.537-7.828l-.078-1.807c-.244-5.647-.348-11.166-.309-16.4.042-5.622.25-11.139.619-16.4l.056-.779c.232-3.157.458-5.575.734-7.84.353-2.9.782-5.47,1.312-7.857a43.13,43.13,0,0,1,5.834-14.589.19.19,0,0,1,.162-.09.2.2,0,0,1,.156.075.187.187,0,0,1,.032.163c-1.326,5.435-2.673,11.275-3.536,17.157-.339,2.311-.6,4.677-.794,7.232-.174,2.276-.292,4.652-.362,7.262-.129,4.848-.064,9.782,0,14.553v.111c.01.784.021,1.6.03,2.392l.006.544c.057,5.033.142,10.989.341,17,.023.7.052,1.4.079,2.078.087,2.147.178,4.368.1,6.542a19.426,19.426,0,0,1-.33,2.613c-.11.634-.223,1.289-.286,1.947a22.7,22.7,0,0,0,.014,3.362c.011.213.025.455.036.688a.621.621,0,0,1-.156.471A.633.633,0,0,1,169.451,175.554Zm28.224-.474a2.28,2.28,0,0,1-1.648-.672,1.637,1.637,0,0,1-.443-1.257,170.4,170.4,0,0,0,.424-18.87c-.283-6.232-.876-12.575-1.761-18.852-.55-3.9-1.313-7.831-2.05-11.631-.245-1.261-.522-2.689-.778-4.057l-.153-.825c-.765-4.148-1.566-8.361-2.341-12.435v-.008l-.167-.876-1.26-6.645c-1.722-9.068-3.747-19.6-5.992-29.8l-.129-.582c-1.878-8.388-4.9-19.04-11.659-27.032-6.532-7.723-15.834-11.556-24.831-15.262a.33.33,0,0,1-.207-.374.281.281,0,0,1,.283-.238.391.391,0,0,1,.09.011l.729.174A77.582,77.582,0,0,1,161.35,30.9a33.543,33.543,0,0,1,6.9,4.41,36.374,36.374,0,0,1,5.671,5.9,50.084,50.084,0,0,1,7.33,13.9,115.659,115.659,0,0,1,4.043,15.262c1.135,5.473,2.238,11.044,3.306,16.431v.005c1.171,5.909,2.381,12.019,3.636,18.015l.445,2.136c1.333,6.413,2.315,11.36,3.183,16.04,1.085,5.845,1.96,11.123,2.676,16.135l.111.784a166.26,166.26,0,0,1,1.618,16.866,88.756,88.756,0,0,1-.824,16.888,1.567,1.567,0,0,1-.629,1.067A1.934,1.934,0,0,1,197.675,175.08Zm-77.011-9.385a1.215,1.215,0,0,1-1.162-.831,14.088,14.088,0,0,1-.549-4.134c-.006-1.426.117-2.862.237-4.25.035-.408.068-.794.1-1.183l.185-2.382c.164-2.136.351-4.657.5-7.15.192-3.3.352-6.655.5-9.794.047-1.009.1-2.05.158-3.181l.086-1.59c.01-.175.018-.354.026-.528a9.612,9.612,0,0,1,.593-3.492.435.435,0,0,1,.415-.246.514.514,0,0,1,.454.246,9.681,9.681,0,0,1,.818,3.721q.018.21.036.408l.013.141c.19,2.013.309,3.562.383,5.022.162,3.185.24,6.4.23,9.542-.012,3.658-.094,6.858-.252,9.783l-.048.873a37.846,37.846,0,0,1-.443,4.367,13.349,13.349,0,0,1-1.332,4.1A1.04,1.04,0,0,1,120.663,165.695ZM10.369,143.01a.134.134,0,0,1-.041-.006,1.2,1.2,0,0,1-.785-.619,2.02,2.02,0,0,1,.177-1.6,22.1,22.1,0,0,1,3.025-4.588l.02-.025.331-.423A42.216,42.216,0,0,1,17,131.4l.411-.4c.157-.154.317-.316.487-.487l.005-.006a15.546,15.546,0,0,1,1.87-1.7,3.765,3.765,0,0,1,2.19-.835c.055,0,.111,0,.166.005a1.121,1.121,0,0,1,1.063,1.4,4.934,4.934,0,0,1-2.271,2.714c-.283.21-.549.407-.8.616-1.263,1.05-2.436,2.156-3.626,3.292-1.021.973-2.017,1.984-3.044,3.091l-.368.4c-.062.068-.195.2-.363.362l0,0c-.8.779-2.454,2.4-2.231,2.887l.015.026a.139.139,0,0,1,0,.146A.163.163,0,0,1,10.369,143.01Zm97.116-31.624a2.307,2.307,0,0,1-1.619-.687,3.67,3.67,0,0,1-.94-1.646,6.81,6.81,0,0,1-.143-1.92,5.518,5.518,0,0,0-.25-2.205,6.328,6.328,0,0,0-.559-.987,6.634,6.634,0,0,1-.551-.964,6.355,6.355,0,0,1-.49-2.144,5.484,5.484,0,0,1,.334-1.816,3.39,3.39,0,0,0,.127-2.558.53.53,0,0,1,.023-.506.383.383,0,0,1,.335-.2h.01l.038,0a2.487,2.487,0,0,1,2.051,2,12.234,12.234,0,0,1,.25,1.435,5.82,5.82,0,0,0,.849,2.726,7.932,7.932,0,0,1,1.643,4.178c.017.215.027.434.036.646v0a8.035,8.035,0,0,0,.15,1.434l.113.48a4.5,4.5,0,0,1,.158,1.554,1.144,1.144,0,0,1-.8,1.052A2.511,2.511,0,0,1,107.486,111.386ZM58.911,86.227a18.976,18.976,0,0,1-2.941-.206.243.243,0,0,1-.213-.237.332.332,0,0,1,.213-.341A33.819,33.819,0,0,1,61.9,84.41c.454-.052.922-.105,1.38-.162,2.121-.263,4.91-.621,7.679-1.054s5.259-.856,7.633-1.3c1.139-.212,2.295-.437,3.434-.668.242-.049.487-.111.746-.177a7.41,7.41,0,0,1,1.773-.3,2.529,2.529,0,0,1,.94.165.951.951,0,0,1,.59.67.766.766,0,0,1-.226.713,4.358,4.358,0,0,1-2.587.98h0c-.179.027-.364.055-.543.087l-.1.018c-1.294.24-2.621.472-3.944.692-2.521.418-5.028.781-7.452,1.081-2.868.355-5.385.62-7.7.811l-.995.082C61.375,86.141,60.137,86.227,58.911,86.227ZM120.858,74.38a.9.9,0,0,1-.782-.449,20.769,20.769,0,0,1-2.01-5.457c-.249-.938-.506-1.907-.823-2.831-.414-1.206-.862-2.422-1.3-3.6v0c-.534-1.447-1.085-2.942-1.577-4.43a33.43,33.43,0,0,1-1.336-5.369,20.672,20.672,0,0,1-.163-5.5l-.011-.019a.461.461,0,0,1-.025-.045l-.292-.639a13.891,13.891,0,0,0-3.015-4.622c-.368-.351-.75-.7-1.118-1.031a19.983,19.983,0,0,1-3.222-3.425,7.931,7.931,0,0,1-1.06-2.211,9.3,9.3,0,0,1-.374-2.283,24.791,24.791,0,0,1,.4-4.7c.143-.965.291-1.962.365-2.94l.036-.507a3.678,3.678,0,0,0-.473-2.621,4.575,4.575,0,0,0-2.1-.9c-.313-.08-.607-.154-.848-.24A47.164,47.164,0,0,1,94.8,17.838a40.157,40.157,0,0,1-5.55-3.468l-.884-.665a15.576,15.576,0,0,1-3.775-3.635.227.227,0,0,1,0-.234.234.234,0,0,1,.2-.132.191.191,0,0,1,.072.014,22.285,22.285,0,0,1,3.357,1.845l0,0c.355.222.722.452,1.085.67a1.771,1.771,0,0,1,.079-.162A18.528,18.528,0,0,0,91.3,6.936a19.283,19.283,0,0,0,.345-5.475A1.318,1.318,0,0,1,91.965.434,1.468,1.468,0,0,1,93.049,0a1.728,1.728,0,0,1,1.078.366,1.512,1.512,0,0,1,.562,1.1A21.619,21.619,0,0,1,92.014,13.61c-.01.018-.021.035-.031.051l-.017.026c1.492.777,2.733,1.375,3.908,1.882,1.823.787,3.519,1.43,5.186,1.966.45.145.92.263,1.417.387a8.986,8.986,0,0,1,3.474,1.394,5.484,5.484,0,0,1,1.863,4.356,23.653,23.653,0,0,1-.544,5.03l0,.025c-.034.183-.065.356-.1.527l-.085.477a7.967,7.967,0,0,0,.19,4.646,11.309,11.309,0,0,0,3.064,3.636l.013.012.3.273.255.231a16.882,16.882,0,0,1,3.219,3.643,22.058,22.058,0,0,1,2.482-3.757l.023-.03.347-.456c.624-.823.38-1.206-.024-1.84-.095-.149-.2-.317-.308-.507a5.432,5.432,0,0,1-.576-1.484,4.351,4.351,0,0,1-.051-1.585,4.738,4.738,0,0,1,.454-1.41,6.138,6.138,0,0,1,.82-1.219,11.215,11.215,0,0,1,2.246-1.937,39.712,39.712,0,0,1,3.441-2.022c.835-.454,1.7-.923,2.523-1.428a81.444,81.444,0,0,0,11.467-8.426.119.119,0,0,1,.08-.03.134.134,0,0,1,.116.067.1.1,0,0,1-.008.109A44.713,44.713,0,0,1,127.09,27.233c-1.39,1.076-2.872,2.016-4.3,2.926l-.758.482-.5.318a4.635,4.635,0,0,0-1.867,1.81c-.24.585.1,1.067.424,1.534h0c.1.145.207.3.293.447a4.723,4.723,0,0,1,.555,1.488,4.067,4.067,0,0,1,0,1.434,6.118,6.118,0,0,1-1.323,2.692l-.063.079a12.741,12.741,0,0,0-2.865,5.343,16.81,16.81,0,0,0,0,6.917,44.032,44.032,0,0,0,1.944,6.707l.06.169c.2.561.409,1.131.611,1.682l0,.007v0c.626,1.716,1.274,3.49,1.819,5.267l.2.65c.656,2.172,1.185,4.305.455,6.518A.975.975,0,0,1,120.858,74.38ZM129.031,43.4c-.2,0-.4-.008-.608-.022a8.186,8.186,0,0,1-3.435-.986,7.576,7.576,0,0,1-1.211-.967A4.17,4.17,0,0,0,121.319,40a1.6,1.6,0,0,0-.5.079.143.143,0,0,1-.044.007.183.183,0,0,1-.162-.125.14.14,0,0,1,.043-.162,2.056,2.056,0,0,1,1.332-.486,5.809,5.809,0,0,1,2.669,1.033,8.741,8.741,0,0,0,1.642.812,6.395,6.395,0,0,0,7.028-2.216,71.358,71.358,0,0,0,4.884-7.132,34.593,34.593,0,0,0,2.039-3.819,13.038,13.038,0,0,0,.721-2.323,16.846,16.846,0,0,1,.509-1.8,1.739,1.739,0,0,1,.719-.885,1.993,1.993,0,0,1,1.045-.3,1.641,1.641,0,0,1,1.2.476,1.515,1.515,0,0,1,.381,1.158,11.942,11.942,0,0,1-1.195,4.011l-.157.365-.064.151a28.067,28.067,0,0,1-2.206,4.2,53.426,53.426,0,0,1-5.636,7.234A8.78,8.78,0,0,1,129.031,43.4ZM143.9,21.658a1.553,1.553,0,0,1-1.072-.473,30.3,30.3,0,0,1-3.256-3.592,14.756,14.756,0,0,1-2.326-4.221.258.258,0,0,1,.041-.236.311.311,0,0,1,.245-.13.247.247,0,0,1,.137.041,21.08,21.08,0,0,1,2.288,1.815h0c.344.3.7.609,1.055.9,1.235,1.01,2.486,2,3.718,2.954a1.759,1.759,0,0,1,.645.895,1.535,1.535,0,0,1-.025.933A1.594,1.594,0,0,1,143.9,21.658Zm-8.617-4.968a1.579,1.579,0,0,1-.993-.36,10.564,10.564,0,0,1-3.449-5.073,11.177,11.177,0,0,1-.521-3.044,10.974,10.974,0,0,1,.343-3.1,1.367,1.367,0,0,1,1.377-1.082,1.707,1.707,0,0,1,1.312.611,1.4,1.4,0,0,1,.259,1.224l-.014.056a7.947,7.947,0,0,0,2.755,8.179l.089.072a1.351,1.351,0,0,1,.48.68,1.174,1.174,0,0,1-.029.713A1.766,1.766,0,0,1,135.278,16.69Z" transform="translate(0 5.881)"/>
        </g>
        <g id="HEAD" transform="translate(49.847 0)">
          <path id="_Skin-2" data-name="âœ‹ Skin" d="M97.964,45.021c-.947-7.574-3.921-15.616-7.049-22.677C83.882,7.414,67.781,5.358,53.346,2.28,39.1.2,24.019-1.676,9.99,2.472,2.1,4.409-.977,13.826.267,21.257c.71,4.631,2.813,9.013,4.606,13.3A74.648,74.648,0,0,1,10.7,62.351c-.245,6.236-1.123,13.353,6.025,15.994,6.8,3.391,7.377,12.583,15.893,17.8,3.444,6.993,12.825,7.609,19.577,9.231,4.268.819,8.583,1.421,12.911,1.811,12.53,1.61,22.554-2.03,29.114-13.22,4.389-6.81,7.658-14.674,6.851-22.927C100.268,62.346,98.928,53.7,97.964,45.021Z" transform="translate(7.651 16.365)" fill="#d08b5b"/>
          <path id="_Ink-2" data-name="ðŸ– Ink" d="M75.019,126.079a34.018,34.018,0,0,1-8.083-.949,27.388,27.388,0,0,1-7.437-2.978,1.633,1.633,0,0,1-.837-1.894,1.978,1.978,0,0,1,.654-1,1.821,1.821,0,0,1,1.164-.424,1.981,1.981,0,0,1,.84.195,34.368,34.368,0,0,0,12.266,3.5c.758.053,1.526.081,2.282.081A31.238,31.238,0,0,0,86.1,120.9a30.512,30.512,0,0,0,15.957-13.138,30.029,30.029,0,0,0,3.783-9.571,47.277,47.277,0,0,0,.415-12.894L106.235,85c-.74-9.777-1.623-17.641-2.78-24.747a132.843,132.843,0,0,0-5.336-21.243,12.644,12.644,0,0,0-3.051-1.995c-3.086-.129-6.207-.195-9.275-.195-4.985,0-10.008.173-14.93.514a201.9,201.9,0,0,0-20.495,2.47l-.727.128c-.335.06-.684.115-1.022.168a15.065,15.065,0,0,0-3.564.86,3.63,3.63,0,0,0-2.013,2.756,47.718,47.718,0,0,0-1.006,9.426l-.012.3c-.056,1.362-.032,2.751-.009,4.095.03,1.74.061,3.538-.08,5.295a15.188,15.188,0,0,1-.759,3.849,9.534,9.534,0,0,1-.824,1.761,7.858,7.858,0,0,1-1.221,1.547A11.277,11.277,0,0,1,36.8,71.623c-.354.2-.72.416-1.074.644a1.746,1.746,0,0,0-.974,1.877,10.933,10.933,0,0,0,.4,1.745c.437,1.55.89,3.153-.381,4.359a.879.879,0,0,1-.6.235.744.744,0,0,1-.556-.235A11.544,11.544,0,0,0,31.7,78.7c-.233-.164-.473-.332-.7-.5a.353.353,0,0,1-.145-.4.341.341,0,0,1,.324-.237.418.418,0,0,1,.171.039c.258.116.524.244.781.369.286.138.58.28.874.411A7.494,7.494,0,0,0,30.852,77.2a15.438,15.438,0,0,0-2.331-.642,8.042,8.042,0,0,0-1.574-.155c-.241,0-.484.011-.722.032-.6.286-1.215.552-1.739.774-.673.283-1.408.566-2.247.865A9.669,9.669,0,0,0,18.915,87.1a7.336,7.336,0,0,0,2.793,5.019,7.952,7.952,0,0,0,3.59,1.021,9.987,9.987,0,0,1,3.013.685,6.713,6.713,0,0,1,2.415,1.937,13.057,13.057,0,0,1,1.617,2.676l.371.786a32.406,32.406,0,0,0,2.8,5.016,25.051,25.051,0,0,0,4.65,4.894,23.683,23.683,0,0,0,2.681,1.861l.255.152a2.674,2.674,0,0,1,1.683,2.258,1.16,1.16,0,0,1-.569.995,2.033,2.033,0,0,1-1.118.336,5.1,5.1,0,0,1-2.619-1.153l0,0-.3-.2a29.378,29.378,0,0,1-3.645-2.864,28.211,28.211,0,0,1-5.461-6.917,21.674,21.674,0,0,1-.991-2.132,10.939,10.939,0,0,0-2.455-4.084A5.583,5.583,0,0,0,24.4,96.35c-.209-.022-.425-.045-.634-.072a9.514,9.514,0,0,1-3.479-1.02c-4.441-2.473-5.7-8.454-4.642-13.085A13.748,13.748,0,0,1,16.38,79.9a2.191,2.191,0,0,1-.359.029A2.777,2.777,0,0,1,13.8,78.721a2.1,2.1,0,0,1-.263-1.984c.037-.1.079-.188.12-.277h0l.045-.1a5.692,5.692,0,0,1-2.357-3.232,5.151,5.151,0,0,1-.13-2.2,3.563,3.563,0,0,1-1.245-1.445A4.4,4.4,0,0,1,7.856,67.6a3.624,3.624,0,0,1-.46-1.726A3.57,3.57,0,0,1,7.784,64.3c-.068-.124-.135-.253-.2-.383A6.58,6.58,0,0,1,5.4,61.658a5.379,5.379,0,0,1-.227-5c-.027-.087-.049-.161-.066-.225a5.944,5.944,0,0,1-3.194-3.71,4.879,4.879,0,0,1,0-2.488A5.89,5.89,0,0,1,3.04,48.041a4.5,4.5,0,0,1-1.892-5.06,6.309,6.309,0,0,1,1.3-2.58.614.614,0,0,0-.011-.062v-.007l-.143-.111C.071,38.463-.54,36.532.477,34.479a5.13,5.13,0,0,1,2.135-2.271l.043-.138a6.247,6.247,0,0,1-.406-4.4,4.99,4.99,0,0,1,.858-1.729A5.441,5.441,0,0,1,4.5,24.668a6.29,6.29,0,0,1,.053-1.862A4.859,4.859,0,0,1,5.1,21.24,4.566,4.566,0,0,1,6.121,20c.028-.136.065-.28.112-.44a7.892,7.892,0,0,1,1.387-2.58,2.155,2.155,0,0,1,1.717-.836A6.217,6.217,0,0,1,10.5,12.029a5.2,5.2,0,0,1,2.032-1.689A3.89,3.89,0,0,1,14.142,10a4.226,4.226,0,0,1,.452.025,4.17,4.17,0,0,1,1.251-1.543,4.007,4.007,0,0,1,1.861-.766,5.594,5.594,0,0,1,.781-.056,4.977,4.977,0,0,1,.732.053,8.713,8.713,0,0,1,.821-.333c.185-.065.368-.124.571-.189A5.983,5.983,0,0,1,23.1,5.357a4.638,4.638,0,0,1,1.694-.322,4.817,4.817,0,0,1,1.65.3l.329-.069a3.893,3.893,0,0,1,1.019-1.169,4.318,4.318,0,0,1,1.58-.734,3.97,3.97,0,0,1,.954-.116A5,5,0,0,1,33.4,4.4h0a.043.043,0,0,0,.016,0A3.924,3.924,0,0,1,34.6,2.83a3.148,3.148,0,0,1,1.945-.611c.054,0,.109,0,.164,0a3.648,3.648,0,0,1,1.489.391,4.7,4.7,0,0,1,1.25.921c.411-.052.815-.1,1.227-.143a10.708,10.708,0,0,1,1.449-1.412,1.986,1.986,0,0,1,1.241-.47,1.661,1.661,0,0,1,1.409.813c.138.211.268.428.393.637l.007.012.589-.041a4.166,4.166,0,0,1,1.242-1.145A3.612,3.612,0,0,1,48.7,1.306l.138,0A3.139,3.139,0,0,1,51.38,2.656c.49-.012,1.007-.022,1.581-.031A9.666,9.666,0,0,1,55.127.761,1.573,1.573,0,0,1,55.969.53a1.74,1.74,0,0,1,1.237.5,13.643,13.643,0,0,1,.969,1.13A5.3,5.3,0,0,1,61.105.5,1.415,1.415,0,0,1,62.192,0a2.1,2.1,0,0,1,1.4.609,4.971,4.971,0,0,1,1.256.573,14.041,14.041,0,0,1,1.793-.1c.289,0,.594.006.935.019a4.753,4.753,0,0,1,.694-.32A5.375,5.375,0,0,1,70.117.436a5,5,0,0,1,2.821.9A3.164,3.164,0,0,1,75.173.415c.066,0,.133,0,.2.006a3.057,3.057,0,0,1,2.1,1.039,3.335,3.335,0,0,1,1.066-.99A3.391,3.391,0,0,1,80.023.017C80.141.008,80.261,0,80.38,0A6.425,6.425,0,0,1,84.3,1.494,3.689,3.689,0,0,1,87.092.186,4.51,4.51,0,0,1,87.9.115a4.686,4.686,0,0,1,1.358.2,5.927,5.927,0,0,1,2.566,1.6A5.374,5.374,0,0,1,95.527.2c.1,0,.2,0,.3.011A4.853,4.853,0,0,1,98.52,1.3a6.085,6.085,0,0,1,1.764,2.357,11.208,11.208,0,0,1,1.952,1.008A9.544,9.544,0,0,1,103.954,6.1c.037.038.074.079.109.118h0l.056.062a5.324,5.324,0,0,1,1.569.9,4.142,4.142,0,0,1,1.405,2.2,5.075,5.075,0,0,1-.079,2.592c.061.25.119.522.181.854a4.6,4.6,0,0,1,3.377,2.33,6.029,6.029,0,0,1-.275,5.891,7.886,7.886,0,0,1-1.694,1.907,4.675,4.675,0,0,1,.32,2.646,4.836,4.836,0,0,1-1.127,2.405,6.537,6.537,0,0,1-1.047,1.276,3.911,3.911,0,0,1-.2,2.536,4.144,4.144,0,0,1-1.713,1.928l-.135.337c-.026.064-.048.117-.069.167-.016.065-.036.13-.054.193h0l-.005.017a3.441,3.441,0,0,1-.643,1.794,13.967,13.967,0,0,1-.92,1.135,7.376,7.376,0,0,0-1.467,2.163l-.054.143a1.468,1.468,0,0,1-1.309.95,1.062,1.062,0,0,1-.316-.047,64.868,64.868,0,0,1,4.205,11.481,115.859,115.859,0,0,1,2.5,11.978c.6,3.733,1.1,7.657,1.531,12l.392,4c.33,3.4.651,7.021.653,10.681a38.6,38.6,0,0,1-1.763,11.734,34.013,34.013,0,0,1-13.794,18.221,32.329,32.329,0,0,1-10.421,4.471A36.153,36.153,0,0,1,75.019,126.079ZM23.7,36.763a.771.771,0,0,0-.751.522A2.753,2.753,0,0,0,24.4,40.8a1.015,1.015,0,0,0,.4.089.724.724,0,0,0,.644-.364.836.836,0,0,0,.058-.655.621.621,0,0,0-.332-.395,1.265,1.265,0,0,1-.773-1.721l.022-.064a.637.637,0,0,0-.057-.611A.813.813,0,0,0,23.7,36.763Zm-12.609-2.89h0a.76.76,0,0,0-.507.2,2.735,2.735,0,0,0-1.064,2.384,3.085,3.085,0,0,0,1.66,2.134.742.742,0,0,0,.387.116.687.687,0,0,0,.456-.179.881.881,0,0,0,.264-.423.715.715,0,0,0-.334-.839l-.095-.058a1.528,1.528,0,0,1-.827-.956c-.065-.474.357-.848.636-1.095a.649.649,0,0,0,.2-.741.861.861,0,0,0-.778-.545ZM15.548,22.1h0a.688.688,0,0,0-.4.141A2.883,2.883,0,0,0,13.756,24.4a3.15,3.15,0,0,0,1.016,2.361A.694.694,0,0,0,15.28,27,.828.828,0,0,0,16,26.489a.723.723,0,0,0-.151-.81,1.618,1.618,0,0,1-.539-1.193,1.243,1.243,0,0,1,.552-.878l.053-.039a.793.793,0,0,0,.293-.911.736.736,0,0,0-.663-.555ZM29.75,87.78a1.717,1.717,0,0,1-1.392-.7c-.211-.279-.413-.562-.608-.835h0A13.539,13.539,0,0,0,26.078,84.2a9.572,9.572,0,0,0-.939-.755,4.6,4.6,0,0,1-1.6-1.644.069.069,0,0,1,.026-.1,2.188,2.188,0,0,1,1.1-.273,4.4,4.4,0,0,1,1.477.3,12.56,12.56,0,0,1,1.369.608,9.312,9.312,0,0,1,3.66,3.094,1.418,1.418,0,0,1,.126,1.49A1.779,1.779,0,0,1,29.75,87.78Z" transform="translate(0)"/>
        </g>
        <g id="FACE" transform="translate(105.564 58.812)">
          <path id="_Ink-3" data-name="ðŸ– Ink" d="M27.506,52.115c-.169,0-.34-.006-.508-.019a7.368,7.368,0,0,1-3.716-1.317,6.955,6.955,0,0,1-2.424-3.095,7.973,7.973,0,0,1-.529-3.212,3.4,3.4,0,0,1,1.348-2.792.091.091,0,0,1,.048-.013.09.09,0,0,1,.068.028,5.523,5.523,0,0,1,.926,1.944,6.786,6.786,0,0,0,.744,1.724,4.424,4.424,0,0,0,3.106,2.053,3.116,3.116,0,0,0,.32.017,2.06,2.06,0,0,0,2-1.132,1.409,1.409,0,0,0,.1-1.046l-.07-.28a3.2,3.2,0,0,1,.2-2.693,2.614,2.614,0,0,1,.821-.852,2.08,2.08,0,0,1,1.129-.375,1.475,1.475,0,0,1,.171.01,3.58,3.58,0,0,1,1.647.591,3.178,3.178,0,0,1,1.01,1.169,5.287,5.287,0,0,1,.469,2.882,7.574,7.574,0,0,1-.86,2.9,6.666,6.666,0,0,1-2.529,2.569A6.962,6.962,0,0,1,27.506,52.115ZM30.213,33.3h0a8.921,8.921,0,0,1-3.182-.642,16.069,16.069,0,0,1-3.742-2.124,1.438,1.438,0,0,1-.522-.831,1.722,1.722,0,0,1,.074-.933,2.122,2.122,0,0,1,.63-.911,1.533,1.533,0,0,1,.982-.383,1.393,1.393,0,0,1,.759.233l.256.2c1.3,1.006,3.265,2.525,5.15,2.525a3.074,3.074,0,0,0,2.291-1.016,3.39,3.39,0,0,0,.643-2.729c-.435-2.122-2.741-3.668-3.438-4.091a.642.642,0,0,1-.174-.738.955.955,0,0,1,.93-.661,1.3,1.3,0,0,1,.22.019,6.94,6.94,0,0,1,2.441.882,5.538,5.538,0,0,1,1.642,1.514,6.018,6.018,0,0,1,1.048,4.019,6.419,6.419,0,0,1-1.747,3.922A5.782,5.782,0,0,1,30.213,33.3ZM9.109,25h0l-.135,0a5.727,5.727,0,0,1-3.088-1.021,6.224,6.224,0,0,1-2.1-2.484,6.781,6.781,0,0,1-.643-3.071,10.221,10.221,0,0,1,.588-3.1.157.157,0,0,1,.144-.106.129.129,0,0,1,.1.043,17.814,17.814,0,0,1,2.038,2.764l.636,1c.529.819,1.182,1.656,2.017,1.656l.082,0,.136-.013.082-.006c.156-.009.156-.009.3-.269l.023-.041a1.092,1.092,0,0,0,.085-.4,1.921,1.921,0,0,1,.032-.24l.015-.064-.008-.034a4.275,4.275,0,0,1-.054-.559l0-.066c-.013-.274-.038-.56-.065-.863a5.567,5.567,0,0,1,.446-3.574,2.629,2.629,0,0,1,.978-.886,2.587,2.587,0,0,1,1.193-.293,2.466,2.466,0,0,1,1.431.447,2.5,2.5,0,0,1,.941,1.325,4.331,4.331,0,0,1,.011,2.041,7.2,7.2,0,0,0-.12,1.271,9.222,9.222,0,0,1-.337,2.973A5.2,5.2,0,0,1,12.047,24,4.777,4.777,0,0,1,9.109,25Zm31.613-1.364c-.117,0-.236,0-.354-.014a4.957,4.957,0,0,1-2.285-.767A4.867,4.867,0,0,1,36.438,21.1c-.734-1.345-1.389-3.833-.549-5.155a.144.144,0,0,1,.123-.07.155.155,0,0,1,.1.041,4.205,4.205,0,0,1,1,1.879,7.945,7.945,0,0,0,.422,1.083,3.3,3.3,0,0,0,2.386,2.051,2.356,2.356,0,0,0,.3.02.99.99,0,0,0,.834-.332,1.36,1.36,0,0,0,.1-1.183,8.011,8.011,0,0,0-.643-1.543,5.911,5.911,0,0,1-.743-2.155,1.8,1.8,0,0,1,.439-1.42,2.394,2.394,0,0,1,3.607.323,7.243,7.243,0,0,1,.838,3.024l.057.5a5.869,5.869,0,0,1-.29,3.189,3.9,3.9,0,0,1-1.509,1.7A4.2,4.2,0,0,1,40.722,23.635ZM.213,12.066a.13.13,0,0,1-.134-.095A3.728,3.728,0,0,1,.39,9.593a11.3,11.3,0,0,1,1.295-2.11A18.635,18.635,0,0,1,5.719,3.562,20.475,20.475,0,0,1,10.6,1.027l.523-.2A10.458,10.458,0,0,1,14.607,0,3.63,3.63,0,0,1,15.8.185a2.679,2.679,0,0,1,1.023.639,2.695,2.695,0,0,1,.428,3.318,2.575,2.575,0,0,1-1.346,1.132,7.559,7.559,0,0,1-1.727.364c-.145.019-.3.039-.443.06A18.614,18.614,0,0,0,9.224,6.947,29.226,29.226,0,0,0,4.671,9.419c-.4.261-.8.563-1.212.883A7.74,7.74,0,0,1,.242,12.064ZM40.4,12.045a34.422,34.422,0,0,1-4.81-.352,32.223,32.223,0,0,1-4.13-.816l-.62-.18-.166-.047a6.9,6.9,0,0,1-3.066-1.439.48.48,0,0,1-.14-.447.591.591,0,0,1,.367-.415A6.885,6.885,0,0,1,30.27,8c.37,0,.749.012,1.083.023h.01c.361.012.7.022,1.032.022.123,0,.235,0,.342,0,1.65-.047,3.385-.167,5.3-.366,1.249-.13,2.491-.375,3.692-.611.455-.09.926-.183,1.392-.268l.16-.028a5.644,5.644,0,0,1,.924-.087,2.538,2.538,0,0,1,1.964.808A2.477,2.477,0,0,1,46.8,8.6a2.2,2.2,0,0,1-.062,1.267A3.2,3.2,0,0,1,46.082,11a2.03,2.03,0,0,1-1.122.654A24.806,24.806,0,0,1,40.4,12.045Z" transform="translate(0 0)"/>
        </g>
        <g id="FACIAL_HAIR" data-name="FACIAL HAIR" transform="translate(82.815 83.36)">
          <path id="_Ink-4" data-name="ðŸ– Ink" d="M51.882,47.561h0c-2.094,0-4.185-.2-6.029-.382A68.393,68.393,0,0,1,30.6,43.841c-2.313-.78-4.7-1.709-7.293-2.839-.354-.154-.718-.31-1.069-.461a49.747,49.747,0,0,1-5.984-2.89,23.08,23.08,0,0,1-4.344-3.761l0,0c-.234-.239-.476-.485-.711-.721a79.384,79.384,0,0,1-6.928-7.743,25.776,25.776,0,0,1-2.517-3.83A14.05,14.05,0,0,1,.334,17.255C-.436,12.235.275,6.993.963,1.923c.054-.4.11-.812.164-1.217A.221.221,0,0,1,1.34.527a.13.13,0,0,1,.13.094c0-.083-.009-.171-.015-.284A.311.311,0,0,1,1.537.1.353.353,0,0,1,1.793,0a.347.347,0,0,1,.343.245A30.27,30.27,0,0,0,8.824,12.151c3.931,4.259,8.921,7.382,13.747,10.4l0,0c.5.313,1.018.637,1.526.957a1.3,1.3,0,0,1,.633-.338A14.266,14.266,0,0,1,27.02,18.2a22.09,22.09,0,0,1,3.614-4.007,30.2,30.2,0,0,1,19.3-7.144,25.452,25.452,0,0,1,4.784.444A22.183,22.183,0,0,1,59.27,8.874,19.719,19.719,0,0,1,64.6,12.263a19.985,19.985,0,0,1,4.006,4.89,20.941,20.941,0,0,1,1.628,3.51c.2.554,1.736,6.758.766,10.313a26.547,26.547,0,0,1-1.924,4.964,30.573,30.573,0,0,1-2.824,4.535,17.381,17.381,0,0,1-7.485,5.982,15.331,15.331,0,0,1-3.354.868A24.005,24.005,0,0,1,51.882,47.561ZM48.907,13.832a28.726,28.726,0,0,0-7.029.792,17.281,17.281,0,0,0-11.787,9.718,9.026,9.026,0,0,0,.081,3.192A22.771,22.771,0,0,0,43.1,31.769a20.188,20.188,0,0,0,2.329-.135c.361-.448.727-.959,1.115-1.5,1.431-2,3.052-4.262,5.287-4.586a4.064,4.064,0,0,1,.582-.043,4.41,4.41,0,0,1,2.422.785,15.673,15.673,0,0,1,2.084,1.731,13.745,13.745,0,0,0,2.395,1.923c.13.074.278.151.453.235a9.394,9.394,0,0,0,4.6-1.438,5.068,5.068,0,0,0,2.171-3.736c-.07-.282-.147-.571-.229-.857A18.521,18.521,0,0,0,63.732,18.5a9.014,9.014,0,0,0-3.985-3.307,20.949,20.949,0,0,0-5.7-1.073l-.454-.043C51.892,13.912,50.358,13.832,48.907,13.832Z" transform="translate(0 0)"/>
        </g>
      </g>
    </g>
  </g>
</svg>
