<svg xmlns="http://www.w3.org/2000/svg" width="247.896" height="196.547" viewBox="0 0 247.896 196.547">
  <g id="dark-3d" transform="translate(8937.328 647.706)">
    <g id="Group_185" data-name="Group 185" transform="translate(-8870.527 -647.706)">
      <path id="Path_209" data-name="Path 209" d="M4.265,0h8.164C15.7,0,18.96,4.9,18.96,8.164s-3.313,8.164-6.531,8.164H4.265A3.265,3.265,0,0,1,1,13.062v-9.8A3.265,3.265,0,0,1,4.265,0Z" transform="translate(-1 15.511)" fill="#a997ba"/>
      <path id="Path_210" data-name="Path 210" d="M3.449,0H9.572c2.449,0,4.9,3.674,4.9,6.123s-2.485,6.123-4.9,6.123H3.449A2.449,2.449,0,0,1,1,9.8V2.449A2.449,2.449,0,0,1,3.449,0Z" transform="translate(0.631 17.144)" fill="#cfd8dc"/>
      <path id="Path_209-2" data-name="Path 209" d="M3.265,0h8.164C14.7,0,17.96,4.9,17.96,8.164s-3.313,8.164-6.531,8.164H3.265A3.265,3.265,0,0,1,0,13.062v-9.8A3.265,3.265,0,0,1,3.265,0Z" transform="translate(31.837 0) rotate(90)" fill="#a997ba"/>
      <path id="Path_210-2" data-name="Path 210" d="M2.449,0H8.572c2.449,0,4.9,3.674,4.9,6.123s-2.485,6.123-4.9,6.123H2.449A2.449,2.449,0,0,1,0,9.8V2.449A2.449,2.449,0,0,1,2.449,0Z" transform="translate(29.389 1.633) rotate(90)" fill="#cfd8dc"/>
      <path id="Path_209-3" data-name="Path 209" d="M3.265,0h8.164C14.7,0,17.96,4.9,17.96,8.164s-3.313,8.164-6.531,8.164H3.265A3.265,3.265,0,0,1,0,13.062v-9.8A3.265,3.265,0,0,1,3.265,0Z" transform="translate(47.348 31.839) rotate(180)" fill="#a997ba"/>
      <path id="Path_210-3" data-name="Path 210" d="M2.449,0H8.572c2.449,0,4.9,3.674,4.9,6.123s-2.485,6.123-4.9,6.123H2.449A2.449,2.449,0,0,1,0,9.8V2.449A2.449,2.449,0,0,1,2.449,0Z" transform="translate(44.901 29.389) rotate(180)" fill="#cfd8dc"/>
      <path id="Path_209-4" data-name="Path 209" d="M3.265,0h8.164C14.7,0,17.96,4.9,17.96,8.164s-3.313,8.164-6.531,8.164H3.265A3.265,3.265,0,0,1,0,13.062v-9.8A3.265,3.265,0,0,1,3.265,0Z" transform="translate(15.511 47.35) rotate(-90)" fill="#a997ba"/>
      <path id="Path_210-4" data-name="Path 210" d="M2.449,0H8.572c2.449,0,4.9,3.674,4.9,6.123s-2.485,6.123-4.9,6.123H2.449A2.449,2.449,0,0,1,0,9.8V2.449A2.449,2.449,0,0,1,2.449,0Z" transform="translate(17.142 44.9) rotate(-90)" fill="#cfd8dc"/>
      <path id="Path_258" data-name="Path 258" d="M8.164,0A8.164,8.164,0,1,1,0,8.164,8.164,8.164,0,0,1,8.164,0Z" transform="translate(93.064 15.511)" fill="#cb7885"/>
      <path id="Path_256" data-name="Path 256" d="M8.164,0A8.164,8.164,0,1,1,0,8.164,8.164,8.164,0,0,1,8.164,0Z" transform="translate(80.003 30.206)" fill="#7295cf"/>
      <path id="Path_262" data-name="Path 262" d="M8.164,0A8.164,8.164,0,1,1,0,8.164,8.164,8.164,0,0,1,8.164,0Z" transform="translate(80.003 0.816)" fill="#8c9695"/>
      <path id="Path_259" data-name="Path 259" d="M8.164,0A8.164,8.164,0,1,1,0,8.164,8.164,8.164,0,0,1,8.164,0Z" transform="translate(66.942 15.511)" fill="#c3649c"/>
      <path id="Path_263" data-name="Path 263" d="M6.123,0A6.123,6.123,0,1,1,0,6.123,6.123,6.123,0,0,1,6.123,0Z" transform="translate(81.637 2.449)" fill="#a5d6a7"/>
      <path id="Path_260" data-name="Path 260" d="M6.123,0A6.123,6.123,0,1,1,0,6.123,6.123,6.123,0,0,1,6.123,0Z" transform="translate(94.698 17.144)" fill="#ffab91"/>
      <path id="Path_257" data-name="Path 257" d="M6.123,0A6.123,6.123,0,1,1,0,6.123,6.123,6.123,0,0,1,6.123,0Z" transform="translate(81.637 31.839)" fill="#81d4fa"/>
      <path id="Path_261" data-name="Path 261" d="M6.123,0A6.123,6.123,0,1,1,0,6.123,6.123,6.123,0,0,1,6.123,0Z" transform="translate(68.575 17.144)" fill="#f48fb1"/>
    </g>
    <path id="Path_265" data-name="Path 265" d="M247.488,134.773c-1.955-.69-18.345-8.877-19.524-9.715s-1.782-1.034-2.344-2.731a131.452,131.452,0,0,0-4.534-14.551c-2.759-7.027-6.055-12.094-6.3-13.383s1.072-1.643,2.134-1.578,4.43.171,9.316.261c2.311.042,4.753-.042,6.659-.127,1.729-.077,3.021-.154,3.372-.136a3.674,3.674,0,0,1,3.158,2.559,91.577,91.577,0,0,1,4.973,15.164c2.45,9.6,4.319,20.567,4.536,21.552.345,1.57.464,2.849-.616,2.85A2.576,2.576,0,0,1,247.488,134.773ZM33.3,132.1c.217-.988,2.087-11.959,4.537-21.552A91.667,91.667,0,0,1,42.81,95.38a3.674,3.674,0,0,1,3.159-2.559c.353-.019,1.643.058,3.371.136,1.906.082,4.348.169,6.66.127,4.885-.091,8.255-.2,9.316-.261s2.374.289,2.133,1.578-3.536,6.356-6.3,13.383a131.614,131.614,0,0,0-4.534,14.551c-.561,1.7-1.164,1.9-2.343,2.731s-17.569,9.022-19.524,9.715a2.576,2.576,0,0,1-.834.173C32.837,134.946,32.957,133.666,33.3,132.1Zm218.379-2.172c-.158-.627-2.286-11.64-4.73-20.9-2.1-7.954-3.935-12.641-4.512-14.527s-1.009-3.587.314-5.319c.848-1.113,3.285-4.01,5.461-6.866,1.452-1.9,3.039-3.866,3.946-5.089,3.415-4.61,4.783-1.477,5.456,0s1.972,4.082,3.63,8.086a71.474,71.474,0,0,1,3.463,9.912c.291,2.139.635,2.43,0,5.028-.516,2.114-9.952,28.41-10.729,30.146-.294.66-.653.914-1,.914-.571,0-1.115-.682-1.293-1.387ZM28.258,130.4c-.777-1.738-10.211-28.031-10.727-30.148-.635-2.6-.291-2.889,0-5.028a71.476,71.476,0,0,1,3.463-9.912c1.657-4,2.957-6.613,3.63-8.086s2.041-4.61,5.455,0c.906,1.225,2.494,3.184,3.945,5.088,2.177,2.857,4.613,5.754,5.462,6.866,1.323,1.732.891,3.434.314,5.319s-2.409,6.572-4.512,14.527c-2.449,9.258-4.572,20.27-4.73,20.9-.178.705-.722,1.388-1.295,1.388-.349,0-.709-.254-1-.914ZM214.931,88.682a6,6,0,0,1-3.424-2.306c-.9-1.238-2.216-4-5.617-9.885s-7.98-11.2-8.636-12.707a1.736,1.736,0,0,1,1.406-2.542c.794-.136,18.719-1.976,20.2-2.106s2.3.163,3.467,1.665a137.844,137.844,0,0,1,8.049,12.943c2.747,5.075,5.412,10.273,5.764,11.222.675,1.818-.4,3.429-1.432,3.475-.776.037-10.781.375-16.286.375a23.943,23.943,0,0,1-3.488-.134Zm-167.4-.245c-1.033-.048-2.106-1.657-1.431-3.475.352-.949,3.021-6.146,5.764-11.221A137.652,137.652,0,0,1,59.913,60.8c1.166-1.5,1.988-1.8,3.467-1.665s19.405,1.971,20.2,2.107a1.736,1.736,0,0,1,1.407,2.542c-.653,1.508-5.235,6.818-8.636,12.706s-4.722,8.646-5.617,9.885a6,6,0,0,1-3.425,2.306,23.942,23.942,0,0,1-3.488.133c-5.5,0-15.509-.336-16.286-.372Zm190.623-5.448c-.521-1.009-4.153-7.733-7.056-12.753s-4.87-7.811-5.693-9.29-1.913-2.776-1.411-5.2a133.523,133.523,0,0,1,3.569-13.5c1.776-5.4,3.442-3.792,5.152-1.832.874,1,5.589,6.2,10.292,12.55a110.9,110.9,0,0,1,8.506,13.446,4.439,4.439,0,0,1,.562,4c-.465,1.852-9.854,12.654-11.011,13.388a2.086,2.086,0,0,1-1.118.34,2.041,2.041,0,0,1-1.789-1.145Zm-196.99.8c-1.157-.729-10.547-11.537-11.011-13.388a4.439,4.439,0,0,1,.562-4,111.1,111.1,0,0,1,8.507-13.447c4.7-6.342,9.417-11.548,10.291-12.549,1.714-1.959,3.376-3.566,5.152,1.832a133.374,133.374,0,0,1,3.57,13.5c.5,2.426-.588,3.724-1.411,5.2s-2.79,4.269-5.693,9.289S44.6,81.978,44.076,82.987a2.041,2.041,0,0,1-1.8,1.143A2.087,2.087,0,0,1,41.17,83.8ZM87.24,57.931c-.584-.082-5.967-.435-10.378-.98-5.168-.633-8.847-1.447-9.357-1.514a1.469,1.469,0,0,1-.871-2.5,112.528,112.528,0,0,1,9.609-10.473c5.456-5.163,7.669-6.8,8.987-7.5a2.919,2.919,0,0,1,3.19-.077c.531.263,3.729,1.622,6.858,3.279,4.07,2.157,8.115,4.639,8.434,4.828.735.432,1.373,1.4.46,2.265s-3.9,2.892-7.469,6.256-5.1,5.269-6.139,5.866A4.626,4.626,0,0,1,88.185,58a6.9,6.9,0,0,1-.939-.062Zm104.426-.548c-1.033-.6-2.571-2.5-6.138-5.866s-6.558-5.388-7.47-6.256-.272-1.833.461-2.265c.319-.188,4.363-2.67,8.434-4.829,3.127-1.656,6.325-3.016,6.857-3.279a2.921,2.921,0,0,1,3.19.078c1.318.7,3.53,2.339,8.987,7.5A112.673,112.673,0,0,1,215.6,52.939a1.469,1.469,0,0,1-.871,2.5c-.511.068-4.19.882-9.358,1.514-4.408.54-9.8.9-10.377.98a6.917,6.917,0,0,1-.942.069,4.631,4.631,0,0,1-2.376-.618Zm26.418-5.633c-.848-.755-5.137-6-9.6-10.433s-5.77-5.61-7.068-6.694-2.781-1.907-3.184-4.352a65.281,65.281,0,0,1-.523-6.715c-.075-2.021-.105-3.79-.092-5.215.033-3.623.939-4.026,3.8-2.326s4.464,2.1,10.311,6.416,11.2,8.81,11.847,9.394a4.441,4.441,0,0,1,1.959,3.532c.229,1.893-3.625,15.009-4.443,16.1a1.976,1.976,0,0,1-1.6.843,2.128,2.128,0,0,1-1.4-.551ZM61.137,51.458c-.816-1.095-4.672-14.211-4.444-16.1a4.436,4.436,0,0,1,1.959-3.532c.647-.584,6-5.073,11.847-9.394s7.453-4.715,10.311-6.416,3.764-1.3,3.8,2.326c.013,1.424-.017,3.193-.092,5.214a65.277,65.277,0,0,1-.523,6.715c-.4,2.444-1.883,3.265-3.184,4.352S78.2,36.885,73.74,41.314,65,51,64.149,51.751a2.128,2.128,0,0,1-1.4.551,1.976,1.976,0,0,1-1.606-.843ZM107.18,40.535c-.476-.282-4.25-2.789-7.586-4.73-3.728-2.17-7.016-3.772-7.408-4-.785-.459-.9-1.993.558-2.769s6.249-3.577,12.464-6.517,11.939-5.1,13.378-5.245a2.573,2.573,0,0,1,2.751,1.04,35.988,35.988,0,0,1,2.889,6.547c1.075,3.126,1.808,6.443,1.989,6.995a2.353,2.353,0,0,1-1.333,2.962,57.505,57.505,0,0,0-7.192,2.776c-4.565,2.061-6.286,3.466-7.433,3.625a4.653,4.653,0,0,1-.629.043,4.715,4.715,0,0,1-2.438-.724Zm64.783.679c-1.15-.158-2.869-1.562-7.433-3.624a57.633,57.633,0,0,0-7.192-2.776,2.354,2.354,0,0,1-1.333-2.962c.18-.552.914-3.868,1.988-7a35.963,35.963,0,0,1,2.89-6.546,2.572,2.572,0,0,1,2.751-1.041c1.439.147,7.163,2.305,13.378,5.245s11.008,5.742,12.464,6.517,1.343,2.311.558,2.769c-.392.229-3.68,1.831-7.408,4-3.336,1.941-7.109,4.449-7.586,4.73a4.71,4.71,0,0,1-2.449.723,4.633,4.633,0,0,1-.618-.041Zm-41.85-9.93a46.7,46.7,0,0,1-2.531-6.449c-1.032-3.194-1.375-5.444-1.6-6.071a2.137,2.137,0,0,1,1.6-3.034,50.6,50.6,0,0,1,27.083,0,2.136,2.136,0,0,1,1.6,3.032c-.221.627-.564,2.877-1.6,6.071a46.7,46.7,0,0,1-2.531,6.449c-.49.767-1.286,1.855-2.176,1.855h-.082c-.926-.07-5.212-.49-8.748-.49s-7.822.421-8.747.49H132.3C131.4,33.139,130.6,32.052,130.113,31.284Zm60.316-4.6c-1.158-.447-6.743-3.862-13-6.652s-10.522-4.5-12.269-5.123a5.532,5.532,0,0,1-3.476-2.794c-.98-1.606-1.187-2.963-2.367-6.933s-.5-4.119,3.09-3.413A106.434,106.434,0,0,1,175.124,4.95a128.963,128.963,0,0,1,14.838,5.5c1.812.713,2.4,1.006,3.331,2.73.5.919.571,3.362.61,6.427a23.619,23.619,0,0,1-.46,5.84,2.094,2.094,0,0,1-2.059,1.412A2.658,2.658,0,0,1,190.429,26.681ZM88.791,25.448a23.558,23.558,0,0,1-.46-5.839c.038-3.067.113-5.509.611-6.427.932-1.725,1.518-2.016,3.331-2.73a128.9,128.9,0,0,1,14.838-5.5,106.638,106.638,0,0,1,12.72-3.184c3.592-.707,4.267-.558,3.09,3.413s-1.388,5.328-2.367,6.933a5.533,5.533,0,0,1-3.476,2.794c-1.748.619-6.009,2.333-12.269,5.124s-11.846,6.2-13,6.652a2.658,2.658,0,0,1-.955.18A2.1,2.1,0,0,1,88.791,25.448Zm66.988-11.7a102.4,102.4,0,0,0-14.659-1.423h0a102.505,102.505,0,0,0-14.661,1.419c-1.136.216-1.271-1.26-1.128-2.255s.471-2.652.951-4.555a27.577,27.577,0,0,1,1.559-4.676c.571-1.061,1.087-1.271,2.665-1.647A58.505,58.505,0,0,1,141.12,0a58.21,58.21,0,0,1,10.613.617c1.574.377,2.09.585,2.665,1.647a27.643,27.643,0,0,1,1.559,4.676c.481,1.9.806,3.56.951,4.555.134.928.024,2.276-.916,2.276a1.113,1.113,0,0,1-.211-.021Z" transform="translate(-8954.499 -586.111)" fill="#1cab8f"/>
    <path id="Path_264" data-name="Path 264" d="M33.3,132.42c.216-.988,2.087-11.959,4.536-21.552a109.785,109.785,0,0,1,3.734-12.139l.423.02c1.906.088,4.347.176,6.659.132,4.885-.095,8.254-.2,9.316-.273s2.374.3,2.134,1.643-3.537,6.619-6.3,13.937a126.759,126.759,0,0,0-4.155,13.665c-5.355,2.737-13.552,6.77-14.9,7.245a2.572,2.572,0,0,1-.834.173C32.837,135.27,32.957,133.99,33.3,132.42Zm-5.042-1.7c-.778-1.738-10.213-28.031-10.729-30.148-.634-2.6-.291-2.89,0-5.028a71.475,71.475,0,0,1,3.463-9.912c.761-1.838,1.447-3.381,2.031-4.653a10.346,10.346,0,0,1,2.647,2.39c1.143,1.351,3.139,3.529,4.97,5.633,2.747,3.158,5.8,6.382,6.867,7.613a4.886,4.886,0,0,1,1.056,1.849c-.854,2.521-2.017,6.115-3.279,10.884-2.449,9.258-4.572,20.27-4.73,20.9-.178.705-.722,1.388-1.294,1.388C28.914,131.636,28.554,131.382,28.259,130.722Zm217.356-6.238c-2.209-.685-20.61-8.754-22.2-9.691-.646-2.077-1.426-4.383-2.332-6.69-2.761-7.027-6.056-12.094-6.3-13.383s1.072-1.643,2.135-1.578,4.43.171,9.315.261c2.311.042,4.753-.042,6.66-.127,1.73-.077,3.021-.154,3.372-.136a3.674,3.674,0,0,1,3.159,2.559,91.453,91.453,0,0,1,4.973,15.163c1.165,4.563,2.2,9.436,2.986,13.4a.865.865,0,0,1-.816.393,3.293,3.293,0,0,1-.953-.171Zm1.333-15.134c-2.1-7.954-3.936-12.641-4.513-14.527s-1.009-3.587.313-5.319c.849-1.113,3.285-4.01,5.462-6.866,1.452-1.9,3.039-3.866,3.945-5.089a8.274,8.274,0,0,1,1.919-1.984c.633,1.367,1.4,3.079,2.268,5.173a71.472,71.472,0,0,1,3.463,9.912c.291,2.139.635,2.43,0,5.028-.427,1.75-6.964,20.062-9.645,27.308-.852-3.981-1.99-9.023-3.208-13.635ZM47.534,88.763c-1.033-.048-2.107-1.657-1.432-3.475.353-.949,3.021-6.146,5.764-11.221,1.675-3.094,3.866-6.667,5.585-9.326,5.738.583,15.745,1.62,16.333,1.722A1.737,1.737,0,0,1,75.19,69c-.653,1.509-5.235,6.818-8.636,12.706-1.981,3.429-3.257,5.8-4.153,7.421C56.754,89.084,48.248,88.8,47.534,88.763ZM41.17,84.12c-1.157-.729-10.547-11.537-11.011-13.388a4.439,4.439,0,0,1,.562-4,110.88,110.88,0,0,1,8.506-13.444c3.134-4.226,6.271-7.947,8.277-10.255a18.8,18.8,0,0,1,1.434,2.785c2.747,6.368,4.98,12.987,5.878,15.807a6.262,6.262,0,0,1,.332,2.355c-1.008,1.583-2.358,3.719-4.013,6.58-2.9,5.021-6.531,11.745-7.056,12.754a2.045,2.045,0,0,1-1.8,1.143A2.09,2.09,0,0,1,41.17,84.12Zm167.7-3.473q-.484-.1-.934-.245c-.583-1.044-1.257-2.236-2.041-3.592-3.4-5.888-7.98-11.2-8.636-12.706a1.736,1.736,0,0,1,1.406-2.542c.794-.136,18.719-1.976,20.2-2.106s2.3.163,3.467,1.665a137.562,137.562,0,0,1,8.048,12.943c1.041,1.923,2.071,3.865,2.967,5.586a1.76,1.76,0,0,1-.673.189c-1.071.067-16.7.878-22.093.878a11.864,11.864,0,0,1-1.709-.068ZM231.1,70.563c-2.9-5.021-4.87-7.811-5.693-9.29S223.5,58.5,224,56.069a133.373,133.373,0,0,1,3.57-13.5,7.981,7.981,0,0,1,1.667-3.239c1.966,2.3,4.608,5.5,7.245,9.062a110.8,110.8,0,0,1,8.507,13.444,4.437,4.437,0,0,1,.563,4c-.4,1.588-7.372,9.774-10.072,12.523-1.328-2.419-2.941-5.316-4.376-7.8ZM76.872,57.281c-5.168-.633-8.847-1.447-9.357-1.514a1.469,1.469,0,0,1-.871-2.5,112.463,112.463,0,0,1,9.6-10.472c2.531-2.4,4.365-4.032,5.735-5.169,1.18.52,3.356,1.484,5.488,2.612,3.742,1.976,7.448,4.27,7.741,4.444a1.33,1.33,0,0,1,.354,2.2c-.886.882-3.755,2.972-7.22,6.395C86.2,55.4,84.8,56.954,83.812,57.97,81.791,57.8,79.195,57.566,76.872,57.281Zm108.666-5.438c-3.568-3.363-6.559-5.388-7.471-6.256s-.272-1.833.46-2.265c.32-.188,4.364-2.67,8.436-4.829,3.126-1.656,6.324-3.016,6.858-3.279a2.923,2.923,0,0,1,3.191.078c1.318.7,3.53,2.339,8.986,7.5a100.531,100.531,0,0,1,7.161,7.549,2.151,2.151,0,0,1-1.189.7c-.585.109-4.826,1.234-10.745,2.286-5.053.9-11.194,1.672-11.864,1.8-.137.026-.274.05-.408.069-.883-.888-1.987-2-3.418-3.352Zm-124.4-.06c-.816-1.095-4.672-14.211-4.444-16.1a4.436,4.436,0,0,1,1.959-3.532c.647-.584,6-5.073,11.847-9.394a55.913,55.913,0,0,1,8.164-5.225,7.078,7.078,0,0,1,.816,3.481c.122,1.669.225,3.739.3,6.1.094,2.908.11,6.106-.029,7.826A7.187,7.187,0,0,1,79.6,36c-1.114,1-2.694,2.505-5.853,5.644-4.461,4.43-8.75,9.678-9.6,10.433a2.123,2.123,0,0,1-1.4.55A1.973,1.973,0,0,1,61.143,51.783ZM208.492,41.642c-4.461-4.43-5.769-5.61-7.067-6.694s-2.781-1.907-3.184-4.352a65.484,65.484,0,0,1-.523-6.715c-.075-2.021-.106-3.79-.092-5.215a6.421,6.421,0,0,1,.4-2.671,55.958,55.958,0,0,1,7.99,5.129c5.845,4.321,11.2,8.81,11.847,9.393a4.439,4.439,0,0,1,1.959,3.532c.2,1.7-2.876,12.433-4.1,15.411C213.872,47.352,211.214,44.346,208.492,41.642ZM99.6,36.13c-3.728-2.17-7.016-3.772-7.408-4-.785-.459-.9-1.993.558-2.769S99,25.784,105.218,22.843a107.845,107.845,0,0,1,11.607-4.794c.032.037.063.075.095.114a31.29,31.29,0,0,1,2.593,6.138c.94,2.939,1.543,6.078,1.7,6.6a2.383,2.383,0,0,1-1.4,2.869,61.187,61.187,0,0,0-7.109,2.888c-3.667,1.721-5.493,2.965-6.653,3.475-1.472-.949-4.07-2.619-6.446-4Zm64.936,1.785a57.541,57.541,0,0,0-7.193-2.776,2.354,2.354,0,0,1-1.333-2.962c.18-.552.914-3.868,1.989-7a36.035,36.035,0,0,1,2.889-6.546,2.574,2.574,0,0,1,2.751-1.041c1.438.147,7.162,2.305,13.377,5.245,3.553,1.68,6.64,3.316,8.906,4.553a1.435,1.435,0,0,1-.219.184c-.446.3-4.157,2.487-8.4,5.368-3.8,2.576-8.125,5.848-8.669,6.222q-.336.231-.674.42c-.922-.485-2.042-1.047-3.422-1.67Zm-14.673-6.089c-.926-.07-5.212-.49-8.747-.49s-7.822.421-8.747.49-1.755-1.061-2.26-1.851a46.8,46.8,0,0,1-2.531-6.449c-1.032-3.194-1.375-5.444-1.6-6.072-.014-.04-.027-.082-.04-.121a2.33,2.33,0,0,1,1.633-1.28,50.6,50.6,0,0,1,27.083,0,2.332,2.332,0,0,1,1.637,1.278c-.012.04-.026.082-.04.121-.222.628-.565,2.877-1.6,6.072a46.693,46.693,0,0,1-2.531,6.449c-.49.768-1.285,1.855-2.176,1.855A.628.628,0,0,1,149.867,31.826ZM88.791,25.772a23.575,23.575,0,0,1-.46-5.84c.038-3.067.113-5.509.61-6.428.933-1.724,1.518-2.016,3.331-2.73a129.246,129.246,0,0,1,14.838-5.5,106.368,106.368,0,0,1,11.935-3.029c.245.6.082,1.708-.394,3.557-1.138,4.408-1.334,5.92-2.3,7.7a5.546,5.546,0,0,1-3.452,3.078c-1.742.672-5.991,2.54-12.228,5.585-3.205,1.564-6.23,3.314-8.572,4.712-.118.056-.217.1-.3.131a2.658,2.658,0,0,1-.955.18A2.1,2.1,0,0,1,88.791,25.772Zm88.635-5.419c-6.26-2.789-10.521-4.5-12.269-5.123a5.53,5.53,0,0,1-3.475-2.794c-.98-1.606-1.188-2.963-2.367-6.933-.834-2.814-.735-3.709.667-3.74,2.272.466,4.542,1.02,10.245,2.694a128.924,128.924,0,0,1,14.837,5.5c1.812.714,2.4,1.006,3.332,2.73.5.919.571,3.362.61,6.427a23.62,23.62,0,0,1-.46,5.84,2.059,2.059,0,0,1-.5.8c-2.452-1.347-6.38-3.522-10.617-5.409Zm-21.648-6.279a102.375,102.375,0,0,0-14.658-1.423h0a102.53,102.53,0,0,0-14.661,1.419c-.635.121-.958-.29-1.092-.848.158-1.01.471-2.563.916-4.327a27.624,27.624,0,0,1,1.56-4.676c.571-1.061,1.087-1.271,2.664-1.647a58.4,58.4,0,0,1,10.614-.615,58.2,58.2,0,0,1,10.613.617c1.574.377,2.089.585,2.664,1.647A27.573,27.573,0,0,1,155.956,8.9c.447,1.766.759,3.319.918,4.327-.12.49-.385.87-.882.87a1.121,1.121,0,0,1-.211-.02Z" transform="translate(-8954.5 -586.435)" fill="#36df8e"/>
  </g>
</svg>
