<svg id="timline-1" xmlns="http://www.w3.org/2000/svg" width="300" height="389.833" viewBox="0 0 300 389.833">
  <circle id="Ellipse_135" data-name="Ellipse 135" cx="150" cy="150" r="150" transform="translate(0 45.493)" fill="#636198"/>
  <path id="face" d="M29.08,0h0a30.415,30.415,0,0,0-7.951,1.081,32.565,32.565,0,0,0-7.414,3.034A30.778,30.778,0,0,0,7.39,8.8a25.942,25.942,0,0,0-4.673,6.018A20.685,20.685,0,0,0,0,25.36,23.067,23.067,0,0,0,3.709,37.143c-1.481.3-2.289.841-2.4,1.6-.3,2.074,4.549,5.148,5.766,5.8l.436.233c4.184,2.238,8.511,4.553,13.129,5.242a39.383,39.383,0,0,0,5.83.43,36.609,36.609,0,0,0,15.216-3.158,26.6,26.6,0,0,0,6.451-4.141,22.334,22.334,0,0,0,4.855-6.021,21.016,21.016,0,0,0,2.525-8.481,24.61,24.61,0,0,0-.9-8.712,28.612,28.612,0,0,0-3.726-8.054,28.148,28.148,0,0,0-5.952-6.507A25.235,25.235,0,0,0,29.08,0ZM25.942,44.391a21.866,21.866,0,0,1-16.324-7.12,17.235,17.235,0,0,1-3.515-6.2,17.514,17.514,0,0,1-.612-7.63,20.987,20.987,0,0,1,7.881-13.387A24.648,24.648,0,0,1,20.3,6.091a22.183,22.183,0,0,1,7.752-1.439c.465,0,.931.016,1.389.048a22.48,22.48,0,0,1,20.3,19.07,15.411,15.411,0,0,1-3.5,12.594,21.811,21.811,0,0,1-8.848,5.93,33.066,33.066,0,0,1-10.974,2.092C26.267,44.389,26.1,44.391,25.942,44.391Z" transform="translate(127.502 139.94) rotate(180)"/>
  <path id="Fill_231" data-name="Fill 231" d="M7.2,3.48c0,4.64-7.2,4.64-7.2,0s7.2-4.64,7.2,0" transform="translate(102.478 107.588)"/>
  <path id="Fill_233" data-name="Fill 233" d="M7.808,3.773C7.808,8.8,0,8.8,0,3.773s7.808-5.03,7.808,0" transform="translate(88.519 108.038)"/>
  <path id="Fill_235" data-name="Fill 235" d="M11.331,1.3C12.382,5.119.4,7.076,0,2.66-.187.549,10.6-1.359,11.331,1.3" transform="translate(94.006 120.455)"/>
  <path id="Fill_237" data-name="Fill 237" d="M63.36,7.874c-13.786-1.654-28-.89-41.852-.493-3.467.1-6.933.2-10.4.255C8.9,7.673,4.143,8.731,2.22,7.7-5.658,3.474,9.8,1.431,11.984,1.237a477.273,477.273,0,0,1,48.862-1c4.087.158,4.971,7.935,2.514,7.64" transform="translate(6.858 111.526)"/>
  <path id="Hola_:_" data-name="Hola :)" d="M186.722,43.9c.118,14.444.636,28.986,1.746,43.387.452,5.87.995,11.732,1.444,17.6.212,2.765,1.194,6.638-.431,9.064a4.952,4.952,0,0,1-7.562.8c-2.65-3.431-1.88-9.188-2.21-13.338-.507-6.381-1.119-12.756-1.423-19.151a293.739,293.739,0,0,1,.269-37.326,113.31,113.31,0,0,1,2.842-17.21c.617-2.589,5.523-14.122,4.492-15.712-1.6-2.466-13.415-1.534-15.978-1.6-6.577-.177-13.157-.291-19.736-.417q-8.449-.161-16.9-.234c-2.237-.02-15.379.378-12.464-2.938C88.214,4.557,54.991,8.349,22.589,9.65c-1.637.066-4.315.531-6.786.664a21.579,21.579,0,0,0-.6,3c-.426,5.207-.537,10.432-1,15.639-.845,9.525-2.483,18.954-3.457,28.463S9.873,76.445,9.307,85.967c-.1,1.632-.326,15-3.7,18.244a15.311,15.311,0,0,1,5.662-.565c12.02.97,23.951,3.058,35.868,4.851,3.409.513,11.146.149,13.974,1.853,2.447,1.476,3.416,6.648-.842,6.229-11.882-1.273-23.7-3.248-35.49-5.193-3.153-.52-6.3-1.076-9.443-1.645-2.1-.38-7.644-.35-9.272-1.617-1.978-1.537-2.188-2.583-1.518-3.278-.932.256-2.049-.146-3.391-1.489-2.537-3.3-.152-11.433.15-15.3.363-4.644.542-9.3.754-13.948a231.208,231.208,0,0,1,2.8-26.776c1.623-9.964,3-19.969,4.631-29.93a69.258,69.258,0,0,1,1.681-7.629c-4.384-2.243-1.4-5.809,2.074-6.441l.076-.012C14.4.674,15.921-1.776,17.1,1.767a3.5,3.5,0,0,1,.144.982C26.229,1.732,36.1,2.364,44.942,2,64.094,1.22,83.364.045,102.535.64a222.507,222.507,0,0,1,22.728,1.923c4.409.593,8.836,1.3,13.174,2.285.311.07.783.144,1.329.234l.264.006q9.965.15,19.92.554c5.572.231,11.169.35,16.723.876,3.45.327,10.741.266,12.859,3.735,1.926,3.155-1.294,11.281-1.751,14.824a138.421,138.421,0,0,0-1.06,18.823" transform="translate(194.904 231.831) rotate(180)"/>
  <path id="Fill_241" data-name="Fill 241" d="M22.021.033C27.33.488,32.239,2.981,37.6,3.012c4.5.026,8.924-1.318,13.446-1.12,5.3.231,8.222,3.661,12.868,4.809,3.7.913,6.029-1.918,9.282-3.171,4.108-1.582,7.142-.765,10.663,1.627,2.587,1.758,8.62,5.7,8.573,9.259-.138,10.769-12.7-4.108-15.236-4.288-3.366-.239-7.125,3.6-10.706,3.816-4.735.29-7.77-2.763-12.129-3.874-4.409-1.125-9.174.253-13.594.681-5.043.488-9.456-.636-14.334-1.84a28.957,28.957,0,0,0-13.56-.125C9.626,9.446,1.549,13.29.13,8.347-1.8,1.616,18.31-.283,22.021.033" transform="translate(53.489 146.191)"/>
  <path id="Fill_243" data-name="Fill 243" d="M2.544.014C13.422,1.07,24.366,2,35.293,2.292c4.733.129,22.927-1.9,21.313,4.114-1.383,5.156-26.142,1.91-31.185,1.517C19.854,7.491,14.3,6.886,8.756,6.185c-1.963-.248-6.7.009-8.09-1.638C-.654,2.977,0-.241,2.544.014" transform="translate(71.351 166.75)"/>
  <path id="have_a_nice_day_:_" data-name="have a nice day :)" d="M12.085,0A11.156,11.156,0,0,0,3.376,4.353,15.371,15.371,0,0,0,0,13.628,10.827,10.827,0,0,0,2.509,21.1c1.909,2.178,4.832,3.393,8.453,3.514l.117,0a1.863,1.863,0,0,0,1.535-.714,1.546,1.546,0,0,1,1.009-.594l.032,0a1.96,1.96,0,0,1,.831.421l.118.08a2.351,2.351,0,0,0,1.143.5l.05,0c3.546-.228,5.818-.9,7.662-3.772a10.243,10.243,0,0,0,1.525-5.147,15.833,15.833,0,0,0-.865-5.706C22.67,5.4,19.715,2,16.407.8A12.7,12.7,0,0,0,12.085,0Zm2.4,18.791a2.434,2.434,0,0,1-1.3-.388,4.341,4.341,0,0,0-2.232-.6c-2.866-.091-4.486-1.6-4.446-4.137A8.057,8.057,0,0,1,8.391,8.906a5.806,5.806,0,0,1,4.329-2.355,5.153,5.153,0,0,1,3.67,1.731,10.262,10.262,0,0,1,2.281,4.465c.293,1.189.613,3.394-.53,4.8-.66.813-.933.835-1.429.876a4.517,4.517,0,0,0-.913.151A5.04,5.04,0,0,1,14.489,18.791Z" transform="translate(157.604 211.928) rotate(180)"/>
  <path id="espero" d="M10.118,0h0L9.9,0A9.594,9.594,0,0,0,2.752,3.36,11.671,11.671,0,0,0,.086,12.318c.705,5.739,4.286,8.872,11.268,9.862a9.909,9.909,0,0,0,1.364.1,7.239,7.239,0,0,0,5.458-2.32,11.8,11.8,0,0,0,2.589-8.819,13.447,13.447,0,0,0-2.979-7.658A9.753,9.753,0,0,0,10.118,0ZM8.55,14.286h0l.013,0A3.655,3.655,0,0,1,7.248,10.01a3.469,3.469,0,0,1,3.187-2.746,3.453,3.453,0,0,1,1.226.238,5.36,5.36,0,0,1,2.586,3.528,2.42,2.42,0,0,1-.417,2.241c.044-.046.059-.082.048-.108s-.088-.057-.214-.057a16.67,16.67,0,0,0-2.926.59c-.879.226-1.679.449-2.021.544l-.166.046Z" transform="translate(110.109 209.431) rotate(180)"/>
  <path id="hola" d="M9.1,0h0A8.63,8.63,0,0,0,2.737,2.593,10.058,10.058,0,0,0,.061,8.553a10.69,10.69,0,0,0,1.651,7,10.466,10.466,0,0,0,6.775,4.408,3.269,3.269,0,0,0-1.329,4.409A3.277,3.277,0,0,0,9.885,26.34c3.879,0,8.465-9.157,8.864-11.481a17.387,17.387,0,0,0-.59-8.942,9.216,9.216,0,0,0-2.342-3.551A8.737,8.737,0,0,0,11.7.294,12.238,12.238,0,0,0,9.1,0Zm2.847,12.853h0C7.871,12.494,7.5,10.82,7.533,10.117A2.5,2.5,0,0,1,9.868,7.861a1.638,1.638,0,0,1,1.224.55c.5.544,1.061,1.755.855,4.442Z" transform="translate(46.43 208.269) rotate(180)"/>
  <g id="pose_standing_walking-1" data-name="pose/standing/walking-1" transform="translate(164.317 74.333)">
    <path id="_Skin" data-name="âœ‹ Skin" d="M1.355,308.118c-.9-4.189,3.216-5.605,5.811-6.537,1.858-1.206,8.745-5.38,14.073-10.534,4.36-4.217,7.328-9.622,8.564-10.137,0,0,1.272-.738,1.4-1.286.774-3.211.128-6.2,0-8.151a16.759,16.759,0,0,1-5.955-2.6c-.433.144-1.083.329-1.277-.3-1.343-8.963-1.923-17.821-3.016-26.791-4.137-34.165-4.6-74.078,2.514-105.283a27.4,27.4,0,0,0-.2-4.273c-.962-.1-1.544-1.036-2.33-1.593-1.22-.969-2.664-1.714-2.6-3.409-.29-.219-.256-.343-.113-.622-.93-4,3.22-8.217,4.393-11.516-2.134-20.868.769-40.588-.85-61.461-2.046-.856-.67-6.206-.531-8.413,1.133-14.216,8.523-28.272,21.831-32.916.761-.154,1.9-1.024,2.534-.44,1.217-.482,2.835.468,3.777-.626l-.009-.007A9.69,9.69,0,0,0,50.779,7.4a8.868,8.868,0,0,1-.206,1.1C52.867,2.04,53.445.311,60.83.006c3.327-.044,7.712.055,9.652,3.228.795,1.475.552,3.169,1.045,4.721.906,2.849,4.815,1.472,6.867,2.952,16.425,5.268,29.9,16.021,34.326,33.28.905,2.08,1.932,4.151,2.689,6.3.117.319.439,1.4-.335,1.893l-.374.24c4.93,23.043,5.257,42.459-11.306,57.821-1.243,6.6,1.955,15.615.725,22.024.7.994-.188,1.794-1.083,1.858-.086.048-.435.2-.53.244,1.425,20.116-4.557,47.225-7.194,57.925-.359,6.424,1.834,11.7,6.344,15.2,4.984,3.069,14.836,16.932,13.01,31.474a35.525,35.525,0,0,1,6.3,1.451c8.961-1.582,8.872,15.693,9.443,21.766.967,10.17,1.568,24.91-8.093,31.419-2.545,1.846-7.706,4.008-10.35,1.053a3.1,3.1,0,0,1-.743-3.11c-4.367-6.17-3.19-14.24-3.591-21.476-1.266-.076-2.591.518-3.816.3-1.257-1.108,3.329-.806,3.8-.871-.049-1.116-.138-2.291-.254-3.416a17.486,17.486,0,0,1-2.333.516.482.482,0,0,1-.452-.756c.54-.515,1.916-.435,2.691-.508-.131-.942-.291-1.932-.469-2.843-.948-.034-1.926.57-2.824.446.679-.453,1.954-.315,2.782-.615a50.894,50.894,0,0,0-2.655-8.462,13.059,13.059,0,0,1-7.1.763c-1,.154-1.486-.051-1.648-1.3l.064-.079c-1.936-11.585-8.184-22.63-19.788-35.155a44.244,44.244,0,0,1-6.608-8.963c-3.468-7.028-4.06-14.783-6.732-22.082-2.495-7.336-5.906-14.354-9.109-21.308-.47,3.564-1.1,7.221-1.756,10.716-2.887,12.385-2.607,25.6-.482,38.052,3.143,17.442,1.628,34.967,2.327,52.533a18.868,18.868,0,0,0,.013,2.988c.02.081-.019.177-.115.175l-.181.005c-1.511,1.106-3.6,1.306-5.372,1.906-.745.59-.536,1.525-.6,2.254a60.016,60.016,0,0,0-.135,9.534c1.37,2.625,3.071,2.082,3.419,5.782.3,4.224.843,8.716-1.214,12.477l.778.134c1.155,2.424.45,4-2.265,5.022-13.4,5.254-32.258,10.025-46.241,6.059-.254.252-.624-.009-.913-.406a1.958,1.958,0,0,1-.436-1.179C.245,310.7-.083,308.356,1.355,308.118Z" transform="translate(0.667 0)" fill="#d08b5b"/>
    <path id="_Top" data-name="ðŸ‘• Top" d="M11.441,0h0l-.124.85a18.694,18.694,0,0,0-.172,2.8l0,.406.006.323.007.266c0,.151.01.314.016.5l.051,1.4.013.415,0,.2c0,.1,0,.194.005.278l0,.285-.012.3-.015.394-.01.282c-.095,2.883-.06,5.631.138,10.891L11.411,21l1.013-1.049.485-.5.708-.726c1.456-1.487,3.017-3.05,5.389-5.4l5.919-5.841,1.14-1.133.558-.555-2.3-.286-.483-.062L23.47,5.4,23.1,5.348a30.209,30.209,0,0,1-5.579-1.173A11.706,11.706,0,0,1,12.056.736L11.992.66,11.442,0ZM77.483,2.094a28.86,28.86,0,0,0-3.908.278c-1.314.178-2.774.452-4.463.836l-.73.169-.424.1-.521.127-.532.131-2.521.629-.795.2-.462.112c-1.821.437-3.013.687-4.4.919a33.339,33.339,0,0,1-5.545.5c-.423,0-.848-.01-1.264-.03l-.167-.008-.1-.005-.088.042a29.682,29.682,0,0,0-3.211,1.787A30.189,30.189,0,0,0,45.4,10.039a33.653,33.653,0,0,0-2.742,2.552c-.869.9-1.735,1.9-2.573,2.954l-.226.286-.141.181a54.983,54.983,0,0,0-3.279,4.723c-1.038,1.659-2.242,3.722-4.028,6.9l-.859,1.53-.6,1.069-.394.693C28.8,34,27.7,35.8,26.343,37.77a48.5,48.5,0,0,1-3.377,4.408,35.033,35.033,0,0,1-3.612,3.62l-.129.11-.016.014a4.355,4.355,0,0,0-1.053,1.391l-.024.056-.037.089.067.679.07.727C18.785,54.742,19.38,62.876,20,73.042l.112,1.856-3.035,1.179-1.4.539-.3.115-.359.135L14.646,77l-.36.133c-1.579.58-2.975,1.056-4.268,1.454l-.3.092A29.88,29.88,0,0,1,1.462,80.2H.879l.017.077-.014,0a1.707,1.707,0,0,0-.308.065l-.047.016-.046.018a.768.768,0,0,0-.418.367.713.713,0,0,0-.011.562l.012.032.08.291c.7,2.537,1.478,4.958,2.3,7.2.834,2.267,1.749,4.43,2.719,6.429a56.7,56.7,0,0,0,3.18,5.712,48.9,48.9,0,0,0,3.685,5.045l.16.19.164.193c5.893,6.9,13.592,11.784,23.537,14.934l.3.1.6.187-.106-.618a7.317,7.317,0,0,1,.675-4.719,9.82,9.82,0,0,1,3.629-3.694,17.139,17.139,0,0,1,2.533-1.29,23.333,23.333,0,0,1,2.943-.984,29.127,29.127,0,0,1,3.256-.659,33.234,33.234,0,0,1,3.472-.315c.437-.017.88-.025,1.317-.025a26.631,26.631,0,0,1,11.291,2.248c3.644,1.761,5.53,4.333,5.454,7.438l0,.1-.023.606.557-.239a28.438,28.438,0,0,0,9.249-6.429,34.548,34.548,0,0,0,6.561-9.813,41.313,41.313,0,0,0,1.979-5.337,44.31,44.31,0,0,0,1.263-5.616,44.96,44.96,0,0,0,.531-5.74,43.048,43.048,0,0,0-.218-5.708l-.025-.228-.05-.444-.432.116a1.408,1.408,0,0,1-.361.041c-.957,0-2.844-.632-5.457-1.828l-.258-.119-1.406-.977-.024-.724c-.117-3.673-.176-7.264-.176-10.673s.06-6.733.177-9.88.3-6.2.53-9.086.531-5.673.882-8.292.766-5.142,1.234-7.5,1-4.611,1.586-6.7,1.237-4.081,1.938-5.91a48.9,48.9,0,0,1,2.29-5.115l.2-.379.207-.381c.115-.215.248-.447.421-.73l.2-.318.3-.477.162-.262.079-.13a10.653,10.653,0,0,0,.7-1.305,5.209,5.209,0,0,0,.478-1.929l0-.08V7.478l.013-.025a.7.7,0,0,0-.016-.633l-.017-.03-.006-.01L94.3,6.574,94.12,6.54,94.1,6.517a2.306,2.306,0,0,0-1.048-.5L92.986,6l-.06-.014c-.091-.021-.188-.04-.3-.061l-.416-.073-.5-.1-.631-.123L90.9,5.6l-.179-.037A9.5,9.5,0,0,1,88.3,4.783a25.008,25.008,0,0,0-2.489-1.14,22.659,22.659,0,0,0-2.5-.816,22.09,22.09,0,0,0-2.527-.508A23.249,23.249,0,0,0,78.212,2.1C77.97,2.1,77.725,2.094,77.483,2.094Z" transform="translate(115.014 132.568) rotate(180)" fill="#36df8e"/>
    <path id="_Shoes" data-name="ðŸ‘Ÿ Shoes" d="M118.86,0c-2.414,0-5.036.107-7.58.309-2.2.175-4.24.416-5.605.662-1.207.218-5.243,1.106-10.014,2.464C92.984,4.2,90.5,4.986,88.29,5.779a56.885,56.885,0,0,0-6.782,2.864,2.081,2.081,0,0,0-1.152,1.879,5.433,5.433,0,0,0,.458,2.214,3.223,3.223,0,0,0,.487.756c.154.194.266.335.206.394-2,2-1.241,6.582-.833,9.044h0a12.051,12.051,0,0,1,.194,1.441,6.6,6.6,0,0,0,1.511,3.13,10.24,10.24,0,0,1,.968,1.555,15.534,15.534,0,0,1,.64-2.1,11.06,11.06,0,0,1,1.1-2.2,4.831,4.831,0,0,1,.95-1.043,4.678,4.678,0,0,1,1-.623,3.814,3.814,0,0,1,1.5-.381.514.514,0,0,1,.165.018l.037.016.027.014A13.653,13.653,0,0,1,90,24.217a77.9,77.9,0,0,0,5.141,5.971,22.044,22.044,0,0,0,3,2.616,7.923,7.923,0,0,0,1.4.795,3.259,3.259,0,0,0,1.247.292,1.743,1.743,0,0,0,.8-.184c.877-.449,1.541-1.7,2.245-3.017a11.053,11.053,0,0,1,2.231-3.248,30.809,30.809,0,0,0,3.019-3.061c.791-.877,1.609-1.784,2.613-2.778a40.215,40.215,0,0,1,3.616-3.178,65.28,65.28,0,0,1,12.746-7.479,2.464,2.464,0,0,0,1.438-1.68,3.458,3.458,0,0,0,.087-1.047,5.275,5.275,0,0,0-.17-1.028.177.177,0,0,1,.02-.142c.1-.172.49-.258.83-.334.259-.058.482-.108.5-.183a.063.063,0,0,0-.024-.062c-.124-.124-.167-.362-.138-.75a11.659,11.659,0,0,1,.193-1.215c.24-1.251.512-2.669-.31-3.021C127.624.257,122.584,0,118.86,0ZM15.325,18.671a11.862,11.862,0,0,0-3.764.713,8.7,8.7,0,0,0-1.733.9,18.3,18.3,0,0,0-2.417,1.881,21,21,0,0,0-4.929,6.809,18.855,18.855,0,0,0-1.1,3.305,34.56,34.56,0,0,0-.667,3.743c-.332,2.6-.47,5.339-.6,7.992-.019.373-.04.8-.061,1.2a68.067,68.067,0,0,0,.51,10.9c.228,1.937.51,3.806.838,5.556a47.375,47.375,0,0,0,1.082,4.645,18.458,18.458,0,0,0,2.49,5.518,6.5,6.5,0,0,0,1.734,1.723l.105.073c.045.033.7.179,1.75.391.9.182,1.756.343,1.906.36l.054.006.043,0,.024.009a11.02,11.02,0,0,0,2.079.563,22.058,22.058,0,0,0,2.559.276l.118.007.439.023h0c.024-.03.24-.305.452-.634a2.362,2.362,0,0,0,.44-1.028,42.816,42.816,0,0,0-.76-6.34,22.575,22.575,0,0,1-.436-3.291l0-.144,0-.053a3.942,3.942,0,0,1,.287-1.027,7.81,7.81,0,0,1,.787-1.471,5.584,5.584,0,0,1,3.19-2.381,2.449,2.449,0,0,1,.571-.057,8.654,8.654,0,0,1,1.736.229c.564.121,1.207.291,1.91.5,1.193.361,2.167.728,2.177.732-.006-.017-.694-1.93-1.42-4.61-.43-1.585-.792-3.134-1.077-4.6a42.813,42.813,0,0,1-.7-5.108c-.15-2.149-.192-4.442-.232-6.66-.03-1.636-.06-3.328-.135-4.922-.083-1.784-.214-3.266-.4-4.53a14.905,14.905,0,0,0-1.216-3.929,17.244,17.244,0,0,0-2.109-3.488c-.2-.25.145-.612.477-.962.313-.33.609-.642.418-.829-.052-.05-.107-.108-.172-.175h0a5.893,5.893,0,0,0-1.411-1.14,5.111,5.111,0,0,0-1.2-.479A6.5,6.5,0,0,0,15.325,18.671ZM83.347,29.057h0a2.353,2.353,0,0,0-.107,1.013.027.027,0,0,0,.022.012c.036,0,.091-.071.163-.212a.962.962,0,0,0-.078-.813Z" transform="translate(131.639 314.641) rotate(180)" fill="#fff"/>
    <path id="_Ink" data-name="ðŸ– Ink" d="M120.237,0h0a65.684,65.684,0,0,0-9.575.79c-3.089.461-6.428,1.126-9.923,1.977-3.018.734-6.13,1.6-9.247,2.572-2.624.818-5.234,1.71-7.548,2.577l-.179.072a8.871,8.871,0,0,0-2.038,1.027,2.827,2.827,0,0,0-.72.777,2.607,2.607,0,0,0-.362,1.095,5.562,5.562,0,0,0,.144,1.775c.111.491.364,1.33.821,1.434a11.25,11.25,0,0,0-.852,2.516,16.269,16.269,0,0,0-.337,2.654,44.4,44.4,0,0,0,.177,5.456c.031.428.067.914.1,1.373.319,2.582.982,3.25,1.9,4.173a11.56,11.56,0,0,1,1.521,1.8,41.942,41.942,0,0,1-.041,7.27v.007c-.029.449-.06.914-.089,1.4a3.876,3.876,0,0,0-.024.57,3.979,3.979,0,0,1-.04.72.853.853,0,0,1-.3.552c-.221.054-.446.107-.7.166a13.874,13.874,0,0,0-4.487,1.614.766.766,0,0,0-.565.268.78.78,0,0,0-.165.636,10.435,10.435,0,0,1,.036,2v0c-.014.3-.028.608-.03.918.152,2.436.239,5.139.267,8.264h-.063c.026,3.156-.017,6.367-.058,9.473v0c-.053,3.994-.109,8.123-.018,12.182.049,2.185.134,4.175.262,6.085.143,2.143.335,4.131.587,6.077.333,3.511.821,7.073,1.293,10.518v0c.479,3.494.974,7.107,1.308,10.669.179,1.918.3,3.669.365,5.353.075,1.89.081,3.647.019,5.373-.04,1.336-.127,2.692-.268,4.148-.125,1.3-.29,2.644-.5,4.118-.4,2.737-.907,5.506-1.4,8.184-.518,2.811-1.053,5.718-1.458,8.6l-.178-.384-.412-.888h0c-1.35-2.911-2.745-5.921-4.037-8.914-1.449-3.357-2.609-6.333-3.548-9.1a84.935,84.935,0,0,1-2.615-9.283c-.52-2.16-1.059-4.392-1.709-6.55-.35-1.161-.7-2.209-1.083-3.2-.425-1.116-.868-2.136-1.356-3.119a31.473,31.473,0,0,0-3.049-4.751c-1.2-1.576-2.522-3.085-3.655-4.354A98.658,98.658,0,0,1,44.033,80.679c-.882-1.463-1.7-2.941-2.431-4.392-.762-1.514-1.452-3.046-2.051-4.553-.623-1.567-1.166-3.154-1.614-4.717a46.122,46.122,0,0,1-1.119-4.884.9.9,0,0,0,.06-.087,4.578,4.578,0,0,0-.35-1.311,1.5,1.5,0,0,0-.991-.862,7.391,7.391,0,0,1-.982.064,8.45,8.45,0,0,1-1.735-.181c-.239-.02-.485-.029-.732-.029a11.116,11.116,0,0,0-2.163.226,15.914,15.914,0,0,0-2.092.579l-.08-.214-.1-.278a45.375,45.375,0,0,1-2.1-6.678,6.9,6.9,0,0,1,.8-.116h0a2.791,2.791,0,0,0,1.724-.564.614.614,0,0,0,.165-.556.7.7,0,0,0-.448-.469,1.561,1.561,0,0,0-.469-.068,4.214,4.214,0,0,0-1.133.22,5.28,5.28,0,0,1-.908.206c-.093-.5-.176-1-.256-1.547.772-.042,1.937-.106,2.442-.691a1.087,1.087,0,0,0,.241-.844,1.084,1.084,0,0,0-1.177-.969,5.591,5.591,0,0,0-1.366.254h0c-.138.037-.269.073-.4.1-.064-.671-.114-1.345-.148-2,.1,0,.2,0,.318,0,.172,0,.345,0,.527.007h.023c.173,0,.369.007.561.007a6.751,6.751,0,0,0,1.1-.072,2.967,2.967,0,0,0,1-.333.947.947,0,0,0,.456-.951.911.911,0,0,0-.21-.467.946.946,0,0,0-.48-.293,2.893,2.893,0,0,0-.706-.08,8.126,8.126,0,0,0-1.418.172,8.936,8.936,0,0,1-1.246.166c-.063-1.4-.074-2.875-.084-4.3h0c-.041-5.774-.084-11.744-3.426-16.639a3.283,3.283,0,0,0-.044-1.807,4.658,4.658,0,0,0-.907-1.6,4.918,4.918,0,0,0-1.863-1.295,5.939,5.939,0,0,0-2.178-.386,8.923,8.923,0,0,0-1.921.224,12.626,12.626,0,0,0-1.905.592,15.714,15.714,0,0,0-1.783.842,15.93,15.93,0,0,0-1.554.974,18.7,18.7,0,0,0-2.957,2.615A18.934,18.934,0,0,0,3.67,26.717a21.634,21.634,0,0,0-1.623,3.35A26.85,26.85,0,0,0,.959,33.659a34.935,34.935,0,0,0-.641,3.749c-.141,1.2-.236,2.485-.283,3.821-.077,2.229-.028,4.62.157,7.522.129,1.075.217,2.57.32,4.3v0c.126,2.138.27,4.56.534,7.065a49.767,49.767,0,0,0,1.248,7.346,22.573,22.573,0,0,0,1.076,3.2,11.827,11.827,0,0,0,1.475,2.572,6.383,6.383,0,0,0,1.947,1.713,5.033,5.033,0,0,0,1.174.462,5.365,5.365,0,0,0,1.319.161,6.676,6.676,0,0,0,1.251-.124,24.333,24.333,0,0,0,4.537,1.107c.341.06.694.122,1.049.189a8.965,8.965,0,0,0-.241,3.242A58.011,58.011,0,0,0,17.2,87.912a45.385,45.385,0,0,0,2.562,7.659,37.208,37.208,0,0,0,1.817,3.583,32.876,32.876,0,0,0,2.213,3.342,29.82,29.82,0,0,0,2.637,3.042,28.16,28.16,0,0,0,3.089,2.684,15.752,15.752,0,0,1,2.962,3,15.144,15.144,0,0,1,1.947,3.5,19.173,19.173,0,0,1,1.183,8.093c-1.1,4.476-2.119,9.057-3.024,13.618-1.02,5.14-1.88,10.174-2.556,14.962-.757,5.357-1.286,10.43-1.573,15.076-.155,2.507-.241,4.928-.256,7.2-.016,2.381.046,4.657.183,6.765a2.2,2.2,0,0,0-.875.73,4.1,4.1,0,0,0-.574,1.2,8.858,8.858,0,0,0-.319,1.577,17.524,17.524,0,0,0-.111,1.864,65.729,65.729,0,0,0,.723,8.51h0a39.464,39.464,0,0,1,.474,5.128c0,.471.025.956.047,1.426v0a13.96,13.96,0,0,1-.165,3.754c-1.052.958-2.058,1.962-2.991,2.984-.915,1-1.785,2.05-2.587,3.115-.785,1.043-1.527,2.132-2.2,3.237-.663,1.081-1.283,2.207-1.843,3.348-.548,1.115-1.053,2.276-1.5,3.449-.439,1.146-.838,2.337-1.186,3.541-.339,1.173-.638,2.392-.89,3.621-.245,1.2-.452,2.439-.615,3.692a61.58,61.58,0,0,0-.493,7.557c-.014,2.444.1,5.041.346,7.718a127.713,127.713,0,0,0,2.517,15.6,1.67,1.67,0,0,0-.531.536,1.806,1.806,0,0,0-.238.669,2.546,2.546,0,0,0,0,.729,3.4,3.4,0,0,0,.181.718c.6,1.686,1.362,3.359,2.1,4.977h0l0,0c.188.413.383.84.571,1.26a46.081,46.081,0,0,0,31.524,32.281,12.436,12.436,0,0,1,1.538.671c.637.305,1.36.651,2.05.923a5.44,5.44,0,0,0,1.837.467,1.144,1.144,0,0,0,.479-.089.616.616,0,0,0,.3-.292c1.069.241,2.174.47,3.38.7a9.186,9.186,0,0,1,.729,1.759,10.01,10.01,0,0,1,.367,1.868,4.549,4.549,0,0,1,.042.943h0a2.62,2.62,0,0,0,.235,1.462.1.1,0,0,0,.009.084.032.032,0,0,0,.025.015c.016,0,.032-.017.044-.048a1.582,1.582,0,0,0,.276.027.61.61,0,0,0,.512-.209c.241-.311.126-.918,0-1.412a8.615,8.615,0,0,0,.125-1.662,9.377,9.377,0,0,0-.185-1.658,9.966,9.966,0,0,0-.469-1.6,10.124,10.124,0,0,0-.725-1.5,3.32,3.32,0,0,0-.982-1.3,1.809,1.809,0,0,0-1.061-.417.657.657,0,0,0-.643.36,1.059,1.059,0,0,0,.047.8,4.141,4.141,0,0,0,.811,1.215,7.6,7.6,0,0,1-2.351-.68,2.767,2.767,0,0,1-1.314-1.249c-.4-.85-.2-1.925.592-3.2a5.526,5.526,0,0,1,2.077-2.727,14.42,14.42,0,0,1,3.939-2.011,28.559,28.559,0,0,1,5.126-1.244,37.3,37.3,0,0,1,5.64-.426,28.628,28.628,0,0,1,8.195,1.079,13.457,13.457,0,0,1,3.165,1.385,6.75,6.75,0,0,1,2.123,1.98,5.258,5.258,0,0,1,.152,5.229c-.086.046-.394.145-.783.271h0a11.9,11.9,0,0,0-2.589,1.032c.113-.252.213-.543.32-.851.335-.97.714-2.07,1.639-2.334a.51.51,0,0,0,.3-.147.532.532,0,0,0,.153-.282.368.368,0,0,0-.221-.408,2.039,2.039,0,0,0-.787-.175,1.569,1.569,0,0,0-1.061.426,3.5,3.5,0,0,0-.761,1.062,14.2,14.2,0,0,0-.905,2.732v0c-.07.274-.136.532-.2.743a12.648,12.648,0,0,0-.776,2.9,6.817,6.817,0,0,0-.034,1.465,5.1,5.1,0,0,0,.333,1.419.138.138,0,0,0,.069.02c.361,0,.676-1.592.98-3.133h0a11.084,11.084,0,0,1,.686-2.635.73.73,0,0,1,.141-.019h.008a.436.436,0,0,1,.2-.267,5.856,5.856,0,0,1,1.8-.585h0a6.517,6.517,0,0,0,1.053-.287,1.137,1.137,0,0,0,1.054.539,3.373,3.373,0,0,0,1.39-.371c.28-.106.574-.2.859-.3a7.019,7.019,0,0,0,2.375-1.127,26.612,26.612,0,0,0,4.464-2.4,27.956,27.956,0,0,0,3.854-3.1,33.344,33.344,0,0,0,5.968-7.858,44.13,44.13,0,0,0,3.8-9.264,52.381,52.381,0,0,0,1.808-9.716c.031-.329.092-.767.163-1.276.351-2.512.938-6.717-.72-7.595-.176-2.331-.3-4.7-.381-7.251-.072-2.268-.107-4.624-.107-7.2,0-4.788.124-9.631.243-14.314v0c.134-5.249.273-10.676.237-16.03-.02-2.883-.087-5.516-.205-8.049-.133-2.844-.327-5.492-.593-8.1.849-1.8,1.863-3.686,3.19-5.926a8.99,8.99,0,0,0,1.13-2.711,7.3,7.3,0,0,0,.083-2.911.985.985,0,0,0,.081-.526.78.78,0,0,0-.236-.466c-.1-1.566-1.031-2.26-2.108-3.064-.24-.179-.487-.364-.735-.566a5.931,5.931,0,0,1-.742-.64,3.327,3.327,0,0,0-1.381-.944,25.058,25.058,0,0,1-.154-3.683c.9-3.969,1.7-8.177,2.38-12.5.656-4.172,1.218-8.562,1.67-13.047.435-4.319.778-8.832,1.02-13.415.233-4.409.377-8.987.43-13.608.1-8.743-.127-17.86-.672-27.1-.505-8.571-1.284-17.243-2.314-25.775-.435-3.564-.8-7.2-1.147-10.717V62.82c-.208-2.09-.423-4.251-.651-6.374h-.117c-.1-.932-.183-1.865-.276-2.852v0c-.216-2.313-.44-4.705-.764-6.86a1.111,1.111,0,0,0-.461-.74,1.425,1.425,0,0,0-.817-.235,1.81,1.81,0,0,0-.511.074,13.144,13.144,0,0,0-2.609-1.428,23.768,23.768,0,0,0-2.854-.965c-.092-1.532-.153-2.707-.108-3.887a22.068,22.068,0,0,1,.511-3.83,1.771,1.771,0,0,0,.553.1.8.8,0,0,0,.4-.09.446.446,0,0,0,.221-.319,4.468,4.468,0,0,0,1.116-.693,5.719,5.719,0,0,0,.872-.931,15.729,15.729,0,0,0,1.339-2.258h0a14.36,14.36,0,0,1,1.483-2.442c.213.04.441.092.683.147h0a8.915,8.915,0,0,0,1.9.293,1.858,1.858,0,0,0,1.6-.674.887.887,0,0,0-.072-.8,1.522,1.522,0,0,0-1-.5,9.085,9.085,0,0,0-1.309-.12h0c-.192-.008-.357-.015-.495-.027.622-.78,1.186-1.461,1.725-2.083.27.064.575.162.9.266a7.4,7.4,0,0,0,2.1.462,1.586,1.586,0,0,0,1.192-.437.8.8,0,0,0,.205-.4.662.662,0,0,0-.089-.453,1.714,1.714,0,0,0-.939-.747,5.813,5.813,0,0,0-1.224-.25c-.221-.029-.429-.056-.632-.1.737-.732,1.548-1.459,2.478-2.223.441.166.883.356,1.311.54A12.555,12.555,0,0,0,119,23.036a.855.855,0,0,0,.117.008.834.834,0,0,0,.79-.687.932.932,0,0,0-.035-.549.793.793,0,0,0-.4-.423,10.062,10.062,0,0,0-1.754-.647c-.659-.182-1.34-.318-1.858-.415a21.5,21.5,0,0,1,2.675-1.8c.932-.541,1.909-1.046,2.855-1.534h0c1.138-.588,2.315-1.2,3.416-1.869a14.289,14.289,0,0,0,2.491-1.044,9.049,9.049,0,0,0,2.092-1.527,5.446,5.446,0,0,0,1.641-4.709c1.043-.316,1.083-1.443,1.115-2.349l0-.073c.018-.246.057-.494.094-.733a6.988,6.988,0,0,0,.1-.95,2.463,2.463,0,0,0-.16-.957A2.354,2.354,0,0,0,131.6,1.9a1.811,1.811,0,0,0-.444-.309,1.137,1.137,0,0,0-.492-.12.945.945,0,0,0-.47.126A20.085,20.085,0,0,0,125.612.375,35.608,35.608,0,0,0,120.237,0ZM81.872,13.592h0a8.368,8.368,0,0,1-.3-2.116,2.128,2.128,0,0,1,.391-1.283c.5-.659,1.46-1.005,2.921-1.529l.35-.126c1.945-.649,4.547-1.506,7.425-2.377,3.119-.944,5.972-1.728,8.721-2.4,3.294-.8,6.415-1.424,9.274-1.851,1.6-.239,3.148-.422,4.613-.545,1.559-.131,3.064-.2,4.473-.2a35.874,35.874,0,0,1,5.994.466,24.667,24.667,0,0,1,2.731.622,19.339,19.339,0,0,1,2.509.916,2.1,2.1,0,0,1,.111,1.018,7.2,7.2,0,0,0-.053,1.05,4.317,4.317,0,0,1-.2,1.63,3.67,3.67,0,0,0-.62-1.218,4.3,4.3,0,0,0-.982-.916,6.317,6.317,0,0,0-2.576-.977c-1.135-.218-2.307-.382-3.483-.488-1.122-.1-2.284-.152-3.454-.152a45.975,45.975,0,0,0-5.368.326c-1.675.2-3.412.476-5.309.858-3.52.709-7.05,1.664-10.463,2.587h0c-2.622.709-5.333,1.443-7.981,2.046A23.065,23.065,0,0,0,85.564,10.3a8.388,8.388,0,0,0-2.11,1.3,6.6,6.6,0,0,0-1.583,2Zm2.2,16.069h0a10.108,10.108,0,0,1-1.281-3.092,23.467,23.467,0,0,1-.518-3.281c-.074-1.291-.09-2.4-.047-3.4a16.03,16.03,0,0,1,.316-2.687,8.488,8.488,0,0,1,.71-2.079,6.1,6.1,0,0,1,1.135-1.577A9.075,9.075,0,0,1,88.05,11.47a44.087,44.087,0,0,1,5.735-1.343c.909-.247,1.833-.5,2.727-.751h0c3.233-.9,6.577-1.821,9.917-2.543,1.8-.388,3.453-.688,5.053-.914,1.8-.255,3.482-.412,5.151-.482.98-.082,1.968-.123,2.937-.123h0a33.5,33.5,0,0,1,4.7.329,14.544,14.544,0,0,1,2.431.369,2.964,2.964,0,0,1,1.739,1.055,2.077,2.077,0,0,1,.353,1,4.016,4.016,0,0,1-.153,1.415,4.3,4.3,0,0,1-.843,1.476,5.6,5.6,0,0,1-1.27,1.065,17.236,17.236,0,0,1-3.228,1.437,20.184,20.184,0,0,0-2.677,1.127,28.271,28.271,0,0,0-3.9,2.36,34.262,34.262,0,0,0-3.488,2.886l-.321-.058h-.006a12.847,12.847,0,0,1-2.025-.473,3.7,3.7,0,0,1-1.681-1.1.053.053,0,0,0-.041-.02.063.063,0,0,0-.053.032.051.051,0,0,0,0,.053,4.1,4.1,0,0,0,1.446,1.434,12.478,12.478,0,0,0,1.881.908c-.412.412-.814.846-1.2,1.266h0c-.409.442-.831.9-1.267,1.33a21.458,21.458,0,0,1-2.67-.783,18.78,18.78,0,0,0-2.986-.839c-.005.2.18.473.55.8a9.81,9.81,0,0,0,1.3.916,24.82,24.82,0,0,0,2.519,1.336c-.67.778-1.31,1.587-1.9,2.406a14.466,14.466,0,0,1-3.139-1.192h0a20.453,20.453,0,0,0-2.161-.919,2.406,2.406,0,0,0,.579,1.1,6.543,6.543,0,0,0,1.125,1.014,14.89,14.89,0,0,0,2.579,1.471,11.463,11.463,0,0,0-1.25,2.131,15.279,15.279,0,0,1-1.24,2.175,3.9,3.9,0,0,1-.749.791,2,2,0,0,1-.889.407,31.159,31.159,0,0,1-9.212-8.137c-.163-.218-.325-.452-.482-.678a6.29,6.29,0,0,0-2.063-2.156,3.948,3.948,0,0,0-1.554-.349,2.948,2.948,0,0,0-1.276.287A3.593,3.593,0,0,0,86,23.761a6.929,6.929,0,0,0-1.512,2.8,10.21,10.21,0,0,0-.343,1.6,8.68,8.68,0,0,0-.073,1.5ZM8.362,74.22a7.9,7.9,0,0,1-1.808-1.611,11.419,11.419,0,0,1-1.4-2.17A18.08,18.08,0,0,1,4.1,67.829a28.58,28.58,0,0,1-.76-2.932,53.528,53.528,0,0,1-.864-6.353c-.18-2.148-.278-4.309-.365-6.215-.081-1.788-.158-3.477-.288-4.849-.109-1.353-.165-2.714-.167-4.043,0-1.44.061-2.859.186-4.215a32.125,32.125,0,0,1,1.774-8.231,21.082,21.082,0,0,1,1.761-3.659,16.308,16.308,0,0,1,2.459-3.116,14.336,14.336,0,0,1,3.243-2.394,14.86,14.86,0,0,1,1.942-.871,16.392,16.392,0,0,1,2.171-.623,5.365,5.365,0,0,1,.761-.051,6.43,6.43,0,0,1,1.126.1,5.191,5.191,0,0,1,1.095.315,3.108,3.108,0,0,1,.9.554,1.864,1.864,0,0,1,.537.816,11.526,11.526,0,0,0-2.2-.827,8.251,8.251,0,0,0-2.03-.267,6.953,6.953,0,0,0-1.482.158,6.876,6.876,0,0,0-1.378.46,8.455,8.455,0,0,0-2.454,1.745,17.9,17.9,0,0,0-3.744,6.223,39.648,39.648,0,0,0-1.672,5.629,61.433,61.433,0,0,0-1.058,6.378,82.8,82.8,0,0,0-.4,13.478,60.963,60.963,0,0,0,1.676,11.9A25.307,25.307,0,0,0,6.4,71.349,9.225,9.225,0,0,0,8.362,74.22Zm8.079,1.3a16.252,16.252,0,0,1-4.6-.769,6.529,6.529,0,0,1-1.951-1.084,4.878,4.878,0,0,1-1.366-1.813c-3.419-10-4.16-21.694-2.142-33.826a41.734,41.734,0,0,1,1-4.335A29.8,29.8,0,0,1,9.236,28.8a13.985,13.985,0,0,1,2.85-4.053,7.276,7.276,0,0,1,1.846-1.277,5.735,5.735,0,0,1,2.152-.546,4.464,4.464,0,0,1,1.942.743A5.7,5.7,0,0,1,19.5,25.192a10.11,10.11,0,0,1,1.069,2.134A18.458,18.458,0,0,1,21.3,29.9a39.2,39.2,0,0,1,.719,5.8c.118,1.966.144,3.866.167,5.542.018,1.339.034,2.5.094,3.363-.363.035-.748.052-1.214.052-.382,0-.767-.011-1.138-.022h0c-.372-.011-.757-.022-1.133-.022A11.171,11.171,0,0,0,17.3,44.7c0,.677,4.3,1.392,5.047,1.472.052.923.118,1.767.2,2.58a16.734,16.734,0,0,1-2.97.228h0a18.742,18.742,0,0,0-2.619.167,4.031,4.031,0,0,0,2.21.963A24.826,24.826,0,0,0,22,50.443H22c.277.021.538.042.767.064.082.578.187,1.193.318,1.88-1.572.223-3.2.37-4.852.437-.081,0-.167.005-.264.005-.171,0-.344-.005-.528-.011h-.01c-.172-.005-.367-.011-.556-.011a3.5,3.5,0,0,0-1.326.2c.193.252.8.439,1.8.556a27.184,27.184,0,0,0,3.024.139c1.2,0,2.378-.048,2.963-.094a36.48,36.48,0,0,0,1.818,5.854,5.975,5.975,0,0,0-1.7-.882,5.746,5.746,0,0,0-1.772-.278,6.322,6.322,0,0,0-2.4.485,7.015,7.015,0,0,0-1.1.569,7.191,7.191,0,0,0-.986.753,7.078,7.078,0,0,0-.841.913,6.727,6.727,0,0,0-.663,1.048,6.072,6.072,0,0,0-.662,2.4A24.106,24.106,0,0,0,16.8,74.015C16.672,74.508,16.562,74.989,16.441,75.52ZM85.512,42.262c.264-2.758.289-5.358.313-7.872v0c.022-2.306.046-4.69.252-7.2a4.614,4.614,0,0,1,.911-1.922,2.583,2.583,0,0,1,.689-.593,1.488,1.488,0,0,1,1.743.137,3.69,3.69,0,0,1,.938,1.175,28.829,28.829,0,0,0,4.273,4.925,55.949,55.949,0,0,0,5.075,4.158,4.018,4.018,0,0,0-.5,2.223V37.3c0,.071,0,.137-.007.2a18.388,18.388,0,0,0,.731,5.192h0l.117.482a40.967,40.967,0,0,0-9.8-1.23,35.212,35.212,0,0,0-4.739.316h0Zm-.707.106h0c.026-.106.043-.216.06-.323h0c.007-.044.014-.088.021-.131l.02.141h0c.013.095.027.193.041.289l-.071.012-.071.012ZM17.653,71.32h0c-.029-.213-.052-.391-.071-.559-.038-.593-.113-1.21-.192-1.863h0a17.272,17.272,0,0,1-.17-4.184,5.62,5.62,0,0,1,.567-1.9,4.555,4.555,0,0,1,.564-.842,4.864,4.864,0,0,1,.8-.746,3.752,3.752,0,0,1,2.327-.78,4.322,4.322,0,0,1,1.824.411,4.191,4.191,0,0,1,1.484,1.159,15.636,15.636,0,0,0-4.351,4.072,21.025,21.025,0,0,0-2.776,5.233Zm.854,191.271h0c-.985-5.338-1.845-10.14-2.394-14.852-.3-2.586-.484-4.927-.558-7.154-.04-1.2-.048-2.379-.023-3.508.026-1.179.088-2.344.184-3.461.1-1.161.241-2.309.419-3.413.184-1.142.413-2.275.681-3.365.276-1.125.6-2.241.971-3.317.378-1.107.811-2.206,1.288-3.268.489-1.09,1.038-2.173,1.633-3.219.609-1.072,1.283-2.138,2-3.17.738-1.054,1.547-2.1,2.4-3.12.875-1.037,1.828-2.069,2.832-3.069,2.183-2.372,4.63-4.915,7.481-7.772,2.545-2.55,5.166-5.106,7.7-7.578l.006-.006c3.4-3.315,6.915-6.744,10.284-10.193a14.281,14.281,0,0,0,2.226-2.577c.654-.944,1.237-1.957,1.779-2.913a38.407,38.407,0,0,1,4.37-5.349h0a10.67,10.67,0,0,0,1.263-1.471,18.585,18.585,0,0,1,2.015-1.4,4.369,4.369,0,0,1,.8-.361,2.374,2.374,0,0,1,.733-.122,2.763,2.763,0,0,1,1.474.492,12.94,12.94,0,0,1,1.869,1.521,6.059,6.059,0,0,0,2.175.837c.22.053.448.109.677.172a2.224,2.224,0,0,1,1.194.9,2.773,2.773,0,0,0,1.989,1.167,2.374,2.374,0,0,0,.227.976,6.9,6.9,0,0,0-1.723,1.176,6.126,6.126,0,0,0-1.25,1.629.465.465,0,0,0,.009.472.584.584,0,0,0,.482.275.44.44,0,0,0,.4-.249,5.622,5.622,0,0,1,1.347-1.626,4.355,4.355,0,0,1,1.955-.967,14.973,14.973,0,0,0-.875,2.708c-.182.822-.283,1.585-.372,2.258-.371,2.809-.616,4.665-5.858,6.8a27.3,27.3,0,0,0-7.3,3.956,30.547,30.547,0,0,0-3,2.608,37.013,37.013,0,0,0-2.664,2.94c-.806.988-1.588,2.037-2.391,3.206-.715,1.042-1.431,2.156-2.188,3.407-1.406,2.323-2.745,4.778-4.039,7.152v0c-.949,1.741-1.931,3.542-2.934,5.28-1.125,1.95-2.157,3.613-3.154,5.081a46.551,46.551,0,0,1-3.59,4.674c-.66.749-1.342,1.462-2.026,2.12-.718.69-1.463,1.343-2.216,1.94a1.488,1.488,0,0,0-.442-.073.989.989,0,0,0-.8.394,2.421,2.421,0,0,0-.43,1.188,3.952,3.952,0,0,0,.051,1.278c.221,2.427.393,4.806.559,7.107v0c.234,3.241.456,6.3.8,9.445.185,1.687.387,3.239.619,4.742.26,1.682.55,3.267.889,4.844a43.5,43.5,0,0,1-4.187,1.775c-1.387.506-2.855.966-4.363,1.367-1.43.38-2.936.718-4.475,1-1.452.269-2.975.5-4.525.685ZM29.179,180.6h0a1.105,1.105,0,0,0-.225-.1c.076-1.759.177-3.526.3-5.25-.067,1.838-.093,3.639-.075,5.353Zm-.078,22.42h0c-.08-2.08-.154-4.118-.187-6.184-.036-2.274-.014-4.293.066-6.173,0-.666-.03-1.342-.055-1.995h0a26.506,26.506,0,0,1,.112-4.823,10.23,10.23,0,0,0,1.291,1.29,11.235,11.235,0,0,0,1.461,1.031,15.055,15.055,0,0,0,3.306,1.427,42.722,42.722,0,0,0,7.266,1.329l.023,0,.751.094c-1.474,1.468-2.978,2.949-4.433,4.382h0c-3.175,3.128-6.458,6.362-9.6,9.619Zm41.418-13.608a30.517,30.517,0,0,0,3.189-.172c.989-.1,2.005-.251,3.108-.453,2.1-.385,4.2-.91,6.049-1.373l.168-.042c1.924-.482,3.914-.981,5.876-1.347,1.055-.2,2.022-.341,2.955-.441a27.75,27.75,0,0,1,2.991-.167h0a23.452,23.452,0,0,1,2.563.138,21.8,21.8,0,0,1,2.615.451,22.135,22.135,0,0,1,2.678.817,24.411,24.411,0,0,1,2.751,1.238,12.882,12.882,0,0,0,3.405.988c.2.038.4.077.6.118l.192.033h0a2.7,2.7,0,0,1,1.605.634h.022a.209.209,0,0,1,0,.027.338.338,0,0,1,.095.228.287.287,0,0,1-.082.205,7.321,7.321,0,0,1-1.518,3.9h0c-.265.423-.539.86-.77,1.294-.771,1.4-1.5,2.867-2.179,4.353-.659,1.45-1.281,2.963-1.849,4.495-.553,1.493-1.072,3.048-1.541,4.621-.456,1.53-.878,3.123-1.256,4.733-.366,1.562-.7,3.187-.993,4.829-.283,1.589-.537,3.241-.753,4.91-.408,3.153-.7,6.518-.874,10-.16,3.227-.22,6.546-.183,10.145.032,3.19.139,6.515.327,10.166.349,6.756.917,13.44,1.467,19.9v0c.192,2.253.373,4.381.546,6.527a95.653,95.653,0,0,0,.031-9.585h0c-.085-3.023-.172-6.148-.037-8.972a17.542,17.542,0,0,0,2.785,1.285,15.42,15.42,0,0,0,1.641.511,6.2,6.2,0,0,0,1.417.206,2.044,2.044,0,0,0,.525-.059,42.516,42.516,0,0,1,.246,5.629,44.612,44.612,0,0,1-.5,5.724,43.946,43.946,0,0,1-1.247,5.654,40.978,40.978,0,0,1-2,5.42,36.745,36.745,0,0,1-2.757,5.021,32.446,32.446,0,0,1-3.518,4.458,28.076,28.076,0,0,1-9.337,6.568,7.132,7.132,0,0,0-.508-2.97,7.763,7.763,0,0,0-1.628-2.457,11.666,11.666,0,0,0-2.789-2.083,18.734,18.734,0,0,0-3.6-1.485,30.178,30.178,0,0,0-8.6-1.186h0a33.8,33.8,0,0,0-4.9.354,28.18,28.18,0,0,0-4.606,1.061,19.4,19.4,0,0,0-3.963,1.765,11.8,11.8,0,0,0-2.979,2.466,7.9,7.9,0,0,0-1.593,2.94,7.5,7.5,0,0,0-.273,1.7,8.607,8.607,0,0,0,.122,1.85c-10.02-3.124-17.761-8-23.664-14.912a48.244,48.244,0,0,1-3.934-5.32,56.551,56.551,0,0,1-3.3-5.936c-.978-2.032-1.9-4.233-2.736-6.541-.805-2.22-1.563-4.621-2.253-7.136a.342.342,0,0,1,0-.335c.129-.2.522-.238.829-.238l.112,0-.007-.03v0l-.006-.027h.068a34.419,34.419,0,0,0,9.007-1.305,84.135,84.135,0,0,0,8.63-2.962l.016.063,0,.006.018.073a.35.35,0,0,1,.341-.21.446.446,0,0,1,.164.031c.439,1.2.835,2.449,1.217,3.653s.783,2.461,1.224,3.671a30.684,30.684,0,0,0,1.521,3.544.37.37,0,0,0,.372.267.5.5,0,0,0,.383-.178.385.385,0,0,0,.071-.339,15.751,15.751,0,0,0-.944-3.662l0-.014c-.091-.263-.184-.534-.273-.8-.343-.889-.632-1.824-.911-2.728h0a24.372,24.372,0,0,0-1.77-4.6c-.273-2.328-.5-4.8-.693-7.569-.173-2.465-.3-4.935-.432-7.323v-.01c-.217-4.066-.441-8.27-.876-12.666a3.934,3.934,0,0,1,.987-1.317c.691-.589,1.377-1.226,2.038-1.892.631-.635,1.261-1.318,1.873-2.03a49.405,49.405,0,0,0,3.345-4.4c2.083-3.053,3.943-6.366,5.741-9.571v0c1.2-2.131,2.432-4.334,3.72-6.435.693-1.131,1.346-2.143,2-3.094.729-1.068,1.436-2.033,2.16-2.949.778-.984,1.578-1.912,2.379-2.756a33.711,33.711,0,0,1,2.653-2.516,30.143,30.143,0,0,1,2.983-2.229,29.208,29.208,0,0,1,3.368-1.894C69.548,189.4,70.035,189.411,70.519,189.411Zm37.46,72.253-.086-.012a34.385,34.385,0,0,1-6.159-1.237c.247-4.724.3-9.569.343-14.254v0c.034-3.415.07-6.947.182-10.413.126-3.886.336-7.269.644-10.345a90.465,90.465,0,0,1,1.568-10.2c.372-1.718.8-3.406,1.275-5.017.5-1.69,1.062-3.355,1.679-4.949.124,3.559.188,7.352.2,11.6.009,4.209-.039,8.41-.081,11.6q-.013.851-.027,1.692v0c-.086,5.432-.167,10.562-.128,15.728.043,5.8.232,10.819.594,15.8ZM82.363,304.488c0-.017.011-.036.018-.056h0a.122.122,0,0,0,.029.026l-.015.009-.005,0Zm-23.177,1.294h0l-.221-.064-.017,0-.01,0-.34-.1c.173.019.345.035.511.046.029.046.054.087.076.125Z" transform="translate(132.354 315.5) rotate(180)"/>
  </g>
  <g id="head_Long_Afro" data-name="head/Long Afro" transform="translate(179.458 0)">
    <path id="_Skin-2" data-name="âœ‹ Skin" d="M.859,20.58C1.737,9.881,4.409.4,16.967,0A43.848,43.848,0,0,1,33.63,3.482c12.667,6.351,16.685,29.557,5.526,38.9a.119.119,0,0,1,0,.2,43.191,43.191,0,0,1-7.435,3.9c-6.837,2.89-14.885,4.146-21.858,1.011C-.773,42.963-.933,30.364.859,20.58Z" transform="translate(21.48 29.922)" fill="#d08b5b"/>
    <path id="_Ink-2" data-name="ðŸ– Ink" d="M1.395,45.515a3.181,3.181,0,0,1-.928-1.49,2.914,2.914,0,0,1,0-1.632c.171-.565.541-1.015.458-1.6a1.345,1.345,0,0,0-.038-.178C.565,39.505-.222,38.706.06,37.478a2.126,2.126,0,0,1,.437-.9c-.023-.266-.043-.535-.06-.8a4.286,4.286,0,0,1,.047-3.428,12.956,12.956,0,0,1,.279-1.615,3.1,3.1,0,0,1,.174-1.4A19.848,19.848,0,0,1,1.885,27.2a.786.786,0,0,1,.083-.574,5.333,5.333,0,0,1,.705-.9c.183-.328.368-.653.552-.974.085-.147.179-.311.282-.484a1.663,1.663,0,0,1-.134-1.646.76.76,0,0,1,.673-.386c.277.016.556.029.837.04A5.987,5.987,0,0,1,6.64,20.748c.646-.547,1.3-1.084,1.937-1.633l.542-.468,0-.013c.133-.485.283-.963.432-1.444.093-.3.121-.61.412-.772a5.953,5.953,0,0,1,2.234-.45l.207-.183a3.251,3.251,0,0,1,.138-2.578.634.634,0,0,1,.864-.226,2.893,2.893,0,0,0,2,.528c1.028-.79,5.175-4.364,5.816-4.741.008-.014.014-.027.023-.041A5.2,5.2,0,0,1,22.541,7.32l.211-.22a2.677,2.677,0,0,0-.486-1.216c-.028-.041-.06-.081-.092-.119a.614.614,0,0,1,.74-.96l.138.063c.492.219,1.035.457,1.6.658.207-.078.419-.148.611-.225l2.063-.83c.34-.137.7-.252,1.027-.413a1.582,1.582,0,0,1,1.671-1.236,1.485,1.485,0,0,0-.21-.423c-.028-.04-.059-.078-.091-.115-.408-.474.137-1.354.72-.932l.124.088c.162.114.328.22.5.324a1.128,1.128,0,0,1,.887-.02,9.128,9.128,0,0,1,1.963.983c.025.018.051.032.076.049a1.68,1.68,0,0,1,1.23-.614h.024a1.608,1.608,0,0,1,1.506-.718,1.535,1.535,0,0,1,3.006-.337l.191.621a6.736,6.736,0,0,1,1.868-.642,9.648,9.648,0,0,1,4.368.429l.429.126c.2-.236.4-.478.578-.7a.6.6,0,0,1,1.023.423.821.821,0,0,0,.331.772,4.906,4.906,0,0,0,.851.04,2.8,2.8,0,0,0,1.2-.22,1.579,1.579,0,0,0,.66-.544,1.585,1.585,0,0,1,2.475-.26,1.625,1.625,0,0,1,1.869.675,1.87,1.87,0,0,0,1.1.6c.38.106.768.187,1.159.257a.6.6,0,0,1,.809-.2c.182.134.359.272.533.414a7.536,7.536,0,0,0,3.962-.332c1.085-.444,2.081.768,1.9,1.785.314.164.655.272.965.444A3.826,3.826,0,0,1,67.6,6.457c.061.124.116.251.168.378.253.206.5.418.748.641l1.219-.625a.6.6,0,0,1,.877.357,3.673,3.673,0,0,0,.679,1.678,27.79,27.79,0,0,1,3.2,1.965c1.175.368,2.424.583,3.451.825a.582.582,0,0,1,.345.848q-.315.485-.628.971.877.855,1.651,1.783a33.13,33.13,0,0,1,3.726,5.582l1.281.517a.6.6,0,0,1,.263,1,3.812,3.812,0,0,0-.422.529,7.039,7.039,0,0,0,2.313,2.513,1.562,1.562,0,0,1,.652.79c.1.069.206.143.307.219a.613.613,0,0,1,.121.95,3.814,3.814,0,0,0-.633.679c-.04.144-.081.29-.121.435a10.762,10.762,0,0,1,2.274,2.951.508.508,0,0,1,.391.077,2.484,2.484,0,0,1,.648,3.066,11.1,11.1,0,0,1-.394,4.9,4.606,4.606,0,0,1,1.174,2.432,49.717,49.717,0,0,1,.366,5.515A5.642,5.642,0,0,1,92.718,49.9l.694.345a.679.679,0,0,1,.344.6A4.863,4.863,0,0,1,92.642,53.6a6.072,6.072,0,0,1-.944,1.7,12.929,12.929,0,0,0-.813,1.119.712.712,0,0,0-.052.1,2.272,2.272,0,0,1,.248.4,2.612,2.612,0,0,1-.239,3.167.788.788,0,0,1,.047,1.1c-1.815,2.073-3.327,4.593-5.845,5.694a.627.627,0,0,0-.031.058,3.712,3.712,0,0,1,.162,3.134.329.329,0,0,1-.01.033c-.222.665-.632,1.73-1.37,1.937a2.482,2.482,0,0,1-.688.093q-.878.846-1.754,1.694a5.889,5.889,0,0,0-.093.848.758.758,0,0,1-.949.722c-.17-.05-1.111-.964-1.284-.959-.087.087-.171.174-.256.262a2.831,2.831,0,0,0-.777,1.182,1.676,1.676,0,0,1-1.173,1.51.645.645,0,0,1-.978,0c-.02-.022-.041-.043-.063-.063l-.1-.012q-.226.675-.454,1.349a1.6,1.6,0,0,1-2.244.937c-.13.078-.258.161-.386.244-.194.124-.391.251-.593.37-.012.033-.023.066-.033.1a.71.71,0,0,1-1.006.382,2.956,2.956,0,0,1-.317.082,3.193,3.193,0,0,1-1.676-.107,5.132,5.132,0,0,0-1.182-.422c-.026,0-.053,0-.08,0a3.294,3.294,0,0,1-1.74,1.51,3.233,3.233,0,0,1-2.368-.157,5.5,5.5,0,0,1-.745,1.119.454.454,0,0,1-.633,0q-.485-.429-.964-.862c-.232-.089-.466-.2-.71-.3a13.612,13.612,0,0,1-2.308-.892,3.9,3.9,0,0,1-.911-.8,6.559,6.559,0,0,1-1.344-1.038,1.346,1.346,0,0,1-.618-.15,2.57,2.57,0,0,1-1.345-2.225,15.679,15.679,0,0,1-1.215-5.149,12.807,12.807,0,0,1,0-1.758A3.084,3.084,0,0,1,53.1,68.5a3.275,3.275,0,0,0,.137-.355c-.009-.394-.014-.788-.019-1.18a2.211,2.211,0,0,0-.559-.9,1.442,1.442,0,0,1-.224-1.731l.724-.963c-.068-1.377-.4-3.569.334-3.8-.029-.2-.092-.407-.128-.61a3.7,3.7,0,0,1,.45-2.7c.109-.178.2-.335.276-.488l.142-.844c.073-.433.144-.871.206-1.311.032-.56.061-1.12.093-1.682q.044-.775.1-1.551c-.014-.231-.035-.463-.064-.694a4.248,4.248,0,0,0-1.716-2.849c-.153-.024-.306-.051-.455-.082a6.946,6.946,0,0,0-2.143-.288c-.779.087-1.476.423-2.233-.006-.222-.128-.712-.481-.754-.761a.174.174,0,0,0-.012-.045c-.052-.008-.12-.014-.162-.015-.6-.02-1.175.216-1.781.151a2.788,2.788,0,0,1-1.781-.867,4.448,4.448,0,0,1-1.655.119,3.678,3.678,0,0,1-1.309-.442c-.3-.164-.207-.211-.537-.078a3.566,3.566,0,0,1-2.275.5,2.418,2.418,0,0,1-1.136-.662,3.873,3.873,0,0,1-.289-.29c-.4.2-1.412.662-1.578.7a2.579,2.579,0,0,1-1.427-.056c-.336-.113-.748-.419-1.043-.482-.382-.082-1.231.45-1.688.633a3.215,3.215,0,0,1-2.459.069c-.279-.114-.821-.568-1.029-.564a22.745,22.745,0,0,0-1.569,3.541c-1.15,3.376-1.448,13.916-.917,16.605.02.079.042.157.064.237a38.236,38.236,0,0,0,2.422,6.9A11.264,11.264,0,0,0,31.6,76.675a12.751,12.751,0,0,0,6.984,1.312,24.242,24.242,0,0,0,4.524-.794c.775-.2,1.543-.425,2.308-.657.334-.1.673-.2,1-.313a1.531,1.531,0,0,1,1.435.042,1.043,1.043,0,0,1,.371,1.412c-.427.737-1.21.788-1.965,1s-1.542.428-2.32.616a30.053,30.053,0,0,1-4.531.76,15.6,15.6,0,0,1-8.039-1.317c-.281-.136-.552-.28-.815-.436.1.136.2.271.3.405a.888.888,0,0,1-.316,1.208c-.123.064-.246.125-.37.185-.017.04-.035.079-.055.119a2.709,2.709,0,0,1-1.852,1.312,10.974,10.974,0,0,1-2.816.036L22.9,81.491l-.6-.018-3.013-.091a3.008,3.008,0,0,1-1.693-.316,2.511,2.511,0,0,1-.94-.692,3.782,3.782,0,0,1-.467-.247,6.094,6.094,0,0,1-1.3-1.143,1.265,1.265,0,0,1-1.737-.825c-.21-1.344-1.956-1.918-2.772-2.89a4.381,4.381,0,0,1-1.1-2.8c-1.66-.8-2.563-2.919-2.774-4.715-.1-.832-.083-1.724-.225-2.57a1.409,1.409,0,0,1-.166-.216,17.88,17.88,0,0,1-1.1-2.079A2.87,2.87,0,0,0,3.5,62.355a1.192,1.192,0,0,1-.316-2.33l.018-.006a3.353,3.353,0,0,1,.1-2.722c-.018-.09-.035-.178-.051-.267a4.075,4.075,0,0,1-1.087-2.9,3.544,3.544,0,0,0-1.1-.522A.705.705,0,0,1,.906,52.34a2.153,2.153,0,0,0,.467-.473,3,3,0,0,1,.458-2.848L.592,47.431a.916.916,0,0,1,0-1.277Q.993,45.833,1.395,45.515Z" transform="translate(0)"/>
  </g>
  <g id="accessories_Sunglasses_2" data-name="accessories/Sunglasses 2" transform="translate(200.286 49.614)">
    <path id="_Ink-3" data-name="ðŸ– Ink" d="M27.415,0h0a7.571,7.571,0,0,0-1.548.162,7.894,7.894,0,0,0-2.852,1.224A7.69,7.69,0,0,0,21.821,2.4,7.208,7.208,0,0,0,20.3,4.785a7.355,7.355,0,0,0-.479,3.007,1.059,1.059,0,0,0-.714.389,2.077,2.077,0,0,0-.289.665,1.9,1.9,0,0,1-1.831,1.55,2.777,2.777,0,0,0-1.189.791,32.655,32.655,0,0,1-3.468.195,22.839,22.839,0,0,1-7.848-1.3c-.227-.095-.467-.183-.7-.267C2.922,9.5,2.111,9.206,1.815,8.547a1.929,1.929,0,0,1,.1-1.517.764.764,0,0,0-.746-.723.642.642,0,0,0-.467.2h0A5.273,5.273,0,0,0,.024,8.351a2.4,2.4,0,0,0,.2,1.376,4.006,4.006,0,0,0,2.552,1.789,25.63,25.63,0,0,0,3.8.8l.037.006.2.032a25.655,25.655,0,0,0,5.395.564c.188,0,.379,0,.568-.006.232-.01.476-.014.735-.017h0a8.582,8.582,0,0,0,2.228-.215l.01,0a1.714,1.714,0,0,0,.984.842,9.879,9.879,0,0,0,2.1.64,31.527,31.527,0,0,0,6.144.548,34.978,34.978,0,0,0,3.581-.176,21.572,21.572,0,0,0,3.214-.555A8.544,8.544,0,0,0,34.186,13a2.441,2.441,0,0,0,1.165-1.425l.195,0c.4,0,.78-.031,1.086-.056l.042,0c.331-.027.643-.053.956-.053a3.794,3.794,0,0,1,1.234.185,2.434,2.434,0,0,0,1.061,1.622,8.068,8.068,0,0,0,2.367,1.161,18.173,18.173,0,0,0,3.07.7,22.568,22.568,0,0,0,3.171.233,13.072,13.072,0,0,0,2.768-.255,5.017,5.017,0,0,0,.765-.133.951.951,0,0,0,.291-.1c.1-.015.208-.031.316-.049a.761.761,0,0,0,.466-.269,1,1,0,0,0,.212-.494.935.935,0,0,0-.449-.994,1.253,1.253,0,0,1-.738-1.421.939.939,0,0,0-.042-.593.864.864,0,0,0-.35-.4,17.977,17.977,0,0,0-.6-4.411,9.654,9.654,0,0,0-.841-2.057,7.38,7.38,0,0,0-1.375-1.774,7.772,7.772,0,0,0-1.894-.928,5.94,5.94,0,0,0-1.821-.3,5.106,5.106,0,0,0-2.212.494,5.384,5.384,0,0,0-1.79,1.39,6.354,6.354,0,0,0-.849,1.3,7.462,7.462,0,0,0-.564,1.573,9.694,9.694,0,0,0-.095,3.82.654.654,0,0,0-.194.208c-.031.051-.061.105-.095.173a3.1,3.1,0,0,1-1.435.285,4.381,4.381,0,0,1-.6-.041A2.656,2.656,0,0,1,35.636,9.4c-.067-.069-.135-.141-.208-.213a.647.647,0,0,0-.458-.341l-.028-.159a24.945,24.945,0,0,0-.83-3.622,9.374,9.374,0,0,0-.747-1.69A6.783,6.783,0,0,0,32.233,1.9,6.97,6.97,0,0,0,27.415,0Zm2.907,11.709a.537.537,0,0,1-.514-.5.448.448,0,0,1,.364-.508,1.718,1.718,0,0,0,1.1-.72l.028-.042a.484.484,0,0,1,.419-.24.574.574,0,0,1,.491.284.451.451,0,0,1-.026.474A2.744,2.744,0,0,1,30.444,11.7.573.573,0,0,1,30.322,11.709Zm18.69.673a.553.553,0,0,1-.46-.258.523.523,0,0,1,.162-.687l.022-.016a.968.968,0,0,0,.408-.635l0-.031a.507.507,0,0,1,.532-.5.512.512,0,0,1,.37.147.463.463,0,0,1,.121.349,2,2,0,0,1-.917,1.553.415.415,0,0,1-.241.073Z" transform="translate(53.365 15.368) rotate(180)"/>
  </g>
  <g id="face_Smile_Teeth_Gap" data-name="face/Smile Teeth Gap" transform="translate(205.941 46.737)">
    <path id="teeth" d="M15.4.98C13.261-.456,2.42-.175,1.419.926S-1.894,5.17,3.06,6.714s11.085,1,12.682-.887l.094-.113C17.347,3.877,17.5,2.386,15.4.98Z" transform="translate(3.819 19.272)" fill="#fff"/>
    <path id="_Ink-4" data-name="ðŸ– Ink" d="M11.305,0a16.928,16.928,0,0,0-5,.693,8.912,8.912,0,0,0-2,.888A5.03,5.03,0,0,0,2.878,2.849a3.826,3.826,0,0,0-.473,3.574,4.139,4.139,0,0,0,.966,1.1,4.361,4.361,0,0,0,1.2.663A8.21,8.21,0,0,0,7.431,8.6c.725,0,1.472-.049,2.131-.092l.059,0c.694-.045,1.349-.088,1.969-.088.119,0,.234,0,.343,0,.152-.011.319-.016.511-.016.545,0,1.2.044,1.888.091l.161.011c.8.054,1.574.1,2.34.1a10.4,10.4,0,0,0,2.048-.17,3.69,3.69,0,0,0,1.6-.671,5.109,5.109,0,0,0,1.1-2.152,2.872,2.872,0,0,0-.226-1.836A4.351,4.351,0,0,0,19.9,2.165,9.589,9.589,0,0,0,17.527.981,19.256,19.256,0,0,0,11.305,0ZM11.5,3.05a1.509,1.509,0,0,1-.748-.232,1.246,1.246,0,0,1-.479-.459A2.694,2.694,0,0,1,10.179,1.3c0-.021,0-.04,0-.052.538-.054,1.09-.082,1.639-.082.363,0,.733.012,1.1.036-.04.134-.075.275-.108.411-.16.655-.325,1.331-1.236,1.429-.025,0-.05,0-.076,0Zm3.177-.22h0a1.236,1.236,0,0,1-.31-.04,1.351,1.351,0,0,1-.877-1.4.172.172,0,0,0-.027-.089l-.01-.019a15.767,15.767,0,0,1,2.317.453,1.121,1.121,0,0,1-1.094,1.1Zm-6.744.71h0a1.268,1.268,0,0,1-.218-.018,1.057,1.057,0,0,1-.765-.7A2.114,2.114,0,0,1,6.8,2.1a14.113,14.113,0,0,1,2.322-.631c.136-.027.283-.053.463-.083l.01.126a2.329,2.329,0,0,1-.267,1.362,1.762,1.762,0,0,1-1.394.669Zm9.6.034h0a1.453,1.453,0,0,1-1.053-.492A1.5,1.5,0,0,1,16.091,1.9c.161.051.322.1.479.159a10.427,10.427,0,0,1,2.016.891,1.25,1.25,0,0,1-1.06.62ZM10.738,7.487h0a8.6,8.6,0,0,1-1.554-.128l-.022-.246-.012-.121C9.072,6.176,9,5.4,9.424,5.078a1.941,1.941,0,0,1,1.057-.205,5.811,5.811,0,0,1,1.324.155c.025.006.052.04.079.1a3.916,3.916,0,0,1,.208,1.106,2.658,2.658,0,0,1-.114,1.2c-.434.039-.851.059-1.239.059Zm2.985.043c-.089-.414-.346-1.8.1-2.165a1.746,1.746,0,0,1,1.016-.232,2.017,2.017,0,0,1,.926.168c.241.159.3.835.171,2.009a12.162,12.162,0,0,1-2.21.219Zm2.708-.235h0l-.007-.131c-.048-.974.069-1.56.35-1.74a1.076,1.076,0,0,1,.575-.167c.629,0,1.173.535,1.492,1.467-.155.408-1.591.511-2.2.554-.09.006-.161.011-.205.016Zm-7.746.056h0l-.37,0-.209,0a8.587,8.587,0,0,1-1.64-.158,1.348,1.348,0,0,1-.021-1.353,1.225,1.225,0,0,1,1.037-.527,1.255,1.255,0,0,1,.988.454,1.711,1.711,0,0,1,.235,1.5l-.02.086Zm5.662,2.864h0a4.464,4.464,0,0,0-1.592.321A8.04,8.04,0,0,0,10.884,11.6a.719.719,0,0,0-.261.415.861.861,0,0,0,.037.467,1.061,1.061,0,0,0,.315.456.767.767,0,0,0,.491.192.7.7,0,0,0,.38-.117l.128-.1a4.837,4.837,0,0,1,2.576-1.263,1.538,1.538,0,0,1,1.146.508,1.7,1.7,0,0,1,.322,1.365,3.718,3.718,0,0,1-1.72,2.046.321.321,0,0,0-.087.369.478.478,0,0,0,.465.331.652.652,0,0,0,.11-.01,3.472,3.472,0,0,0,1.221-.441,2.77,2.77,0,0,0,.821-.757,3.008,3.008,0,0,0,.524-2.01,3.209,3.209,0,0,0-.874-1.961A2.893,2.893,0,0,0,14.347,10.214ZM20.391,15.7a1.084,1.084,0,0,0-.641.219,1.88,1.88,0,0,0-.517.6,4.173,4.173,0,0,0,0,3.773,1.88,1.88,0,0,0,.517.6,1.046,1.046,0,0,0,1.282,0,1.88,1.88,0,0,0,.517-.6,4.173,4.173,0,0,0,0-3.773,1.88,1.88,0,0,0-.517-.6A1.083,1.083,0,0,0,20.391,15.7Zm-14.352,0a1.083,1.083,0,0,0-.641.219,1.882,1.882,0,0,0-.517.6,4.174,4.174,0,0,0,0,3.773,1.881,1.881,0,0,0,.517.6,1.046,1.046,0,0,0,1.282,0,1.88,1.88,0,0,0,.517-.6,4.173,4.173,0,0,0,0-3.773,1.88,1.88,0,0,0-.517-.6A1.084,1.084,0,0,0,6.039,15.7ZM.168,22.627a.166.166,0,0,0-.138.085.185.185,0,0,0-.011.182,6.308,6.308,0,0,0,1.414,1.79,8.744,8.744,0,0,0,1.893,1.293,8.14,8.14,0,0,0,2.248.784l.24.042.123.021a5.408,5.408,0,0,0,.858.085,1.516,1.516,0,0,0,1.211-.451,1.028,1.028,0,0,0,.243-.731.669.669,0,0,0-.243-.478,1.865,1.865,0,0,0-1.278-.375c-.1,0-.2,0-.306.005h0c-.1,0-.207.005-.316.005s-.19,0-.274-.007a8.643,8.643,0,0,1-1.9-.324,12.928,12.928,0,0,1-3.669-1.9A.158.158,0,0,0,.168,22.627Zm23.789.968h0l-.1.025a5.725,5.725,0,0,0-1.11.433l-.36.178a10.015,10.015,0,0,1-1.287.548,15.19,15.19,0,0,1-2.932.648,1.2,1.2,0,0,0-.588.223.882.882,0,0,0-.329.5.9.9,0,0,0,.1.751.956.956,0,0,0,.464.4,1.045,1.045,0,0,0,.4.076,1.166,1.166,0,0,0,.228-.023l.184-.038.122-.026a12.771,12.771,0,0,0,3.107-1.034,6.3,6.3,0,0,0,1.356-.907,4.051,4.051,0,0,0,.96-1.25c.035-.265,0-.331-.033-.376l-.01-.013-.009-.012a.255.255,0,0,0-.157-.1Z" transform="translate(24.181 27.378) rotate(180)"/>
  </g>
</svg>
