<svg xmlns="http://www.w3.org/2000/svg" width="300" height="373.673" viewBox="0 0 300 373.673">
  <g id="timline-4" transform="translate(12148.525 -6368.27)">
    <circle id="Ellipse_138" data-name="Ellipse 138" cx="150" cy="150" r="150" transform="translate(-12148.525 6376)" fill="#36df8e"/>
    <g id="Group_253" data-name="Group 253" transform="translate(392 41.553)">
      <g id="Group_252" data-name="Group 252" transform="translate(-12508.722 6391.686)">
        <g id="pose_sitting_crossed_legs" data-name="pose/sitting/crossed_legs" transform="translate(0 0)">
          <path id="_Skin" data-name="âœ‹ Skin" d="M228.654,124.119a19.377,19.377,0,0,0-4.177-.517c-4.832-.284-9.758,2.019-14.5,3.058-2.074.513-4.27,1.116-6.489,1.566-1.97.267-4.007.468-6.055.6-1.655.05-3.581-.077-4.146,1.663a25.307,25.307,0,0,1-9.443.365,5.592,5.592,0,0,0,.159-3.155c.155-.258.366-.607.479-.842H184.1c-5.567-2.228-11.586-3.75-17.182-6.059-7.3-2.632-18.061-7.719-26.5-11.192a36.673,36.673,0,0,0,.541-9.412l.339-.274a6.258,6.258,0,0,1,.6-1.887,18.058,18.058,0,0,0,.565-3.692,26.879,26.879,0,0,0-.05-8.624c-.262-3.76-2.8-6.659-5.53-8.984-3.356-3.319-6.715-6.557-9.991-10-18.13-18.483-19.564-41.762-47.945-48.837l-.014-.11c-.224-.249-.315-.447-.57-.053-.937-.359-2.106-.329-2.89-.936A11.211,11.211,0,0,1,72.45,12.31c-.5-3.291-.146-8.364-3.029-10.469-3.2-1.918-20.217-3.284-21.685.91a5.884,5.884,0,0,0-1.609,3.271c-.948,1.793-1.546,3.782-2.5,5.6C41.6,15.708,40.28,14.8,36.7,15.736c-.389-.867-1.57-.692-2.431-.567C23.84,16.635,11.13,20.633,6.667,30.432l.38-.049c-7.7,14.475-2.708,32.884-1.33,48.224a128.81,128.81,0,0,1-3.189,40.055c-3.718,13.493-3.931,28.586,3.445,40.8.75,1.4,1.663,3.374,3.278,2.5a9.633,9.633,0,0,0,3.253,1.534,10.4,10.4,0,0,0,1.167.933c.019.027.657-.341.69-.351,1.206,1.721,67.425,7.473,74.3,8.366,6.054.73,14.054,2.594,18.988-1.773,4.077-1.165,8.344-4.2,11.6-7.209,1.977,28.676,3.071,87.4,4.835,87.814.772.262,1.814.575,2.688.826.005,2.06.159,4.4,0,6.426-.271,2.288-.957,4.989-1.268,7.393-1.335-.089-1.727,1.25-1.883,2.159-1.152,7.513-1.118,13.57-1.035,21.827,13.548,7.98,29.426,12.369,44.67,17.527,1.46,1.1,4.624-.09,6.31-.386,5.853-1.152,12.5-4.562,11.027-10.812-1.082-4.706-5.624-7.414-9.447-10.183a125.008,125.008,0,0,1-12.44-9.667,71.521,71.521,0,0,1-7.965-8.444c-1.142-1.526-2.359-4.033-3.895-5.158,1.622-1.925-1.656-.121-2.9-.009a95.328,95.328,0,0,0-2.718-10.033l1.054.048c3.46-3.231,5.4-18.742,5.64-23.343,1.734-30,1.693-64.572-5.264-89.835,5.284,3.254,11.079,5.972,16.334,9.19,3.314,1.941,6.676,4.637,10.39,5.578a.9.9,0,0,0,1.611.285c.665.082,1.521-.194,1.595-.5.68-1.391,1.665-2.889,1.547-4.4l-.912-2.116c2.044.831,4.266,2.579,6.448,2.74,4.407,14.716,13.09,6.472,21.445.745,5.042-3.523,10.558-7.414,15.865-11.171,4.5-3.582,13.292-6.98,8.983-14.075" transform="translate(0.982 0)" fill="#d08b5b"/>
          <path id="_Top" data-name="ðŸ‘• Top" d="M8.256,144.615C5.921,141.851-.086,130.79,0,118.688.1,105.5,6.4,90.812,6.548,77.335a179.356,179.356,0,0,0-2.672-34c-2.02-14.9.4-34.565,17.2-39.415A45.361,45.361,0,0,1,35.458,0c.392.081.647.495.859.922l.043.089.089.188c2.1,6.352,8.77,9.9,14.782,12.253l.367.143.373.143c9.822,4.361,26.12,2.328,27.642-10.416,23.014,6.117,29.249,32.012,43.9,47.783,3.434,3.854,7.043,7.545,10.559,11.322,1.109,1.088,2.123,2.723,3.672,3.107a10.4,10.4,0,0,1,1.709,4.838c-4.977-2.225-10.594-1.168-15.861.516-1.537.491-17.345,8.306-26.551,6.449-.471-.1.418,18.524-.5,18.774-7.965,2.171-32.276,4.332-37.15,3.043-7.914-2.093-17.779,10.594-26.945,23.281-8.492,11.754-16.385,23.508-21.569,23.508A3.343,3.343,0,0,1,8.256,144.615ZM133.4,76.711a1.223,1.223,0,0,0,.185-.588,25.166,25.166,0,0,0,5.048-2.794c1.315.937,1.592,2.386,1.44,4.006-.06.629-.139,1.259-.219,1.887C138.2,77.506,135.755,76.9,133.4,76.711Z" transform="translate(0.981 16.041)" fill="#3d3a7d"/>
          <path id="_Shoes" data-name="ðŸ‘Ÿ Shoes" d="M45.046,183.279h0l-.177-.109a10.627,10.627,0,0,0-1.833-.9c-.656-.253-1.473-.515-2.733-.876l-.984-.282-.406-.119-.2-.06c-.863-.259-1.43-.453-2.023-.693l-.19-.078-.636-.215c-5.684-1.925-11.416-4.021-17.037-6.228s-11.262-4.579-16.8-7.059l-.653-.294-1-.452-.023-.395c-.262-4.467-.375-8.339-.344-11.837a99.809,99.809,0,0,1,.58-10.227l.024-.212,1.3.123a3.607,3.607,0,0,0,.222,1.542,3.884,3.884,0,0,0,.8,1.288,3.687,3.687,0,0,0,2.674,1.217,3.281,3.281,0,0,0,1.052-.174l.073-.025.034-.011.1-.031A8.328,8.328,0,0,0,9.1,145.96l.74-.507.188-.127.136-.09.2-.125.091-.057a37.885,37.885,0,0,1,6.362-3.207,33.316,33.316,0,0,1,6.649-1.831c.362-.066.745-.125,1.171-.178l.462-.055.475-.05,1.475-.144.578-.062.222.312c8.5,11.927,17.448,20.112,26.6,24.327l.32.146.03.017A14.863,14.863,0,0,1,58.4,167.3a11.277,11.277,0,0,1,2.239,3.714,7.44,7.44,0,0,1,.415,2.225,6.087,6.087,0,0,1-.315,2.1,7.4,7.4,0,0,1-2.878,3.624l-.09.063-.015.01a26.682,26.682,0,0,1-5.952,2.9,25.2,25.2,0,0,1-6.394,1.316l-.159.01ZM67.221,33.989a5.66,5.66,0,0,1-1.653-.243A5.961,5.961,0,0,1,64.01,33l-.079-.053-.035-.024-.119-.107-.1-.091-.1-.091-.1-.092a20.019,20.019,0,0,1-1.7-1.927l-.613-.763-.245-.3-.181-.22-.129-.155a14.547,14.547,0,0,0-1.043-1.139l-.113-.109-.774-.737,1.008-.355c3.9-1.37,7.333-5.758,8.756-11.179l.048-.187.01-.029a7.774,7.774,0,0,0,.36-2.569l.012-.886.006-.292.005-.2L68.9,11.3a6.71,6.71,0,0,1,.645-3.06l.056-.109.018-.035.023-.033c.027-.04.03-.046.019-.067l-.232-.393.275-.351c.119-.152.25-.3.411-.473l.068-.071.152-.157.216-.034c3.377-.534,6.806-1.194,10.483-2.017,3.545-.794,7.346-1.746,11.62-2.911l.838-.229.417-.112.282-.075.279-.073C95.862.738,96.9.509,97.831.36a16.953,16.953,0,0,1,2.756-.227h.233l.163,0c.173,0,.321.012.587.036l.266.024.122.01.118.009c.136.009.25.014.348.014a1.617,1.617,0,0,0,.54-.076l.027-.009L103.395,0l.294.315a11.455,11.455,0,0,1,2.177,3.114,5.965,5.965,0,0,1,.517,1.956,4.732,4.732,0,0,1-.245,1.915l-.035.1-.008.019a7.423,7.423,0,0,1-1.9,2.477,30.752,30.752,0,0,1-3.813,2.841l-.5.325-.359.232-.055.036c-.643.416-1.614,1.044-1.955,1.27l-.189.126c-.787.527-1.364.943-1.813,1.311l-.076.063-1.095.761-2.253,1.569-1.672,1.166-1.15.8c-4.46,3.114-8.642,6.051-12.786,8.979l-.211.143-.166.114-.238.166-.336.238-1.115.8-.223.158-.22.154-.222.154-.225.154L73.3,31.6a18.493,18.493,0,0,1-3.042,1.718,7.886,7.886,0,0,1-2.676.657C67.461,33.985,67.339,33.989,67.221,33.989Z" transform="translate(124.396 123.8)" fill="#fff"/>
          <path id="_Ink" data-name="ðŸ– Ink" d="M170.3,303.794a4.171,4.171,0,0,1-1.837-.385,52.2,52.2,0,0,1-6.418-1.827c-.92-.3-1.871-.62-2.8-.9-6.12-2.025-12.217-4.242-18.123-6.59-5.974-2.374-11.91-4.944-17.644-7.639a1.239,1.239,0,0,1-.669-1.1c.022-.642.011-1.78,0-3.22v-.006c-.036-3.482-.089-8.744.267-13.185a29.8,29.8,0,0,1,.895-5.716,6.28,6.28,0,0,1,.778-1.783,1.537,1.537,0,0,1,1.052-.74,43.363,43.363,0,0,0,.805-6.352c.113-1.964.125-4.063.039-6.417a33.783,33.783,0,0,0-3.828-1.024c-.356-.112-.763-.2-1.195-.29a12.528,12.528,0,0,1-1.626-.422,2.833,2.833,0,0,1-1.264-.8.732.732,0,0,1-.372-.286.788.788,0,0,1-.11-.525c.662-6.2,1.194-12.694,1.582-19.288a503.407,503.407,0,0,0-.62-64.842,37.273,37.273,0,0,1-4.877,3.607,27.639,27.639,0,0,1-2.67,1.443,23.208,23.208,0,0,1-2.82,1.11,8.677,8.677,0,0,1-3.935,2.129,25.234,25.234,0,0,1-4.518.722c-.466.029-.952.043-1.444.043a51.009,51.009,0,0,1-7.184-.684c-.811-.116-1.649-.236-2.474-.34a46.35,46.35,0,0,0-5.838-.347c-1.952,0-4.059.1-6.441.315-2.213.2-4.479.472-6.43.715l-2.126.265c-3,.329-5.722.571-8.322.741-2.993.2-5.753.29-8.439.29-2.6,0-5.121-.093-7.5-.277-2.564-.2-5.057-.508-7.411-.923a63.363,63.363,0,0,1-7.235-1.7,54.234,54.234,0,0,1-6.973-2.621c-.1.009-.209.014-.315.014a5.321,5.321,0,0,1-2.024-.457,10.9,10.9,0,0,1-2.026-1.145,18.866,18.866,0,0,1-3.292-2.993.8.8,0,0,1-.426.126,2.269,2.269,0,0,1-1.289-.742c-.115-.1-.224-.2-.331-.285a14.093,14.093,0,0,1-1.506-.546,8.2,8.2,0,0,1-1.439-.788,2.228,2.228,0,0,1-.691.116c-1.591,0-2.588-1.93-3.317-3.339-.089-.173-.182-.351-.27-.515a41.476,41.476,0,0,1-2.683-5.473,39.968,39.968,0,0,1-1.745-5.474,42.654,42.654,0,0,1-.939-5.479A50.216,50.216,0,0,1,0,132.472c.008-1.761.1-3.562.272-5.5.156-1.732.378-3.539.678-5.525.558-3.691,1.312-7.472,2.041-11.128h0c.847-4.245,1.722-8.634,2.321-13.007.322-2.355.539-4.511.664-6.59a62.4,62.4,0,0,0,.061-6.658c.058-1.629.051-3.3-.022-5.1-.065-1.608-.181-3.286-.354-5.13-.322-3.426-.8-6.921-1.261-10.3h0c-.42-3.078-.855-6.262-1.171-9.382a87.05,87.05,0,0,1-.5-9.315,50.351,50.351,0,0,1,.842-9.188A40.507,40.507,0,0,1,4.7,31.111a38.019,38.019,0,0,1,1.721-4.473,13.2,13.2,0,0,1,2.663-5.359,22.7,22.7,0,0,1,4.758-4.366,35.192,35.192,0,0,1,5.847-3.28,39.233,39.233,0,0,1,5.928-2.1c.536-.088,1.415-.323,2.434-.6A34.2,34.2,0,0,1,35.63,9.5a4.688,4.688,0,0,1,1.672.248,1.471,1.471,0,0,1,.912.856,1.592,1.592,0,0,1,.917-.573,4.611,4.611,0,0,1,1.107-.1A4.709,4.709,0,0,0,42.952,7.6,26.168,26.168,0,0,0,44.792,3.75C45.623,1.738,46.34,0,47.3,0a.993.993,0,0,1,.488.141c1.032.9.17,2.355-.591,3.641a7.846,7.846,0,0,0-.784,1.547l-.189.371a16.9,16.9,0,0,1-1.471,2.455,6.927,6.927,0,0,1-2.106,1.916,1.865,1.865,0,0,1-.955.483,8.51,8.51,0,0,1-1.206.16h0c-.734.062-1.427.121-1.691.5a.852.852,0,0,0-.067.735c.748,2.463,2.983,4.83,6.644,7.035a40.253,40.253,0,0,0,4.852,2.456c1.445.621,2.959,1.192,4.5,1.7A23.665,23.665,0,0,0,58.9,24.26a26.043,26.043,0,0,0,4.541.4,22.287,22.287,0,0,0,4.971-.537,15.818,15.818,0,0,0,4.458-1.717,11.274,11.274,0,0,0,3.442-3.055A11.05,11.05,0,0,0,78.235,14.8,6.005,6.005,0,0,1,75,12.842a10.233,10.233,0,0,1-1.265-1.71A11.842,11.842,0,0,1,72.8,9.156a9.945,9.945,0,0,1-.65-3.688A6.077,6.077,0,0,1,72.419,3.8a4.206,4.206,0,0,1,.74-1.385,15.587,15.587,0,0,0,.857,4.869,9.621,9.621,0,0,0,2.728,4.071l.143.131a5.209,5.209,0,0,0,.7.559,1.49,1.49,0,0,0,.79.272.941.941,0,0,0,.145-.011.933.933,0,0,1,.778-.416,1.411,1.411,0,0,1,1.236.915,36.328,36.328,0,0,1,6,1.566,34.323,34.323,0,0,1,5.281,2.407,36.747,36.747,0,0,1,4.665,3.129,44.073,44.073,0,0,1,4.154,3.734c1.26,1.281,2.486,2.661,3.746,4.219,1.123,1.389,2.25,2.89,3.442,4.587,2.217,3.155,4.338,6.535,6.389,9.8h0c2.095,3.338,4.261,6.79,6.545,10.031,1.231,1.746,2.4,3.29,3.56,4.722,1.308,1.608,2.583,3.034,3.9,4.36,2.509,2.642,5.149,5.239,7.7,7.751.739.726,1.5,1.478,2.261,2.229a18.331,18.331,0,0,1,2.353,2.225,15.789,15.789,0,0,1,1.861,2.586,13.2,13.2,0,0,1,1.781,6.1,23.592,23.592,0,0,1,.151,3.7c-.037,1.126-.143,2.337-.323,3.7l-.023.223q-.022.22-.043.451a10.7,10.7,0,0,1-.926,4.081,3.725,3.725,0,0,0-.079.415,1.412,1.412,0,0,1-.394.952,37.175,37.175,0,0,1-.468,8.494l1.242.554c7.833,3.489,14.394,6.275,20.649,8.766,7.5,2.987,14.4,5.48,21.087,7.622a1.355,1.355,0,0,1,.241-.023.64.64,0,0,1,.637.379,1.2,1.2,0,0,1,.029.753,1.708,1.708,0,0,1-.378.73,5.213,5.213,0,0,1-.01,2.293,17.161,17.161,0,0,0,2.431.166,23.651,23.651,0,0,0,2.714-.166c.811-.093,1.691-.228,2.69-.413a2.659,2.659,0,0,1,1.813-1.478,9.911,9.911,0,0,1,2.452-.262h.006l.382-.01c2.13-.134,4.222-.343,6.22-.622,3.385-.756,6.786-1.687,10.074-2.587,1.652-.452,3.36-.92,5.045-1.359a19.08,19.08,0,0,1,5.169-.7,20.891,20.891,0,0,1,5.219.668,14.588,14.588,0,0,1,1.553,2.062,7.8,7.8,0,0,1,1.154,2.8,6.312,6.312,0,0,1-.07,2.633,8.267,8.267,0,0,1-1.931,3.528,12.56,12.56,0,0,1-1.575,1.487,15.471,15.471,0,0,1-1.848,1.261c-6.619,4.693-13.678,9.691-20.8,14.672l-.505.36c-.362.259-.74.532-1.074.772a72.574,72.574,0,0,1-6.7,4.467,20.015,20.015,0,0,1-3.266,1.5,11.56,11.56,0,0,1-1.576.423,8.237,8.237,0,0,1-1.524.15,6.146,6.146,0,0,1-2.314-.434,6.471,6.471,0,0,1-2.11-1.416,10.74,10.74,0,0,1-1.862-2.568,21.65,21.65,0,0,1-1.572-3.891,8.243,8.243,0,0,1-2.819-1.089c-.44-.234-.894-.477-1.351-.671.327,1.519-.492,3.054-1.214,4.407-.1.181-.2.369-.292.553a1.593,1.593,0,0,1-.829.87,2.8,2.8,0,0,1-1.2.245h-.033a1.464,1.464,0,0,1-1.037.4,1.838,1.838,0,0,1-.856-.213,1.525,1.525,0,0,1-.625-.591,19.149,19.149,0,0,1-3.9-1.653c-1.241-.677-2.456-1.46-3.631-2.218-.888-.572-1.806-1.164-2.726-1.7-2.781-1.689-5.689-3.259-8.5-4.777l-.008,0c-2-1.079-4.067-2.195-6.072-3.345.976,4.042,1.837,8.253,2.559,12.516.689,4.066,1.273,8.312,1.738,12.621.44,4.076.787,8.349,1.032,12.7.23,4.072.378,8.363.441,12.753.111,7.69-.03,16.052-.431,25.564-.357,8.477-.873,16.886-1.415,25.472l-.015.306a20.611,20.611,0,0,1-.394,3.266,10.121,10.121,0,0,1-.915,2.6,9.921,9.921,0,0,1-1.633,2.241,19.431,19.431,0,0,1-2.548,2.191,65.886,65.886,0,0,1,1.837,6.6c.078.236.286.264.487.291.246.033.479.064.482.453a4.875,4.875,0,0,1,1.073-.112,4.673,4.673,0,0,1,1.4.2,1.689,1.689,0,0,1,.971.659,1.276,1.276,0,0,1-.069,1.291,22.4,22.4,0,0,1,2.49,2.489c.768.884,1.5,1.826,2.215,2.737l0,0c.873,1.118,1.775,2.273,2.748,3.335a42.858,42.858,0,0,0,3.585,3.784c1.191,1.121,2.486,2.231,3.958,3.4,2.733,2.161,5.659,4.168,8.489,6.109l.146.1a27.542,27.542,0,0,1,4.58,2.9,18.2,18.2,0,0,1,3.231,3.239,11.614,11.614,0,0,1,1.829,3.408,8.127,8.127,0,0,1,.376,3.4,7.669,7.669,0,0,1-.949,2.922,10.037,10.037,0,0,1-2.21,2.651,15.89,15.89,0,0,1-3.509,2.254,26.321,26.321,0,0,1-4.845,1.729l-.156.036c-.447.108-.905.242-1.39.384A13.139,13.139,0,0,1,170.3,303.794Zm-44.639-41.586a100.749,100.749,0,0,0-.6,11.068c-.013,3.3.1,6.929.345,11.1,5.823,2.635,11.773,5.152,17.685,7.481,5.951,2.345,12.022,4.561,18.043,6.589a30.666,30.666,0,0,0,3.434,1.124,19.982,19.982,0,0,1,5.048,1.938,25.624,25.624,0,0,0,12.188-4.124,7.342,7.342,0,0,0,2.361-2.532,5.433,5.433,0,0,0,.635-2.8,8.457,8.457,0,0,0-1.853-4.65,14.107,14.107,0,0,0-4.083-3.611,44.048,44.048,0,0,1-4-2.068c-1.279-.744-2.572-1.578-3.845-2.479a65.186,65.186,0,0,1-7.182-5.95,98.229,98.229,0,0,1-12.117-14.178c-.345.037-.7.071-1.009.1-.891.085-1.813.174-2.723.341a32.758,32.758,0,0,0-6.63,1.837,37.256,37.256,0,0,0-6.151,3.112c-.351.219-.7.458-1.032.688a10.339,10.339,0,0,1-2.811,1.533,3.963,3.963,0,0,1-3.077-.141,4.515,4.515,0,0,1-1.4-1.029A4.463,4.463,0,0,1,125.656,262.208Zm2.2-13.9a12.14,12.14,0,0,0,.459,3.5v0c.192.878.409,1.873.558,2.934a17.593,17.593,0,0,1,.168,3.422c-.052.394-.127.8-.2,1.2h0a10.346,10.346,0,0,0-.254,2.915,2.889,2.889,0,0,0,.534,1.478,1.2,1.2,0,0,0,.959.432,4.19,4.19,0,0,0,2-.739c.73-.438,1.493-1.007,2.231-1.558a11.532,11.532,0,0,1,2.627-1.672A32.936,32.936,0,0,1,141.9,258a34.979,34.979,0,0,1,5.245-1.387,3.036,3.036,0,0,0-.44-1.436,3.4,3.4,0,0,1-.449-1.327c-.094-1.093-.124-2.183-.154-3.236v-.006c-.016-.574-.033-1.167-.059-1.762a15.6,15.6,0,0,1-6.32,1.06,43.3,43.3,0,0,1-6.321-.525C131.613,249.113,129.746,248.751,127.857,248.306Zm24.948,10.476a1.926,1.926,0,0,1-.253.141c.193.233.381.478.562.715a10.936,10.936,0,0,0,1.4,1.6l-.325-.5A19.709,19.709,0,0,0,152.805,258.781ZM9,79.222H9A6.361,6.361,0,0,1,7.7,81.82c.156,1.263.271,2.563.343,3.863.068,1.238.1,2.518.092,3.8-.014,2.371-.152,4.809-.423,7.454-.5,4.906-1.392,9.743-2.252,14.421h0v0c-.665,3.62-1.353,7.362-1.831,11.009-.257,1.961-.437,3.748-.549,5.464-.125,1.922-.164,3.708-.117,5.46a47.6,47.6,0,0,0,.456,5.475,42.163,42.163,0,0,0,1.169,5.509,41.621,41.621,0,0,0,2.022,5.561,45.622,45.622,0,0,0,3.016,5.632,2.525,2.525,0,0,1,.549.348c.077-.051.164-.111.273-.189,1.04-1.84,2.162-3.684,3.432-5.636,1.131-1.739,2.354-3.525,3.738-5.46,2.572-3.6,5.325-7.171,7.988-10.629,3.644-4.732,7.411-9.626,10.769-14.64.551-1.077,1.214-2.135,1.915-3.256a25.874,25.874,0,0,0,3.283-6.539c-2.04-.806-3.987-1.682-5.786-2.6a53.821,53.821,0,0,1-5-2.9,49.916,49.916,0,0,1-8.233-6.782,73.3,73.3,0,0,1-6.868-8.2c-2.205-3-4.423-6.331-6.69-9.762Zm216.059,40.457a19.237,19.237,0,0,0-3.8.419c-1.223.246-2.408.565-3.72.927-4.1,1.122-7.758,2.046-11.177,2.826-4.007.913-7.707,1.635-11.314,2.205a6.185,6.185,0,0,0-.434.492.693.693,0,0,1-.039.78,5.461,5.461,0,0,0-.552,1.87,17.286,17.286,0,0,0-.1,1.985v0a10.3,10.3,0,0,1-.406,3.364,21.482,21.482,0,0,1-1.275,3.61,20.045,20.045,0,0,1-1.987,3.436,15.231,15.231,0,0,1-2.66,2.862,10.955,10.955,0,0,1-3.292,1.886,23.426,23.426,0,0,1,2.067,2.359,20.967,20.967,0,0,0,2.324,2.6,5.34,5.34,0,0,0,1.45.709,5.008,5.008,0,0,0,1.469.217,8.25,8.25,0,0,0,3.84-1.134,32.427,32.427,0,0,0,3.581-2.339c.515-.369,1-.718,1.468-1.032,5.97-4.218,12.16-8.554,18.924-13.255A39.929,39.929,0,0,1,223,131.992h0c1.428-.921,2.9-1.872,4.158-2.869a8.851,8.851,0,0,0,2.727-3.078,4.092,4.092,0,0,0,.231-1.769,5.34,5.34,0,0,0-.457-1.691,10.824,10.824,0,0,0-2.057-2.933,2.366,2.366,0,0,1-.815.124c-.247,0-.5-.024-.748-.047h0c-.222-.021-.452-.042-.676-.046-.1,0-.205,0-.309,0Zm-40.809,6.029c-.652,1.329-1.252,2.7-1.834,4.2-.521,1.34-1.015,2.749-1.512,4.307-.946,2.967-1.766,6.074-2.489,8.816.862.237,1.7.55,2.512.853h0c.718.268,1.46.545,2.211.766a1.713,1.713,0,0,0,.375.041,3.282,3.282,0,0,0,1.751-.647,10.639,10.639,0,0,0,1.772-1.547,25.972,25.972,0,0,0,2.662-3.42,18.665,18.665,0,0,0,1.473-3.03,17.552,17.552,0,0,0,.884-3.249,22.065,22.065,0,0,0,.173-2.223h0c.031-.714.063-1.451.165-2.162a7.242,7.242,0,0,1,.588-2.072,32.7,32.7,0,0,1-3.358.194,15.936,15.936,0,0,1-5.374-.829ZM84.76,110.976a.494.494,0,0,0-.487.35l-.648,1.952-.236.712h0c-1.164,3.511-2.367,7.141-3.609,10.691-1.393,3.982-2.687,7.438-3.956,10.566a.4.4,0,0,0,.025.4.56.56,0,0,0,.951-.126c1.267-3.123,2.558-6.573,3.949-10.548,1.239-3.542,2.441-7.165,3.6-10.669l0-.005c.278-.839.593-1.789.9-2.7a.434.434,0,0,0-.05-.409.545.545,0,0,0-.44-.21Zm39.827,6.525a.376.376,0,0,1,.287.144,3.212,3.212,0,0,1,.422,1.678,23.516,23.516,0,0,1,.006,2.7c-.085,1.89-.3,3.766-.354,4.165a21.215,21.215,0,0,1-.4,2.327c-.146.692-.3,1.407-.379,2.111a7.553,7.553,0,0,0,.017,2.115,16.8,16.8,0,0,0,3.113-5.48c.731-1.9,1.43-3.849,2.1-5.734.3-.845.616-1.718.927-2.575a.82.82,0,0,1,.312-.4.789.789,0,0,1,1.023.144.757.757,0,0,1,.142.654c-.065,3.167-.116,6.268-.167,9.431l-.038,2.358c0,.067-.007.152-.013.25v0c-.026.387-.062.916.128,1.12a.255.255,0,0,0,.194.082.572.572,0,0,0,.235-.062,13.568,13.568,0,0,0,2.5-3.879,23.894,23.894,0,0,0,1.5-4.814,33.714,33.714,0,0,0,.644-5.088,33.348,33.348,0,0,0-.079-4.7c-.6.015-1.2.022-1.774.022-1.932,0-3.795-.082-5.538-.244a45.722,45.722,0,0,1-5.456-.829,36.38,36.38,0,0,1-5.271-1.559,31.033,31.033,0,0,1-4.985-2.433,39.473,39.473,0,0,1-2.64,7.424c-.658,1.52-1.338,3.091-1.871,4.67,2.51-.553,4.46-2.845,6.037-5.013l.045-.068c.073-.112.146-.229.222-.352a7.649,7.649,0,0,1,.9-1.248,1.7,1.7,0,0,1,1.233-.609,1.8,1.8,0,0,1,.771.192,3.032,3.032,0,0,1,1.282,2.722,19.6,19.6,0,0,1-.359,3.783,18.491,18.491,0,0,0-.279,2.295,40.544,40.544,0,0,1-1.344,6.514c-.255.963-.518,1.959-.744,2.951,1.4-.956,2.044-2.608,2.667-4.206.206-.529.4-1.029.623-1.507l3.478-8.344C124.055,117.742,124.35,117.5,124.587,117.5Zm60.018,7.388c-.034.108-.075.221-.108.312l.01,0,.06.014C184.585,125.092,184.6,124.987,184.605,124.889ZM98.864,89.816c.026.715.055,1.443.083,2.146v.023c.141,3.6.288,7.32.214,10.967a41.312,41.312,0,0,1,16.475,4.546c4.488,2.125,8.727,4.132,18.383,4.133h0c.923,0,1.9-.019,2.894-.056a5.837,5.837,0,0,0,1.767-2.889,29.533,29.533,0,0,0,1.182-4.812,45.3,45.3,0,0,0,.707-8.879,5.279,5.279,0,0,0-2.015-4.53,8.677,8.677,0,0,0-2.2-1.276,14.223,14.223,0,0,0-2.542-.756,1.087,1.087,0,0,1-.57.153,1.865,1.865,0,0,1-1.113-.429,1.708,1.708,0,0,1-.642-.941.823.823,0,0,1,.088-.6,1.215,1.215,0,0,1,.6-.479,21.837,21.837,0,0,0,6.775-3.414,20.988,20.988,0,0,0-2.466-.425,22.083,22.083,0,0,0-2.435-.133,25.769,25.769,0,0,0-4.066.335,36.775,36.775,0,0,0-4.01.883c-2.659.731-5.342,1.723-7.936,2.682l-.054.02c-2.6.961-5.286,1.955-7.99,2.694a37.2,37.2,0,0,1-4.058.888,26.333,26.333,0,0,1-4.128.337,22.569,22.569,0,0,1-2.943-.191ZM36.439,11.13A44.551,44.551,0,0,0,29.1,12.491a46.108,46.108,0,0,0-7.042,2.557,23.8,23.8,0,0,0-2.983,1.078,21.835,21.835,0,0,0-2.661,1.4A21.236,21.236,0,0,0,12,21.157a26.632,26.632,0,0,0-5.6,9.829A44.5,44.5,0,0,0,4.331,42.7c-.1,1.939-.1,3.954,0,5.99.091,1.911.27,3.853.53,5.773a75.055,75.055,0,0,0,1.095,8.427,64.7,64.7,0,0,0,2.1,8.182,56.486,56.486,0,0,0,3.219,7.785,51.146,51.146,0,0,0,4.445,7.236,54.284,54.284,0,0,0,4.584,6.05,46.968,46.968,0,0,0,5,4.913,43.988,43.988,0,0,0,5.379,3.878,44.8,44.8,0,0,0,5.714,2.944A49.339,49.339,0,0,0,42.4,105.99a57.968,57.968,0,0,0,6.257,1.383c2.05.339,4.225.593,6.465.755,2.1.152,4.329.229,6.632.229,2.271,0,4.611-.071,7.152-.217,2.262-.13,4.631-.317,7.242-.572,4.848-.473,9.783-1.109,14.555-1.724l.087-.011,1.337-.172a3.684,3.684,0,0,1,1.716-.468,3.343,3.343,0,0,0,2.026-.678.971.971,0,0,1-.275-.145,2.777,2.777,0,0,0,.949-1.707l.2.02c.124-2.636.11-5.282.1-7.841v0c-.008-1.595-.017-3.244.008-4.873-4.721-1.295-9.7-2.287-14.523-3.246h0c-4.71-.938-9.581-1.907-14.245-3.165a1.6,1.6,0,0,1-.948.3,4.541,4.541,0,0,1-1.786-.543c-.218-.1-.425-.194-.628-.273-2.658-1.131-5.426-2.242-8.227-3.3l-.691-.261c-2.018-.756-3.78-1.44-5.387-2.09l-.669-.272c-.18-.074-.406-.181-.668-.306A8.286,8.286,0,0,0,46,75.8a1.435,1.435,0,0,0-.969.312l.09.194c.481,1.049,2,4.552,1.338,5.58a.629.629,0,0,1-.568.285,1.843,1.843,0,0,1-.631-.137,2.852,2.852,0,0,1-.767-.937,10.83,10.83,0,0,1-.7-1.537c-.445-1.179-.863-2.637-1.267-4.048h0a45.334,45.334,0,0,0-1.384-4.322,6.442,6.442,0,0,0-.755-1.426,1.176,1.176,0,0,0-.837-.563A21.918,21.918,0,0,0,38.1,75.639a.741.741,0,0,1-.232.458.676.676,0,0,1-.454.2.528.528,0,0,1-.409-.2,4.343,4.343,0,0,1-.8-1.682,4.749,4.749,0,0,1-.057-1.718,14.674,14.674,0,0,1,1.134-3.506,12.3,12.3,0,0,0,1.2-4.161,14.359,14.359,0,0,0-.047-2.228,19.79,19.79,0,0,0-.341-2.19c-.3-1.449-.744-2.9-1.17-4.308v0c-.373-1.232-.76-2.506-1.05-3.767l-.059-.285c-.094-.454-.2-.912-.3-1.4-.261-1.186-.53-2.413-.713-3.6a13.793,13.793,0,0,1-.181-3.337l.554,2.088c.505,1.9,1.1,4.1,1.779,6.239.345,1.094.757,2.216,1.155,3.3h0a42.022,42.022,0,0,1,1.929,6.238,15.488,15.488,0,0,1,.315,3.183,11.69,11.69,0,0,1-.476,3.228,2.778,2.778,0,0,1,1.54.518,4.272,4.272,0,0,1,1.12,1.243A16.723,16.723,0,0,1,44,73.454,17.513,17.513,0,0,0,44.91,75.8a1.462,1.462,0,0,1,.753-.476,4.12,4.12,0,0,1,1.189-.147,14.541,14.541,0,0,1,3.036.413c1.057.237,2.3.583,3.7,1.028,2.575.82,5.208,1.822,7.324,2.627,1.382.526,2.473.942,3.128,1.145l.614-.7c1.7-1.928,3.362-3.8,5-5.493A44.748,44.748,0,0,1,74.5,69.775a20.915,20.915,0,0,1,5.036-2.953,15.376,15.376,0,0,1,2.7-.8,14.953,14.953,0,0,1,2.875-.277c3.643,0,7.631,1.283,12.191,3.923a55.814,55.814,0,0,1-1.494-6.034c-.368-1.915-.668-3.927-.917-6.151-.462-4.127-.669-8.35-.869-12.433l0-.067c-.033-.671-.067-1.364-.1-2.044a15.465,15.465,0,0,0-.077-2.17,22.912,22.912,0,0,1-.1-2.968c.066-1.05.306-1.7.735-1.987a2.716,2.716,0,0,1,.7.2V36.9a29.8,29.8,0,0,0,.135,2.993,3.837,3.837,0,0,0,.668,2.194l.329,3.384c.411,4.2.871,8.676,1.57,13.157.364,2.331.76,4.458,1.21,6.5.5,2.27,1.051,4.369,1.685,6.414,1.532.857,3.089,1.8,4.63,2.8,1.462.953,2.957,1.991,4.443,3.086,2.717,2,5.466,4.233,8.4,6.818l.617-.225.623-.229.027-.01c4.543-1.668,9.693-3.559,14.624-3.559a16.965,16.965,0,0,1,3.206.294,14.188,14.188,0,0,1,3.1.971,9.094,9.094,0,0,0-.549-2.519,12.075,12.075,0,0,0-1.16-2.319,6.067,6.067,0,0,1-2.814-2.177c-.293-.332-.569-.646-.858-.93-1.221-1.312-2.474-2.635-3.685-3.915l-.009-.01,0,0c-2.273-2.4-4.624-4.884-6.862-7.4-1.184-1.274-2.338-2.638-3.53-4.171-1.062-1.366-2.13-2.836-3.263-4.493-2.106-3.078-4.127-6.356-6.082-9.526l0,0c-1.933-3.134-3.932-6.375-6.016-9.43-1.122-1.644-2.177-3.1-3.227-4.463-1.178-1.526-2.32-2.886-3.488-4.159a48.2,48.2,0,0,0-3.836-3.752A39.347,39.347,0,0,0,90.783,19a34.774,34.774,0,0,0-10.189-4.544,13.089,13.089,0,0,1-2,5.669A13.133,13.133,0,0,1,74.6,24a18.1,18.1,0,0,1-5.323,2.232,24.62,24.62,0,0,1-6,.714,27.309,27.309,0,0,1-5.392-.537,23.763,23.763,0,0,1-4.935-1.547l-.373-.143c-1.751-.676-3.269-1.337-4.641-2.02a31.152,31.152,0,0,1-4.419-2.631,21.779,21.779,0,0,1-1.963-1.6,17.36,17.36,0,0,1-1.713-1.809,14.5,14.5,0,0,1-1.4-2.043,13.105,13.105,0,0,1-1.016-2.3l-.089-.188C37.128,11.7,36.864,11.219,36.439,11.13ZM139.616,84.46h0a25.234,25.234,0,0,1-5.048,2.794,1.192,1.192,0,0,1-.185.588,13.8,13.8,0,0,1,3.49.682,8.539,8.539,0,0,1,1.59.739,6.743,6.743,0,0,1,1.374,1.09c.077-.6.158-1.246.219-1.887a5.712,5.712,0,0,0-.17-2.259,3.3,3.3,0,0,0-1.27-1.747Zm-71.361-1.8a.58.58,0,0,1,.077.186c.41.043.824.091,1.233.141ZM6.711,71.693h0c.069.459.137.941.208,1.472l.065.492.01-.043a.763.763,0,0,1,.18-.327l.028-.029C7.032,72.74,6.867,72.213,6.711,71.693ZM80.7,13.586c.017.141.027.3.033.483.182,0,.4,0,.622.008A3.36,3.36,0,0,1,80.7,13.586ZM7.646,136.347h0a.252.252,0,0,1-.275-.248,3.607,3.607,0,0,1,.537-1.61c.362-.72.907-1.647,1.618-2.756,1.619-2.523,3.691-5.358,5.143-7.292,1.88-2.5,3.872-5.021,5.465-6.91,1.679-1.991,2.787-3.134,3.12-3.22a1.4,1.4,0,0,1,.362-.061c.137,0,.225.042.262.125.249.556-1.784,2.83-3.13,4.335h0l0,0a14.59,14.59,0,0,0-1.067,1.254c-3.714,4.386-7.147,9.049-10.628,13.839l-1.037,1.428c-.093.135-.55.816-.455,1a.092.092,0,0,0,.089.045.311.311,0,0,0,.076-.011l.011,0a.036.036,0,0,1,.035.027.041.041,0,0,1-.016.047A.635.635,0,0,1,7.646,136.347Zm.085-11.458h0c-.052-.038-.05-.142,0-.308.352-1.068,2.919-4.708,5.844-8.285,1.526-1.867,2.942-3.461,4.093-4.61a16.431,16.431,0,0,1,1.641-1.47,2.234,2.234,0,0,1,1.1-.55.318.318,0,0,1,.256.109,1.167,1.167,0,0,1,.069.888c-1.906,2.255-3.99,4.416-6.005,6.506h0c-2.373,2.46-4.826,5-7.006,7.719ZM36.907,97.882a.933.933,0,0,1-.644-.266,6.367,6.367,0,0,1-1.108-1.748,5.9,5.9,0,0,1-.437-1.847,8.457,8.457,0,0,1,.7-3.793,17.027,17.027,0,0,1,2.073-3.591,27.213,27.213,0,0,1,2.569-2.989.02.02,0,0,1,.015-.007.027.027,0,0,1,.023.014.02.02,0,0,1,0,.021,21.692,21.692,0,0,0-1.974,2.909,14.005,14.005,0,0,0-1.339,3.22,7.91,7.91,0,0,0,.966,6.653.979.979,0,0,1,.126.5.908.908,0,0,1-.128.438A1,1,0,0,1,36.907,97.882ZM20.977,84.951a1.241,1.241,0,0,1-1.023-.531,4.122,4.122,0,0,1-.431-1.276,3.781,3.781,0,0,1,.015-1.239,5.793,5.793,0,0,1,1.081-2.363,15.1,15.1,0,0,1,2.006-2.2c.759-.706,1.572-1.378,2.358-2.029h0a25.377,25.377,0,0,0,2.858-2.594,14.129,14.129,0,0,1,1.242-1.126,5.886,5.886,0,0,0,2.331-3.008l.018-.086a.087.087,0,0,1,.087-.076.071.071,0,0,1,.052.021.074.074,0,0,1,.018.056,4.707,4.707,0,0,1-1.524,2.819l-.007.008c-.082.093-.167.19-.249.285l-3.522,4.068c-.333.4-.684.793-1.057,1.208l0,0a18.261,18.261,0,0,0-2.445,3.156,6.272,6.272,0,0,0-.688,1.79,5.056,5.056,0,0,0-.013,2,1.082,1.082,0,0,1-.3.793A1.137,1.137,0,0,1,20.977,84.951ZM115.719,70.22a.333.333,0,0,1-.308-.239.321.321,0,0,1,.137-.369c1.376-.971,2.753-1.983,4.085-2.961l.04-.03.043,0c.053,0,.085.014.1.042.081.23-1.332,1.363-2.468,2.274a13.3,13.3,0,0,0-1.4,1.192A.346.346,0,0,1,115.719,70.22Zm-11.346-8.348a.116.116,0,0,1-.1-.08.083.083,0,0,1,.027-.1l.262-.208c.235-.187.473-.377.7-.562a23.991,23.991,0,0,1,5.72-3.756.561.561,0,0,1,.213-.044.529.529,0,0,1,.375.162.777.777,0,0,1,.205.375.581.581,0,0,1-.292.687c-.76.372-1.545.714-2.3,1.044a26.917,26.917,0,0,0-4.756,2.462A.085.085,0,0,1,104.373,61.872ZM21.932,52.706c-.667,0-2.223-1.017-3.359-1.76a9.2,9.2,0,0,0-1.318-.792,20.3,20.3,0,0,0-3.392-1.529A17.615,17.615,0,0,1,9.634,46.57a5.368,5.368,0,0,1-1.463-1.592,4.607,4.607,0,0,1-.442-1.032,5.36,5.36,0,0,1-.2-1.225,5,5,0,0,0,2.659,3.312,20.156,20.156,0,0,0,4.241,1.626l.128.038.869.331a30.946,30.946,0,0,1,3.642,1.6,11.275,11.275,0,0,1,3.126,2.385c.086.277.088.473.007.583A.315.315,0,0,1,21.932,52.706Z" transform="translate(0 4.91)"/>
        </g>
      </g>
      <g id="Group_251" data-name="Group 251" transform="translate(-12488.748 6326.717)">
        <path id="_Skin-2" data-name="âœ‹ Skin" d="M28.022.012c24.635.78,26.121,12.481,26.121,32.105s-12.78,31.99-17.485,34.149S19.561,77.7,8.379,73.427.436,51.1.436,43.337,3.387-.767,28.022.012Z" transform="translate(14.089 11.146)" fill="#d08b5b"/>
        <path id="_hijab" data-name="ðŸ§• hijab" d="M0,30.419Q7.641-.736,27.9.018c20.256.754,20.042,21.4,18.771,19.517Q45.422,17.69,29.229,6.646l-.667-.455Z" transform="translate(18.3 11.882)" fill="#583e00"/>
        <path id="_Ink-2" data-name="ðŸ– Ink" d="M42.543,102.562a22.746,22.746,0,0,1-9.454-2.606c-4.9-2.3-9.783-4.86-14.506-7.34l0,0c-1.451-.762-2.952-1.55-4.429-2.317-3.669-1.905-6.669-3.477-9.439-4.945-.261-.138-.6-.325-.942-.537H3.685l-.182,0c-.21,0-.427.013-.656.026s-.472.028-.707.028a3.11,3.11,0,0,1-.944-.12,1.667,1.667,0,0,1-1.12-1.125A1.965,1.965,0,0,1,0,82.95a2.96,2.96,0,0,1,.423-1.309,9.994,9.994,0,0,1,2.222-2.317l.157-.133c.952-.8,1.933-1.522,2.767-2.119.388-.278.786-.558,1.171-.828.7-.49,1.418-1,2.111-1.514l.026-.04c.049-.075.1-.153.149-.231a13.036,13.036,0,0,0,1.894-5.667,18.767,18.767,0,0,1-1.11-1.532,39.907,39.907,0,0,1-4.38-9.438,50.848,50.848,0,0,1-2.116-10.2,46.821,46.821,0,0,1,.062-10.337,43.386,43.386,0,0,1,6.3-18.031,44.514,44.514,0,0,1,5.432-7.061,42.372,42.372,0,0,1,6.742-5.8,38.918,38.918,0,0,1,7.835-4.186A32.4,32.4,0,0,1,35.3.569,30.294,30.294,0,0,1,41.1,0a28.26,28.26,0,0,1,5.289.5,26.6,26.6,0,0,1,4.327,1.219,28.649,28.649,0,0,1,4.1,1.921,29.4,29.4,0,0,1,3.753,2.535,28.541,28.541,0,0,1,3.289,3.063,32,32,0,0,1,2.411,2.981,34.884,34.884,0,0,1,2.043,3.224,41.24,41.24,0,0,1,3.076,7.006A58.712,58.712,0,0,1,72.17,37.5a57.757,57.757,0,0,1-2.017,19.441,56.617,56.617,0,0,1-3.342,8.786,62.474,62.474,0,0,1-4.7,8.168c.169.254.356.523.606.874.832,1.164,1.721,2.422,2.578,3.729a25.886,25.886,0,0,1,2.036,3.607,12.954,12.954,0,0,1,1.123,3.938,10.327,10.327,0,0,1,.059,1.355,1.957,1.957,0,0,1-.6,1.315,1.88,1.88,0,0,1-1.3.579,1.5,1.5,0,0,1-.89-.295,4.088,4.088,0,0,0-2.475-.788,7.372,7.372,0,0,0-2.321.435c-.86,1.089-1.75,2.181-2.648,3.247a50.211,50.211,0,0,1-7.349,7.542,15.932,15.932,0,0,1-3.931,2.269,12.25,12.25,0,0,1-4.444.859Zm-24.2-23.678a.629.629,0,0,0-.417.163.752.752,0,0,0-.233.379A.572.572,0,0,0,18,80.1a32.186,32.186,0,0,0,10.055,3.177.755.755,0,0,0,.125.011.721.721,0,0,0,.694-.674.53.53,0,0,0-.471-.6,42.09,42.09,0,0,1-5-1.126,25.031,25.031,0,0,1-4.743-1.919A.665.665,0,0,0,18.344,78.885Zm4.821-5.366a.733.733,0,0,0-.656.459.566.566,0,0,0,.165.645,24.741,24.741,0,0,0,6.865,4.389A33.918,33.918,0,0,0,37.388,81.3a.753.753,0,0,0,.126.011.721.721,0,0,0,.693-.673.531.531,0,0,0-.471-.6A33.471,33.471,0,0,1,30.2,77.875a25.294,25.294,0,0,1-3.471-1.806A21.69,21.69,0,0,1,23.6,73.7.64.64,0,0,0,23.165,73.519Zm24.12-54.687-.322.262-.021.017-.308.251c-.532.433-1.065.871-1.581,1.295h0c-.776.637-1.578,1.3-2.372,1.937-2.832,2.29-5.631,4.626-7.753,6.4-4.147,3.476-9.621,8.053-15.183,12.627A28.118,28.118,0,0,0,19.727,52a44.989,44.989,0,0,0,3.66,10.794c1.1,1.026,2.028,1.857,2.93,2.617,1.073.9,2.094,1.692,3.119,2.413A30.511,30.511,0,0,0,37.535,72a20.559,20.559,0,0,0,6.379,1.055,16.6,16.6,0,0,0,8.191-2.09A23.782,23.782,0,0,0,61.181,61.3c4.81-8.928,4.082-19.575,2.923-29.716a.761.761,0,0,1-.107.008.865.865,0,0,1-.222-.03,3.616,3.616,0,0,1-1.608-1.243c-.143-.16-.279-.311-.418-.452-.662-.667-1.34-1.316-2.013-1.927-1.285-1.166-2.665-2.3-4.1-3.383C54.21,23.5,52.7,22.5,51.248,21.54,49.934,20.674,48.576,19.777,47.285,18.832Zm.625-3.084a17.8,17.8,0,0,0-9.47,2.961c-1.365.866-2.768,1.858-4.171,2.946-1.277.991-2.594,2.094-3.915,3.28-5.684,5.1-9.1,10.294-10.433,15.877l-.011.046c-.022.093-.045.188-.066.283C24.3,36.78,29.039,32.36,33.929,28c1.493-1.33,3.015-2.677,4.488-3.979l0,0,0,0c.988-.874,2.01-1.778,3.014-2.668,1.134-1.006,2.3-2.011,3.431-2.983l.415-.357.459-.395,0,0c.481-.414.979-.842,1.469-1.262.084-.072.169-.147.251-.22h0C47.609,16,47.758,15.87,47.91,15.748Zm2.225.134a.814.814,0,0,1-.034.142,2.5,2.5,0,0,1-.548.9,7.08,7.08,0,0,1-.789.7l0,0-.147.119c-.221.178-.441.359-.63.514a22.388,22.388,0,0,1,4.574,1.953,40.645,40.645,0,0,1,4.189,2.712,50.819,50.819,0,0,1,4.4,3.6c.68.62,1.356,1.27,2.01,1.932.1.1.214.209.331.32h0c.1.1.213.2.319.307l-.018-.154,0-.019-.029-.246a1.072,1.072,0,0,1,.211-.756,16.821,16.821,0,0,0-5.141-8.075A16.443,16.443,0,0,0,50.134,15.883Z" transform="translate(0)"/>
        <path id="_Ink-3" data-name="ðŸ– Ink" d="M17.233,30.573a6.237,6.237,0,0,1-3.456-1.022,6.585,6.585,0,0,1-1.43-1.234,4.453,4.453,0,0,1-1.182-2.973.488.488,0,0,1,.116-.311.543.543,0,0,1,.289-.174.558.558,0,0,1,.127-.015.513.513,0,0,1,.211.044.45.45,0,0,1,.223.219c.1.136.24.315.378.487a6.216,6.216,0,0,0,3.52,2.523,4.179,4.179,0,0,0,.9.1,4.39,4.39,0,0,0,1.514-.274,5.151,5.151,0,0,0,2.12-1.489,1.138,1.138,0,0,1,.866-.428h.008a1.332,1.332,0,0,1,.921.408,1.437,1.437,0,0,1,.43.938,1.255,1.255,0,0,1-.356.921,7.14,7.14,0,0,1-1.5,1.224,7.271,7.271,0,0,1-1.769.781A6.914,6.914,0,0,1,17.233,30.573Zm1.949-9.1h0a5.715,5.715,0,0,1-2.038-.411,10.291,10.291,0,0,1-2.4-1.36.921.921,0,0,1-.334-.532,1.1,1.1,0,0,1,.047-.6,1.358,1.358,0,0,1,.4-.583.982.982,0,0,1,.629-.245.892.892,0,0,1,.486.149l.159.122.005,0c.833.644,2.091,1.616,3.3,1.616a1.969,1.969,0,0,0,1.467-.651,2.17,2.17,0,0,0,.412-1.747,4.759,4.759,0,0,0-2.2-2.619.411.411,0,0,1-.111-.472.611.611,0,0,1,.6-.423.833.833,0,0,1,.141.012,4.445,4.445,0,0,1,1.563.565,3.546,3.546,0,0,1,1.051.969,3.851,3.851,0,0,1,.671,2.573,4.108,4.108,0,0,1-1.119,2.51A3.7,3.7,0,0,1,19.183,21.469ZM3.515,15.179a.783.783,0,0,1-.227-.033.461.461,0,0,1-.311-.268,3.939,3.939,0,0,1,.191-2.868,5.82,5.82,0,0,1,2.1-2.63,3.637,3.637,0,0,1,1.725-.445,3.456,3.456,0,0,1,1.663.429,4.327,4.327,0,0,1,1.149.944,11.909,11.909,0,0,1,.891,1.187c.117.171.239.348.362.519a1.045,1.045,0,0,1,.176.972,1.257,1.257,0,0,1-.713.737,1.366,1.366,0,0,1-.526.108,1.2,1.2,0,0,1-.469-.093,1.261,1.261,0,0,1-.676-.714,3.749,3.749,0,0,0-1.289-1.711,1.377,1.377,0,0,0-1.382-.106,4.517,4.517,0,0,0-1.609,1.6,3.144,3.144,0,0,0-.528,1.873.425.425,0,0,1-.138.357.535.535,0,0,1-.3.132A.7.7,0,0,1,3.515,15.179Zm23.726-2.311a1.022,1.022,0,0,1-.3-.048,1.116,1.116,0,0,1-.461-.275.918.918,0,0,1-.256-.464,1.9,1.9,0,0,0-.666-1.11,1.33,1.33,0,0,0-1.064-.28,2.043,2.043,0,0,0-1.145.686,2.513,2.513,0,0,0-.24.35l-.007.012a2.557,2.557,0,0,1-.475.624.464.464,0,0,1-.294.111.439.439,0,0,1-.131-.02,1.357,1.357,0,0,1-.507-1.1,2.019,2.019,0,0,1,.371-1.023A4.032,4.032,0,0,1,24.232,8.8a3.065,3.065,0,0,1,.643-.068,3.281,3.281,0,0,1,1.887.614,3.583,3.583,0,0,1,1.465,2.242,1.193,1.193,0,0,1-.06.662.929.929,0,0,1-.433.482A1.03,1.03,0,0,1,27.242,12.868ZM.562,8.5l-.035,0a.332.332,0,0,1-.173-.084A1.257,1.257,0,0,1,0,7.38a4.478,4.478,0,0,1,.455-1.74,9.424,9.424,0,0,1,2-2.75A9.726,9.726,0,0,1,5.6.975,6.764,6.764,0,0,1,7.844.481l.139,0a2.694,2.694,0,0,1,.834.159A2.195,2.195,0,0,1,9.56,1.1a1.379,1.379,0,0,1,.412,1.007,1.437,1.437,0,0,1-.414,1.03,2.128,2.128,0,0,1-.88.514,5.115,5.115,0,0,1-.96.171,8.732,8.732,0,0,0-.936.138,8.791,8.791,0,0,0-2.26.825A8.362,8.362,0,0,0,2.4,6.291c-.138.148-.27.3-.4.456l0,0c-.118.141-.23.274-.349.4s-.254.29-.4.465a1.979,1.979,0,0,0-.113.2c-.029.06-.057.116-.085.17-.053.1-.1.187-.151.259-.094.158-.143.2-.181.213A.406.406,0,0,1,.562,8.5Zm28.017-.359a.321.321,0,0,1-.053,0,.316.316,0,0,1-.161-.078.3.3,0,0,1-.091-.156,4.768,4.768,0,0,0-2.56-3.529,10.953,10.953,0,0,0-2.386-.8c-.23-.054-.477-.091-.716-.125l-.011,0a3.014,3.014,0,0,1-2.066-.872,1.74,1.74,0,0,1-.322-.628,1.6,1.6,0,0,1-.039-.676A1.389,1.389,0,0,1,20.928.241,2.27,2.27,0,0,1,21.982,0a6.9,6.9,0,0,1,2.531.706l.056.024h0l.185.079a8.307,8.307,0,0,1,2.9,1.933,6.259,6.259,0,0,1,1.489,2.751,3.3,3.3,0,0,1-.3,2.5.3.3,0,0,1-.136.119A.313.313,0,0,1,28.579,8.142Z" transform="translate(32.572 31.618)"/>
      </g>
    </g>
  </g>
</svg>
