<svg id="timline-3" xmlns="http://www.w3.org/2000/svg" width="300" height="306.624" viewBox="0 0 300 306.624">
  <circle id="Ellipse_137" data-name="Ellipse 137" cx="150" cy="150" r="150" fill="#36df8e"/>
  <path id="_Skin" data-name="âœ‹ Skin" d="M4.894,58.368,15.6,59.419c17.1,1.306,34.187,4.034,51.153,5.671a1.1,1.1,0,0,1,1.751-.1c1.693-.148,3.59-1.442,5.124-.1.05-.007.1-.015.15-.02a107.574,107.574,0,0,0,6.45-16.428c1.169-3.441,2.742-6.772,5.649-9.083,4.961-3.444,16.328-10.427,22.153-10.133a4.324,4.324,0,0,1,1.381-2.812c-1.76-3,5.276-4.957,5.772-4.609-.318-10.022,4.4-18.725,14.791-20.721,9.313-1.94,22.558-2.266,27.567,7.466.551-.062,6.178-.091,6.723-.03.847-1.072,10.144,9.088,6.333,12.625,34.068,15.07,53.439,13.272,62.869,55.639,1.275,3.98,1.368,8.335,2.714,12.226,4.789,11.183,8.673,23.09,9.64,35.258,2.335.6,2.6,4.715-.1,5.31a6.325,6.325,0,0,0-2.65,1.129c.589,9.971-1.823,32.75-3.342,32.68-3.1,9.861-16.919,12.644-26.7,9.178,1.687,3.173,0,5.168,0,6.864-35.207,1.332-73.7.565-108.9,2.392-4.5-.064-9.238,1.106-13.679.433-2.708-.649-2.713-4.907.034-5.434l-12-2.607c.268-.1-4.948-3.571-8.89-10.054-3.669-7.252-1.172-16.007-2.835-23.9-12.986-1.062-26.187-1.516-39.031-3.715-1.751,5.24-9.332-1.027-11.742-3.547l.009-.012a2.927,2.927,0,0,1-2.133-2.706,3.553,3.553,0,0,1-.205-3.945C10.06,105.6,4.58,84.425,2.6,63.488a4.432,4.432,0,0,1-1.919-.935l.045-.045a2.38,2.38,0,0,1,.448-3.776C2.448,58.007,3.511,58.232,4.894,58.368Z" transform="translate(43.837 122.999)" fill="#d08b5b"/>
  <path id="_Top" data-name="ðŸ‘• Top" d="M149.76,0c-4.728,0-11.667.463-20.625,1.375-3.942.4-12.053.78-24.108,1.125-10.21.292-21.257.506-29.323.663h-.024c-4.208.082-7.532.146-9.5.2l-.541.015c-5.584.161-11.212.243-16.727.243s-11.075-.082-16.522-.243v6.75l31.25,15.5,28,15.75,13.5,6.25,2.75-1.75,22.5-7.25,13.75-1.75,11.25,1.75V19.375l2.25-18c-.249-.456-1.037-.8-2.344-1.031A34.278,34.278,0,0,0,149.76,0ZM42.65,50.479H36.842L3.046,58.64,0,59.645a84.147,84.147,0,0,0,1.259,8.993c.555,2.862,1.277,5.84,2.145,8.853A146.232,146.232,0,0,0,9.616,94.607a39.414,39.414,0,0,1,1.419,6.288,43.019,43.019,0,0,0,1.295,5.938,88.792,88.792,0,0,0,6.984,20.8c.681,1.346,1.406,2.645,2.155,3.86.735,1.192,1.518,2.342,2.326,3.419a40.517,40.517,0,0,0,5.18,5.7,51.315,51.315,0,0,0,12.576,8.2c4.7,2.274,9.811,4.21,15.726,6.452h0c5.354,2.03,11.423,4.331,17.92,7.2a2.915,2.915,0,0,0-.91,2.11,6.791,6.791,0,0,0,.551,2.681,19.7,19.7,0,0,0,3.419,5.368A16.345,16.345,0,0,0,80.1,174.47a2.6,2.6,0,0,0,1.245.707.224.224,0,0,0,.186-.079l.053,0,.115.006.148.005c.39.011,1.1.018,1.995.018,1.818,0,4.077-.026,4.411-.064a14.565,14.565,0,0,0,.938,1.573l2.067-1.543-4.512-7.412,21.978-17.778v-14.2l6.958-6.581,3.977,6.581,5.6,7.453,3.983,12.081-1.356,7.959,2.727.257c.013-.542.011-1.1-.007-1.646a.431.431,0,0,0,.224.04,10.375,10.375,0,0,0,4.428-1.637,3.8,3.8,0,0,0,1.15-1.166,1.734,1.734,0,0,0-.03-1.847,4.315,4.315,0,0,0,1.381-2.812c.119.006.242.009.365.009a16.376,16.376,0,0,0,5.22-1.11,49.906,49.906,0,0,0,6.073-2.7c1.866-.962,3.843-2.082,5.874-3.328,2.051-1.258,3.645-2.33,4.622-3.008a14.345,14.345,0,0,0,3.476-4.118,26.975,26.975,0,0,0,2.173-4.965l.275-.839.284-.862.286-.861a94.917,94.917,0,0,1,5.6-13.865c.037,0,.076-.009.11-.014h.007l.034,0a2.391,2.391,0,0,0,1.646.606,7.341,7.341,0,0,0,1.913-.362,8.87,8.87,0,0,1,1.564-.341,1.352,1.352,0,0,0,.912.389.943.943,0,0,0,.809-.438l.03-.047-21.093-4.155L144.035,65.568,131.917,75.4l-6.5-.967-17.177-6.2L88.257,63.053Z" transform="translate(289.636 306.623) rotate(180)" fill="#474666"/>
  <path id="_Computer" data-name="ðŸ’» Computer" d="M31.964,0h0c1.419,5.37,2.515,9.788,3.448,13.9.351,1.549.7,3.124,1.043,4.647v0c.814,3.643,1.655,7.41,2.554,11.1,2.513,10.319,5.407,20.885,8.6,31.406.656,2.161,1.339,4.357,2.03,6.526l.485,1.517.373,1.209c.579,1.846,1.286,3.734,2.988,4.755a15.385,15.385,0,0,0,5.5,1.562c.5.078.971.152,1.433.237l1.523.286c2.268.423,4.571.836,6.846,1.227,10.89,1.873,21.987,3.4,32.981,4.524,5.692.585,11.5,1.077,17.261,1.463,5.708.382,11.53.671,17.3.859l1.154.036-.628-3.5c-.148-.048-.3-.09-.455-.124-.191-2.025-.424-4.133-.691-6.268l-3.9-21.71c-.693-3.96-1.339-7.872-1.943-11.54l-.839-4.136-.52-2.57c-1.058-5.251-2.174-10.9-3.168-16.633a2.729,2.729,0,0,0,.338-.67l-.074-.311-.051-.207-.052-.2a17.119,17.119,0,0,0-.69-2.129,9.858,9.858,0,0,0-1.014-1.921,6.609,6.609,0,0,0-1.452-1.537,5.945,5.945,0,0,0-2.005-.978,29.94,29.94,0,0,0-5.427-.786c-.619-.052-1.259-.1-1.877-.17l-.267-.029L70.617,5.093c-4.437-.5-9.149-1.042-15.279-1.759l-4.414-.518c-1.063-.123-2.145-.244-3.192-.36h-.013C42.711,1.9,37.532,1.32,32.521.254A1.362,1.362,0,0,1,31.964,0ZM94.476,55.472a.921.921,0,0,1-.919-1.115l.029-.151a4.752,4.752,0,0,0-.294-2.675,6.789,6.789,0,0,0-1.535-2.253,8.636,8.636,0,0,0-1.364-1.019A4.757,4.757,0,0,1,88.245,46.1a2.059,2.059,0,0,1,.649-2.268l-.145-.072-.142-.072-.138-.073-.135-.074-.131-.074c-1.1-.634-2.473-1.683-2.74-3.088a3.108,3.108,0,0,1,.788-2.552c1.424-1.782,4.089-2.685,7.921-2.685.643,0,1.316.024,2.059.073l.217.015c2.371.178,6.631.956,8.517,4.167a3.312,3.312,0,0,1-.392,4.055,4.989,4.989,0,0,1-2.887,1.468,3.561,3.561,0,0,1-.237,1.674,3.265,3.265,0,0,1-2.852,1.8c.088,2.078-1.47,4.17-2.722,5.851l-.316.425-.135.185-.132.182a1,1,0,0,1-.818.436ZM31.37.276h0a1.634,1.634,0,0,1-.956.283h-.076a30.115,30.115,0,0,0-7.558,1.048,70.669,70.669,0,0,0-7.279,2.4l-.729.278-2.034.782c-1.873.718-4.057,1.54-6.263,2.209l-.856.258-.435.129a23.4,23.4,0,0,1-4.956,1L0,8.678l.486.255a1.148,1.148,0,0,1,.189.124c.333-.025.644-.037.953-.037a10.321,10.321,0,0,1,1.852.162A17.39,17.39,0,0,1,8.7,11.024l.726.393.3.158.2.1.2.1a9.793,9.793,0,0,0,1.568.644,5.752,5.752,0,0,0,1.671.253,6.038,6.038,0,0,0,1.255-.135A17.627,17.627,0,0,0,19.1,10.678c.349-.183.708-.373,1.064-.553l.32-.16.215-.1.219-.1.222-.1A10.9,10.9,0,0,1,25.4,8.519,2.8,2.8,0,0,1,28.4,10.692a4.552,4.552,0,0,1-.57,3.674c.044,0,.088.006.132.006a7.328,7.328,0,0,0,2.344-.7,10.028,10.028,0,0,1,2.536-.8l.108-.009L31.37.277Zm62.7,36.615c-1.644,0-4.024.133-5.7,1.284a2.414,2.414,0,0,0-1.163,1.645,1.978,1.978,0,0,0,.61,1.575c.586.638,1.192,1.3,1.82,1.939a2.5,2.5,0,0,1,1.1-.258,3.965,3.965,0,0,1,1.609.413.108.108,0,0,1,.061.127.137.137,0,0,1-.126.113,4,4,0,0,0-1.432.564c-.314.181-1.05.642-1.109,1.03-.078.517.765.957,1.322,1.248h0l.171.09.075.041.065.038a9.539,9.539,0,0,1,1.516,1.138,8.064,8.064,0,0,1,2.414,3.944l.033.136,1.21-4.533-.021-.037a.814.814,0,0,1,.034-.816.947.947,0,0,1,.782-.469.742.742,0,0,1,.539.237l.067.072a.866.866,0,0,0,.637.286,1.334,1.334,0,0,0,.935-.471,1.527,1.527,0,0,0,.437-.959,2.759,2.759,0,0,0-.5-1.613,4.3,4.3,0,0,0-1.22-1.167l-.066-.043L98,42.337a.724.724,0,0,1-.329-.838.891.891,0,0,1,.851-.625.941.941,0,0,1,.142.011,3.511,3.511,0,0,1,2.45,2.041,5.541,5.541,0,0,1,.621-.127,3.522,3.522,0,0,0,1.194-.351,1.408,1.408,0,0,0,.808-1.059,1.865,1.865,0,0,0-.3-1.138,4.488,4.488,0,0,0-.847-1.018l-.04-.036-.08-.07a8.5,8.5,0,0,0-3.1-1.628,14.635,14.635,0,0,0-3.479-.56l-.133-.006C95.3,36.914,94.7,36.891,94.073,36.891Z" transform="translate(182.851 268.11) rotate(180)" fill="#fff"/>
  <path id="_Ink" data-name="ðŸ– Ink" d="M161.026,0a.937.937,0,0,0-.695.308,4.369,4.369,0,0,0-.973,1.722,13.214,13.214,0,0,0-.4,1.954h0v0c-.033.217-.068.441-.106.661-.263,1.542-.5,3.142-.73,4.894-.479,3.683-.743,6.716-.829,9.544-.1,3.257-.061,6.564.115,9.828.086,1.591.2,3.3.417,5.029.1.8.19,1.463.29,2.135.037.251.079.5.128.774l-2.7-.305c-3.958-.442-8.181-.879-12.464-.945h-.024a1.351,1.351,0,0,0-1.1.545,1.552,1.552,0,0,0-1.378-.737h-.008c-5.947.022-11.472,2.019-16.557,4.173-1.271.539-2.553,1.107-3.792,1.657l-.005,0c-1.366.606-2.779,1.233-4.181,1.821-1.03.432-2.107.82-3.149,1.194a45.816,45.816,0,0,0-4.457,1.782l-6.405-3.36a2.633,2.633,0,0,0-1.052-1.471,5.675,5.675,0,0,0-1.2-.642,4.979,4.979,0,0,0-1.917-.382,5.207,5.207,0,0,0-.536.028c-5.857-3.069-10.354-5.421-14.578-7.626l-4.863-2.535c-2.812-1.464-5.644-2.947-8.383-4.382-6.77-3.546-13.77-7.212-20.707-10.717l-.718-.361A87.47,87.47,0,0,0,37.344,9.917,19.04,19.04,0,0,1,37.4,7.05l.019-.218c.009-.091.018-.181.027-.277v-.01A8.619,8.619,0,0,0,37.5,4.8a2.191,2.191,0,0,0-.684-1.478A1.244,1.244,0,0,0,36,3.018a.965.965,0,0,0-.895.527,3.361,3.361,0,0,0-.272,1.7A14.71,14.71,0,0,0,35.1,7.122c.053.287.1.558.14.81a12.318,12.318,0,0,0,.276,1.4,38.179,38.179,0,0,0-4.607-1.08,28.541,28.541,0,0,0-4.655-.4,23.5,23.5,0,0,0-3.8.3c-3.726.612-7.057,2.784-10.183,6.642A30.108,30.108,0,0,0,8.7,20.366a30.494,30.494,0,0,0-2.277,6.216,42.787,42.787,0,0,0-1.1,7.456c-.169,2.531-.18,5.122-.166,7.545.017,2.974.085,5.6.207,8.037.145,2.876.364,5.5.672,8.01a8.679,8.679,0,0,1-1.927.273c-.1,0-.2,0-.3-.01a1.547,1.547,0,0,0-.634-.564,1.864,1.864,0,0,0-.818-.186,1.9,1.9,0,0,0-.223.013,1,1,0,0,1-.282-.957c.127-.5.639-1.018,1.523-1.548a11.366,11.366,0,0,1,1.953-.913.4.4,0,0,0,.256-.452A.326.326,0,0,0,5.249,53H5.229l-.278.013c-1.733.092-3.473.394-4.467,1.966a3.02,3.02,0,0,0-.462,1.992,3.239,3.239,0,0,0,.858,1.817A121.607,121.607,0,0,0,3.987,74.594L4,74.627c.143.587.29,1.195.435,1.792C5.71,81.726,7.2,87.309,8.973,93.488L9.7,96.02c1.234,4.273,2.575,8.841,4.023,13.3,1.588,4.892,3.142,9.156,4.752,13.036.994,2.4,1.944,4.448,2.9,6.274a44.424,44.424,0,0,0,3.648,5.865,41.283,41.283,0,0,0,4.2,4.821,43.083,43.083,0,0,0,4.888,4.123,58.168,58.168,0,0,0,10.436,5.885c3.606,1.618,7.347,3,11.181,4.385l.335.121c3.732,1.35,7.72,2.812,11.594,4.348,1.754.7,3.5,1.5,5.186,2.278,1.577.727,3.207,1.479,4.84,2.14-.111.2-.218.406-.318.6l-.062-.053h0l-.031-.022a.751.751,0,0,0-.431-.128,1.041,1.041,0,0,0-.689.272,1.378,1.378,0,0,0-.492,1.163,2.555,2.555,0,0,0,.5,1.184l.069.1c.492.69.951,1.421,1.395,2.127.13.208.278.443.422.67l.373.586a24.35,24.35,0,0,0,3.384,4.435,7.32,7.32,0,0,0,2.01,1.382.069.069,0,0,0,.011.068.728.728,0,0,0,.494.23.183.183,0,0,0,.123-.036,11.791,11.791,0,0,0,4.075.617c1.137,0,2.288-.1,3.279-.189l.472,1.5a2.52,2.52,0,0,0,.894,1.175,2.081,2.081,0,0,0,1.189.371,2.182,2.182,0,0,0,2.1-1.6,2.689,2.689,0,0,0,.062-1.116,15.037,15.037,0,0,0-1.983-4.919,12.093,12.093,0,0,0-2.478-3.262c1.85-1.726,3.781-3.4,5.739-4.968a70.815,70.815,0,0,1,6.743-4.77c.632-.395,1.282-.782,1.911-1.156a45.279,45.279,0,0,0,4.208-2.719,16.388,16.388,0,0,0,2.492-2.271,9.628,9.628,0,0,0,1.77-2.851,8,8,0,0,0,.5-3.442,15.719,15.719,0,0,0-.653-3.441l-.075-.257c-.079-.265-.162-.53-.25-.81-.648-2.06-1.383-4.4.03-6.264a11.521,11.521,0,0,1,2.164-2.015c.285-.223.58-.454.857-.688a23.575,23.575,0,0,0,2.545-2.494,20.614,20.614,0,0,0,3.97-6.591l.078-.222a14.517,14.517,0,0,0,.8-3.486,6.627,6.627,0,0,0-.519-3.456.647.647,0,0,0-.609-.371.808.808,0,0,0-.783.553,14.766,14.766,0,0,0-.372,2.225,17.648,17.648,0,0,1-.287,1.889,15.561,15.561,0,0,1-1.555,4.036,21.86,21.86,0,0,1-5.346,6.345l-.648.527a14.491,14.491,0,0,0-2.295,2.233,6.148,6.148,0,0,0-1.286,2.913,13.112,13.112,0,0,0,.84,5.713l0,.005c.138.456.28.928.406,1.391a7.908,7.908,0,0,1,.108,4.63,19.442,19.442,0,0,0-1.49-2.013c-.18-.222-.35-.432-.511-.639-.972-1.245-1.962-2.5-2.919-3.709l-.13-.164-.72-.911c-1.428-1.81-2.653-3.444-3.745-5-.577-.821-1.13-1.621-1.594-2.295-.217-.314-.485-.635-.745-.945v0c-.217-.259-.442-.527-.638-.794a1.028,1.028,0,0,0-.093-.934,1.738,1.738,0,0,0-1.382-.83c-.854,0-1.847.776-2.949,2.306a27.9,27.9,0,0,0-2.018,3.4l-.048.092-.018.034c-.863,1.657-1.628,3.393-2.369,5.071-.749,1.7-1.523,3.454-2.4,5.128a80.2,80.2,0,0,1-6.147,9.963c-.525.722-1.081,1.438-1.62,2.131-.883,1.136-1.8,2.31-2.584,3.533a26.419,26.419,0,0,0-5.026-3.48c-1.865-1.03-3.875-1.947-5.49-2.684h0c-3.08-1.4-6.3-2.629-9.422-3.812l-.006,0c-.891-.338-1.812-.688-2.716-1.037l-1.2-.466c-3.951-1.542-7.239-2.9-10.439-4.5a48.867,48.867,0,0,1-9.553-6.089,35.9,35.9,0,0,1-4.633-4.668,43.586,43.586,0,0,1-3.75-5.326,57.472,57.472,0,0,1-3.033-5.8c-.853-1.867-1.664-3.859-2.48-6.09-1.623-4.435-3.193-9.137-4.8-14.373-1.326-4.317-2.663-8.944-4.207-14.561-1.38-5.018-2.688-10.061-3.887-14.99-.367-1.508-.718-3.046-1.058-4.534v0c-.655-2.869-1.333-5.835-2.152-8.714.111,0,.223.006.331.006a22.784,22.784,0,0,0,4.731-.7c.895-.2,1.74-.38,2.5-.479,5.291-.693,10.067-1.541,14.6-2.594,2.456-.57,4.865-1.209,7.16-1.9,2.409-.724,4.774-1.529,7.031-2.392a1.96,1.96,0,0,0,1.137-1.072,2.215,2.215,0,0,0,.091-1.439l.79.224.03.008,1.162.329c-.589.9-.47,2.382-.374,3.569.022.27.042.524.053.752l0,.085c.038,1.077.13,2.172.218,3.23v.005c.046.55.093,1.119.133,1.678.233,3.3.522,6.35.885,9.311l.1.775c.183,1.437.349,2.9.509,4.313v0c.216,1.909.439,3.882.709,5.815l.056.385c-.2.749-.431,1.538-.763,2.559-.513,1.578-1.185,3.117-1.834,4.6-.279.64-.568,1.3-.842,1.96a.2.2,0,0,0,.013.2.294.294,0,0,0,.242.117.26.26,0,0,0,.175-.063,15.43,15.43,0,0,0,2.077-2.315,21.821,21.821,0,0,0,1.66-2.654c.007.038.015.076.021.113s.018.1.028.147l.112.551a9.465,9.465,0,0,0,1.435,3.845.234.234,0,0,0,.183.1.183.183,0,0,0,.161-.1,6.293,6.293,0,0,0,.724-2.062,20.594,20.594,0,0,0,.252-2.2c.007-.093.014-.185.022-.276.12-1.5.16-3.093.13-5.179-.038-2.693-.2-5.434-.356-8.085-.037-.622-.078-1.327-.117-2.016-.17-3.02-.5-6.236-1.019-9.832l-.089-.613c-.062-.42-.122-.849-.18-1.263v0c-.157-1.123-.319-2.284-.54-3.411l-.086-.421c-.05-.238-.094-.506-.141-.789a11.422,11.422,0,0,0-.442-1.956c7.916,2.208,16.292,4.491,24.895,6.787,4.267,1.139,8.606,2.284,12.8,3.391l5.232,1.381a6.767,6.767,0,0,0,1.205,1.583,6.5,6.5,0,0,0,1.727,1.222,4.466,4.466,0,0,0,1.916.455,3.987,3.987,0,0,0,2.107-.613.269.269,0,0,0,.125-.236.239.239,0,0,0-.125-.209c-.446-.244-.8-.447-1.129-.64l3.61.978c.8.216,1.609.451,2.4.679h0c1.891.548,3.845,1.115,5.792,1.474a124.736,124.736,0,0,0,15.6,6.018l.314.105.632.214,1.081.371a51.373,51.373,0,0,0,7.335,2.13,7.3,7.3,0,0,0,1.309.121,5.259,5.259,0,0,0,2.408-.529,3.358,3.358,0,0,0,1.629-1.8,33.4,33.4,0,0,0,3.01-2.319c.49-.411.972-.846,1.439-1.267l.006-.005c.193-.174.392-.354.589-.529l.125-.109.122-.106.005,0a2.34,2.34,0,0,0,1-1.454.855.855,0,0,0-.175-.673.543.543,0,0,0-.426-.205.609.609,0,0,0-.065,0c-1.189.127-2.19,1.243-3.073,2.227h0c-.221.246-.43.479-.632.686-.88.9-1.6,1.667-2.277,2.494a1.061,1.061,0,0,0-.505-.132.805.805,0,0,0-.742.446,2.414,2.414,0,0,1-1.054,1.063,3.151,3.151,0,0,1-1.422.3,12.505,12.505,0,0,1-3.713-.852h0c-.36-.122-.7-.238-1-.327l-2.972-.88c-1.232-.365-2.852-.847-4.455-1.334-1.5-.454-3.008-.934-4.472-1.4-2.539-.806-5.165-1.64-7.773-2.361a.856.856,0,0,0,.2-.77.9.9,0,0,0-.586-.628,54.953,54.953,0,0,0-7.317-2.1h0c-.915-.218-1.861-.443-2.776-.68-2.093-.543-4.224-1.1-6.332-1.653a5.153,5.153,0,0,1-.731-2.021,15.118,15.118,0,0,1,.131-4.463,40.165,40.165,0,0,1,1-4.393l.114-.41a21.487,21.487,0,0,1,1.239-3.457,7.385,7.385,0,0,1,2.2-2.848,3.353,3.353,0,0,1,1.653-.63c3.788,1.95,7.494,3.857,11.182,5.751a1.041,1.041,0,0,0,.478.121,1.089,1.089,0,0,0,1.006-.818,24.375,24.375,0,0,1,3.821.961,17.03,17.03,0,0,1,3.3,1.672c.691.417,1.406.848,2.16,1.209a6.555,6.555,0,0,0,2.888.648,10.314,10.314,0,0,0,3.611-.746,35.17,35.17,0,0,0,3.448-1.585l.674-.338.751-.369a9.5,9.5,0,0,1,3.605-1.13,1.522,1.522,0,0,1,1.6,1A2.3,2.3,0,0,1,137,50.98a4.1,4.1,0,0,1-.688,1.339,8.159,8.159,0,0,1-2.2,1.977,13.382,13.382,0,0,1-2.64,1.207c-.973.335-1.962.586-2.8.788-1.089.262-2.176.47-3.23.619-.392.055-.8.091-1.186.125a10.759,10.759,0,0,0-2.5.421.733.733,0,0,0-.475.726.582.582,0,0,0,.475.562,7.18,7.18,0,0,0,1.585.164,18.931,18.931,0,0,0,4.321-.664l1-.245a23.981,23.981,0,0,0,5.6-2,11.5,11.5,0,0,0,1.892-1.275,8.684,8.684,0,0,0,1.6-1.715,2.19,2.19,0,0,0,1.562.589,4.424,4.424,0,0,0,1.132-.169l.535-.149a6.574,6.574,0,0,1,1.761-.313,3.57,3.57,0,0,1,.7.069c.11.6.23,1.245.356,1.878,1.253,6.292,2.617,12.477,4.053,18.381,1.267,5.206,2.658,10.485,4.136,15.69,1.462,5.149,3.05,10.372,4.72,15.523l.335,1.029c.172.525.339,1.072.5,1.6l0,.005a26.691,26.691,0,0,0,2.127,5.477,7.6,7.6,0,0,0,2.247,2.457,9.93,9.93,0,0,0,3.042,1.391,59.4,59.4,0,0,0,5.817,1.208h.008c.645.112,1.311.227,1.961.347.345.064.7.128,1.02.184l.712.128a19.043,19.043,0,0,0-.921,2.023c-.09.221-.175.429-.259.626l-.058.133c-.769,1.752-1.446,3.533-1.95,4.888l-.457,1.237a61.837,61.837,0,0,1-3.8,8.691,22.391,22.391,0,0,1-2.851,4.011,23.707,23.707,0,0,1-3.653,3.3,61.044,61.044,0,0,1-8.211,4.8c-1.582.817-3.217,1.662-4.78,2.573a35.717,35.717,0,0,0-4.5,3.054.188.188,0,0,0-.068.216.276.276,0,0,0,.25.176.224.224,0,0,0,.1-.024,76.467,76.467,0,0,1,7.839-3.232h0c1.124-.415,2.287-.845,3.416-1.289l.74-.292a37.147,37.147,0,0,0,8.546-4.36A23.726,23.726,0,0,0,167.7,141.3a24.474,24.474,0,0,0,2.968-4.327,54.411,54.411,0,0,0,3.271-8.011v0c.21-.6.428-1.229.645-1.838l.315-.88c.453-1.257.952-2.6,1.529-3.917.18-.41.419-.837.671-1.29a12.014,12.014,0,0,0,.987-2.057l.207.036h.009c.948.165,1.929.335,2.894.5,5.588.933,11.272,1.782,16.894,2.523s11.327,1.394,16.969,1.942,11.368,1,17.026,1.359,11.4.615,17.064.776h.038a1.116,1.116,0,0,0,.879-.4,1.491,1.491,0,0,0,.3-1.2c-1.231-7.282-2.4-14.686-3.536-21.847l0-.015c-.879-5.558-1.789-11.306-2.719-16.952-.95-5.763-1.908-11.455-2.849-16.919-.21-1.221-.438-2.458-.658-3.654-.3-1.607-.6-3.267-.868-4.906-.08-.493-.157-1-.232-1.482l0-.018a43.477,43.477,0,0,0-1.06-5.393,13.022,13.022,0,0,0-2.927-5.517,8.546,8.546,0,0,0-2.75-1.906,13.587,13.587,0,0,0-3.228-.944c-3.89-.669-7.91-1.07-11.8-1.458-1.715-.171-3.488-.348-5.223-.545l-30.112-3.426c.213-1.941.336-3.9.376-5.974.036-1.9,0-3.864-.105-6.009l-.115-2.209c-.09-1.7-.2-3.508-.462-5.314a10.672,10.672,0,0,0-2.815-5.721,33.781,33.781,0,0,0-4.635-4.041,23.569,23.569,0,0,0-5.372-3.318l-.256-.1a25.412,25.412,0,0,0-2.847-.925,13.891,13.891,0,0,0-3.385-.494,6.9,6.9,0,0,0-1.094.081c.06-.3.131-.607.2-.905a6.936,6.936,0,0,0,.176-3.832,1.163,1.163,0,0,0-.416-.556A1.093,1.093,0,0,0,161.026,0Zm19.925,39.365-3.155-.359c-3.7-.421-7.342-.82-10.416-1.155l-7.543-.82c-.01-.213-.027-.418-.043-.618v0c-.017-.2-.033-.391-.037-.555-.051-1.739-.089-3.505-.121-5.024-.069-3.338.007-6.726.228-10.068.249-3.768.546-6.856.935-9.718l.09-.644.052-.339a1.483,1.483,0,0,0,1-.554,1.284,1.284,0,0,1,1.018-.333,9.575,9.575,0,0,1,2.832.633,18.544,18.544,0,0,1,4.17,2.315,26.2,26.2,0,0,1,3.482,2.965l.891.882a11.381,11.381,0,0,1,2.318,2.928A12.672,12.672,0,0,1,177.595,23c.034.29.069.59.107.878.233,1.762.524,3.678.918,6.03l2.333,9.452ZM6.429,57.535l-.014-3.277C6.4,49.8,6.4,45.053,6.643,40.339l.045-.86c.27-5.046.688-10.385,2.54-15.305A27.781,27.781,0,0,1,16.2,13.607a15.546,15.546,0,0,1,2.48-1.914,10.839,10.839,0,0,1,2.867-1.24,16.089,16.089,0,0,1,4.209-.506c.561,0,1.134.021,1.752.064,8.28.578,15.776,4.554,23.025,8.4h0c1.1.582,2.231,1.183,3.34,1.758,12.99,6.725,26.836,13.891,40.753,21.062a6.671,6.671,0,0,0-1.028.866,14.882,14.882,0,0,0-3.416,6.955A36.709,36.709,0,0,0,89.058,57.3l.3,3.2-.327-.086c-3.385-.9-6.818-1.82-10.138-2.71-8.362-2.241-17.009-4.559-25.544-6.72-3.4-.861-6.868-1.7-10.22-2.511-2.465-.6-5.014-1.213-7.518-1.834l-.956-.239c-4.581-1.158-9.354-2.573-12.947-5.976a.138.138,0,0,0-.095-.04.151.151,0,0,0-.133.091.133.133,0,0,0,.029.149,20.808,20.808,0,0,0,6.758,4.638,56.884,56.884,0,0,0,7.813,2.693c.535.153,1.078.306,1.6.455l.022.006L39,48.778a170.923,170.923,0,0,1-21.825,6.343c-.948.2-1.917.38-2.854.552h0c-.953.175-1.938.356-2.9.562-.858.184-1.716.424-2.547.656-.459.128-.933.261-1.4.383Zm241.218,66c-5.967-.18-11.982-.469-17.88-.857-5.956-.392-11.958-.9-17.837-1.5-10.991-1.129-22.087-2.651-32.981-4.525-2.274-.391-4.577-.8-6.846-1.227l-1.367-.257c-.51-.1-1.034-.179-1.589-.266-.949-.149-1.93-.3-2.873-.538a9.59,9.59,0,0,1-2.632-1.024,5.532,5.532,0,0,1-2.058-2.34,18.691,18.691,0,0,1-1.113-3.008c-.084-.274-.171-.557-.259-.832-.832-2.587-1.655-5.22-2.446-7.827-3.192-10.517-6.085-21.084-8.6-31.407-.9-3.685-1.738-7.447-2.55-11.085v0c-.341-1.528-.694-3.108-1.047-4.661-.934-4.116-2.03-8.534-3.448-13.9a1.362,1.362,0,0,0,.558.253c5.011,1.066,10.191,1.643,15.2,2.2,1.048.117,2.132.238,3.2.362l.6.069c6.043.711,12.539,1.47,19.1,2.207l42.164,4.742c.7.079,1.436.14,2.143.2a29.956,29.956,0,0,1,5.427.786,6.466,6.466,0,0,1,4.169,3.751,22.8,22.8,0,0,1,1.6,5.647l.021.111c1.245,6.621,2.356,13.387,3.431,19.93v0c.721,4.391,1.467,8.931,2.247,13.394Zm-107.083-84.7h.006a1.63,1.63,0,0,0,.956-.283l1.575,12.59a9.387,9.387,0,0,0-2.643.8,7.329,7.329,0,0,1-2.344.7c-.046,0-.09,0-.132-.006a4.552,4.552,0,0,0,.571-3.674,2.805,2.805,0,0,0-2.994-2.173,8.658,8.658,0,0,0-2.7.52,19.027,19.027,0,0,0-2.357,1c-.418.208-.838.429-1.245.643a17.625,17.625,0,0,1-4.494,1.858,6.122,6.122,0,0,1-1.255.135,9.165,9.165,0,0,1-4.434-1.529l-.22-.119a17.4,17.4,0,0,0-5.216-1.843,10.33,10.33,0,0,0-1.852-.162c-.309,0-.62.012-.953.037a1.135,1.135,0,0,0-.189-.124l-.486-.255a27.283,27.283,0,0,0,6.474-1.4c2.2-.669,4.388-1.491,6.263-2.209l2.034-.782a76.318,76.318,0,0,1,7.63-2.582,30.582,30.582,0,0,1,7.937-1.147ZM84.518,173.586a5.625,5.625,0,0,1-1.277-1.008,20.84,20.84,0,0,1-2.9-4.382l-.05-.091c-.209-.381-.414-.764-.613-1.135l0-.005c-.243-.454-.495-.923-.748-1.381-.219-.4-.445-.787-.618-1.083a4.343,4.343,0,0,0-.294-.394h0c-.085-.106-.172-.216-.232-.3.147-.206.307-.421.489-.656.013-.017.2-.223.511-.565l.013-.014c1.272-1.4,4.249-4.676,5.467-6.165,1.191-1.457,2.31-2.948,3.325-4.433,1.055-1.542,2.034-3.128,2.91-4.714,1.04-1.882,1.948-3.863,2.826-5.779.6-1.319,1.229-2.681,1.892-4a24.7,24.7,0,0,1,2.882-4.635c.027-.032.054-.064.081-.1l0,0,0,0,.052-.06A11.206,11.206,0,0,0,100,135.42c.134.169.261.328.366.467l.052.069c1.131,1.525,2.389,3.106,3.957,4.974,1.209,1.44,2.5,2.906,3.826,4.356l.491.533c.166.179.335.369.515.571a11.589,11.589,0,0,0,2.884,2.586,6.439,6.439,0,0,1-.5.755,17.01,17.01,0,0,1-4.755,3.884l-1.129.687c-1.762,1.074-4.068,2.5-6.282,4.048a57.073,57.073,0,0,0-5.861,4.631,49.567,49.567,0,0,0-5.527,5.732l-.581.736Zm7.1,1.284c-.467-.039-.952-.068-1.422-.1a16.882,16.882,0,0,1-4.567-.682c.973-.92,1.932-1.9,2.859-2.844.631-.644,1.284-1.31,1.934-1.95a23.683,23.683,0,0,0,.518,2.489c.054.218.109.443.162.666ZM91.109,12.388a1.03,1.03,0,0,0-.844.517.973.973,0,0,0-.043.975,140.291,140.291,0,0,0,7.943,12.968l.369.55c1.273,1.894,2.589,3.853,3.9,5.773.706,1.036,1.286,1.865,1.823,2.61l.375.514,2.029,2.221a.183.183,0,0,0,.088.023.179.179,0,0,0,.177-.174,5.753,5.753,0,0,0-.771-2.593c-.06-.126-.128-.27-.189-.4l-.045-.1c-.468-1.041-1.018-2.162-1.681-3.426-1.207-2.3-2.446-4.543-3.682-6.664A78.726,78.726,0,0,0,91.75,12.7.846.846,0,0,0,91.109,12.388Zm51.312,44.5a4.575,4.575,0,0,0-3.229,1.718l-.764.8a8.132,8.132,0,0,1-1.669,1.418,4.131,4.131,0,0,1-2.19.578c-.067,0-.136,0-.2,0a32.368,32.368,0,0,1-3.878-.46h0c-.733-.117-1.49-.238-2.232-.326-2.207-.261-4.528-.5-6.9-.7h-.009a.084.084,0,0,0-.082.08.092.092,0,0,0,.065.1l2.58.642,10.031,2.023a8.567,8.567,0,0,0,1.033.066,5.119,5.119,0,0,0,3.37-1.133A13.241,13.241,0,0,0,139.65,60.4a11.146,11.146,0,0,1,1.55-1.476,3.7,3.7,0,0,1,1.99-.75.6.6,0,0,0,.569-.54.554.554,0,0,0-.413-.611A3.261,3.261,0,0,0,142.421,56.889Zm1.994,6.277a.392.392,0,0,0-.091.011,8.144,8.144,0,0,0-2.264.958,24.6,24.6,0,0,0-2.029,1.4c-.5.372-1.021.756-1.552,1.1a7.2,7.2,0,0,1-4.165,1.116c-.806,0-1.624-.073-2.489-.15l-.152-.014c-2.482-.221-4.864-.522-7.079-.9-.764-.129-1.542-.285-2.294-.437a38.5,38.5,0,0,0-4.345-.705v0a.29.29,0,0,0-.269.231.241.241,0,0,0,.129.281,29.616,29.616,0,0,0,7.17,2.143l.16.034,7.235,1.124.267.027c.838.081,1.478.118,2.075.118a10,10,0,0,0,2.3-.241,7.594,7.594,0,0,0,2.222-.9l.4-.243a15.328,15.328,0,0,0,5.132-4.364.357.357,0,0,0,.012-.373A.431.431,0,0,0,144.415,63.166Zm59.913,10.246a16.283,16.283,0,0,0-4.388.521,8.315,8.315,0,0,0-1.963.82,5.727,5.727,0,0,0-1.57,1.344,3.073,3.073,0,0,0-.77,2.642c.377,1.668,2.3,2.823,3.412,3.363a2.369,2.369,0,0,0-.675,1.024,1.926,1.926,0,0,0,.027,1.245,4.756,4.756,0,0,0,2.148,2.16,8.628,8.628,0,0,1,1.364,1.019,5.58,5.58,0,0,1,1.829,4.928l-.02.1a.964.964,0,0,0,.174.822.953.953,0,0,0,.736.342,1.006,1.006,0,0,0,.818-.436l.132-.182c.143-.2.291-.395.447-.6l0-.006a23.417,23.417,0,0,0,1.874-2.791,5.962,5.962,0,0,0,.847-3.06,3.424,3.424,0,0,0,1.7-.512,2.879,2.879,0,0,0,1.157-1.289,3.562,3.562,0,0,0,.237-1.674,4.989,4.989,0,0,0,2.887-1.467,3.2,3.2,0,0,0,.893-1.956,3.551,3.551,0,0,0-.5-2.1c-1.886-3.212-6.145-3.989-8.517-4.167l-.111-.008C205.709,73.438,205,73.412,204.329,73.412Zm-4.534,8.194c-.625-.638-1.232-1.3-1.82-1.939a1.978,1.978,0,0,1-.61-1.575,2.414,2.414,0,0,1,1.163-1.645,6.982,6.982,0,0,1,2.687-1.04,16.1,16.1,0,0,1,3.015-.244h0c.623,0,1.228.022,1.687.042a14.873,14.873,0,0,1,3.548.546,8.543,8.543,0,0,1,3.161,1.647l.08.07a4.547,4.547,0,0,1,.871,1.028,1.89,1.89,0,0,1,.319,1.158,1.405,1.405,0,0,1-.808,1.065,3.523,3.523,0,0,1-1.194.351,5.536,5.536,0,0,0-.622.127,3.511,3.511,0,0,0-2.45-2.041.942.942,0,0,0-.142-.011.891.891,0,0,0-.851.625.724.724,0,0,0,.329.838l.174.108a3.444,3.444,0,0,1,1.781,2.823,1.526,1.526,0,0,1-.437.959,1.334,1.334,0,0,1-.935.471.866.866,0,0,1-.637-.286l-.036-.039a.751.751,0,0,0-.57-.27.946.946,0,0,0-.782.469.814.814,0,0,0-.034.816l.021.037-1.21,4.534a7.508,7.508,0,0,0-.9-2.2,8.629,8.629,0,0,0-1.547-1.881,9.542,9.542,0,0,0-1.516-1.138l-.065-.038c-.071-.04-.161-.087-.248-.132-.557-.291-1.4-.73-1.321-1.247.058-.388.795-.85,1.109-1.03A4,4,0,0,1,202.438,82a.137.137,0,0,0,.126-.113.108.108,0,0,0-.061-.127,3.968,3.968,0,0,0-1.61-.413A2.5,2.5,0,0,0,199.795,81.606ZM58.662,94.889a.7.7,0,0,0-.74.605c-.452,2.908-.9,5.861-1.336,8.716v0c-.514,3.376-1.046,6.867-1.583,10.3-.382,2.441-.82,4.916-1.243,7.309v0c-.128.726-.261,1.477-.392,2.225l-1.4,9.176a.172.172,0,0,0,.05.126.2.2,0,0,0,.143.059.175.175,0,0,0,.157-.09,34.456,34.456,0,0,0,2.882-7.995c.085-.312.172-.635.259-.95.758-2.761,1.444-5.746,2.159-9.393.628-3.207,1.111-6.432,1.435-9.586.329-3.2.507-6.46.53-9.678a.758.758,0,0,0-.224-.551A.993.993,0,0,0,58.662,94.889Zm10.291,9.122a1.083,1.083,0,0,0-.814.382.959.959,0,0,0-.2.819l-.848,23.332a.262.262,0,0,0,.031.243.3.3,0,0,0,.239.111.309.309,0,0,0,.295-.2,43.6,43.6,0,0,0,1.9-5.809,41.359,41.359,0,0,0,1.052-6.036,35.906,35.906,0,0,0-.82-12.155A.841.841,0,0,0,68.953,104.011Zm46.814,21.435a.466.466,0,0,0-.38.179,5.279,5.279,0,0,0-.333.5,2.676,2.676,0,0,1-.708.862,4.247,4.247,0,0,1-1.649.573c-.256.051-.519.1-.765.176a5.913,5.913,0,0,0-2.667,1.589l-2.618,5.909a.227.227,0,0,0,.058.173.255.255,0,0,0,.186.074.289.289,0,0,0,.237-.117,17.864,17.864,0,0,0,1.155-1.968,15,15,0,0,1,1.37-2.252,5.109,5.109,0,0,1,2.081-1.627,8.77,8.77,0,0,1,1.509-.425,5.385,5.385,0,0,0,2.32-.9,2.8,2.8,0,0,0,.875-1.106,1.419,1.419,0,0,0-.112-1.337A.685.685,0,0,0,115.767,125.446Zm4.413,4.5a.667.667,0,0,0-.48.194,3.193,3.193,0,0,0-.435,3.213,14.171,14.171,0,0,0,1.458,3.174,18.471,18.471,0,0,0,4.213,4.56c.3.261.616.531.928.808a22.807,22.807,0,0,1,4.648,6.665c.349.659.7,1.337,1.036,1.992l.007.013,0,.007c.414.8.842,1.633,1.276,2.442a5.518,5.518,0,0,0-1.247,2.72c-.043.166-.083.323-.125.472l-.026.09a36.212,36.212,0,0,0-1.064,4.941,27.088,27.088,0,0,0-.258,4.791l.017.41.788,2.942a.312.312,0,0,0,.142.036.309.309,0,0,0,.247-.138.319.319,0,0,0-.047-.49,11.835,11.835,0,0,0,.526-1.77c.146-.647.305-1.307.486-2.019.171-.673.334-1.361.491-2.026l0-.009v-.006c.158-.667.322-1.358.493-2.034.346-1.361.777-2.794,1.282-4.257.029-.084.062-.174.1-.277l.055-.142.014.021a.146.146,0,0,0,.124.075.156.156,0,0,0,.116-.056.168.168,0,0,0,.039-.137c-.014-.091-.03-.183-.047-.272v-.009c-.01-.055-.02-.111-.03-.167l.051-.134a2.482,2.482,0,0,0-.047-2.5,1.179,1.179,0,0,0-.753-.5,43.13,43.13,0,0,0-1.716-4.6l-.188-.433a25.8,25.8,0,0,0-3.449-6.138,22.6,22.6,0,0,0-2.345-2.36,17.082,17.082,0,0,1-2.975-3.225,13.48,13.48,0,0,1-1.5-3.259l-.141-.439a3.506,3.506,0,0,0-1.341-2.092A.621.621,0,0,0,120.18,129.944Zm12.952,2.234a1.4,1.4,0,0,0-.9.308l-1.716,1.426c-.288.24-.576.481-.856.716-.261.219-.5.423-.725.621l-.358.316c-.041.037-.116.114-.212.213a3.632,3.632,0,0,1-.852.744.29.29,0,0,1-.045,0c-.456,0-1.37-.953-1.862-1.465l0,0-.169-.175-.051-.051a20.971,20.971,0,0,1-2.083-2.394.163.163,0,0,0-.131-.07.153.153,0,0,0-.128.07.156.156,0,0,0,0,.154,21.389,21.389,0,0,0,2.028,3.5l.16.218c.089.12.183.256.283.4l0,.006c.492.708,1.1,1.589,1.872,1.763a1.52,1.52,0,0,0,.334.037,4.256,4.256,0,0,0,2.35-1.225c.143-.116.277-.225.405-.324l.052-.04c.427-.321.848-.647,1.167-.9a15.192,15.192,0,0,0,.237,3.181,8.963,8.963,0,0,0,1.1,2.959,13.126,13.126,0,0,0,1.989,2.376c.317.323.646.658.953,1a13.4,13.4,0,0,1,1.519,2.239,16.438,16.438,0,0,0,1.177,1.827.761.761,0,0,0,.5.285c.03.81.13,1.635.228,2.432v.012c.027.223.055.453.081.678l.034.308c.017.161.037.324.059.5a5.265,5.265,0,0,1-.2,3.038,6.411,6.411,0,0,1-2.024,1.949h0c-.2.141-.382.275-.559.41l-.718.557L134,161.756a.262.262,0,0,0-.025.284.393.393,0,0,0,.334.2.305.305,0,0,0,.062-.006,13.9,13.9,0,0,0,3.771-1.645c.19-.106.406-.226.612-.339l.146-.079a6.181,6.181,0,0,0,2.765-2.455,7.759,7.759,0,0,0,.487-4.027l-.008-.126c-.022-.347-.041-.7-.059-1.047v-.007a24.422,24.422,0,0,0-.4-3.842,1.133,1.133,0,0,0-.423-.7,1.156,1.156,0,0,0-.7-.219,1.445,1.445,0,0,0-.423.064,12.809,12.809,0,0,0-3.111-4.533c-.436-.474-.886-.964-1.288-1.453a6.978,6.978,0,0,1-1.483-3.8,23.027,23.027,0,0,1,.058-4.173q.019-.251.037-.5a1.037,1.037,0,0,0-.263-.8A1.29,1.29,0,0,0,133.133,132.178Z" transform="translate(293 306.395) rotate(180)"/>
  <path id="_Skin-2" data-name="âœ‹ Skin" d="M43.883,0C29.688,0,11.365,8.9,9.8,18.024,7.961,28.772-1.9,70.011.327,83.236s14.225,22.745,33.425,22.745,33.53-10.47,36.82-14.065,9.388-16.43,9.388-16.43,10.28-1.367,10.329-9.747A12.492,12.492,0,0,0,83.605,54.31s2.4-33.07-3.645-41.679S58.078,0,43.883,0Z" transform="translate(131.982 32.564)" fill="#d08b5b"/>
  <path id="Path" d="M13.112.159c.01-.192-.27-.215-.322-.045A257.578,257.578,0,0,0,5.853,28.49l-.587,3.051C3.7,39.679,2.113,47.829.775,56.007L.7,56.5A36.166,36.166,0,0,0,.48,69.244,21.412,21.412,0,0,0,6.195,79.739c5.382,5.6,12.863,9.09,20.387,10.652a42.483,42.483,0,0,0,11.607.82,41.749,41.749,0,0,0,5.755-.81l.209-.045c1.908-.412,3.6-.9,4.614-2.7a1.08,1.08,0,0,0-.383-1.46,5.033,5.033,0,0,0-2.855-.493c-1.052.12-2.08.438-3.12.635a38.066,38.066,0,0,1-17.782-.983C18.1,83.322,11.472,79.424,7.66,73.594c-4.485-6.858-2.7-15.182-1.511-22.756l.036-.229Q7.99,39,9.732,27.38l.493-3.32C11.52,15.287,12.742,9.025,13.112.159Z" transform="translate(129.54 48.958)"/>
  <path id="Path-2" data-name="Path" d="M73,2.645C69.747.5,65.7-.028,61.875,0L61.4.007C56.5.082,31.844.669,23.59.849L21.626.89c-2.6.049-7.841.1-10.542.15l-.156,0c-1.325.025-2.65.035-3.975.077l-.194.007a3.76,3.76,0,0,0-2.6.891,1.717,1.717,0,0,0-.513,1.41l.006.067-1.967.172A1.743,1.743,0,0,0,.177,6.2L.2,6.255c.942,2.01,1.662,7.86,2.167,10.022a28.857,28.857,0,0,1,.6,3.455,5.842,5.842,0,0,0,.62,2.637c1.088,1.717,4.147,1.7,4.2-.73a1.664,1.664,0,0,0-.007-.225c7.7-.337,18.212-.3,25.9.155a144.766,144.766,0,0,1,21.37,2.9q2.674.566,5.325,1.237a16.829,16.829,0,0,1,4.52,1.365c1.45.88,1.422,2.457,1.265,3.96-.169,1.592-.451.772-.85,2.223l-.025.092a28.507,28.507,0,0,1-1.6,4.612c-.385.845-1.005,1.657-.77,2.63a3.5,3.5,0,0,0,.962,1.515c1.81,1.737,4.87.63,6.1,3.01,1.287,2.489,1.319,5.86,1.428,8.614l.007.161a52.79,52.79,0,0,1-.068,5.692c-.112,1.725-.572,3.432.018,5.09a1.429,1.429,0,0,0,2.57.338c.084-.113.162-.228.234-.344l.071-.116,0,0c-.07.11-.135.223-.2.338s.1.268.2.158c1.73-1.882,4.257-1.507,6.215-.19,1.982,1.34,2.765,3.885,2.867,6.168a17.885,17.885,0,0,1-1.165,7.84,3.925,3.925,0,0,1-2.132,2.277,5.3,5.3,0,0,1-1.43.187,12.93,12.93,0,0,1-1.642.265,1.09,1.09,0,0,0-1.054,1.324l.014.041c.01.03.02.06.03.088a.26.26,0,0,0-.067.09,46.58,46.58,0,0,1-7.385,10.542A42.125,42.125,0,0,1,63.8,98.115,21.706,21.706,0,0,1,61.184,100a3.867,3.867,0,0,1-.928.4c-.16.045-.342.067-.5.12l-.161.055-.032.01a1.179,1.179,0,0,0-1,.835,2.075,2.075,0,0,0,1.56,2.687,4.37,4.37,0,0,0,3.66-1.037l.07-.05a32.429,32.429,0,0,0,5.88-5.345,29.741,29.741,0,0,0,6.54-13.847,2.706,2.706,0,0,0,1.148,1.307,4.427,4.427,0,0,0,2.927.332,7.325,7.325,0,0,0,4.752-3.15,12.831,12.831,0,0,0,1.855-5.707,23.051,23.051,0,0,0,.128-5.982c-.373-2.865-1.575-5.7-3.912-7.267,1.75-3.812,2.057-8.087,1.932-12.262a151.134,151.134,0,0,0-1.722-15.43l-1.94-14.477h0l-.079-.584a42.776,42.776,0,0,0-2.313-10.039A16.475,16.475,0,0,0,73,2.645Z" transform="translate(135.896 25)"/>
  <path id="Path-3" data-name="Path" d="M8.7.634A6.368,6.368,0,0,0,.306,3.529c-1.5,2.623,2.96,4.358,3.7,1.653L4.031,5.1A5.708,5.708,0,0,1,8.6,1.007C8.771.982,8.9.732,8.7.634Z" transform="translate(208.366 95.5)"/>
  <rect id="Rectangle_243" data-name="Rectangle 243" width="32" height="34" transform="translate(73 205)" fill="#fff"/>
  <g id="accessories_Glasses_2" data-name="accessories/Glasses 2" transform="translate(124.392 69)">
    <path id="_Ink-2" data-name="ðŸ– Ink" d="M46.323,0h0a15.7,15.7,0,0,0-8.358,2.464A11.065,11.065,0,0,0,34.5,6.015a10.221,10.221,0,0,0-1.378,4.133,13.466,13.466,0,0,0,.453,5.03A4.559,4.559,0,0,0,32.246,15a6.5,6.5,0,0,0-1.941.293,2.782,2.782,0,0,0-1.4.866c-2.711.232-5.45.567-8.1.892a121.762,121.762,0,0,1-14.742,1.2c-1.179,0-2.339-.035-3.448-.1-.835-.116-.787-.714-.742-1.292a2.04,2.04,0,0,0-.039-.82.768.768,0,0,0-.693-.468A1.2,1.2,0,0,0,.021,16.71,3.039,3.039,0,0,0,.31,18.353a2.109,2.109,0,0,0,1.04,1.118c.5.355,2.006.543,4.367.543a99.054,99.054,0,0,0,11.339-.826,96.472,96.472,0,0,0,11.971-2.166,4.228,4.228,0,0,0,2.361.566,17.182,17.182,0,0,0,2.236-.2c.24-.032.466-.062.678-.086A14.994,14.994,0,0,0,36.185,20.6a18.486,18.486,0,0,0,2.888,3.076,14.815,14.815,0,0,0,3.593,2.274,9.993,9.993,0,0,0,4,.888,8.335,8.335,0,0,0,1.343-.108,18.513,18.513,0,0,0,3.889-.615,12.161,12.161,0,0,0,3.39-1.5A10.327,10.327,0,0,0,58,22.013a13.039,13.039,0,0,0,1.873-3.889,9.6,9.6,0,0,0,3.2,1.866,11.336,11.336,0,0,0,3.782.664,8.354,8.354,0,0,0,4.272-1.072,16,16,0,0,0,3.721,5.276,14.808,14.808,0,0,0,5.586,3.254A6.764,6.764,0,0,0,84.4,29.434a7.334,7.334,0,0,0,3.082-.713,10.455,10.455,0,0,0,2.757-1.9,13.364,13.364,0,0,0,2.208-2.716,13.164,13.164,0,0,0,1.434-3.173,4.6,4.6,0,0,0,2.727.717,1.329,1.329,0,0,0,.781-.419.894.894,0,0,0,.218-.665c-.045-.478-.5-.96-1.429-.96a4.809,4.809,0,0,0-2.079.586c1.544-6.458-.282-10.54-2.087-12.827a12.128,12.128,0,0,0-2.185-2.14,13.113,13.113,0,0,0-2.6-1.531,14.411,14.411,0,0,0-5.819-1.227h0a13.893,13.893,0,0,0-2.712.265,12.54,12.54,0,0,0-2.554.8,11,11,0,0,0-2.272,1.327A9.916,9.916,0,0,0,72,6.715a10.257,10.257,0,0,0-1.974,4.792A16.177,16.177,0,0,0,70.56,18.1a19.993,19.993,0,0,1-4.649.589,12.945,12.945,0,0,1-5.819-1.281,13.054,13.054,0,0,0,.228-6.251,13.37,13.37,0,0,0-.948-2.867,13.945,13.945,0,0,0-1.549-2.579A14.419,14.419,0,0,0,46.323,0Zm1.6,24.918h0a18.039,18.039,0,0,1-6.3-1.257c-4.374-2.94-7.182-8.442-6.678-13.084.267-2.452,1.573-5.765,6.28-7.619A13.089,13.089,0,0,1,46.176,2a12.447,12.447,0,0,1,9.957,4.766,12,12,0,0,1,1.331,12.5,10.2,10.2,0,0,1-9.537,5.655Zm35.826,2.756a.139.139,0,0,1-.062-.012,12.192,12.192,0,0,1-2.377-.614c-.421-.139-.818-.271-1.173-.359-4.863-2.207-8.611-8.017-8.533-13.228a8.775,8.775,0,0,1,5.83-8.246A11.187,11.187,0,0,1,81.7,4.381,10.956,10.956,0,0,1,89.578,7.57c3,2.944,3.977,8.588,2.311,13.42-1.339,3.883-4.094,6.332-7.559,6.718a.6.6,0,0,0-.277-.065,1.067,1.067,0,0,0-.168.016l-.019,0A.765.765,0,0,1,83.753,27.675ZM34.122,16.854h0L34,16.8l0,0-.033-.015.014-.006.014-.006a.319.319,0,0,0,.055-.036l.025-.018c.009.026.02.052.03.077l0,0,.022.056Z" transform="translate(97.608 29.434) rotate(180)"/>
  </g>
  <g id="face_Explaining" data-name="face/Explaining" transform="translate(137.019 66.5)">
    <path id="teeth" d="M21.9,3.223c-2-4-20.348-2.2-20.348-2.2L0,13.736s8.853,2.846,14.122,2.249S23.9,7.223,21.9,3.223Z" transform="translate(15.501 38.466)" fill="#fff"/>
    <path id="tongue" d="M19.523,3.389C20.157,2.033,7.04-1.664,2.979.862S.188,6.835.188,6.835,17.269,10.731,19.523,3.389Z" transform="translate(16.583 44.978)" fill="#ff8181"/>
    <path id="_Ink-3" data-name="ðŸ– Ink" d="M18.427,0A17.9,17.9,0,0,0,12.21,1.064,11.69,11.69,0,0,0,7.1,4.626a10.182,10.182,0,0,0-2.252,5.868,8.747,8.747,0,0,0,.4,3.1,8.042,8.042,0,0,0,1.568,2.8,9.078,9.078,0,0,0,3.837,2.6,13.452,13.452,0,0,0,4.606.746A19.926,19.926,0,0,0,19.31,19.3c1.064-.222,2.135-.505,3.17-.779a38.906,38.906,0,0,1,5.024-1.1,26.077,26.077,0,0,1,3.3-.2c.2,0,.412,0,.621.006.559.01,1.127.066,1.676.12.609.06,1.238.121,1.855.121.111,0,.221,0,.326-.006a.2.2,0,0,0,.189-.152.2.2,0,0,0-.088-.22A9.916,9.916,0,0,0,32.4,15.958a26.452,26.452,0,0,0-3.222-.493,3.742,3.742,0,0,1,.037-.431c.065-.391.113-.714.15-1.018.09-.736.192-1.482.291-2.2l.014-.1c.067-.491.121-1,.172-1.483a23.164,23.164,0,0,1,.466-3.078l.064-.247a2.284,2.284,0,0,0,.076-.848l.084.038.267.129.175.083a3.94,3.94,0,0,0,1.71.454c.095,0,.192,0,.288-.014a1.253,1.253,0,0,0,.74-.319.993.993,0,0,0,.314-.736,2.7,2.7,0,0,0-.587-1.711A4.6,4.6,0,0,0,31.976,2.81a16.032,16.032,0,0,0-3.655-1.245l-.08-.02-.619-.153A44.576,44.576,0,0,0,19.426.025C19.095.008,18.758,0,18.427,0ZM16.958,8.291h0A14.2,14.2,0,0,1,12.8,7.55a4.954,4.954,0,0,1-2.321-1.19.13.13,0,0,1,.029-.154c1.849-1.79,4.5-2.7,7.88-2.7a21.885,21.885,0,0,1,2.959.212,48.4,48.4,0,0,1,5.618,1.16,3.715,3.715,0,0,1-3.794,3.448,3.6,3.6,0,0,1-3.2-1.713,1.745,1.745,0,0,1-1.015,1.3,4.579,4.579,0,0,1-2,.371ZM16,16.223a9.02,9.02,0,0,1-5.746-1.666,4.507,4.507,0,0,1-1.681-2.739c2.236.331,4.655.617,7.4.873l.675.062c1.54.139,3.1.287,4.64.441l1.1.111,1.1.114c.3.031,1.875.115,2.814.115a4.633,4.633,0,0,0,.667-.03c.014.118.029.268.046.443a11.525,11.525,0,0,0,.185,1.378c-.3-.01-.6-.015-.9-.015a34.983,34.983,0,0,0-4.628.334l-.325.044-1.274.183-.5.069A27.315,27.315,0,0,1,16,16.223Zm11.3,7.43h0a8.729,8.729,0,0,0-3.112.627,15.718,15.718,0,0,0-3.66,2.077,1.406,1.406,0,0,0-.511.812,1.683,1.683,0,0,0,.072.912,2.075,2.075,0,0,0,.616.891,1.5,1.5,0,0,0,.96.375,1.362,1.362,0,0,0,.743-.228l.249-.192h0c1.272-.983,3.193-2.469,5.037-2.469a3.008,3.008,0,0,1,2.241.994,3.5,3.5,0,0,1,.692,1.859l-.047-.025c-.013-.008-.026-.015-.039-.022l-.032-.018v.064l.09.033.029.01c0-.01,0-.019,0-.029v-.012l.044.024.031.018c.017.011.025.018.024.021s0,0-.006,0a.442.442,0,0,1-.092-.025c.073,1.935-1.722,3.731-3.427,4.768a.628.628,0,0,0-.17.722.934.934,0,0,0,.91.646,1.273,1.273,0,0,0,.215-.019,6.789,6.789,0,0,0,2.387-.862,5.416,5.416,0,0,0,1.606-1.48,5.882,5.882,0,0,0,1.025-3.93,6.275,6.275,0,0,0-1.709-3.835A5.656,5.656,0,0,0,27.3,23.653ZM9.631,34.576a2.144,2.144,0,0,0-1.393.539,4.279,4.279,0,0,0-1.005,1.307A7.43,7.43,0,0,0,6.4,39.479v.056a8.4,8.4,0,0,0,.754,3.215,2.974,2.974,0,0,0,2.473,2.019c.666,0,1.257-.539,1.709-1.558a10.4,10.4,0,0,0,.746-3.473l.005-.1c.045-1.079-.145-3.408-1.189-4.5A1.712,1.712,0,0,0,9.631,34.576Zm27.335.5a1.716,1.716,0,0,0-1.285.577,4.81,4.81,0,0,0-.995,2.267,9.665,9.665,0,0,0-.175,2.319l.013.191a10.092,10.092,0,0,0,.765,3.352c.447.973,1.027,1.488,1.677,1.488A2.974,2.974,0,0,0,39.44,43.25a8.4,8.4,0,0,0,.754-3.215v-.056a7.43,7.43,0,0,0-.829-3.057,4.279,4.279,0,0,0-1.005-1.307A2.144,2.144,0,0,0,36.967,35.076Zm-35.56,9.8H1.393a1.227,1.227,0,0,0-.946.462,3.151,3.151,0,0,0-.384,2.33A10.005,10.005,0,0,0,.975,50.41,11.038,11.038,0,0,0,2.6,52.8a8.893,8.893,0,0,0,2.311,1.871,8.286,8.286,0,0,0,2.807.965,6.4,6.4,0,0,0,.959.071,5.9,5.9,0,0,0,2.491-.519,3.507,3.507,0,0,0,1.776-1.713,1.35,1.35,0,0,0-.04-1.265,1.207,1.207,0,0,0-1.012-.569c-.251-.012-.522-.018-.829-.018-.277,0-.551,0-.815.009h-.009c-.26,0-.528.009-.789.009a6.326,6.326,0,0,1-4.134-1.128,10.385,10.385,0,0,1-2.28-2.5l-.239-.349-.2-.287a3.345,3.345,0,0,1-.772-2.077.381.381,0,0,0-.108-.284A.434.434,0,0,0,1.406,44.876Zm42.078,1.711a1.549,1.549,0,0,0-.874.253,4.277,4.277,0,0,0-1.274,1.546,7.225,7.225,0,0,1-.694,1.042,7.456,7.456,0,0,1-4.72,2.414l-.149.014c-.1.009-.258.014-.428.014a8.148,8.148,0,0,1-1.355-.107,1.6,1.6,0,0,1-1.037-.462.433.433,0,0,1-.033-.423.171.171,0,0,0-.018-.163.246.246,0,0,0-.2-.1.181.181,0,0,0-.138.06,1.161,1.161,0,0,0-.312.967,2.733,2.733,0,0,0,1.255,1.687,7.148,7.148,0,0,0,3.828,1.052c.21,0,.421-.008.629-.025a10.284,10.284,0,0,0,3.451-1,8.539,8.539,0,0,0,3.034-2.317,3.834,3.834,0,0,0,.845-3.1A1.821,1.821,0,0,0,43.484,46.587Z" transform="translate(45.357 55.71) rotate(180)"/>
  </g>
</svg>
