<svg id="timline-5" xmlns="http://www.w3.org/2000/svg" width="300" height="318" viewBox="0 0 300 318">
  <circle id="Ellipse_139" data-name="Ellipse 139" cx="150" cy="150" r="150" transform="translate(0 18)" fill="#ff9e00"/>
  <g id="Group_254" data-name="Group 254" transform="translate(79.489)">
    <g id="body_Gaming" data-name="body/Gaming" transform="translate(0 105.5)">
      <path id="_Skin" data-name="âœ‹ Skin" d="M2.265,109.029c0-2.023,2.8-5.614,2.8-7.446-2.354-.421-4.322-3.61-3.8-5.607.919-.7,3.327-2.085,4.323-2.73,6.068.184,3.762-8.258,4.449-12.549.692-4.2,1.205-8.589,2.217-12.811,1.8-3.379,2.641-7.166,4.359-10.528.767-1.114,2.007-2.135,2.379-3.43,3.759-4.105,8.933-6.566,13.191-10.042-1.653-.529-1.542-2.758-1.436-4.189-.385-1.867.026-4.209,1.729-5.261A2.955,2.955,0,0,1,37.042,33.1c.966-4.331,4.747-6.958,8.707-8.565l-.01-.038c3.994-1.585,8.781-2.375,12.766-1.484C56.4-.425,74.351-1.285,83.462.684c4.66,1.007,11.652,4.144,13.24,8.5.9,2.462,3.47,10.4,3.836,12.933,6.957-3.97,15.022-9.2,21.056-1.212a8.557,8.557,0,0,0,4.353,2.906c5.645,1.465,13.138,1.514,16.346,7.268,1.918,3.565.193,5.914.708,9.48,25.411,17.845,46.646,83.584,41.878,114.167-1.147,10.945-6.747,30.317-20.569,27.9-7.05,7.711-125.382,7.711-137.584,0-10.044,2.627-20.249-1.439-24.461-11.059-5.349-13.191.32-27.436,1.324-40.967.61-3.416,1.518-6.128,2-9.625.2-1.457-.5-3.882,0-5.225C5.359,114.881,2.265,111.051,2.265,109.029Z" transform="translate(0.68 0)" fill="#d08b5b"/>
      <path id="_Top" data-name="ðŸ‘• Top" d="M86.229,0C78.867,0,71.649.1,64.776.3c-7.059.206-13.568.511-19.347.907-6.062.415-11.22.924-15.331,1.513a42.759,42.759,0,0,0-9.4,2.12l-.449.2L17.469,6.375a21.008,21.008,0,0,1,3.089.889c0,.022-.062.033-.175.033a11.219,11.219,0,0,1-1.154-.107,8.654,8.654,0,0,0-1.08-.067,10.142,10.142,0,0,0-2.891.438,12.37,12.37,0,0,0-2.82,1.252,13.658,13.658,0,0,0-4.614,4.572l-.938,1.548-.287.481-.159.271c-.381.651-.654,1.153-.944,1.731a45.818,45.818,0,0,0-2.926,7.517A56.951,56.951,0,0,0,.859,32.793,79.357,79.357,0,0,0,.084,41.5c-.1,2.748-.112,5.587-.024,8.437.087,2.822.271,5.734.546,8.656A165.073,165.073,0,0,0,3.34,76.513a164.717,164.717,0,0,0,11.074,34.222,153.6,153.6,0,0,0,8.117,15.6l.319.53.347.573.356.584.358.582.326.526.329.525.332.524c1.558,2.448,2.991,4.507,4.382,6.295a48.243,48.243,0,0,0,4.445,5c2.749,2.676,5.688,5.432,8.736,8.189l-.066,1.159,0,.021c-.008.048-.034.143-.07.275-.247.912-1,3.687.017,5.905l.133.285c.769,1.628,1.063,1.764,1.551,1.989a3.91,3.91,0,0,1,.664.37l.041.029a22.257,22.257,0,0,0,8.365,3.392,15.32,15.32,0,0,0,2.8.314l.157.006.206.007.883.027a4.783,4.783,0,0,1,3.873,1.854l.071.091.072.1.068.093a14.317,14.317,0,0,1,.821,1.347l.248.44.119.208.122.21a8.417,8.417,0,0,0,1.127,1.572,7.85,7.85,0,0,0,5.271,2.306c.355.023.715.035,1.069.035a19.453,19.453,0,0,0,5.181-.751,48.85,48.85,0,0,0,6.285-2.273l.417-.179,1.433-.621-.3-.689a50.494,50.494,0,0,0-2.837-5.56l-.2-.328-.3-.5.015-.017c.127-.141.261-.291.4-.447l15.77-16.945c6.62-7.107,10.165-10.9,10.536-11.272a3.716,3.716,0,0,1,2.54-1.309,2.815,2.815,0,0,1,1.93.871l.157.149.259.249.176.173c.869.859,1.743,1.81,3.117,3.4L129.142,156.3l-.92,2.055c-1.681,3.777-2.611,6.017-2.767,6.658l-.07.315-.146.678.665.2a10.95,10.95,0,0,0,3.126.438,17.391,17.391,0,0,0,4.939-.8l.174-.052.5-.155a23.477,23.477,0,0,0,4.379-1.692,8.163,8.163,0,0,0,3.541-3.319,6.741,6.741,0,0,1,2.606-3.057l.086-.05.107-.06.113-.061c.094-.05.2-.1.335-.17l.462-.223a5.7,5.7,0,0,0,2.7-2.028,3.685,3.685,0,0,0,.583-1.473,5.684,5.684,0,0,0-.038-1.732l-.018-.114-.031-.187-.119-.685-.028-.174a4.259,4.259,0,0,1-.035-1.285l.014-.082.319-1.7-.634.4,1.753-1.428c2.531-2.072,3.956-3.291,5.442-4.658l.423-.391.083-.077c1.41-1.315,2.641-2.563,3.762-3.816a43.142,43.142,0,0,0,3.1-3.873,48.215,48.215,0,0,0,5.14-9.34l.157-.382.013-.05c1.035-4.058,1.982-8.2,2.814-12.309s1.571-8.3,2.2-12.449l.12-.808.611-4.14-2.011,3.67a4.462,4.462,0,0,1-2.26,1.559l-.1.039-.074.027-.155.055a5.9,5.9,0,0,1-1.941.34,5.266,5.266,0,0,1-1.561-.235l-.116-.037-.34-.114-.3.193a9.406,9.406,0,0,1-1.867.9l-.173.061-.723.248.262.719a2.339,2.339,0,0,1-.69,2.066,4.083,4.083,0,0,1-2.833.812c-.3,0-.621-.013-.979-.039l-.247-.02-.2-.018-.293-.029-.925-.1v0c-.012-.165-.019-.311-.022-.445v-.2a5.366,5.366,0,0,1,.091-.959l.026-.126.209-.931-.954.017-.416.006c-.3,0-.614.005-.925.005-1.083,0-2.277-.022-3.652-.068l-1.7-.063-4.335-.184-3.8-.133-1.133-.038-.054.717c-.07.932-.87,1.573-2.313,1.854l-.092.018-1.5.271,1.23,1.116.1.093.1.1c1.012,1.007,1.31,1.909.914,2.758a2.034,2.034,0,0,1-1.946,1.04,3.586,3.586,0,0,1-1.349-.275l-.093-.039-.1-.043a7.333,7.333,0,0,1-.908-.524l-.513-.334-.187-.119a6.758,6.758,0,0,0-1.111-.592,4.773,4.773,0,0,0-1.91-.359,12.2,12.2,0,0,0-1.5.112l-.135.017-.32.043-.817.114-.2.027-.205.025a10.648,10.648,0,0,1-1.25.085,3.682,3.682,0,0,1-2.09-.527,3.549,3.549,0,0,1-1.286-1.773l-.219-.485-.1-.208a6.863,6.863,0,0,0-.8-1.376,3.492,3.492,0,0,0-1-.86,7.561,7.561,0,0,0-1.912-.759l-.629-.182-.223-.068c-.133-.041-.246-.079-.366-.122a8.933,8.933,0,0,1-2.651-1.493l-.127-.1-.138-.115a22.174,22.174,0,0,1-2.639-2.766l-.847-1-.3-.35-.249-.285-.045-.051-.034-.039-.237-.263c-1.876-2.059-3.7-3.9-5.566-5.619l-.394-.361-.406-.365-.334-.3c-1.045-.92-2.158-1.844-4.106-3.408l-2.272-1.82-.715-.577c-2.193-1.776-3.49-2.894-4.787-4.127l-.331-.317-.023-.136c-.012-.068-.025-.149-.042-.261,0-.02-.327-2.041-.5-4.835-.1-1.642-.136-3.228-.1-4.712a33.972,33.972,0,0,1,.48-5.058,19.4,19.4,0,0,1,1.013-4.062c.289-.623.548-.7.848-.79a1.548,1.548,0,0,0,.934-.669L94.4,56.7A21.776,21.776,0,0,1,96.11,54.64l.647-.668.745-.6.47-.284A5.28,5.28,0,0,1,98.99,52.6a.8.8,0,0,1,.259-.042,1.187,1.187,0,0,1,.634.206,1.556,1.556,0,0,1,.509.551l.029.055.2.4.449.013a1.341,1.341,0,0,1,.317.048,1.727,1.727,0,0,1,1.122,1,1.781,1.781,0,0,1-.05,1.546l-.029.052-.269.478-.138.24a10.038,10.038,0,0,1-.567.88l-.07.093-1.033,1.359,2.6-.243.213-.021.292-.031.937-.107c.977-.11,1.931-.21,2.835-.3l.782-.075,1.368-.125.281-.028.608-.064,1.456-.158.518-.053.289-.028c.273-.026.52-.047.777-.066l.275-.02c.615-.042,1.168-.062,1.692-.062a12.739,12.739,0,0,1,3.526.433,16.591,16.591,0,0,1,3.657,1.565,29.491,29.491,0,0,1,3.818,2.618,22.207,22.207,0,0,1,5.8,6.229.112.112,0,0,1,.01.108l-.011.024-.444.815.891.263a6.5,6.5,0,0,1,1.823.82,3.508,3.508,0,0,1,1.551,2.5,2.119,2.119,0,0,1-.6,1.751l-.05.047-.069.062-.957,1.434,1.384.2a12.483,12.483,0,0,1,1.249.251,4.142,4.142,0,0,1,2.913,2.2,2.646,2.646,0,0,1-.2,2.417l-.037.063-.452.748.808.334c.168.069.348.138.55.209l.121.042.121.041.454.15a20.045,20.045,0,0,0,2.836.722,18.619,18.619,0,0,0,2.223.246l.278.012.31.011,0,.009.181,0,.635.022-.013-.032a20.135,20.135,0,0,0,2.833-.274l.224-.038c.317-.055.627-.114.974-.185l1.444-.306c.27-.056.5-.1.719-.14l.22-.038,2.325-.393L154.2,82.022,154.144,82l-.055-.029-.235-.13a4.381,4.381,0,0,1-2.5-2.9,2.181,2.181,0,0,1,.3-1.754,3.92,3.92,0,0,1,2.812-1.141l.2-.022.212-.02.139-.011,6.016-.407-5.7-1.093a36.969,36.969,0,0,1-4.181-1.069c-.109-.035-.229-.078-.356-.128l-.1-.04-.579-.24-.556-.4a2.529,2.529,0,0,1-.928-1.081,1.139,1.139,0,0,1,.168-1.073l.034-.047.3-.413-.274-.432a3.583,3.583,0,0,1,.257-4.1,6.107,6.107,0,0,1,3.788-2.143l.134-.029.38-.081.555-.087.4-.055.309-.036.209-.022.32-.03.874-.074a15.3,15.3,0,0,0,2.646-.383,11.244,11.244,0,0,0,3.138-1.385l.14-.083.3-.179.575-.354.557-.346.188-.115.232-.14a6.879,6.879,0,0,1,3.473-1.27,3.715,3.715,0,0,1,.561.043,4.068,4.068,0,0,1,1.952.829l.088.071.863.71-.025.144.188.258c.342.47,1.732,3.079,1.89,3.376l0,0a15.29,15.29,0,0,0,1.492,2.217A7.549,7.549,0,0,0,176,67.816l.1.067.236.145.27.057.136-.021a.686.686,0,0,0,.626-.536,1.9,1.9,0,0,0,.074-.262l.021-.1.021-.115.033-.2.035-.234.039-.288.042-.333c.032-.262.068-.571.11-.945l.454-4.178.124-1.11.115-.99.024-.2v0l0-.037.1-.8.107-.838c.284-2.179.556-3.847.83-5.1l.052-.232.035-.151.09-.385a81.569,81.569,0,0,0,2.479-18.381c.038-6.33-1.383-11.778-4.221-16.193a22.33,22.33,0,0,0-2.311-3.008,20.334,20.334,0,0,0-2.719-2.482,17.086,17.086,0,0,0-6.373-3.058,12.291,12.291,0,0,0-2.815-.341,8.7,8.7,0,0,0-3.909.854,4.986,4.986,0,0,0-1.057.735l-.151.127a2.92,2.92,0,0,1-1.188.762,1.149,1.149,0,0,1-.115.021l-.055.006-.681.052-.012.683c-.013.763-.209,1.276-.383,1.276a.111.111,0,0,1-.079-.039,2.762,2.762,0,0,1-.192-1.484c0-.033.126-3.274.159-3.684l.024-.271.009-.1-.4-1.4A52.068,52.068,0,0,0,145.3,2.873c-4.454-.62-9.982-1.156-16.428-1.6C122.739.86,115.88.538,108.489.32,101.3.108,93.809,0,86.229,0Zm35.127,94.345h0l4.508,2.265.092.045.025.013.173.083L126.7,97l1.334.612,1.352.636-.3-1.464a2.251,2.251,0,0,1-.046-.406v-.1l.021-.668-.661-.1c-.529-.078-1.064-.162-1.589-.248l-.523-.087Z" transform="translate(184.383 189.176) rotate(180)" fill="#00b583"/>
      <path id="_Ink" data-name="ðŸ– Ink" d="M160.266,0h0a6.464,6.464,0,0,0-2.234,1.28l-.111.1a21.362,21.362,0,0,0-.572,4.648l-.015.443c-.007.206-.013.411-.019.61s-.013.432-.021.655c-.076,2.305-.041,4.826.108,7.705l.1,1.888c.2,4,.409,8.653.283,13.214-.121,4.406-.477,9.235-1.12,15.2-.29,2.676-.618,5.336-.93,7.813-.071.565-.156,1.154-.239,1.723v0a34.732,34.732,0,0,0-.471,4.785,6.908,6.908,0,0,0-4.37,2.462,4.687,4.687,0,0,0-.92,2.46,4.113,4.113,0,0,0,.635,2.488,1.9,1.9,0,0,0-.4,1.457,2.268,2.268,0,0,0,.475,1.017,4.273,4.273,0,0,0,.919.851,5.515,5.515,0,0,0-2.1,2.483,11.065,11.065,0,0,0-.954,3.157,13.343,13.343,0,0,0-.117,2.3,7.742,7.742,0,0,0,.436,2.423,17.9,17.9,0,0,1-2.4-.248,19.326,19.326,0,0,1-2.728-.7l-.453-.15c-.2-.068-.471-.161-.742-.273a3.343,3.343,0,0,0,.334-3.078,4.165,4.165,0,0,0-1.341-1.693A5.931,5.931,0,0,0,139.182,74a13.839,13.839,0,0,0-1.547-.3c-.77-.106-1.561-.165-2.325-.222h0c-.4-.03-.815-.061-1.218-.1-.678-.062-1.369-.134-2.037-.2h-.012c-1.533-.159-3.118-.323-4.676-.389l-.066,0a.927.927,0,0,0-.895.529c-.005.005-.007.008-.007.012a.687.687,0,0,0-.1.27.1.1,0,0,1,.018-.013l.007,0a1.263,1.263,0,0,0,.227.962,1.144,1.144,0,0,0,.815.455c1.882.212,3.811.309,5.676.4h0c1.341.067,2.729.136,4.087.248l.208.017a5.637,5.637,0,0,1,3.027.9,1.669,1.669,0,0,1,.517,2.085.523.523,0,0,1-.013-.055.128.128,0,0,0-.136-.108.169.169,0,0,0-.142.071,1.124,1.124,0,0,0-.187.835,3.343,3.343,0,0,1-.793.668,11.538,11.538,0,0,1-4.167,1.193l-.04.006-.308.048a45.555,45.555,0,0,1-4.91.452c-.6.028-1.214.043-1.824.043a43.842,43.842,0,0,1-7.831-.732l-.022,0a.108.108,0,0,0-.108.093.1.1,0,0,0,.073.113,35.8,35.8,0,0,0,3.79,1.027l-.017,0c-.024,0-.048.009-.073.015a.221.221,0,0,0-.136.11.207.207,0,0,0-.019.165.286.286,0,0,0,.02.05.912.912,0,0,0-.517.78.691.691,0,0,0,.4.65,16.445,16.445,0,0,0,3.29,1.224c1.186.319,2.436.561,3.44.756,2.3.444,4.6.739,6.55.97,1.036.122,2.12.21,3.168.3a35.669,35.669,0,0,1,8.149,1.3l.147.049a6.908,6.908,0,0,1,2.151,1.16,2.912,2.912,0,0,1,1.138,2.07,1.624,1.624,0,0,1-.4,1.261,3.515,3.515,0,0,1-2.589.719c-.556,0-1.106-.041-1.592-.078-.266-.02-.517-.039-.727-.047-4.507-.172-8.932-.489-13.152-.943-.958-.1-1.834-.2-2.678-.293-1.425-.158-2.805-.321-4.1-.482-.627-.078-1.278-.179-1.907-.276l-.02,0-.4-.062a4.973,4.973,0,0,0-.725-.125h-.009a.068.068,0,0,0-.036.011,21.979,21.979,0,0,0-3.016-.253c-.132,0-.263,0-.389.006a.156.156,0,0,0-.14.128.114.114,0,0,0,.067.135,21.9,21.9,0,0,0,4.65,1.252,20.637,20.637,0,0,0,2.335,1.433l0,0c.3.165.578.321.847.477.361.211.731.444,1.122.691h0a14.692,14.692,0,0,0,3.321,1.733,9.5,9.5,0,0,0,2.2,1.28,1.876,1.876,0,0,0-.245,1.148,2.383,2.383,0,0,0,.818,1.594,3.632,3.632,0,0,0,1.652.778,8.62,8.62,0,0,0,1.312.162.874.874,0,0,0,.372.685l.074.056.052.042c.555.45,1.632,1.6,1.422,2.261-.089.281-.4.442-.923.479-.047,0-.1.005-.144.005a4.115,4.115,0,0,1-2.2-.928h0c-.163-.109-.317-.212-.472-.309a6.519,6.519,0,0,0-1.814-.792,7.241,7.241,0,0,0-1.863-.225,13.233,13.233,0,0,0-1.8.138l-.9.13-.15.02a9.009,9.009,0,0,1-1.184.092,2.617,2.617,0,0,1-2.554-1.357c-.2-.356-.362-.7-.523-1.041a5.176,5.176,0,0,0-2.407-2.862,14.9,14.9,0,0,0-2.076-.786,9.961,9.961,0,0,1-3-1.356,20.026,20.026,0,0,1-3.245-3.306c-.324-.386-.659-.784-1-1.164a61.858,61.858,0,0,0-4.748-4.773c-1.5-1.365-3.186-2.787-5.147-4.345l-.624-.495c-1.433-1.132-3.141-2.461-4.949-3.739a52.81,52.81,0,0,0-5.239-3.3.168.168,0,0,0-.072-.018.14.14,0,0,0-.115.093.118.118,0,0,0,.033.127c2.285,2.22,4.821,4.246,7.274,6.206,2.087,1.667,4.245,3.392,6.241,5.229,1.852,1.7,3.657,3.528,5.52,5.573.462.51.917,1.047,1.356,1.567h0A25.379,25.379,0,0,0,116.7,97.54a9.672,9.672,0,0,0,2.87,1.615c.329.118.679.218,1.016.315h0a8.308,8.308,0,0,1,1.98.753,3.146,3.146,0,0,1,1.034,1.027,9.513,9.513,0,0,1,.666,1.307,4.905,4.905,0,0,0,1.683,2.356,4.467,4.467,0,0,0,2.507.645,15.855,15.855,0,0,0,2.191-.206l.373-.052.2-.027a12.289,12.289,0,0,1,1.593-.134,4.325,4.325,0,0,1,1.679.3,8.85,8.85,0,0,1,1.442.82,8.783,8.783,0,0,0,1.468.832,4.366,4.366,0,0,0,1.646.325,3.342,3.342,0,0,0,1.526-.342,2.369,2.369,0,0,0,1.086-1.126c.585-1.252.115-2.57-1.4-3.917a4.8,4.8,0,0,0,2.047-.809,2.33,2.33,0,0,0,.973-1.743c1.024.034,2.064.07,3.069.106h0l.33.012c1.092.038,2.2.086,3.264.133h0c2.382.1,4.845.211,7.265.211.459,0,.913,0,1.348-.012a5.94,5.94,0,0,0-.135,1.24c0,.214.006.446.025.71a.734.734,0,0,0,.211.488.81.81,0,0,0,.489.212l.893.1.3.03c.587.056,1.061.081,1.489.081a6.913,6.913,0,0,0,1.784-.2,3.785,3.785,0,0,0,1.547-.793,3.184,3.184,0,0,0,.834-1.325,2.406,2.406,0,0,0,.069-1.565,10.308,10.308,0,0,0,2.2-1.042,6.007,6.007,0,0,0,1.914.312,6.654,6.654,0,0,0,2.189-.381l.16-.057a8.719,8.719,0,0,0,1.585-.761,3.522,3.522,0,0,0,1.256-1.211,252.69,252.69,0,0,1-5.116,25.489,47.531,47.531,0,0,1-5.2,9.524,42.723,42.723,0,0,1-3.2,3.977c-1.07,1.184-2.238,2.364-3.572,3.607-2.477,2.309-5.161,4.489-7.758,6.6-1.719,1.4-3.5,2.839-5.2,4.306-.489-.538-1.008-1.055-1.51-1.554l-.014-.014-.336-.335-.258-.259c-1.136-1.151-2.395-2.334-3.848-3.619-2.35-2.077-4.848-4.052-7.263-5.962l-.013-.01-1.265-1a101.243,101.243,0,0,1-8.255-7.231,66.34,66.34,0,0,1-7.175-8.287.149.149,0,0,0-.231,0,.1.1,0,0,0,0,.1,28.281,28.281,0,0,0,2.711,4.926,40.715,40.715,0,0,0,3.529,4.431,106.312,106.312,0,0,0,8.2,7.837l.126.112.292.26c.779.693,1.576,1.394,2.346,2.072l.007.006c2.165,1.9,4.4,3.872,6.506,5.911,1.446,1.4,2.7,2.718,3.835,4.024l.3.351c.1.113.207.252.335.412h0c.644.81,1.618,2.035,2.517,2.035a1.24,1.24,0,0,0,1.035-.727,1.407,1.407,0,0,0,0-1.406,11.152,11.152,0,0,0-1.278-1.751c1.739-.946,3.444-1.948,5.067-2.978a4.827,4.827,0,0,0,.017,1.622l.029.178.12.693a6.11,6.11,0,0,1,.114,1.493,3.066,3.066,0,0,1-.5,1.474,5.568,5.568,0,0,1-2.461,1.792c-.368.176-.748.358-1.1.564a7.581,7.581,0,0,0-2.886,3.35c-1.484,2.785-4.95,3.862-7.48,4.648l-.352.109a17.034,17.034,0,0,1-5.041.863,10.2,10.2,0,0,1-2.911-.4,24.919,24.919,0,0,1,.954-3.319,11.432,11.432,0,0,1,.507-1.116,5.188,5.188,0,0,0,.778-2.559,1.548,1.548,0,0,0-.435-.919,1.277,1.277,0,0,0-.9-.427,1.013,1.013,0,0,0-.626.224,5.612,5.612,0,0,0-1.7,3.535l0,.017c-.024.112-.05.227-.075.34a26.7,26.7,0,0,0-.6,4.257,22.335,22.335,0,0,0,.152,4.122l.13,1,.031.233a6.469,6.469,0,0,0,.924,2.878.136.136,0,0,0,.109.055.1.1,0,0,0,.105-.083,8.889,8.889,0,0,0,.1-2.415c-.022-.452-.045-.918-.028-1.359a25.518,25.518,0,0,1,.387-3.5,10.271,10.271,0,0,0,4.826,1.087,15.718,15.718,0,0,0,2.3-.177c2.791-.415,6.67-1.38,9.3-3.623a7.8,7.8,0,0,0,1.543-1.821c.136-.218.26-.446.38-.667a4.651,4.651,0,0,1,1.262-1.66,11.219,11.219,0,0,1,1.851-1.016,9.623,9.623,0,0,0,2.148-1.246,6.23,6.23,0,0,0,2.146-4.134,8.215,8.215,0,0,0-.213-2.447,3.082,3.082,0,0,1,.122-1.751,1.422,1.422,0,0,0-.613-1.5c1.077-.739,2.061-1.448,3.007-2.167A52.647,52.647,0,0,0,164,135.505a46.581,46.581,0,0,0,6.093-8.858l.081-.159.094-.191a80.114,80.114,0,0,0,3.235-7.723c.218-.661.392-1.216.547-1.744.447-1.525.836-3.106,1.157-4.7l.085-.432c.056-.289.12-.582.187-.893a13.665,13.665,0,0,0,.445-3.424c.757-3.923,1.42-7.84,1.971-11.642a1.3,1.3,0,0,0-.445-1.2c.755-.121,1.493-.268,2.245-.421l.431-.091.216-.047a6.72,6.72,0,0,0,4.079-2.152,3.783,3.783,0,0,0,.828-2.305,3.719,3.719,0,0,0-.811-2.312,5.081,5.081,0,0,0-1.67-1.38,9.021,9.021,0,0,0-2.035-.75c-.293-.073-.577-.138-.845-.192a.189.189,0,0,0-.039,0,.186.186,0,0,0-.177.141.156.156,0,0,0,.081.183l.3.166.41.225a6.632,6.632,0,0,1,2.769,2.316,2.392,2.392,0,0,1,.266,1.863,2.862,2.862,0,0,1-1.476,1.647,10.609,10.609,0,0,1-3.35.9l-.51.081-.529.087a17.836,17.836,0,0,1-2.86.264,10.683,10.683,0,0,1-1.2-.065,7.6,7.6,0,0,1-1.753-.41,6.1,6.1,0,0,1-1.582-.85l-.088-.07-.092-.077c-.49-.424-1.374-1.422-1.215-2.16a.948.948,0,0,1,.752-.667,11.373,11.373,0,0,1,2.907-.3c.363-.008.706-.015,1.041-.033l.164-.01c.39-.027.794-.044,1.185-.061h0c.679-.029,1.381-.059,2.06-.139a9.921,9.921,0,0,0,1.138-.2.841.841,0,0,0,.513-.32.774.774,0,0,0,.135-.5,1.058,1.058,0,0,0-.261-.618.973.973,0,0,0-.627-.33c-.208-.023-.437-.036-.7-.043a5.909,5.909,0,0,0-1.6-.742c-.2-.07-.4-.142-.6-.218-.795-.315-1.46-.574-2.1-.815.617-.028,1.226-.08,1.812-.153a.156.156,0,0,0,.147-.155.152.152,0,0,0-.147-.15c-1.2-.122-2.772-.289-4.345-.51a45.958,45.958,0,0,1-6.632-1.358,42.767,42.767,0,0,1-4.678-1.662l-.46-.2-.19-.083-.268-.116,0,0c-1.312-.564-2.946-1.267-3.688-2.5a2.727,2.727,0,0,1-.381-1.215,1.613,1.613,0,0,1,.369-1.193,3.364,3.364,0,0,1,2.44-.652c.124,0,.253-.005.373-.01l.07,0c1.07-.052,2.157-.078,3.232-.078.775,0,1.561.014,2.337.041a74.337,74.337,0,0,1,11.611,1.31.649.649,0,0,0,.124.012.6.6,0,0,0,.577-.541.487.487,0,0,0-.4-.557,64.845,64.845,0,0,0-6.8-1.207,60.083,60.083,0,0,0-6.891-.442h-.507a41.845,41.845,0,0,1-5.322-1.438l-.35-.117c-.185-.062-.392-.125-.611-.19-1.025-.307-2.3-.69-2.8-1.535-.364-.613-.317-1.107.138-1.468a3.344,3.344,0,0,1,1.458-.544,10.7,10.7,0,0,1,1.477-.146c1.812-.068,3.665-.1,5.51-.1,1.08,0,2.18.012,3.27.035,1.492.033,2.969.087,4.388.16.393.021.8.052,1.2.083.714.055,1.451.112,2.167.112.369,0,.7-.015,1.017-.045a.63.63,0,0,0,.563-.584.5.5,0,0,0-.41-.544,20.951,20.951,0,0,0-4.613-.44h0c-.307-.007-.624-.014-.93-.023l-.209-.007c-1.771-.063-3.6-.1-5.441-.1h-.411c-1.666.007-3.355.041-5.019.1l-1.478.059-.262.012a6.311,6.311,0,0,0-2.291.457,2.34,2.34,0,0,1-.219-1.776,3.555,3.555,0,0,1,.889-1.607A6.1,6.1,0,0,1,155.3,61.6c.091-.02.2-.043.308-.065.757-.154,1.528-.257,2.274-.356a15.283,15.283,0,0,0,4.831-1.2c.635-.312,1.264-.7,1.872-1.078a11.254,11.254,0,0,1,3.873-1.77,4.661,4.661,0,0,1,.8-.071,3.641,3.641,0,0,1,1.979.566,5.116,5.116,0,0,1,1.507,1.556h0c.051.079.109.168.162.254.363.584.684,1.2,1,1.805a22.336,22.336,0,0,0,1.21,2.139,8.228,8.228,0,0,0,1.5,1.755c.114.1.535.343.98.6h0a11.655,11.655,0,0,1,1.428.9c.781.8.641,2.149.5,3.452a7.537,7.537,0,0,0-.037,2.126,4.806,4.806,0,0,0,1.741,2.589A8.5,8.5,0,0,1,182.5,76.2a2.291,2.291,0,0,1,.4,1.039,2.546,2.546,0,0,1-.105,1.029,8.781,8.781,0,0,1-1.066,2.059c-.844,1.344-1.717,2.732-.958,4.22a.194.194,0,0,0,.077.083.222.222,0,0,0,.1.025.252.252,0,0,0,.182-.076.187.187,0,0,0,.051-.144,3.762,3.762,0,0,1,.411-1.946,12.282,12.282,0,0,1,1.1-1.736,10.2,10.2,0,0,0,1.235-2.053,3.449,3.449,0,0,0,.269-1.467,3.093,3.093,0,0,0-.342-1.247,9.365,9.365,0,0,0-1.75-2.175l-.031-.032-.107-.11c-1.186-1.223-1.07-2.54-.947-3.934a8.85,8.85,0,0,0-.008-2.374,3.177,3.177,0,0,0-.251-.8,1.3,1.3,0,0,0,.61-.969c.605-5.134,1.291-10.6,2.417-15.96l.237-1.121.317-1.5A66.472,66.472,0,0,0,186.009,35.7a44.939,44.939,0,0,0,.354-9.729,32.016,32.016,0,0,0-1.477-7.38,28.977,28.977,0,0,0-3.233-6.823,23.346,23.346,0,0,0-4.968-5.539A19.9,19.9,0,0,0,170,2.7a15.285,15.285,0,0,0-4.422-.67,13.644,13.644,0,0,0-2.753.277,11.408,11.408,0,0,0-2.99,1.1c.071-.762.112-1.39.13-1.976a1.423,1.423,0,0,0,.3-1.434ZM155.91,59.9a35.3,35.3,0,0,0,.919-4.363v-.006c.072-.431.146-.876.223-1.3.434-2.434.792-4.869,1.2-7.778.71-5.1,1.192-10.2,1.435-15.173.251-5.146.1-10.294-.059-14.715l-.089-2.394c-.065-1.772-.131-3.832-.095-5.851a1.847,1.847,0,0,0,.285-.045,3.814,3.814,0,0,0,1.506-.924,5.5,5.5,0,0,1,1.052-.759,7.959,7.959,0,0,1,3.574-.774,11.538,11.538,0,0,1,2.643.319,16.363,16.363,0,0,1,6.253,3.049,19.787,19.787,0,0,1,2.566,2.387,21.566,21.566,0,0,1,2.126,2.786c2.76,4.292,4.139,9.6,4.1,15.783a80.718,80.718,0,0,1-2.457,18.216l-.09.384a116.1,116.1,0,0,0-1.643,11.744v0a27.587,27.587,0,0,1-.587,4.336l-.009,0c-1.806-1.07-2.966-3.279-3.9-5.053a17.586,17.586,0,0,0-1.153-2c.03-.168.057-.339.084-.5.062-.388.127-.789.223-1.164a27.886,27.886,0,0,1,1.205-3.6c.612-1.5,1.349-2.97,2.061-4.392v0c.265-.529.539-1.077.8-1.618a47.377,47.377,0,0,0,2.146-4.927.988.988,0,0,1-.175-.237,2.176,2.176,0,0,0-.554-.728.954.954,0,0,0-.607-.195,4.3,4.3,0,0,0-.906.15l-.28.064v0a44.191,44.191,0,0,1-1.879,4.565c-.223.488-.453.993-.673,1.492l-.215.49-.213.49a28.353,28.353,0,0,0-1.807,5.288,18.093,18.093,0,0,0-.367,3.575,4.806,4.806,0,0,0-2.405-1.062,4.329,4.329,0,0,0-.644-.048,5.881,5.881,0,0,0-2.437.6,19.78,19.78,0,0,0-2.24,1.264l-.011.007-.373.232-.385.236a12.228,12.228,0,0,1-3.363,1.559,17.6,17.6,0,0,1-2.826.388h0c-.473.039-.962.079-1.44.139l-.028,0h0c-.158.021-.321.042-.483.068Zm-6.38,21.272-.064-.326A7.856,7.856,0,0,1,149.3,79.7a9.467,9.467,0,0,1,.333-2.988,10.428,10.428,0,0,1,1.152-2.745,9.426,9.426,0,0,1,.787-1.045,8.153,8.153,0,0,0,.883-1.21.786.786,0,0,0,.09-.26c.19.079.359.141.515.19a37.692,37.692,0,0,0,4.265,1.09l-.229.016-.148.012c-1.892.16-3.122.64-3.76,1.467a2.4,2.4,0,0,0-.449,1,3.657,3.657,0,0,0,.009,1.35,5.065,5.065,0,0,0,2.87,3.419l.168.093c.079.044.152.082.22.115-.572.1-1.068.2-1.593.317-.591.127-1.2.259-1.987.391A19.337,19.337,0,0,1,149.53,81.172ZM130.482,94.435c-.305-.143-.608-.281-.9-.414h0c-.4-.182-.78-.354-1.137-.528l-.084-.042h0l-.062-.03c.7.119,1.417.233,2.128.338a2.948,2.948,0,0,0,.06.677h0Zm28.038,2.489a1.182,1.182,0,0,1-.636-.254l-.04-.04a1.113,1.113,0,0,1-.293-.707l.036-.266a1,1,0,0,1,.257-.441l.2-.156a1,1,0,0,1,.438-.134l.067,0h.2a1.211,1.211,0,0,1,.609.253l.04.04a1.154,1.154,0,0,1,.293.649v.058l-.036.266a1,1,0,0,1-.213.394l-.045.048-.2.157a1,1,0,0,1-.438.134l-.067,0h-.175Zm-5.689-1.617a3.27,3.27,0,0,0,1.134-.2.769.769,0,0,1,.267-.047,1.062,1.062,0,0,1,.963.746,1.017,1.017,0,0,1-.7,1.23,4.569,4.569,0,0,1-1.586.266,6.857,6.857,0,0,1-1.25-.122.851.851,0,0,1-.561-.4,1.074,1.074,0,0,1-.138-.827.944.944,0,0,1,.379-.539,1.09,1.09,0,0,1,.618-.181,1.289,1.289,0,0,1,.182.013l.052.009A3.543,3.543,0,0,0,152.83,95.306ZM22.457,3.212a4.415,4.415,0,0,0-.542.032l-.094.013c-.392-.027-.787-.041-1.175-.041a15.546,15.546,0,0,0-2.422.186,12.881,12.881,0,0,0-2.32.585,9.162,9.162,0,0,0-3.86,2.531,1.124,1.124,0,0,0-.648-.2,1.293,1.293,0,0,0-.8.293,13.7,13.7,0,0,0-3.1,3.567,36.554,36.554,0,0,0-2.2,4.235,51.059,51.059,0,0,0-3.13,9A71.808,71.808,0,0,0,.523,32.779,91.927,91.927,0,0,0,0,42.285,154.785,154.785,0,0,0,4.293,78.763a169.387,169.387,0,0,0,12.356,34.6c1.38,2.849,2.814,5.627,4.261,8.259,1.524,2.771,3.109,5.466,4.713,8.008a65.967,65.967,0,0,0,5.4,7.469c1.015,1.2,2.068,2.334,3.128,3.369a41.379,41.379,0,0,0,3.479,3.04,47.42,47.42,0,0,0,4.384,3.017c-1.216.6-1.446,2.24-1.488,2.916-.136,2.185.034,5.269,1.62,7.555a12.694,12.694,0,0,0,4.1,3.644,20.509,20.509,0,0,0,5.121,2.077,27.245,27.245,0,0,0,5.5.831c.125.006.256.009.4.009.29,0,.587-.013.875-.025h.007c.287-.012.584-.025.873-.025a6.765,6.765,0,0,1,.735.036,2.59,2.59,0,0,1,1.825,1.24c.33.45.632.911.924,1.357a11.029,11.029,0,0,0,2.858,3.3,9.893,9.893,0,0,0,5.625,1.63c.229,0,.462-.007.69-.021a17.941,17.941,0,0,0,7.071-2.3c1.924-.989,3.844-2.1,5.87-3.4.35.819.681,1.649.984,2.469a48.355,48.355,0,0,1,1.527,4.914c.117.465.2.961.279,1.487a6.383,6.383,0,0,0,1.365,3.676,2.169,2.169,0,0,0,1.538.608,2.288,2.288,0,0,0,1.307-.4,1.905,1.905,0,0,0,.776-1.163c.019-.086.032-.171.043-.242a3.7,3.7,0,0,0,.1-1,1.575,1.575,0,0,0-.026-.357,7.44,7.44,0,0,0-.265-1.226c-.266-.917-.577-1.843-.924-2.752a31.011,31.011,0,0,0-2.484-5.13,28.043,28.043,0,0,0-6.783-7.526c.384-.317.768-.649,1.139-.97h0l.373-.322c2.332-2.007,4.708-4.194,7.063-6.5,4.173-4.089,8.179-8.182,11.908-12.164,1.662-1.775,3.46-3.744,5.66-6.2l.061-.07.066-.079c.087-.106.188-.233.294-.367v0c.653-.825,1.64-2.072,2.461-2.072a.748.748,0,0,1,.222.033,3.06,3.06,0,0,1,1.1.951l0,0c.1.113.188.22.269.3l.627.654c.252.265.443.469.619.661,3.705,4.06,7.185,8.261,10.344,12.489,1.578,2.112,3.121,4.289,4.585,6.469.755,1.125,1.505,2.273,2.23,3.414.149.234.294.476.434.71v0a8.577,8.577,0,0,0,1.878,2.42,1.1,1.1,0,0,0,.691.253.956.956,0,0,0,.742-.343,1.016,1.016,0,0,0,.193-.856,9.629,9.629,0,0,0-1.724-3.444l0,0c-.173-.255-.352-.519-.518-.777-.857-1.329-1.744-2.661-2.638-3.96-1.69-2.456-3.509-4.942-5.407-7.389-1.528-1.971-3.169-3.962-5.017-6.085l-.472-.54c-.421-.48-.846-.974-1.257-1.451a63.878,63.878,0,0,0-4.472-4.843,3.29,3.29,0,0,0-4.019-.669,5.954,5.954,0,0,0-1.5,1.125c-1.4,1.4-2.753,2.909-4.063,4.364h0c-.67.745-1.364,1.515-2.054,2.261-4.152,4.492-8.3,8.9-12.335,13.093l-1.366,1.422c-1.428,1.49-3.105,3.254-4.722,5.037l-.2.222c-.3.335-.587.673-.893,1.031a31.149,31.149,0,0,1-2.359,2.559,9.179,9.179,0,0,1-2.8,1.881.156.156,0,0,0-.1.177.147.147,0,0,0,.148.12.2.2,0,0,0,.036,0,9.823,9.823,0,0,0,4.186-2.068,49.522,49.522,0,0,1,2.988,5.8l-.558.242c-3.6,1.557-7.788,3.218-11.862,3.218-.313,0-.625-.01-.928-.03a8.286,8.286,0,0,1-2.584-.588,6.057,6.057,0,0,1-2.183-1.477,11.338,11.338,0,0,1-1.45-2.174,13.805,13.805,0,0,0-1.163-1.839,5.553,5.553,0,0,0-4.437-2.138l-.884-.027a16.508,16.508,0,0,1-3.024-.31,28.7,28.7,0,0,1-4.213-1.232,17.4,17.4,0,0,1-3.874-2.037,6.586,6.586,0,0,1-2.14-2.369,8.224,8.224,0,0,1-.565-2.971,5.175,5.175,0,0,1,.025-.59,3.166,3.166,0,0,0-.02-.984c0,.017.009.026.012.026s.008-.02.009-.058a1.8,1.8,0,0,0,.658-1.276,72.505,72.505,0,0,0,7.223,3.248c2.8,1.093,5.7,1.964,8.409,2.743a52.144,52.144,0,0,0,5.6,1.169c.951.162,1.935.33,2.895.523a.359.359,0,0,0,.071.007.269.269,0,0,0,.27-.225.284.284,0,0,0-.191-.325c-1.287-.494-2.576-1.037-3.822-1.561h0c-1.63-.686-3.316-1.4-5.013-2-3.256-1.167-6.157-2.32-8.869-3.524a52,52,0,0,1-15.468-9.978,51.426,51.426,0,0,1-5.836-6.88c-1.9-2.643-3.629-5.438-4.92-7.578a152.485,152.485,0,0,1-8.393-16.049A163.965,163.965,0,0,1,6.207,73.86a145.682,145.682,0,0,1-3.24-34.833A66.274,66.274,0,0,1,5.422,22.644,45.068,45.068,0,0,1,8.3,15.25c.563-1.123,1.223-2.208,1.862-3.257A36.987,36.987,0,0,0,12.38,7.984a1.354,1.354,0,0,0,.125-.6A9.307,9.307,0,0,1,18.8,5.228c4.1,0,8.521,1.885,11.489,3.3a320.057,320.057,0,0,1,35.38,19.448,371.824,371.824,0,0,1,32.113,23.56,25.487,25.487,0,0,0-2.125,2.588,19.928,19.928,0,0,0-2.9,5.735,18.02,18.02,0,0,0-.771,3.69,19.846,19.846,0,0,0-.024,3.77l.063.708a54.6,54.6,0,0,0,.972,7.07.049.049,0,0,0,.053.043.064.064,0,0,0,.06-.043,49.934,49.934,0,0,0,1.4-6.427v0h0a43.8,43.8,0,0,1,1.68-7.266,17.471,17.471,0,0,1,2.788-4.963,14.316,14.316,0,0,1,1.71-1.73,5.406,5.406,0,0,0,.178.815l.065.212a4.439,4.439,0,0,0,.322.8c-.209.061-.4.123-.58.19a.2.2,0,0,0-.125.2.15.15,0,0,0,.125.14,8.6,8.6,0,0,0,1.533.2,1.088,1.088,0,0,0,.166.013l.076,0c.163,0,.33.007.51.007.468,0,.942-.017,1.4-.033h0c.331-.012.673-.024,1-.029,1.567-.024,3.236-.054,4.89-.127.784-.034,1.575-.1,2.413-.161,1.254-.1,2.55-.2,3.818-.2a15.126,15.126,0,0,1,3.482.352c2.979.7,5.865,2.774,7.777,4.27a33.3,33.3,0,0,1,4.385,4.372c.228.257.463.523.7.788-.137-.021-.248-.038-.347-.052l-1.046-.143a14.018,14.018,0,0,0-1.825-.148,4.031,4.031,0,0,0-2.112.468.486.486,0,0,0-.246.474.564.564,0,0,0,.368.469,3.843,3.843,0,0,0,1.341.2c.32,0,.647-.021.963-.04h.009c.313-.02.636-.04.942-.04.1,0,.193,0,.282.006a16.931,16.931,0,0,1,2.683.323c.3.061.587.133.862.212a6.051,6.051,0,0,1,1.986,1.012,3.8,3.8,0,0,1,1.312,1.693,2.322,2.322,0,0,1,.108,1.126,2.817,2.817,0,0,1-.52,1.207.1.1,0,0,0-.017.1.144.144,0,0,0,.109.08l.027,0a.126.126,0,0,0,.083-.03,2.746,2.746,0,0,0,1.02-2.333,4,4,0,0,0-.575-1.82,4.443,4.443,0,0,0-1.324-1.419,7.244,7.244,0,0,0-2.03-.918.871.871,0,0,0,0-.857,17.363,17.363,0,0,0-2.687-3.5,33.8,33.8,0,0,0-3.3-2.95,30.738,30.738,0,0,0-3.663-2.537,17.894,17.894,0,0,0-4.074-1.78,13.694,13.694,0,0,0-3.74-.461,41.823,41.823,0,0,0-4.51.329h0c-.631.069-1.284.141-1.913.2-1.684.148-3.443.329-5.378.553-.37.042-.74.076-1.131.112l-.351.033a13.155,13.155,0,0,0,.962-1.533c.05-.088.1-.171.138-.245a2.514,2.514,0,0,0,.132-2.223,2.472,2.472,0,0,0-1.63-1.462,2.073,2.073,0,0,0-.5-.075,2.36,2.36,0,0,0-.762-.873,1.9,1.9,0,0,0-1.075-.356,1.563,1.563,0,0,0-.509.085,6.026,6.026,0,0,0-1.162.55c-2.84-2.495-5.849-4.995-8.94-7.431-2.969-2.339-6.1-4.684-9.3-6.97-5.871-4.189-11.9-8.2-17.932-11.936C57.4,19.8,51.11,16.2,44.849,12.9c-3.029-1.6-5.858-3.031-8.648-4.384L33.7,7.311a53.333,53.333,0,0,0-8.543-3.485,16.194,16.194,0,0,0-1.789-.391.734.734,0,0,1-.007-.158A6.909,6.909,0,0,0,22.457,3.212Zm-6.3,38.856a.1.1,0,0,0-.072.033.1.1,0,0,0-.022.083,4.912,4.912,0,0,0,1.285,2.662,9.45,9.45,0,0,0,2.395,1.818,52.758,52.758,0,0,0,5.7,2.65c.585.244,1.188.5,1.778.749l.341.148c4.47,1.95,9.376,4.007,15.438,6.474a1.094,1.094,0,0,0-.084.4l-.015,0a4.8,4.8,0,0,0,.467,2.184c.064.167.131.34.192.513l.9,2.551c.477,1.344.921,2.722,1.351,4.054.114.354.232.719.349,1.079.463,1.424.937,2.871,1.4,4.27l.028.085.074.225.259.79c.137.418.259.849.388,1.3A13.1,13.1,0,0,0,49.6,77.511a.183.183,0,0,0,.159.085.213.213,0,0,0,.161-.071.147.147,0,0,0,.032-.124,13.647,13.647,0,0,0-.667-3.7c-.133-.484-.259-.942-.364-1.4l-.17-.74c-.34-1.48-.692-3.011-1.044-4.526l-.367-1.572c-.278-1.192-.6-2.578-.877-3.94-.082-.4-.146-.843-.213-1.313v0a16.336,16.336,0,0,0-.465-2.392c2.507,1.014,5.059,2.039,7.526,3.03l.01,0,.128.051c1.745.7,3.55,1.426,5.323,2.141,3.728,1.5,7.531,3,11.208,4.452l0,0,.022.009c1.571.619,3.2,1.26,4.793,1.892,1.689.668,3.4,1.375,5.055,2.06h0c3.579,1.48,7.28,3.01,10.99,4.24a1.106,1.106,0,0,0,.349.059,1.255,1.255,0,0,0,1.146-1.038,1.174,1.174,0,0,0-.047-.7.994.994,0,0,0-.518-.526c-3.789-1.757-7.789-3.275-11.657-4.743-1.758-.667-3.574-1.356-5.344-2.058l-8.173-3.245c-6.8-2.7-14.706-5.824-22.525-8.788-1.387-.526-2.8-1.065-4.159-1.586h0c-3.677-1.406-7.479-2.86-11.247-4.208-.932-.333-1.881-.665-2.8-.985h0c-1.51-.527-3.072-1.072-4.6-1.639-1.933-.72-4.251-1.838-5.032-4.1A.09.09,0,0,0,16.156,42.068ZM45.949,84.317a.764.764,0,0,0-.737.467,16.642,16.642,0,0,0-.988,5.479c-.047.7-.1,1.423-.177,2.12-.3,2.611-.727,5.27-1.255,7.9a132.131,132.131,0,0,1-4,14.806l-.176.541a.276.276,0,0,0,.031.264.394.394,0,0,0,.317.16.289.289,0,0,0,.269-.163A71.658,71.658,0,0,0,42.37,108.5c.876-2.424,1.673-5.007,2.369-7.677.657-2.523,1.211-5.068,1.647-7.566l.146-.849.083-.461q.04-.216.08-.435l0-.016c.4-2.172.818-4.418.249-6.484A1.034,1.034,0,0,0,45.949,84.317ZM54.113,105.7a.754.754,0,0,0-.7.412,32.831,32.831,0,0,0-2.143,6.167l-.012.044-.124.451c-.6,2.185-1.242,4.4-1.86,6.537l0,.01c-.409,1.417-.817,2.86-1.21,4.256l0,.009c-.211.748-.429,1.521-.645,2.281-.121.426-.249.853-.384,1.3v0a24.811,24.811,0,0,0-1.2,5.384.234.234,0,0,0,.059.18.27.27,0,0,0,.2.079.293.293,0,0,0,.245-.123,24.078,24.078,0,0,0,2.393-5.282c.1-.287.21-.583.317-.873l.074-.2c.865-2.325,1.607-4.429,2.269-6.432.273-.827.567-1.677.852-2.5A44.121,44.121,0,0,0,55,106.539a.713.713,0,0,0-.192-.551A.963.963,0,0,0,54.113,105.7Zm50.548,11.555a1.278,1.278,0,0,0-.435.081,33.528,33.528,0,0,0-4.644,2.107,39.856,39.856,0,0,0-4.273,2.72A57.8,57.8,0,0,0,87.7,128.9c-2.623,2.722-4.947,5.575-6.875,8.007-1.176,1.483-2.142,2.721-3.041,3.894l-.6.786c-.333.44-.693.888-1.041,1.321a21.813,21.813,0,0,0-2.681,3.873.143.143,0,0,0,.011.137.121.121,0,0,0,.1.061.115.115,0,0,0,.066-.022A21,21,0,0,0,76.9,143.9h0c.34-.367.692-.746,1.039-1.1,1.361-1.4,2.743-2.847,4.109-4.311.817-.876,1.643-1.772,2.441-2.639l0,0c1.413-1.534,2.873-3.119,4.34-4.651a59.651,59.651,0,0,1,7.382-6.661,37.486,37.486,0,0,1,4.155-2.7,30.23,30.23,0,0,1,4.532-2.06,1.259,1.259,0,0,0,.724-.621,1.413,1.413,0,0,0,.119-.869,1.371,1.371,0,0,0-.355-.722A1,1,0,0,0,104.661,117.25Z" transform="translate(186.485 186.665) rotate(180)"/>
    </g>
    <g id="head_Flat_Top_Long" data-name="head/Flat Top Long" transform="translate(30.13 0)">
      <path id="_Skin-2" data-name="âœ‹ Skin" d="M40.889,0C26.694,0,5.916,9.479,4.354,18.6,2.512,29.347-1.578,69.76.649,82.985s10.909,23,30.108,23,33.53-10.47,36.821-14.065,7.277-14.782,7.277-14.782,10.512-1.782,10.561-10.162S80.135,56,80.135,56s2.876-34.762-3.169-43.372S55.084,0,40.889,0Z" transform="translate(3.206 19.565)" fill="#d08b5b"/>
      <path id="_Ink-2" data-name="ðŸ– Ink" d="M50.278.264c-2.032.213-4.135.19-5.62,1.73a1,1,0,0,0,.2,1.565,5.009,5.009,0,0,0,3.182.405c1.042-.142,2.088-.255,3.137-.328a46.283,46.283,0,0,1,6.765.01A35.253,35.253,0,0,1,70.063,6.9,27.863,27.863,0,0,1,83.739,20.214c3.173,6.937,2.968,14.975,2.82,22.43-.163,8.175-.465,16.325-1.175,24.473-.345,3.95-.878,7.873-1.357,11.8q-.379,3.135-.993,6.235c-.215,1.093-.495,2.17-.725,3.255a4.285,4.285,0,0,0-.512-.05,4.084,4.084,0,0,0-2.963.962,2.168,2.168,0,0,0-1.13-.353c-4.3-.212-8.663.05-12.968.052s-8.643,0-12.965-.012-8.647-.053-12.962.063c-4.017.107-8.17.02-12.135.755-1.332-4.735-1.285-9.938,1.492-14.168a2.486,2.486,0,0,0-.875-3.342,10.246,10.246,0,0,0-4.532-2.046c-.156-.35-.316-.7-.468-1.045a35.971,35.971,0,0,1-1.942-5.358c-.249-.954-.464-1.924-.644-2.9.015-.171.03-.341.048-.511a.452.452,0,0,1,0-.055c.01-.07.023-.15.03-.2.092-.49.182-.98.28-1.468q.349-1.781.54-3.587c.233-2.2.21-5.06-1.935-6.363a4.211,4.211,0,0,0-3.735-.157,15.716,15.716,0,0,0-2.257,1.2c-.445.26-.91.473-1.345.743a2.669,2.669,0,0,0-.342.26,9.373,9.373,0,0,1-2.05-.715,10.668,10.668,0,0,1-3.13-2.435A10.132,10.132,0,0,1,3.618,39.89c.247-2.553,1.25-5.485,3.267-7.183a4.779,4.779,0,0,1,3.13-1.16,6.573,6.573,0,0,1,1.645.27,15.745,15.745,0,0,1,1.712.3,1.106,1.106,0,0,0,1.355-1.355,8.684,8.684,0,0,0-.643-1.492,113.389,113.389,0,0,1,6.75-9.8c2.175-2.83,4.735-5.21,7.155-7.8,1.068-1.145,1.513-3.4-.42-3.89S24.2,9.357,23.1,10.614a42.17,42.17,0,0,0-9.678,17.97,5.477,5.477,0,0,0-2.458-.925,7.977,7.977,0,0,0-5.09,1C.02,32.034-1.395,41.162,1.345,46.882a10.306,10.306,0,0,0,2.826,3.562.837.837,0,0,0-.07.615c.106.4.222.786.344,1.175a.342.342,0,0,0-.212.364q.165,1.688.325,3.375c-.038,1.7-.12,3.4-.1,5.108.03,2.725.2,5.448.205,8.173.032,9.5.42,19,.447,28.5.015,4.648.025,9.3-.1,13.948,0,.063,0,.123,0,.185-.1,3.717-1.085,8.692,2.55,11.1a2.163,2.163,0,0,0,1.993.145,15.678,15.678,0,0,0,6.458,2.293c4.273.69,8.582,1.023,12.885,1.46a56.724,56.724,0,0,0,6.867.265c1.176-.026,2.361.017,3.547.059,1.118.04,2.237.08,3.353.063,2.61-.043,5.24-.14,7.86-.355l.37.035c4.93.473,9.853.048,14.78-.16,4.695-.2,9.652-.682,13.868-2.93a6.489,6.489,0,0,0,1.393-.982,4.421,4.421,0,0,0,1.544-.495,2.574,2.574,0,0,0,3.193-1.908,21.883,21.883,0,0,0,.365-6.975c-.007-.055-.013-.112-.02-.172a14.548,14.548,0,0,0,.058-6.683q.3-4.058.327-8.127c.011-1.874.095-3.782-.08-5.65a7.287,7.287,0,0,0-1.893-4.19.85.85,0,0,0-.821-.217,1.064,1.064,0,0,0-.194.059c.641-1.375,1.148-2.833,1.668-4.226a62.492,62.492,0,0,0,2.192-6.762,94.575,94.575,0,0,0,2.348-14.09c.777-8.447,1.07-16.968,1.22-25.448.145-8.035-.562-16.415-5.14-23.285A33.292,33.292,0,0,0,68.813,1.982,41.435,41.435,0,0,0,56.593.019Q55.934,0,55.274,0A48.441,48.441,0,0,0,50.278.264ZM15.316,37.13c-1.393.913-2.07,2.585-3.268,3.73a14.093,14.093,0,0,1-1.895,1.5,7.5,7.5,0,0,1-.937.59c-.033.015-1.4.46-1.138-.128.09-.2-.145-.412-.313-.24-.475.483-.21,1.063.243,1.493.817.777,2.037.6,3.04.412a10.719,10.719,0,0,0,3.925-1.65c1.265-.843,2.828-2.01,3.078-3.608a2.062,2.062,0,0,0-1.8-2.4A1.7,1.7,0,0,0,15.316,37.13Z" transform="translate(90.856 127.277) rotate(180)"/>
    </g>
    <g id="accessories_Sunglasses_2" data-name="accessories/Sunglasses 2" transform="translate(23.401 56.75)">
      <path id="_Ink-3" data-name="ðŸ– Ink" d="M53.6,0h0a14.8,14.8,0,0,0-3.027.317,15.433,15.433,0,0,0-5.576,2.392,15.035,15.035,0,0,0-2.332,1.984,14.092,14.092,0,0,0-2.977,4.662,14.38,14.38,0,0,0-.937,5.879,2.071,2.071,0,0,0-1.4.76,4.061,4.061,0,0,0-.564,1.3c-.368,1.2-.786,2.567-3.579,3.03a5.429,5.429,0,0,0-2.324,1.546,63.844,63.844,0,0,1-6.78.381,44.652,44.652,0,0,1-15.344-2.54c-.443-.186-.914-.357-1.369-.523C5.712,18.577,4.128,18,3.548,16.71a3.771,3.771,0,0,1,.188-2.967,1.493,1.493,0,0,0-1.458-1.414,1.255,1.255,0,0,0-.914.394s0,0,0,0v0a10.309,10.309,0,0,0-1.313,3.6,4.686,4.686,0,0,0,.387,2.69c.726,1.492,2.358,2.636,4.99,3.5a50.11,50.11,0,0,0,7.435,1.564l.073.011.395.063a50.157,50.157,0,0,0,10.548,1.1c.368,0,.741,0,1.111-.012.453-.019.931-.027,1.436-.034h0a16.779,16.779,0,0,0,4.356-.42l.019-.005a3.35,3.35,0,0,0,1.924,1.647,19.314,19.314,0,0,0,4.108,1.25,61.637,61.637,0,0,0,12.013,1.072,68.384,68.384,0,0,0,7-.345,42.174,42.174,0,0,0,6.283-1.084,16.7,16.7,0,0,0,4.708-1.9,4.772,4.772,0,0,0,2.279-2.786c.128,0,.256,0,.381,0,.781,0,1.526-.061,2.124-.11l.083-.007c.647-.053,1.258-.1,1.87-.1a7.417,7.417,0,0,1,2.412.362,4.759,4.759,0,0,0,2.074,3.17,15.774,15.774,0,0,0,4.627,2.269,35.53,35.53,0,0,0,6,1.364,44.123,44.123,0,0,0,6.2.456,25.558,25.558,0,0,0,5.412-.5,9.808,9.808,0,0,0,1.5-.259,1.859,1.859,0,0,0,.569-.2c.2-.029.406-.062.618-.1a1.487,1.487,0,0,0,.911-.526,1.953,1.953,0,0,0,.415-.966,1.828,1.828,0,0,0-.878-1.943,2.451,2.451,0,0,1-1.444-2.778,1.835,1.835,0,0,0-.083-1.16,1.689,1.689,0,0,0-.684-.773,35.147,35.147,0,0,0-1.174-8.625A18.874,18.874,0,0,0,98.4,8.2,14.429,14.429,0,0,0,95.715,4.73a15.2,15.2,0,0,0-3.7-1.814,11.613,11.613,0,0,0-3.561-.58,9.982,9.982,0,0,0-4.325.967,10.527,10.527,0,0,0-3.5,2.718,12.422,12.422,0,0,0-1.661,2.539,14.588,14.588,0,0,0-1.1,3.075,18.953,18.953,0,0,0-.185,7.469,1.279,1.279,0,0,0-.379.407c-.061.1-.12.206-.185.337a6.056,6.056,0,0,1-2.805.558,8.565,8.565,0,0,1-1.172-.081,5.193,5.193,0,0,1-3.464-1.939c-.13-.135-.264-.275-.406-.416a1.265,1.265,0,0,0-.9-.667l-.055-.31a48.769,48.769,0,0,0-1.624-7.082,18.327,18.327,0,0,0-1.46-3.3A13.261,13.261,0,0,0,63.018,3.72,13.626,13.626,0,0,0,53.6,0Zm5.684,22.892a1.049,1.049,0,0,1-1-.97.875.875,0,0,1,.712-.994,3.358,3.358,0,0,0,2.158-1.408l.054-.083a.946.946,0,0,1,.819-.469,1.121,1.121,0,0,1,.96.556.881.881,0,0,1-.051.927,5.366,5.366,0,0,1-3.408,2.414A1.121,1.121,0,0,1,59.282,22.892Zm36.541,1.317a1.081,1.081,0,0,1-.9-.5,1.022,1.022,0,0,1,.317-1.343l.042-.031a1.893,1.893,0,0,0,.8-1.241l0-.061a.991.991,0,0,1,1.04-.969,1,1,0,0,1,.724.286.906.906,0,0,1,.238.682,3.911,3.911,0,0,1-1.793,3.036.811.811,0,0,1-.471.143Z" transform="translate(104.334 30.046) rotate(180)"/>
    </g>
    <g id="face_Concerned" data-name="face/Concerned" transform="translate(34.376 61)">
      <path id="teeth" d="M16.433,7.473C15.289,3.948,2.886-1.24.795.268S1.4,12.554,1.4,12.554s11.567,1.2,12.395.6S17.576,11,16.433,7.473Z" transform="translate(17.971 32.814)" fill="#fff"/>
      <path id="_Ink-4" data-name="ðŸ– Ink" d="M14.5,0a6.794,6.794,0,0,0-4.41,1.236,6.341,6.341,0,0,0-2.442,4.6,7.952,7.952,0,0,0,2.328,5.908A12.047,12.047,0,0,0,13.254,14.1a25.778,25.778,0,0,0,3.9,1.557,25.39,25.39,0,0,0,4.009.852,35.736,35.736,0,0,0,4.861.353,18.523,18.523,0,0,0,3.83-.341,4.684,4.684,0,0,0,2.48-1.158.063.063,0,0,0,.013-.073.15.15,0,0,0-.129-.077.1.1,0,0,0-.056.017,2.278,2.278,0,0,1-1.364.383,6.355,6.355,0,0,1-2.007-.4c0-.108-.334-10.83.036-11.085a9.142,9.142,0,0,1,1.97-.181c1.622-.074,3.641-.167,3.641-.566a2.475,2.475,0,0,0-1.59-2.123,6.283,6.283,0,0,0-1.463-.5A7.058,7.058,0,0,0,29.937.609c-.127,0-.249,0-.364.013-.56.041-1.134.091-1.689.139h0c-1.4.122-2.851.248-4.272.248A18.969,18.969,0,0,1,21.415.891c-.523-.06-1.146-.171-1.868-.3A29.6,29.6,0,0,0,14.5,0ZM25.191,7.418a.066.066,0,0,1-.024,0c-1.374-.535-8.4-2.857-10.073-3.281.4.029,1.018.059,1.73.094,2.679.131,7.162.35,8.343.921a5.359,5.359,0,0,1,.076,2.242A.066.066,0,0,1,25.191,7.418Zm1.045,7.5h0a49.1,49.1,0,0,1-7.6-2.123c-3.039-1.089-5.09-2.1-5.625-2.773,1.724.271,11.8,1.486,12.95,1.486a11.017,11.017,0,0,1,.112,1.517,11.414,11.414,0,0,0,.16,1.893Zm1.314,6.491h0a8.728,8.728,0,0,0-3.112.627,15.718,15.718,0,0,0-3.66,2.077,1.407,1.407,0,0,0-.511.812,1.683,1.683,0,0,0,.072.912,2.074,2.074,0,0,0,.616.89,1.5,1.5,0,0,0,.96.375,1.363,1.363,0,0,0,.743-.228l.247-.19,0,0c1.272-.983,3.193-2.469,5.037-2.469a3.008,3.008,0,0,1,2.241.994,3.314,3.314,0,0,1,.629,2.668c-.426,2.074-2.681,3.586-3.362,4a.628.628,0,0,0-.17.722.934.934,0,0,0,.91.646,1.273,1.273,0,0,0,.215-.019,6.789,6.789,0,0,0,2.387-.862,5.416,5.416,0,0,0,1.606-1.48,5.882,5.882,0,0,0,1.025-3.93,6.275,6.275,0,0,0-1.709-3.835A5.656,5.656,0,0,0,27.55,21.411Zm9.667,7.674a1.716,1.716,0,0,0-1.285.576,4.81,4.81,0,0,0-.995,2.267,9.669,9.669,0,0,0-.176,2.319l.013.191a10.091,10.091,0,0,0,.765,3.352c.447.973,1.027,1.488,1.677,1.488a2.974,2.974,0,0,0,2.473-2.019,8.4,8.4,0,0,0,.754-3.215v-.056a7.432,7.432,0,0,0-.829-3.057,4.279,4.279,0,0,0-1.005-1.307A2.144,2.144,0,0,0,37.217,29.085Zm-27.336,0a2.144,2.144,0,0,0-1.393.539A4.279,4.279,0,0,0,7.484,30.93a7.433,7.433,0,0,0-.829,3.057v.056a8.392,8.392,0,0,0,.754,3.215,2.974,2.974,0,0,0,2.473,2.019c.666,0,1.257-.539,1.709-1.558a10.4,10.4,0,0,0,.746-3.473l.005-.1c.045-1.079-.145-3.407-1.189-4.5A1.712,1.712,0,0,0,9.881,29.085Zm33.3,9.958c-.07,0-.142,0-.213.009a11.327,11.327,0,0,0-4.073,1.24,18.526,18.526,0,0,0-3.583,2.365A20.12,20.12,0,0,0,32.7,45.408l-.151.185a6.366,6.366,0,0,0-.914,1.367,2.168,2.168,0,0,0-.109,1.574.12.12,0,0,0,.113.086h.021A3.324,3.324,0,0,0,33.811,47.6c.134-.11.272-.223.415-.333a12.218,12.218,0,0,1,2.888-1.589,20.492,20.492,0,0,1,3.256-.991,10.706,10.706,0,0,1,1.751-.188,11.82,11.82,0,0,0,1.565-.151,2.213,2.213,0,0,0,1.536-1.032,2.9,2.9,0,0,0,.373-1.764,3.072,3.072,0,0,0-.713-1.738A2.2,2.2,0,0,0,43.181,39.042Zm-41.729.4a2.492,2.492,0,0,0-1.36.326.191.191,0,0,0-.068.257,4.49,4.49,0,0,0,2.217,1.5c.292.125.568.242.812.368,1.076.554,2.205,1.172,3.662,2,1.266.724,2.493,1.439,3.646,2.126.461.275.926.595,1.376.9a14.788,14.788,0,0,0,2.428,1.454,3.932,3.932,0,0,0,1.539.336,2.787,2.787,0,0,0,1.342-.324A2.714,2.714,0,0,0,18.1,47.352a2.767,2.767,0,0,0,.275-2.168,3.166,3.166,0,0,0-1.306-1.765,14.977,14.977,0,0,0-3.7-1.548c-.253-.081-.491-.157-.728-.235l-.161-.054a36.917,36.917,0,0,0-4.289-1.169c-1.257-.262-2.605-.478-4.123-.662L3.647,39.7c-.209-.024-.431-.059-.666-.1A10.035,10.035,0,0,0,1.452,39.446Z" transform="translate(45.608 48.718) rotate(180)"/>
    </g>
  </g>
</svg>
