<svg xmlns="http://www.w3.org/2000/svg" width="334.414" height="344.952" viewBox="0 0 334.414 344.952">
  <g id="timline-2" transform="translate(12008.75 -5469.048)">
    <circle id="Ellipse_136" data-name="Ellipse 136" cx="150" cy="150" r="150" transform="translate(-11985 5514)" fill="#a04db9"/>
    <g id="Cells" transform="translate(-11903.618 5559.216)">
      <path id="Fill_5" data-name="Fill 5" d="M1.082,1C-.487,2.568.123,8.136.09,10.2.039,13.4.239,16.584.507,19.78.687,21.92,1.7,42.343,4.518,40.775c1.589-.884.593-6.792.59-8.66-.006-4.154-.179-8.3-.456-12.444A108.911,108.911,0,0,1,4.381,8.163C4.417,7.222,5.3-3.222,1.082,1" transform="translate(0.822 1.665)"/>
      <path id="Fill_7" data-name="Fill 7" d="M69.963.018C56.482.125,43.007.79,29.532,1.2c-6.484.2-12.964.445-19.441.8-2.207.123-6.941-.584-8.779.592-4.082,2.611,2.5,3.221,4.256,3.157,26.666-.967,53.341-2.24,80.03-2.3,13.092-.029,26.177.344,39.271.26,5-.032,10.547-2.188,11.811,3.637,1.427,6.574-.213,13.893-.659,20.5a115.9,115.9,0,0,0,.007,13.134c.127,2.823-.2,6,.295,8.773.48,2.667,2.4,4.267,4.156,1.279,1.05-1.785.528-6.194.6-8.262.094-2.786.006-5.57.006-8.356,0-6.8.959-13.574.832-20.373C141.833,9.657,141.6,1.709,136.07.656,129.981-.5,122.5.662,116.264.591,100.824.415,85.409-.1,69.963.018" transform="translate(0.277 0.131)"/>
      <path id="Fill_9" data-name="Fill 9" d="M32.888.084q-7.625,0-15.25.115C13.279.27,6.425-.638,2.368.922c-2.778,1.068-3.515,4.169,0,4.995,3.834.9,9.613-.572,13.624-.643,20.115-.355,40.424-.818,60.512.454,18.822,1.192,38.007,2.347,56.857,1.089,1.586-.106,9.675-.428,5.984-3.46-2.153-1.77-10.881-.606-13.679-.69-9.871-.3-19.751-.364-29.618-.738C86.308,1.559,76.613.464,66.871.193,55.553-.122,44.21.084,32.888.084" transform="translate(0.206 42.6)"/>
      <path id="face" d="M16.725,27.834h0c-6.889,0-14.409-3.308-15.679-10.7A6.878,6.878,0,0,1,1,15.824a5.859,5.859,0,0,0-.072-1.412,2.726,2.726,0,0,0-.441-.823A2.163,2.163,0,0,1,0,12.539c-.014-2.014,1.152-3.11,2.5-4.38A19.986,19.986,0,0,0,3.991,6.654C6.68,3.536,8.379,2.008,11.94.617A9.38,9.38,0,0,1,15.37,0,17,17,0,0,1,25.378,3.879c3.133,2.442,5.3,5.514,5.949,8.43a11.99,11.99,0,0,1-1.656,9.12,13.761,13.761,0,0,1-8.642,5.957A20.4,20.4,0,0,1,16.725,27.834ZM5.96,11.931h0a7.847,7.847,0,0,0,.758,7.5c1.975,2.843,5.942,4.68,10.106,4.681a11.715,11.715,0,0,0,6.721-1.964,7.523,7.523,0,0,0,3.041-3.931,7.758,7.758,0,0,0-.036-4.538A13.032,13.032,0,0,0,22.46,7.6,11.3,11.3,0,0,0,15.8,4.761a1.723,1.723,0,0,1-.95.467.819.819,0,0,1-.391-.12l-.009,0a.891.891,0,0,0-.426-.125.96.96,0,0,0-.29.049,11.65,11.65,0,0,0-3.4,2.013l-.246.186-.284.213a19.3,19.3,0,0,0-2.919,2.5c0,.005-.107.23-.236.515-.251.554-.671,1.478-.694,1.488a.02.02,0,0,1,0-.012Z" transform="translate(12.209 9.01)"/>
      <path id="Fill_13" data-name="Fill 13" d="M0,2.433c0,3.212,5.073,3.212,5.073,0C5.073-.742,0-.879,0,2.433" transform="translate(20.847 19.657)"/>
      <path id="Fill_15" data-name="Fill 15" d="M0,1.933c0,2.552,4.031,2.552,4.031,0C4.031-.59,0-.7,0,1.933" transform="translate(27.193 19.507)"/>
      <path id="Fill_17" data-name="Fill 17" d="M4.788.094C3.5.59,1.86-.438.8.24c-1.877,1.2,0,2.289,1.011,2.771C6.34,5.184,7.146-.809,4.788.094" transform="translate(23.654 26.608)"/>
      <path id="Fill_19" data-name="Fill 19" d="M2.054,9.385a2.284,2.284,0,0,1-.6-.083C.381,9.009-.1,8.409.018,7.518c.2-1.484,2.028-3.374,3.673-4.648C5.77,1.26,7.911.259,9.279.259a2.417,2.417,0,0,1,.338.023,9.348,9.348,0,0,1,3.69,1.712,9.081,9.081,0,0,0,3.831,1.732,5.962,5.962,0,0,0,.679.039A11.537,11.537,0,0,0,23.174,1.9a15.75,15.75,0,0,1,3.9-1.686A8.92,8.92,0,0,1,29.023,0c2.5,0,4.651,1.08,6.73,2.123l.042.021c2.059,1.033,4.188,2.1,6.59,2.1a8.628,8.628,0,0,0,3-.549c.332-.121.693-.274,1.106-.467l.026-.01c.4-.19.8-.394,1.191-.592a11.843,11.843,0,0,1,4.417-1.56c.126-.008.253-.012.379-.012,2.131,0,3.958,1.172,5.724,2.306.7.447,1.416.909,2.134,1.283a4.7,4.7,0,0,0,1.061.344c.842.2,1.636.393,1.746,1.4a1.311,1.311,0,0,1-.236,1.061,1.448,1.448,0,0,1-1.141.364,8.985,8.985,0,0,1-.99-.075c-.132-.015-.256-.029-.377-.04a8.78,8.78,0,0,1-3.894-1.755A8.72,8.72,0,0,0,52.782,4.23a4.045,4.045,0,0,0-.42-.022A12.737,12.737,0,0,0,47.348,5.88a16.237,16.237,0,0,1-3.79,1.486,9.966,9.966,0,0,1-1.822.172,13.614,13.614,0,0,1-6.3-1.858l-.659-.343c-2.029-1.061-3.632-1.9-5.574-1.9a8.268,8.268,0,0,0-3.12.671c-.877.355-1.713.761-2.521,1.154-2.048,1-3.982,1.937-6.311,1.937a8.936,8.936,0,0,1-1.48-.126A11.32,11.32,0,0,1,12.7,5.77a9.032,9.032,0,0,0-3.72-1.4,2.489,2.489,0,0,0-.27.014C7.534,4.518,6.534,5.7,5.566,6.84,4.506,8.091,3.411,9.385,2.054,9.385Z" transform="translate(50.818 16.483)"/>
      <path id="Fill_21" data-name="Fill 21" d="M78.232.053C64.377.181,50.475.386,36.658,1.5,33.383,1.76-.063,4.918,0,5.146c.117.421,4.419,1.064,4.392,1.163Q3.957,5.23,2.4,5.416c31.721,0,63.341-2.84,95.1-2.329,7.981.128,15.992.074,23.967.326,1.991.063,6.924,1.49,8.488.591,4.1-2.36-3.351-2.632-4.586-2.731C109.746.022,93.907-.1,78.232.053" transform="translate(5.659 62.906)"/>
      <path id="Fill_23" data-name="Fill 23" d="M.962,1.037C-1.11,3.114.8,10.584.879,13.392c.118,4.06.021,8.148.377,12.2a82.5,82.5,0,0,0,2.251,14.04c.668,2.472,3.014,6.4,3.944,1.909.664-3.208-.344-7.464-.695-10.733a126.508,126.508,0,0,1-.6-13.081c-.016-3.828-.089-7.673-.4-11.489C5.59,4.254,4.593-2.575.962,1.037" transform="translate(0.591 68.655)"/>
      <path id="Fill_25" data-name="Fill 25" d="M48.414.083c-9.832.169-19.686.4-29.5,1.015C14.89,1.35,10.87,1.725,6.861,2.15c-.818.086-9.871.454-5.826,3.8,1.826,1.508,9.337-.577,11.817-.794,4.172-.366,8.344-.6,12.528-.781,9.7-.412,19.42-.775,29.124-.607,17.724.308,35.333.445,53.062.049,2.519-.056,22.252.471,22.922-2.149.54-2.112-6.517-1.143-7.8-1.1-4.72.141-9.441.108-14.163.084-20-.1-40.122-.9-60.11-.56" transform="translate(5.251 107.655)"/>
      <path id="Fill_27" data-name="Fill 27" d="M0,2.46c.312,8.754,1.8,17.5,2.28,26.279.218,4.014.474,8.024.671,12.039.063,1.3-.459,4.416,1.073,5.161,2.1,1.022,2.384-1.037,2.777-2.43,1.136-4.023.368-9.249.264-13.381-.1-4-.107-8.011-.4-12.005-.3-4.081-1.124-8.085-1.505-12.151C5,4.252,5.562,1.39,3.737.323A2.5,2.5,0,0,0,0,2.46" transform="translate(132.398 63.727)"/>
      <path id="face-2" data-name="face" d="M18.177,28.838h-.153c-2.625-.023-7.646-.366-11.774-2.406A11.9,11.9,0,0,1,1.8,22.856,9.662,9.662,0,0,1,0,17.131,18.5,18.5,0,0,1,4.208,5.861,17.085,17.085,0,0,1,8.839,1.788,12.382,12.382,0,0,1,14.527.018c.23-.012.464-.018.7-.018a15.84,15.84,0,0,1,5.658,1.1,19.928,19.928,0,0,1,5.2,2.968,19.843,19.843,0,0,1,4.1,4.346,15.675,15.675,0,0,1,2.384,5.233,11.061,11.061,0,0,1-1.95,9.749,13.81,13.81,0,0,1-5.429,4.028,17.928,17.928,0,0,1-7.007,1.414h0Zm-3.87-24.85A10.733,10.733,0,0,0,6.514,7.909,13.861,13.861,0,0,0,3.3,16.2a7.241,7.241,0,0,0,1.962,5.526,11.73,11.73,0,0,0,5.75,2.976,28.786,28.786,0,0,0,6.777.741l.46,0c3.911-.049,7.511-1.626,9.4-4.116a7.647,7.647,0,0,0,1.134-6.836,11.881,11.881,0,0,0-2.29-4.271,20.461,20.461,0,0,0-3.527-3.4,12.075,12.075,0,0,0-5.9-2.239,25.967,25.967,0,0,1-2.75-.587Z" transform="translate(13.096 74.167)"/>
      <path id="Fill_31" data-name="Fill 31" d="M0,1.955c0,2.581,4.078,2.581,4.078,0C4.078-.6,0-.706,0,1.955" transform="translate(19.496 84.659)"/>
      <path id="Fill_33" data-name="Fill 33" d="M0,1.971c0,2.6,4.111,2.6,4.111,0C4.111-.6,0-.712,0,1.971" transform="translate(28.05 83.51)"/>
      <path id="Fill_35" data-name="Fill 35" d="M.471.343c-2.654,2.65,6.671,7.3,8.87,3.609C11.147.924,7.215,1.928,5.82,1.764,4.305,1.586,1.708-.89.471.343" transform="translate(22.863 91.026)"/>
      <path id="Fill_37" data-name="Fill 37" d="M2.021,9.317h0A1.954,1.954,0,0,1,.553,8.794,2.655,2.655,0,0,1,0,6.8C.121,3.642,8.869.652,11.631.135A7.805,7.805,0,0,1,13.065,0a13.114,13.114,0,0,1,5.871,1.857l.025.013a13.213,13.213,0,0,0,5.957,1.871,8.2,8.2,0,0,0,1.785-.2,23.319,23.319,0,0,0,3.24-1.069,16.83,16.83,0,0,1,4.47-1.263c.25-.022.5-.034.731-.034a7.744,7.744,0,0,1,4.462,1.575A16.572,16.572,0,0,0,42.12,4.108a4.6,4.6,0,0,0,1.812.36,10.319,10.319,0,0,0,1.317-.11l.03,0a11.006,11.006,0,0,1,1.407-.113c.134,0,.268,0,.4.013,1.333.085,2.177.534,2.316,1.231.151.761-.585,1.639-1.92,2.292a6.359,6.359,0,0,1-2.82.721,8.587,8.587,0,0,1-4.4-1.625,10.7,10.7,0,0,0-4.343-1.757,6.589,6.589,0,0,0-.7-.037,15.248,15.248,0,0,0-5.667,1.565l-.091.038a15.84,15.84,0,0,1-5.932,1.6c-.11,0-.221,0-.329-.007A14.185,14.185,0,0,1,17.809,6.7,11.493,11.493,0,0,0,13.052,5.33,7.212,7.212,0,0,0,10.3,5.9c-.331.135-.865.426-1.54.8C6.848,7.739,3.96,9.317,2.021,9.317Z" transform="translate(51.24 81.085)"/>
      <path id="point" d="M6.641,12.414h0a6,6,0,0,1-4.11-1.892A8.7,8.7,0,0,1,.154,6.287,5.614,5.614,0,0,1,.4,2.857,5.1,5.1,0,0,1,3.107.249,3.061,3.061,0,0,1,4.383,0a10.164,10.164,0,0,1,5.752,2.49,5.42,5.42,0,0,1,1.688,4.142,6.176,6.176,0,0,1-2.091,4.579A4.717,4.717,0,0,1,6.641,12.414ZM4.7,3.888a2.573,2.573,0,0,0-.24,2.735c.412,1.039,1.15,1.711,1.88,1.711A1.26,1.26,0,0,0,6.61,8.3c.76-.168,1.18-.47,1.249-.9.222-1.375-3.127-3.5-3.162-3.518Z" transform="translate(111.498 79.885)"/>
      <path id="Fill_41" data-name="Fill 41" d="M37.7.032c-9.6,0-19.287-.2-28.876.37C7.214.5,1.066.192.235,1.878c-1.521,3.085,4.8,1.554,5.723,1.461,19.092-1.911,39.035-.812,58.19-.267,15.666.445,31.248.722,46.895,1.529q6.169.318,12.332.695c1.339.081,4.711.969,4.993-1.171.261-1.98-3.944-1.533-4.995-1.588q-12.532-.66-25.056-1.371C78.214.033,57.839.029,37.7.032" transform="translate(4.672 129.576)"/>
      <path id="Fill_43" data-name="Fill 43" d="M1.387.987c-1.793,1.783-.953,8.59-1,10.84C.3,15.762.111,19.694.028,23.628-.059,27.74.062,31.871.3,35.977c.1,1.724,1.517,10.056,3.745,5.288,1-2.131-.024-8.066-.009-10.48.027-4.394.264-8.769.483-13.157.188-3.772.195-7.548.36-11.321.052-1.2.195-9.022-3.5-5.32" transform="translate(3.211 132.053)"/>
      <path id="Fill_45" data-name="Fill 45" d="M131.645.008c-9.344.958-18.838.5-28.218,1.212-8.084.609-16.16.859-24.264,1.03-18.352.388-36.735.765-55.034,2.295-4.17.348-8.336.718-12.517.9C9.52,5.544.745,4.592.091,6.8c-1.113,3.754,8.271,2.269,10.3,2.21,4.451-.129,8.881-.45,13.32-.788C42.365,6.8,61.094,6.371,79.792,5.781c10.169-.321,20.268-1.065,30.414-1.742,5.057-.337,10.129-.348,15.185-.675,1.323-.086,6.007.083,6.959-.982.654-.731.819-2.516-.706-2.374" transform="translate(3.011 168.182)"/>
      <path id="Fill_47" data-name="Fill 47" d="M0,2.737C.323,11.7.829,20.651,1.132,29.612c.091,2.695-.723,7.524.778,9.9,2.413,3.821,4.3-.223,4.738-2.6,1.395-7.515-.1-15.816-.494-23.377C6,10.646,6.9,4.226,5.506,1.644,4.178-.815-.117-.568,0,2.737" transform="translate(131.486 130.941)"/>
      <path id="hola_:_" data-name="hola :)" d="M7.012,15.765a7.51,7.51,0,0,1-2.438-.446,6.679,6.679,0,0,1-2.7-1.823A7.451,7.451,0,0,1,.237,10.679,5.612,5.612,0,0,1,.8,6.3a8.2,8.2,0,0,0,.812-2.6,4.565,4.565,0,0,0-.081-.937A2.989,2.989,0,0,1,1.672.672C1.993.249,2.774.043,4.058.043c.472,0,.932.026,1.338.049.207.012.4.023.562.028A5.806,5.806,0,0,1,7.106,0a4.89,4.89,0,0,1,4.207,2.463,10.293,10.293,0,0,1,1.461,5.419,9.123,9.123,0,0,1-2.186,6.409A4.863,4.863,0,0,1,7.012,15.765ZM6.961,3.214h0C4.806,4.256,2.978,8.2,3.53,10.609a2.466,2.466,0,0,0,2.7,1.994,5.678,5.678,0,0,0,.8-.06,2.905,2.905,0,0,0,2.042-1.311A5.12,5.12,0,0,0,9.841,8.7,7.073,7.073,0,0,0,9.2,5.284,3.684,3.684,0,0,0,6.961,3.214Z" transform="translate(108.84 143.226)"/>
      <path id="Fill_51" data-name="Fill 51" d="M14.008,28.552h0A13.928,13.928,0,0,1,2.354,22.141a11.758,11.758,0,0,1-.279-11.814,1.369,1.369,0,0,1-.823.355c-.726,0-1.08-.97-1.227-1.549-.23-.907,1.2-2.5,2.153-3.549.218-.242.406-.45.536-.609C4.764,2.462,7.175.121,10.909.007,11.039,0,11.171,0,11.3,0a13.6,13.6,0,0,1,8.587,3.274,18.562,18.562,0,0,1,5.542,7.734,14.724,14.724,0,0,1,.871,7.58,11.163,11.163,0,0,1-3.742,6.693A12.8,12.8,0,0,1,14.008,28.552Zm-3.344-22a3.191,3.191,0,0,0-.913.1A7.38,7.38,0,0,0,6.235,9.425a12.643,12.643,0,0,0-1.991,4.082,9.488,9.488,0,0,0,.722,7.356A9.317,9.317,0,0,0,10.9,25.054a12.124,12.124,0,0,0,3.049.4,9.7,9.7,0,0,0,5.408-1.537,8.168,8.168,0,0,0,3.335-4.67,10.4,10.4,0,0,0-1.355-8.921,17.382,17.382,0,0,0-7.183-5.83q.032.27.063.54t.063.54c-.248.9-1.188,1.025-2.075,1.025-.263,0-.539-.012-.783-.022h-.025C11.139,6.564,10.9,6.554,10.665,6.554Zm.2-3.159A6.715,6.715,0,0,0,6.75,4.95,8.362,8.362,0,0,1,10.867,3.395Z" transform="translate(11.832 134.674)"/>
      <path id="Fill_53" data-name="Fill 53" d="M0,1.29a1.336,1.336,0,0,0,2.671,0A1.336,1.336,0,0,0,0,1.29" transform="translate(19.429 145.391)"/>
      <path id="Fill_55" data-name="Fill 55" d="M0,1.311a1.358,1.358,0,0,0,2.714,0A1.358,1.358,0,0,0,0,1.311" transform="translate(23.987 145.663)"/>
      <path id="Fill_57" data-name="Fill 57" d="M7.168.006C5.9.109,1.251-.323.436.79c-1.363,1.858.812,1.923,1.881,2.123.962.181,5.146.079,5.736-.776.521-.755.4-2.24-.885-2.131" transform="translate(18.887 153.109)"/>
      <path id="Fill_59" data-name="Fill 59" d="M1.718,9.293h0c-.67,0-1.186-.46-1.579-1.408C-.682,5.9,2.368,3.31,3.37,2.458A6.461,6.461,0,0,1,7.711.645a8.613,8.613,0,0,1,2.6.458c.739.235,1.359.5,1.958.755a8.011,8.011,0,0,0,3.3.879,6.726,6.726,0,0,0,1.581-.2A22.978,22.978,0,0,0,20.4,1.4,15.859,15.859,0,0,1,25.17.023c.2-.015.4-.023.6-.023A15.634,15.634,0,0,1,31.1,1.27a23.569,23.569,0,0,0,3.537,1.09A12.151,12.151,0,0,0,37,2.6a15.447,15.447,0,0,0,5.523-1.2A14.468,14.468,0,0,1,47.73.2a11.746,11.746,0,0,1,3.6.617c.163.052.482.141.886.255,2.061.58,6.351,1.787,6.556,2.523a1.554,1.554,0,0,1-.1,1.375,1.569,1.569,0,0,1-1.311.464,13.1,13.1,0,0,1-3.668-.839l-.006,0-.191-.065c-.494-.166-.97-.338-1.43-.5A14.392,14.392,0,0,0,47.1,2.849a8.327,8.327,0,0,0-2.311.333c-.874.249-1.689.518-2.477.778a19.7,19.7,0,0,1-6.367,1.335,13.365,13.365,0,0,1-1.769-.12A20.2,20.2,0,0,1,30.759,4.3a15.09,15.09,0,0,0-4.523-.955h-.054a14.229,14.229,0,0,0-5.437,1.52,20.8,20.8,0,0,1-3.721,1.325,6.03,6.03,0,0,1-1.274.135,11.223,11.223,0,0,1-3.605-.778l-.094-.032a10.432,10.432,0,0,0-3.317-.746,4.762,4.762,0,0,0-.805.067A6.981,6.981,0,0,0,5.444,6.748C4.227,7.941,2.848,9.293,1.718,9.293Z" transform="translate(39.314 146.989)"/>
    </g>
    <g id="Group_248" data-name="Group 248" transform="translate(-581 296.298)">
      <path id="_Skin" data-name="âœ‹ Skin" d="M39.9.019C2.27,1.21,0,19.083,0,49.057s19.52,48.861,26.707,52.16S52.821,118.681,69.9,112.153s12.133-34.109,12.133-45.96S77.526-1.172,39.9.019Z" transform="translate(-11421.555 5326.399)" fill="#d08b5b"/>
      <path id="_hijab" data-name="ðŸ§• hijab" d="M72.015,46.462Q60.345-1.125,29.406.027C-1.532,1.179-1.206,32.713.735,29.838q1.9-2.818,26.636-19.687l1.019-.694Z" transform="translate(-11417.303 5327.524)" fill="#5f3b00"/>
      <path id="_Ink" data-name="ðŸ– Ink" d="M64.98,0c-5.248,0-10.244,2.012-14.44,3.98C43.058,7.487,35.6,11.4,28.384,15.19l-.005,0c-2.217,1.164-4.509,2.367-6.765,3.539-5.6,2.91-10.186,5.31-14.417,7.553-.4.211-.923.5-1.439.82H5.629l-.278,0c-.321,0-.652-.02-1-.04s-.721-.043-1.08-.043a4.75,4.75,0,0,0-1.442.184A2.546,2.546,0,0,0,.116,28.929a3,3,0,0,0-.11,1.027,4.522,4.522,0,0,0,.645,2,15.264,15.264,0,0,0,3.393,3.539l.241.2c1.454,1.226,2.952,2.324,4.226,3.237.593.425,1.2.852,1.789,1.265,1.065.748,2.166,1.521,3.224,2.313l.04.06c.075.115.153.233.228.353a19.912,19.912,0,0,1,2.892,8.655,28.664,28.664,0,0,0-1.695,2.34A60.954,60.954,0,0,0,8.3,68.335a77.666,77.666,0,0,0-3.232,15.58A71.515,71.515,0,0,0,5.16,99.7a66.268,66.268,0,0,0,9.615,27.541,67.991,67.991,0,0,0,8.3,10.784,64.719,64.719,0,0,0,10.3,8.854,59.443,59.443,0,0,0,11.967,6.394,49.488,49.488,0,0,0,8.572,2.508,46.272,46.272,0,0,0,8.859.869,43.164,43.164,0,0,0,8.079-.757,40.628,40.628,0,0,0,6.609-1.862,43.759,43.759,0,0,0,6.26-2.934,44.912,44.912,0,0,0,5.732-3.873,43.591,43.591,0,0,0,5.024-4.679A48.87,48.87,0,0,0,98.157,138a53.283,53.283,0,0,0,3.12-4.924,62.989,62.989,0,0,0,4.7-10.7,89.677,89.677,0,0,0,4.258-23,88.218,88.218,0,0,0-3.08-29.695,86.478,86.478,0,0,0-5.1-13.419,95.424,95.424,0,0,0-7.173-12.476c.258-.387.543-.8.925-1.335,1.271-1.779,2.628-3.7,3.938-5.7a39.538,39.538,0,0,0,3.11-5.509,19.786,19.786,0,0,0,1.715-6.016,15.774,15.774,0,0,0,.09-2.07,2.99,2.99,0,0,0-.91-2.009,2.871,2.871,0,0,0-1.985-.884,2.284,2.284,0,0,0-1.36.45,6.244,6.244,0,0,1-3.781,1.2,11.26,11.26,0,0,1-3.544-.664c-1.313-1.663-2.674-3.332-4.045-4.96C85.8,12.471,82.146,8.135,77.8,4.777a24.333,24.333,0,0,0-6-3.465A18.71,18.71,0,0,0,65.011,0ZM28.018,36.165a.961.961,0,0,1-.638-.249,1.149,1.149,0,0,1-.356-.579.874.874,0,0,1,.467-1.027A49.162,49.162,0,0,1,42.85,29.458a1.152,1.152,0,0,1,.191-.016A1.1,1.1,0,0,1,44.1,30.47a.809.809,0,0,1-.72.916,64.29,64.29,0,0,0-7.636,1.72A38.232,38.232,0,0,0,28.5,36.037,1.016,1.016,0,0,1,28.018,36.165Zm7.364,8.2a1.119,1.119,0,0,1-1-.7.864.864,0,0,1,.253-.986,37.789,37.789,0,0,1,10.486-6.7,51.807,51.807,0,0,1,11.987-3.489,1.15,1.15,0,0,1,.192-.017,1.1,1.1,0,0,1,1.059,1.027.811.811,0,0,1-.719.918,51.123,51.123,0,0,0-11.511,3.3,38.633,38.633,0,0,0-5.3,2.758,33.129,33.129,0,0,0-4.779,3.624A.977.977,0,0,1,35.382,44.361ZM72.223,127.89l-.493-.4-.032-.026-.471-.383c-.812-.662-1.627-1.331-2.415-1.978l0,0c-1.185-.972-2.41-1.978-3.623-2.958-4.326-3.5-8.6-7.065-11.842-9.783-6.335-5.309-14.7-12.3-23.19-19.287a42.947,42.947,0,0,1-.025-15.842,68.717,68.717,0,0,1,5.59-16.487c1.675-1.567,3.1-2.837,4.476-4,1.639-1.379,3.2-2.585,4.764-3.686a46.6,46.6,0,0,1,12.37-6.383,31.4,31.4,0,0,1,9.743-1.612,25.351,25.351,0,0,1,12.512,3.192A36.325,36.325,0,0,1,93.448,63.02c7.347,13.636,6.234,29.9,4.465,45.388a1.163,1.163,0,0,0-.163-.012,1.321,1.321,0,0,0-.339.046,5.523,5.523,0,0,0-2.456,1.9c-.219.245-.426.476-.639.69-1.012,1.019-2.046,2.009-3.075,2.943-1.962,1.781-4.071,3.519-6.267,5.167-2.172,1.627-4.473,3.145-6.7,4.614C76.27,125.077,74.2,126.446,72.223,127.89Zm.955,4.71a27.193,27.193,0,0,1-14.465-4.522c-2.085-1.323-4.228-2.837-6.37-4.5-1.95-1.513-3.962-3.2-5.98-5.01-8.681-7.791-13.894-15.724-15.935-24.25l-.017-.07c-.034-.141-.068-.288-.1-.432,6.806,6.661,14.044,13.412,21.512,20.068,2.28,2.032,4.606,4.089,6.855,6.078l0,0,0,0c1.509,1.335,3.07,2.715,4.6,4.076,1.732,1.536,3.516,3.072,5.241,4.557l.634.546.7.6.006.005c.735.632,1.495,1.286,2.243,1.927.128.11.258.224.383.335l0,0C72.718,132.212,72.946,132.414,73.178,132.6Zm3.4-.2a1.244,1.244,0,0,0-.053-.218,3.824,3.824,0,0,0-.836-1.378,10.815,10.815,0,0,0-1.205-1.072l0,0-.225-.182c-.337-.272-.674-.548-.963-.785a34.2,34.2,0,0,0,6.987-2.983,62.082,62.082,0,0,0,6.4-4.142,77.621,77.621,0,0,0,6.728-5.495c1.039-.947,2.072-1.939,3.07-2.95.158-.159.327-.319.506-.489l0,0c.16-.151.325-.308.487-.469l-.028.236,0,.029-.044.376a1.637,1.637,0,0,0,.323,1.155,25.693,25.693,0,0,1-7.852,12.335A25.115,25.115,0,0,1,76.576,132.4Z" transform="translate(-11317.336 5466.029) rotate(180)"/>
      <path id="_Ink-2" data-name="ðŸ– Ink" d="M26.322,0a9.526,9.526,0,0,0-5.278,1.561,10.058,10.058,0,0,0-2.183,1.886,6.8,6.8,0,0,0-1.806,4.54.745.745,0,0,0,.177.475.83.83,0,0,0,.441.265.853.853,0,0,0,.194.023.783.783,0,0,0,.322-.068.687.687,0,0,0,.34-.335c.158-.208.367-.481.577-.745,1.58-1.95,3.1-3.352,5.377-3.854a6.383,6.383,0,0,1,1.37-.149,6.705,6.705,0,0,1,2.313.419A7.867,7.867,0,0,1,31.4,6.294a1.738,1.738,0,0,0,1.323.654h.011a2.034,2.034,0,0,0,1.407-.623A2.195,2.195,0,0,0,34.8,4.892a1.916,1.916,0,0,0-.544-1.407,10.905,10.905,0,0,0-2.295-1.87A11.107,11.107,0,0,0,29.26.422,10.56,10.56,0,0,0,26.322,0ZM29.3,13.9h0a8.729,8.729,0,0,0-3.112.627,15.718,15.718,0,0,0-3.66,2.077,1.406,1.406,0,0,0-.511.812,1.683,1.683,0,0,0,.072.912,2.075,2.075,0,0,0,.616.891,1.5,1.5,0,0,0,.96.375,1.362,1.362,0,0,0,.743-.228l.242-.187.008-.006c1.272-.983,3.193-2.469,5.037-2.469a3.007,3.007,0,0,1,2.241.994,3.314,3.314,0,0,1,.629,2.668c-.425,2.074-2.681,3.586-3.362,4a.628.628,0,0,0-.17.722.934.934,0,0,0,.91.646,1.273,1.273,0,0,0,.215-.019,6.79,6.79,0,0,0,2.388-.862,5.416,5.416,0,0,0,1.606-1.48,5.881,5.881,0,0,0,1.025-3.93,6.275,6.275,0,0,0-1.709-3.835A5.656,5.656,0,0,0,29.3,13.9ZM5.37,23.513a1.2,1.2,0,0,0-.347.051.7.7,0,0,0-.475.409,6.016,6.016,0,0,0,.291,4.381,8.889,8.889,0,0,0,3.2,4.018,5.556,5.556,0,0,0,2.635.679,5.279,5.279,0,0,0,2.54-.655,6.609,6.609,0,0,0,1.755-1.443,18.189,18.189,0,0,0,1.362-1.813c.179-.261.365-.531.553-.793a1.6,1.6,0,0,0,.269-1.485,1.92,1.92,0,0,0-1.09-1.125,2.086,2.086,0,0,0-.8-.165,1.832,1.832,0,0,0-.716.142,1.925,1.925,0,0,0-1.033,1.091,5.726,5.726,0,0,1-1.969,2.613,2.1,2.1,0,0,1-2.111.161,6.9,6.9,0,0,1-2.457-2.45,4.8,4.8,0,0,1-.806-2.862.649.649,0,0,0-.21-.546.818.818,0,0,0-.456-.2A1.073,1.073,0,0,0,5.37,23.513Zm36.24,3.529a1.562,1.562,0,0,0-.451.073,1.7,1.7,0,0,0-.7.421,1.4,1.4,0,0,0-.392.708,2.9,2.9,0,0,1-1.018,1.695,2.032,2.032,0,0,1-1.625.427,3.12,3.12,0,0,1-1.748-1.048,3.839,3.839,0,0,1-.367-.535l-.011-.018a3.906,3.906,0,0,0-.726-.953.708.708,0,0,0-.449-.169.671.671,0,0,0-.2.031,2.072,2.072,0,0,0-.774,1.681,3.083,3.083,0,0,0,.567,1.562,6.158,6.158,0,0,0,3.3,2.347,4.682,4.682,0,0,0,.982.1,5.011,5.011,0,0,0,2.882-.938,5.472,5.472,0,0,0,2.238-3.425,1.822,1.822,0,0,0-.092-1.011,1.419,1.419,0,0,0-.662-.736A1.573,1.573,0,0,0,41.609,27.042ZM.859,33.712a.417.417,0,0,0-.054,0,.507.507,0,0,0-.264.128A1.92,1.92,0,0,0,0,35.424a6.839,6.839,0,0,0,.7,2.657,14.4,14.4,0,0,0,3.056,4.2,14.856,14.856,0,0,0,4.8,2.926,10.332,10.332,0,0,0,3.425.755c.071,0,.142,0,.212,0a4.115,4.115,0,0,0,1.274-.242A3.352,3.352,0,0,0,14.6,45.01a2.106,2.106,0,0,0,.629-1.538A2.2,2.2,0,0,0,14.6,41.9a3.251,3.251,0,0,0-1.344-.785,7.813,7.813,0,0,0-1.467-.262,13.337,13.337,0,0,1-1.429-.211,13.428,13.428,0,0,1-3.451-1.26,12.773,12.773,0,0,1-3.235-2.293c-.211-.226-.412-.465-.606-.7l-.005-.006c-.181-.215-.351-.418-.533-.617-.2-.221-.388-.443-.61-.711a3.023,3.023,0,0,1-.172-.3c-.044-.092-.087-.177-.13-.259-.081-.152-.158-.285-.231-.4-.144-.242-.218-.3-.277-.325A.62.62,0,0,0,.859,33.712Zm42.793.548a.49.49,0,0,0-.081.007.483.483,0,0,0-.246.12.463.463,0,0,0-.138.239,7.283,7.283,0,0,1-3.911,5.39,16.73,16.73,0,0,1-3.644,1.225c-.351.083-.728.138-1.093.192l-.017,0a4.6,4.6,0,0,0-3.156,1.331,2.657,2.657,0,0,0-.492.96,2.448,2.448,0,0,0-.059,1.033,2.121,2.121,0,0,0,1.152,1.57,3.467,3.467,0,0,0,1.609.368,10.533,10.533,0,0,0,3.866-1.079l.085-.036,0,0,.282-.12a12.688,12.688,0,0,0,4.424-2.952,9.561,9.561,0,0,0,2.274-4.2,5.043,5.043,0,0,0-.459-3.824.454.454,0,0,0-.207-.182A.478.478,0,0,0,43.652,34.261Z" transform="translate(-11367.086 5404.366) rotate(180)"/>
    </g>
    <g id="Group_246" data-name="Group 246" transform="translate(-11788.448 5660.753)">
      <g id="head_Pomp" data-name="head/Pomp" transform="translate(0)">
        <path id="_Skin-2" data-name="âœ‹ Skin" d="M83.353,23.305c-.965-5.84,2.2-7.051,0-12.6C78.458.417,65.117.86,55.327.069c-10.919-.418-21.971,1.023-32.038,5.4A51.594,51.594,0,0,0,16.355,9.14,3.024,3.024,0,0,0,15.91,13.9C7.194,26.24,12.179,42.808,5.224,55.8c-1.285,2.322-2.984,4.4-4.1,6.821C-.574,66.295-.683,71.558,3.167,74c5.422,2.91,8.447-2.852,11.111,5.5,13.3,29.122,40.054,30.763,65.448,15.579a21.977,21.977,0,0,0,6.1-4.523c3.766-4.238,3.322-10.2,3.405-15.489q.07-4.652.024-9.3C89.135,53.2,84.971,35.766,83.353,23.305Z" transform="translate(3.5 20)" fill="#d08b5b"/>
        <path id="_Ink-3" data-name="ðŸ– Ink" d="M53.376,125.372a15.916,15.916,0,0,1-4.334-.548,9.244,9.244,0,0,1-4.021-2.2A4.878,4.878,0,0,1,43.84,120.8a4.37,4.37,0,0,1-.143-2.307,1.086,1.086,0,0,1,.44-.7,1.323,1.323,0,0,1,.759-.228,1.378,1.378,0,0,1,1.178.614l.127.2a6.3,6.3,0,0,0,2.533,2.559,8.277,8.277,0,0,0,2.144.647,14.393,14.393,0,0,0,2.238.184l.277,0a49.3,49.3,0,0,0,12.078-2.007c8.358-2.17,15.636-5.556,21.048-9.792A13.683,13.683,0,0,0,91.9,102.2c.737-3.266.32-6.765-.083-10.149-.088-.737-.179-1.5-.254-2.236-.734-7.213-1.631-14.87-2.907-24.83l-.213-1.653q-.11-.849-.22-1.7v-.011c-.809-6.237-1.645-12.686-2.054-19.064a1.955,1.955,0,0,1-.36-.855l-.07-.452a3.759,3.759,0,0,1-.028-1.07c0-1.292.038-2.522.11-3.758.012-.225.023-.452.03-.672-1.218.268-2.507.5-3.94.718a126.1,126.1,0,0,1-18.716,1.4c-3.1,0-6.248-.117-9.344-.347-4.318-.322-8.871-.876-13.918-1.693-2.419-.391-4.783-.818-7.027-1.27-1.374-.275-2.748-.635-4.077-.984l-.013,0-.911-.238a13.8,13.8,0,0,0-2.457,8.572,16.988,16.988,0,0,0,.979,4.187,24.315,24.315,0,0,1,.81,2.893,8.022,8.022,0,0,1,.061,2.988,5.162,5.162,0,0,1-2.283,3.488,14.058,14.058,0,0,1-3.916,1.633l-1.183.342c-.943.275-1.573.536-1.735,1.615A18.723,18.723,0,0,0,18.2,63.2c.047.6.092,1.165.113,1.724.027.686.057,1.378.085,2.047.065,1.524.133,3.1.17,4.65.007.308.016.621.024.924v.007c.023.833.047,1.694.045,2.54a3.481,3.481,0,0,1-.443,1.91,7.16,7.16,0,0,1,.66.993.112.112,0,0,1,0,.113.127.127,0,0,1-.106.063.106.106,0,0,1-.077-.034,6.542,6.542,0,0,0-.788-.7,6.483,6.483,0,0,1-.493.535l-.015-.02a1.586,1.586,0,0,1-1.124.469,1.77,1.77,0,0,1-1.154-.449l-.193-.168a2.7,2.7,0,0,1-1.061-1.65v0c-.008-.039-.015-.079-.02-.118-.085,0-.174,0-.263,0A7.749,7.749,0,0,0,9.822,77a9.253,9.253,0,0,0-4.15,4.53,5.244,5.244,0,0,0,1.147,1,.057.057,0,0,1,.025.066.06.06,0,0,1-.056.043.065.065,0,0,1-.028-.007,5.491,5.491,0,0,1-1.22-.783,11.046,11.046,0,0,0-.623,2.408c-.4,2.733.163,6.573,3.065,8.4a7.393,7.393,0,0,0,3.917,1.15h.02a7.694,7.694,0,0,0,1.908-.275c.1-.026.21-.054.313-.082h0a4.01,4.01,0,0,1,1.044-.187,2.178,2.178,0,0,1,1.113.3l-.095.008a.541.541,0,0,0-.145.021,1.433,1.433,0,0,0,.28.01,1.3,1.3,0,0,1,1.1.649,1.336,1.336,0,0,1,.013,1.292l-.06.136-.016.034-.016.034-.036.234,0,.026v.006l-.006.037-.014.047a.224.224,0,0,1-.009.023l1.5,2.287a87.27,87.27,0,0,0,5.858,8.14,67.051,67.051,0,0,0,4.77,5.177,15.062,15.062,0,0,0,3.209,2.219c.6.342,1.22.695,1.82,1.1a1.9,1.9,0,0,1,.841,1.374,1.633,1.633,0,0,1-.491,1.336,3.7,3.7,0,0,1-2.686,1.131,5.949,5.949,0,0,1-2.807-.808,10.915,10.915,0,0,1-2.388-1.79,34.739,34.739,0,0,1-4.93-6.345,45.432,45.432,0,0,1-3.288-6.184,34.307,34.307,0,0,1-1.215-3.26,29.839,29.839,0,0,1-.852-3.386,3.681,3.681,0,0,1-1.293.7,10.216,10.216,0,0,1-2.96.5c-.114,0-.229.006-.344.006A12.1,12.1,0,0,1,6.874,97.1a10.193,10.193,0,0,1-3.766-3.077,12.021,12.021,0,0,1-2.047-4.335A14.657,14.657,0,0,1,.85,83.6a13.477,13.477,0,0,1,2.3-5.579,33.21,33.21,0,0,1-1-3.906c-.082-.382-.158-.742-.238-1.094l-.158-.687C1.245,70.1.88,68.255.605,66.519a47.076,47.076,0,0,1-.586-5.877A27.411,27.411,0,0,1,1.934,49.064a22.222,22.222,0,0,1,1.383-2.82c.139-.236.307-.473.484-.723a5.083,5.083,0,0,0,.881-1.607c.3-1.22-.86-2.492-1.884-3.615a9.7,9.7,0,0,1-1.253-1.555,5.392,5.392,0,0,1-.739-2.673,3.961,3.961,0,0,1,.949-2.565,4.03,4.03,0,0,1,.54-.532,7.129,7.129,0,0,1-.9-3.629,6.345,6.345,0,0,1,1.235-3.606,7.1,7.1,0,0,1,4.465-2.772,7.371,7.371,0,0,1,1.249-.1,8.748,8.748,0,0,1,2.333.32,85.82,85.82,0,0,1,10.453-8.3,80.544,80.544,0,0,1,11.64-6.51A93.164,93.164,0,0,1,52.022,2.1,97.988,97.988,0,0,1,82.214.514a94.68,94.68,0,0,1,24.154,5.653l.68.263.338.13A13.559,13.559,0,0,1,112.479,9.4a5.842,5.842,0,0,1,1.034,1.453,5.638,5.638,0,0,1,.533,1.658,5.254,5.254,0,0,1-.61,3.419,7.122,7.122,0,0,1-1.893,2.143A9.326,9.326,0,0,1,109,19.439a15.074,15.074,0,0,1,1.8,1.748,2.894,2.894,0,0,1,.742,1.857,2.574,2.574,0,0,1-.742,1.846,15.393,15.393,0,0,1-3.354,2.64,15.548,15.548,0,0,1-3.943,1.63,7.689,7.689,0,0,1-.522,4.648,6.552,6.552,0,0,1-1.684,2.286,8.029,8.029,0,0,1-2.375,1.4,15.708,15.708,0,0,1-5.669.9c-.542,0-1.111-.018-1.692-.054l-.125-.008-.23,2.632a3.17,3.17,0,0,1-.705,1.8,2.693,2.693,0,0,1-1.682.907c-.049.008-.1.013-.15.017a212.361,212.361,0,0,1,4.875,24.92c.575,3.818,1.133,7.861,1.808,13.111l.187,1.459c.136,1.072.283,2.166.425,3.224v0c.484,3.607.984,7.337,1.185,11.008a23.637,23.637,0,0,1-.036,3.191,18.786,18.786,0,0,1-.5,3.076,16.037,16.037,0,0,1-1.046,2.92,15.294,15.294,0,0,1-1.661,2.723,25.6,25.6,0,0,1-9.135,7.193,95.816,95.816,0,0,1-12.166,5.061c-2.1.7-4.229,1.32-6.318,1.835-2.154.531-4.333.969-6.476,1.3l-.583.09A39,39,0,0,1,53.376,125.372ZM18.6,88.443a1.6,1.6,0,0,1-.975-.334c-.43-.321-.819-.656-1.2-.98a8.814,8.814,0,0,0-3.109-1.973,13.556,13.556,0,0,0-4.025-.685,8.063,8.063,0,0,0-1.4.115.214.214,0,0,1-.036,0,.25.25,0,0,1-.227-.156.174.174,0,0,1,.056-.2,9.034,9.034,0,0,1,2.482-1.6,7.208,7.208,0,0,1,2.848-.568c.233,0,.472.01.712.031a11.877,11.877,0,0,1,3.7.929A6.847,6.847,0,0,1,20.4,85.334a1.778,1.778,0,0,1,.051,1.884A2.21,2.21,0,0,1,18.6,88.443Z" transform="translate(0 0)"/>
      </g>
      <g id="face_Smile" data-name="face/Smile" transform="translate(40.858 56.247)">
        <path id="_Ink-4" data-name="ðŸ– Ink" d="M27.008,47.953a9.523,9.523,0,0,1-3.612-.721,10.2,10.2,0,0,1-2.357-1.354,10.041,10.041,0,0,1-1.919-1.936,1.982,1.982,0,0,1-.4-1.535,2.213,2.213,0,0,1,.861-1.387,2.122,2.122,0,0,1,1.263-.44,1.832,1.832,0,0,1,.282.022,1.95,1.95,0,0,1,1.305.863l.077.106a6.738,6.738,0,0,0,2.469,2.072,5.605,5.605,0,0,0,2.449.572,5.426,5.426,0,0,0,.607-.034c2-.226,3.389-1.26,4.979-2.854.164-.167.337-.348.561-.587a.888.888,0,0,1,.466-.359.954.954,0,0,1,.3-.048,1.031,1.031,0,0,1,.845.441.942.942,0,0,1,.16.62,6.381,6.381,0,0,1-2.118,4.058,9.279,9.279,0,0,1-2.186,1.524,9.1,9.1,0,0,1-2.426.832A8.936,8.936,0,0,1,27.008,47.953Zm2.542-14.4h0a8.728,8.728,0,0,1-3.112-.627,15.718,15.718,0,0,1-3.66-2.077,1.406,1.406,0,0,1-.511-.812,1.683,1.683,0,0,1,.072-.912,2.075,2.075,0,0,1,.616-.891,1.5,1.5,0,0,1,.96-.375,1.363,1.363,0,0,1,.743.228l.248.191,0,0c1.272.983,3.193,2.469,5.037,2.469a3.007,3.007,0,0,0,2.241-.994,3.314,3.314,0,0,0,.629-2.668c-.425-2.074-2.681-3.586-3.362-4a.628.628,0,0,1-.17-.722.934.934,0,0,1,.91-.647,1.273,1.273,0,0,1,.215.019A6.789,6.789,0,0,1,32.8,22.6a5.416,5.416,0,0,1,1.606,1.48,5.882,5.882,0,0,1,1.025,3.93,6.275,6.275,0,0,1-1.709,3.835A5.656,5.656,0,0,1,29.55,33.557ZM9.3,19.5a2.041,2.041,0,0,1-1.325-.519,2.063,2.063,0,0,1-.695-1.334,15.024,15.024,0,0,1,.08-3.913c.047-.38.1-.773.13-1.2a2.342,2.342,0,0,1,.888-1.674,2.735,2.735,0,0,1,1.682-.591,2.073,2.073,0,0,1,1.272.4,1.886,1.886,0,0,1,.7,1.25,10.5,10.5,0,0,1-1.1,6.469A1.81,1.81,0,0,1,9.3,19.5Zm29.725-.887a1.785,1.785,0,0,1-1.4-.6,6.028,6.028,0,0,1-1.29-3.2,3.7,3.7,0,0,1,1.01-3.179,2.1,2.1,0,0,1,.162-.247,2.287,2.287,0,0,1,1.76-1.013,1.907,1.907,0,0,1,.534.079,2.574,2.574,0,0,1,1.719,1.5,5.3,5.3,0,0,1,.213,2.9,9.713,9.713,0,0,1-.88,2.737,1.777,1.777,0,0,1-.761.751A2.3,2.3,0,0,1,39.025,18.612ZM.329,9.29a.324.324,0,0,1-.27-.166.362.362,0,0,1-.022-.355A12.332,12.332,0,0,1,2.8,5.269,17.1,17.1,0,0,1,6.5,2.741,15.914,15.914,0,0,1,10.9,1.208l.469-.082A11.435,11.435,0,0,1,13.284.918a2.963,2.963,0,0,1,2.367.882,2.01,2.01,0,0,1,.475,1.428,1.308,1.308,0,0,1-.475.934,3.646,3.646,0,0,1-2.5.733c-.2,0-.4-.005-.6-.01h-.007c-.189,0-.4-.01-.617-.01-.2,0-.371,0-.535.014a16.9,16.9,0,0,0-3.72.634A25.275,25.275,0,0,0,.5,9.234.308.308,0,0,1,.329,9.29ZM45.588,7.4h0l-.2-.049A11.2,11.2,0,0,1,43.22,6.5l-.7-.347A19.573,19.573,0,0,0,40,5.081a29.7,29.7,0,0,0-5.733-1.266,2.342,2.342,0,0,1-1.15-.437,1.723,1.723,0,0,1-.643-.98A1.753,1.753,0,0,1,32.67.93a1.871,1.871,0,0,1,.908-.782A2.042,2.042,0,0,1,34.352,0,2.279,2.279,0,0,1,34.8.045l.359.074a25.656,25.656,0,0,1,6.192,2.011,12.519,12.519,0,0,1,2.723,1.79A7.948,7.948,0,0,1,46,6.408c.067.52,0,.648-.065.736l-.02.025-.018.024a.5.5,0,0,1-.307.2Z" transform="translate(0 0)"/>
      </g>
    </g>
    <g id="Group_247" data-name="Group 247" transform="translate(74.835 -223.077)">
      <g id="head_No_Hair_2" data-name="head/No Hair 2" transform="translate(-11895.5 5692.125)">
        <path id="_Skin-3" data-name="âœ‹ Skin" d="M45.45,0c12.2,0,35.728,14.133,35.728,14.133S92.228,60.438,90,73.663s-13.823,29.427-33.023,29.427-24.416-6.774-29.034-9.853-13.926-17.09-13.926-17.09-6.316,1.967-8.17.829C3.216,75.359,3.535,71.109,2.7,67,2.09,63.969,0,61,0,59.311c0-6.118,4.347-5.681,6.537-7.147C1.742,47.436,3,31.043,9.05,22.433S33.255,0,45.45,0Z" transform="translate(13.663 21.707)" fill="#d08b5b"/>
        <path id="_Ink-5" data-name="ðŸ– Ink" d="M59.514,114.3a37.121,37.121,0,0,1-5.4-.4,32.457,32.457,0,0,1-4.916-1.115l-.6-.185a13.371,13.371,0,0,1-1.959-.74,3.2,3.2,0,0,1-1.566-2.07,1.391,1.391,0,0,1,.055-.922,1.22,1.22,0,0,1,.6-.692l.176-.076a4.1,4.1,0,0,1,1.59-.391,3.089,3.089,0,0,1,1.1.216c.809.3,1.645.58,2.486.819a29.29,29.29,0,0,0,5.1.992c1.127.111,2.264.167,3.379.167a32.155,32.155,0,0,0,7.017-.763,30.494,30.494,0,0,0,15.977-9.093,32.256,32.256,0,0,0,7.882-25.525,29.558,29.558,0,0,0-1.01-4.623c-.139-.464-.3-.927-.462-1.376-.133-.375-.27-.763-.392-1.149a11.253,11.253,0,0,1-.369-1.944c-.019-.146-.039-.3-.059-.444l-.026-.184a31.412,31.412,0,0,1-.2-4.923c0-.4.009-.823.009-1.236,0-.608,0-1.227,0-1.826V56.8c0-1.426,0-2.9.012-4.35l.02-2.332c.006-.687.015-1.5.029-2.333a.508.508,0,0,1-.079.006.585.585,0,0,1-.586-.509c-.059-.74-.184-1.48-.305-2.2-.084-.5-.171-1.011-.235-1.522l-.042-.328a11.584,11.584,0,0,0-.807-3.329c-.533-1.181-.988-2.417-1.427-3.613-.362-.984-.735-2-1.151-2.982a34.37,34.37,0,0,0-22.4-19.809l-.21.087h-.005c-.1.04-.2.082-.3.125a59.3,59.3,0,0,0-9.722,5.445,51.507,51.507,0,0,0-4.565,3.472l-.127.109c-.655.559-1.333,1.137-1.984,1.724-.293.264-.589.537-.88.81-.178.167-.366.348-.576.551a.72.72,0,0,0-.328.472,1.145,1.145,0,0,0,.3.827.124.124,0,0,1,.047-.01.137.137,0,0,1,.123.112.133.133,0,0,1-.061.155.894.894,0,0,1-.42.113.824.824,0,0,1-.643-.335,1.3,1.3,0,0,1-.243-1.061,3.654,3.654,0,0,1,.9-1.415c.077-.089.15-.174.219-.257l.054-.066c.555-.686,1.221-1.492,1.953-2.274a49.814,49.814,0,0,1,12.429-9.538,38.777,38.777,0,0,0-5.849-.594c-.34-.008-.684-.013-1.024-.013-.777,0-1.566.022-2.344.066-1.881,1.022-3.566,2-5.15,2.979-1.418.879-2.817,1.795-4.16,2.721-.618.426-1.269.888-2.112,1.5-.1.073-.216.15-.338.23l0,0a4.463,4.463,0,0,0-.833.646l-.021.026c-.16.209-.512.895-.36,1.2a.307.307,0,0,0,.3.154h.033a.065.065,0,0,1,.065.062.067.067,0,0,1-.049.076.805.805,0,0,1-.189.025.433.433,0,0,1-.355-.161,1.191,1.191,0,0,1-.106-.926c.232-1.052,1.415-1.954,2.366-2.678.242-.184.47-.358.669-.523l.063-.053c1.975-1.678,4.056-3.314,6.186-4.862a42.215,42.215,0,0,0-18.374,7.6A50.035,50.035,0,0,0,9.5,40.273,41.632,41.632,0,0,0,5.941,52.118C5.559,55.267,5.75,59.607,8.83,62.4l.037,0c.141-.014.287-.028.43-.038l.243-.015c.306-.016.615-.025.917-.025,1.577,0,3.667.22,4.665,1.268a2.07,2.07,0,0,1,.566,1.59.145.145,0,0,1-.143.13.1.1,0,0,1-.1-.065,2.223,2.223,0,0,0-2.277-1.14,10.84,10.84,0,0,0-1.732.179l-.783.129A13.558,13.558,0,0,0,5.943,65.87,5.57,5.57,0,0,0,3.109,69.6c-.243,1.487.654,2.629,1.52,3.733l0,0,.192.246A11.59,11.59,0,0,1,6.16,75.654a6.209,6.209,0,0,1,.633,2.372A9.874,9.874,0,0,1,6.52,80.46a8.415,8.415,0,0,0-.234,2.788c.256,1.784,1.631,2.689,4.087,2.689a19.552,19.552,0,0,0,4.478-.67,1.88,1.88,0,0,1,.448-.052,2.1,2.1,0,0,1,.94.221,1.416,1.416,0,0,1,.663.665,32.154,32.154,0,0,0,6.49,9.479,30.671,30.671,0,0,0,4.388,3.677c.216.148.432.293.641.433a11.835,11.835,0,0,1,3.6,3.208.8.8,0,0,1,.06.82,1.1,1.1,0,0,1-.87.59c-.161.014-.323.02-.483.02a6.418,6.418,0,0,1-2.7-.633,15.667,15.667,0,0,1-2.429-1.465,35.975,35.975,0,0,1-4.811-4.041,34.233,34.233,0,0,1-6.475-9.1l-.226.043a19.258,19.258,0,0,1-3.484.355,11.58,11.58,0,0,1-1.908-.15,8.371,8.371,0,0,1-1.8-.5A6.863,6.863,0,0,1,5.266,87.9a7.019,7.019,0,0,1-1.385-1.464,5.574,5.574,0,0,1-.959-2.419,8.576,8.576,0,0,1,.049-2.62c.052-.332.118-.665.182-.986.273-1.373.53-2.669-.257-3.97-.3-.5-.648-.969-.984-1.426A9.8,9.8,0,0,1,.245,72.088a6.01,6.01,0,0,1-.2-2.468,7.51,7.51,0,0,1,.715-2.377A7.782,7.782,0,0,1,3.8,63.964a11.488,11.488,0,0,1,4.248-1.47,9.236,9.236,0,0,1-3.782-4.655A16.68,16.68,0,0,1,3.2,51.76a27.824,27.824,0,0,1,1.153-7.635,54.208,54.208,0,0,1,2.7-7.259A50.808,50.808,0,0,1,25.391,15.273,45.507,45.507,0,0,1,50.139,7.892l.387,0c2.188-1.311,4.536-2.588,6.979-3.8l.507-.249a52.033,52.033,0,0,1,5.5-2.339A32.894,32.894,0,0,1,69.3.013,1.069,1.069,0,0,1,69.467,0,1.213,1.213,0,0,1,70.6.912a.839.839,0,0,1-.508.986C67.166,3.34,64.1,4.586,61.132,5.79c-1.9.773-3.874,1.573-5.788,2.417a45.446,45.446,0,0,1,7.514,1.508A53.914,53.914,0,0,1,71.6,6.938l.95-.211a28.251,28.251,0,0,1,5.919-.817,10.672,10.672,0,0,1,3.534.54,1.025,1.025,0,0,1,.741.958,1.116,1.116,0,0,1-.741,1.053A20,20,0,0,1,76.99,9.471l-.022,0-.407.047c-2.138.247-3.872.517-5.456.852-1.314.277-2.635.6-3.926.967A25.608,25.608,0,0,1,69.553,12.6a43.531,43.531,0,0,1,11.028,9.017,39.862,39.862,0,0,1,7.087,12.043,17.576,17.576,0,0,1,.88,3.6,12.315,12.315,0,0,1,.078,1.95c0,.309-.008.629,0,.945a.171.171,0,0,1,.11.117,33.7,33.7,0,0,1,.748,5.888v0c.03.441.061.9.1,1.338l.076.982c.164,2.111.333,4.294.476,6.444.046.7.078,1.413.108,2.106a37.936,37.936,0,0,0,.49,5.359,17.6,17.6,0,0,0,1.351,3.8,26.825,26.825,0,0,1,1.013,2.5,33.334,33.334,0,0,1,1.63,9.945,36.408,36.408,0,0,1-1.281,10.049,36.03,36.03,0,0,1-3.986,9.306,32.586,32.586,0,0,1-6.487,7.715,34.713,34.713,0,0,1-8.579,5.442,36.087,36.087,0,0,1-9.772,2.792A37.427,37.427,0,0,1,59.514,114.3ZM17.833,75.32c-.026,0-.052,0-.079,0a4.434,4.434,0,0,1-2.36-.795l-.38-.272A17.8,17.8,0,0,0,13.058,73,13.254,13.254,0,0,0,10.4,71.957l-.31-.088-.011,0h0c-.269-.077-.547-.156-.821-.228-.253-.067-.509-.126-.762-.176a.488.488,0,0,0-.248-.086c-.162,0-.275.144-.337.428a.13.13,0,0,1,.079.145.1.1,0,0,1-.1.086H7.884a.806.806,0,0,1-.6-.4.924.924,0,0,1-.07-.819,1.623,1.623,0,0,1,1.164-.862A6.156,6.156,0,0,1,10,69.767c.155,0,.318,0,.5.011l.168.008a14.523,14.523,0,0,1,4.807,1.083A6.844,6.844,0,0,1,17.532,72.2a3.682,3.682,0,0,1,1.093,1.976,1.1,1.1,0,0,1-.224.873A.722.722,0,0,1,17.833,75.32Zm-1.777-7.853a.013.013,0,0,1-.01,0l0-.008V66.3a.012.012,0,0,1,.012-.012.013.013,0,0,1,.01,0l0,.008v1.152A.012.012,0,0,1,16.056,67.467Z" transform="translate(11.75 11.25)"/>
      </g>
      <g id="face_With_Mask_Cheers" data-name="face/With_Mask/Cheers" transform="translate(-11857.704 5728.875)">
        <path id="_Ink-6" data-name="ðŸ– Ink" d="M5.37,23.184a1.2,1.2,0,0,1-.347-.051.7.7,0,0,1-.475-.409,6.016,6.016,0,0,1,.291-4.381,8.889,8.889,0,0,1,3.2-4.018,5.556,5.556,0,0,1,2.635-.679,5.279,5.279,0,0,1,2.54.655,6.609,6.609,0,0,1,1.755,1.443,18.19,18.19,0,0,1,1.362,1.813c.179.261.364.531.553.793a1.6,1.6,0,0,1,.269,1.485,1.92,1.92,0,0,1-1.09,1.125,2.086,2.086,0,0,1-.8.165,1.832,1.832,0,0,1-.716-.142,1.925,1.925,0,0,1-1.033-1.091,5.726,5.726,0,0,0-1.969-2.613,2.1,2.1,0,0,0-2.111-.161,6.9,6.9,0,0,0-2.457,2.45,4.8,4.8,0,0,0-.806,2.862.649.649,0,0,1-.21.546.818.818,0,0,1-.456.2A1.073,1.073,0,0,1,5.37,23.184Zm36.24-3.529a1.562,1.562,0,0,1-.451-.073,1.7,1.7,0,0,1-.7-.421,1.4,1.4,0,0,1-.392-.708,2.9,2.9,0,0,0-1.018-1.695,2.032,2.032,0,0,0-1.625-.427,3.12,3.12,0,0,0-1.748,1.048,3.841,3.841,0,0,0-.367.535l-.011.018a3.906,3.906,0,0,1-.726.953.708.708,0,0,1-.449.169.671.671,0,0,1-.2-.031,2.072,2.072,0,0,1-.774-1.681,3.083,3.083,0,0,1,.567-1.562,6.158,6.158,0,0,1,3.3-2.347,4.682,4.682,0,0,1,.982-.1,5.011,5.011,0,0,1,2.882.938,5.472,5.472,0,0,1,2.238,3.425,1.822,1.822,0,0,1-.092,1.011,1.419,1.419,0,0,1-.662.736A1.573,1.573,0,0,1,41.609,19.655ZM.859,12.985a.416.416,0,0,1-.054,0,.507.507,0,0,1-.264-.128A1.92,1.92,0,0,1,0,11.273,6.839,6.839,0,0,1,.7,8.616a14.4,14.4,0,0,1,3.055-4.2,14.856,14.856,0,0,1,4.8-2.926A10.331,10.331,0,0,1,11.981.735c.071,0,.143,0,.212,0a4.115,4.115,0,0,1,1.274.242,3.352,3.352,0,0,1,1.135.705,2.106,2.106,0,0,1,.629,1.538A2.2,2.2,0,0,1,14.6,4.8a3.251,3.251,0,0,1-1.344.785,7.812,7.812,0,0,1-1.467.262,13.34,13.34,0,0,0-1.429.211,13.428,13.428,0,0,0-3.451,1.26A12.773,12.773,0,0,0,3.673,9.609c-.211.226-.412.465-.606.7l0,.006c-.181.215-.351.419-.533.617-.2.221-.388.443-.61.711a3.022,3.022,0,0,0-.172.3c-.044.092-.087.177-.13.259-.081.152-.158.285-.231.4-.144.242-.218.3-.277.325A.62.62,0,0,1,.859,12.985Zm42.793-.548a.489.489,0,0,1-.081-.007.482.482,0,0,1-.246-.12.463.463,0,0,1-.138-.239,7.283,7.283,0,0,0-3.911-5.39,16.73,16.73,0,0,0-3.644-1.225c-.351-.083-.728-.138-1.093-.192l-.017,0A4.6,4.6,0,0,1,31.365,3.93a2.657,2.657,0,0,1-.492-.96,2.448,2.448,0,0,1-.059-1.033A2.121,2.121,0,0,1,31.966.368,3.467,3.467,0,0,1,33.575,0a10.533,10.533,0,0,1,3.866,1.079l.087.037.284.121a12.688,12.688,0,0,1,4.424,2.952,9.561,9.561,0,0,1,2.274,4.2,5.043,5.043,0,0,1-.459,3.824.454.454,0,0,1-.207.182A.478.478,0,0,1,43.652,12.437Z" transform="translate(13.5 13.765)"/>
      </g>
      <g id="facial-hair_Goatee_2" data-name="facial-hair/Goatee 2" transform="translate(-11866.5 5767)">
        <path id="_Ink-7" data-name="ðŸ– Ink" d="M18.738,40.818h-.162a21.22,21.22,0,0,1-12.159-4.09,22.326,22.326,0,0,1-3.758-3.37A10.571,10.571,0,0,1,.806,30.6,16.37,16.37,0,0,1,0,25.158,47.073,47.073,0,0,1,.361,18.93a30.189,30.189,0,0,1,2.106-8.186A18.646,18.646,0,0,1,7.289,3.872,17.1,17.1,0,0,1,9.417,2.293,16.14,16.14,0,0,1,11.771,1.07,13.2,13.2,0,0,1,16.862,0a10.8,10.8,0,0,1,3.8.677A11.181,11.181,0,0,1,23.045.422,12.522,12.522,0,0,1,28.5,1.715a13.217,13.217,0,0,1,3.4,2.4,16.091,16.091,0,0,1,2.545,3.238,25.7,25.7,0,0,1,2.97,7.882,38.6,38.6,0,0,1,.688,4.4,23.3,23.3,0,0,1-.085,5.634,17.538,17.538,0,0,1-1.66,5.368c-.022.044-.054.115-.093.2a15.544,15.544,0,0,1-4.123,5.587A16.928,16.928,0,0,1,26.9,39.484a23.628,23.628,0,0,1-8.163,1.333h0ZM21.181,6.853c-.513,0-1.071.016-1.708.049-3.536.184-6.955.527-9.925,2.67a13.535,13.535,0,0,0-2.6,2.5A11.7,11.7,0,0,0,7.4,14.612a20.109,20.109,0,0,0,3.945,6.948c.54.655,1.113,1.329,1.753,2.06.082-.073.163-.148.241-.22h0l.169-.155a28.3,28.3,0,0,0,3.008-3.1,15.365,15.365,0,0,0,.959-1.349,10.97,10.97,0,0,1,1.4-1.829,3.874,3.874,0,0,1,1.266-.841,3.652,3.652,0,0,1,1.368-.26,5.81,5.81,0,0,1,4.243,2.221c.17.205.336.419.5.625a6.471,6.471,0,0,0,2.286,2.117,4.342,4.342,0,0,0,1.2.353,22.5,22.5,0,0,0,1.43-5.452,14.382,14.382,0,0,0-.055-3.775c-.639-.8-1.3-1.552-1.963-2.232C26.68,7.194,23.736,6.853,21.181,6.853Z" transform="translate(30.25 6.75)"/>
      </g>
    </g>
  </g>
</svg>
